<svg xmlns="http://www.w3.org/2000/svg" xmlns:xlink="http://www.w3.org/1999/xlink" width="600" zoomAndPan="magnify" viewBox="0 0 450 149.999998" height="200" preserveAspectRatio="xMidYMid meet" version="1.0"><defs><g/><clipPath id="b8f1c5bb47"><path d="M 0 5.402344 L 450 5.402344 L 450 144.597656 L 0 144.597656 Z M 0 5.402344 " clip-rule="nonzero"/></clipPath><clipPath id="2a88c00103"><path d="M 7.714844 5.402344 L 380.402344 5.402344 C 398.859375 5.402344 416.5625 12.734375 429.613281 25.785156 C 442.667969 38.839844 450 56.542969 450 75 C 450 93.457031 442.667969 111.160156 429.613281 124.214844 C 416.5625 137.265625 398.859375 144.597656 380.402344 144.597656 L 7.714844 144.597656 C -10.742188 144.597656 -28.445312 137.265625 -41.496094 124.214844 C -54.550781 111.160156 -61.882812 93.457031 -61.882812 75 C -61.882812 56.542969 -54.550781 38.839844 -41.496094 25.785156 C -28.445312 12.734375 -10.742188 5.402344 7.714844 5.402344 Z M 7.714844 5.402344 " clip-rule="nonzero"/></clipPath><clipPath id="dca743cd1a"><path d="M 0 0.402344 L 450 0.402344 L 450 139.597656 L 0 139.597656 Z M 0 0.402344 " clip-rule="nonzero"/></clipPath><clipPath id="1fc54ef248"><path d="M 7.714844 0.402344 L 380.402344 0.402344 C 398.859375 0.402344 416.5625 7.734375 429.613281 20.785156 C 442.667969 33.839844 450 51.542969 450 70 C 450 88.457031 442.667969 106.160156 429.613281 119.214844 C 416.5625 132.265625 398.859375 139.597656 380.402344 139.597656 L 7.714844 139.597656 C -10.742188 139.597656 -28.445312 132.265625 -41.496094 119.214844 C -54.550781 106.160156 -61.882812 88.457031 -61.882812 70 C -61.882812 51.542969 -54.550781 33.839844 -41.496094 20.785156 C -28.445312 7.734375 -10.742188 0.402344 7.714844 0.402344 Z M 7.714844 0.402344 " clip-rule="nonzero"/></clipPath><clipPath id="7e059ba8f8"><rect x="0" width="450" y="0" height="140"/></clipPath></defs><g clip-path="url(#b8f1c5bb47)"><g clip-path="url(#2a88c00103)"><g transform="matrix(1, 0, 0, 1, 0, 5)"><g clip-path="url(#7e059ba8f8)"><g clip-path="url(#dca743cd1a)"><g clip-path="url(#1fc54ef248)"><path fill="#737373" d="M -61.882812 0.402344 L 449.78125 0.402344 L 449.78125 139.597656 L -61.882812 139.597656 Z M -61.882812 0.402344 " fill-opacity="1" fill-rule="nonzero"/></g></g></g></g></g></g><g fill="#ffffff" fill-opacity="1"><g transform="translate(15.000003, 61.501375)"><g><path d="M 11.734375 -31.515625 C 12.972656 -31.515625 15.039062 -30.628906 17.9375 -28.859375 C 18.8125 -28.328125 19.457031 -27.890625 19.875 -27.546875 C 20.664062 -26.898438 21.0625 -26.140625 21.0625 -25.265625 C 21.0625 -24.691406 20.859375 -24.148438 20.453125 -23.640625 C 19.835938 -22.898438 19.117188 -22.53125 18.296875 -22.53125 C 17.597656 -22.53125 16.878906 -22.910156 16.140625 -23.671875 C 14.929688 -24.910156 13.144531 -26.382812 10.78125 -28.09375 C 10.0625 -28.625 9.703125 -29.191406 9.703125 -29.796875 C 9.703125 -30.128906 9.804688 -30.453125 10.015625 -30.765625 C 10.367188 -31.265625 10.941406 -31.515625 11.734375 -31.515625 Z M 6.765625 -22.234375 C 7.617188 -22.234375 8.863281 -21.929688 10.5 -21.328125 C 12.425781 -20.628906 14.03125 -19.8125 15.3125 -18.875 C 16.207031 -18.21875 16.65625 -17.414062 16.65625 -16.46875 C 16.65625 -15.882812 16.445312 -15.320312 16.03125 -14.78125 C 15.5 -14.070312 14.8125 -13.71875 13.96875 -13.71875 C 13.351562 -13.71875 12.65625 -14.03125 11.875 -14.65625 C 10.332031 -15.9375 8.34375 -17.265625 5.90625 -18.640625 C 5.101562 -19.109375 4.703125 -19.695312 4.703125 -20.40625 C 4.703125 -20.726562 4.789062 -21.050781 4.96875 -21.375 C 5.289062 -21.945312 5.890625 -22.234375 6.765625 -22.234375 Z M 35.90625 -23.578125 C 36.300781 -23.578125 36.691406 -23.46875 37.078125 -23.25 C 37.765625 -22.851562 38.109375 -22.269531 38.109375 -21.5 C 38.109375 -20.71875 37.460938 -19.257812 36.171875 -17.125 C 34.054688 -13.582031 31.171875 -10.335938 27.515625 -7.390625 C 23.160156 -3.859375 18.320312 -1.191406 13 0.609375 C 12.394531 0.816406 11.890625 0.921875 11.484375 0.921875 C 10.398438 0.921875 9.609375 0.429688 9.109375 -0.546875 C 8.859375 -1.023438 8.734375 -1.5 8.734375 -1.96875 C 8.734375 -2.988281 9.207031 -3.753906 10.15625 -4.265625 C 10.289062 -4.335938 11.175781 -4.660156 12.8125 -5.234375 C 17.25 -6.773438 21.382812 -9.078125 25.21875 -12.140625 C 28.914062 -15.078125 31.769531 -18.375 33.78125 -22.03125 C 34.351562 -23.0625 35.0625 -23.578125 35.90625 -23.578125 Z M 35.90625 -23.578125 "/></g></g></g><g fill="#ffffff" fill-opacity="1"><g transform="translate(56.160004, 61.501375)"><g><path d="M 9.4375 -29.453125 C 10 -29.453125 10.960938 -29.207031 12.328125 -28.71875 C 14.878906 -27.8125 16.988281 -26.742188 18.65625 -25.515625 C 19.53125 -24.867188 19.96875 -24.066406 19.96875 -23.109375 C 19.96875 -22.578125 19.800781 -22.046875 19.46875 -21.515625 C 18.945312 -20.722656 18.25 -20.328125 17.375 -20.328125 C 16.625 -20.328125 15.796875 -20.675781 14.890625 -21.375 C 12.609375 -23.175781 10.53125 -24.609375 8.65625 -25.671875 C 7.707031 -26.203125 7.234375 -26.832031 7.234375 -27.5625 C 7.234375 -28.820312 7.96875 -29.453125 9.4375 -29.453125 Z M 35.8125 -22.890625 C 36.269531 -22.890625 36.710938 -22.734375 37.140625 -22.421875 C 37.703125 -22.003906 37.984375 -21.445312 37.984375 -20.75 C 37.984375 -20.175781 37.753906 -19.554688 37.296875 -18.890625 C 34.160156 -14.179688 30.015625 -10.109375 24.859375 -6.671875 C 20.566406 -3.804688 16.132812 -1.757812 11.5625 -0.53125 C 11.082031 -0.40625 10.664062 -0.34375 10.3125 -0.34375 C 9.15625 -0.34375 8.328125 -0.878906 7.828125 -1.953125 C 7.609375 -2.429688 7.5 -2.890625 7.5 -3.328125 C 7.5 -4.316406 8 -5.0625 9 -5.5625 C 9.207031 -5.65625 10.117188 -5.941406 11.734375 -6.421875 C 17.609375 -8.140625 23.082031 -11.242188 28.15625 -15.734375 C 30.09375 -17.453125 31.925781 -19.410156 33.65625 -21.609375 C 34.3125 -22.460938 35.03125 -22.890625 35.8125 -22.890625 Z M 35.8125 -22.890625 "/></g></g></g><g fill="#ffffff" fill-opacity="1"><g transform="translate(97.320006, 61.501375)"><g><path d="M 21.015625 -20.53125 C 21.734375 -20.53125 22.410156 -20.363281 23.046875 -20.03125 C 23.992188 -19.550781 24.691406 -18.835938 25.140625 -17.890625 C 25.429688 -17.285156 25.578125 -16.640625 25.578125 -15.953125 C 25.578125 -15.191406 25.382812 -14.460938 25 -13.765625 C 24.125 -12.171875 22.773438 -11.375 20.953125 -11.375 C 19.960938 -11.375 19.054688 -11.691406 18.234375 -12.328125 C 17.023438 -13.242188 16.421875 -14.457031 16.421875 -15.96875 C 16.421875 -17.28125 16.898438 -18.390625 17.859375 -19.296875 C 18.734375 -20.117188 19.785156 -20.53125 21.015625 -20.53125 Z M 21.015625 -20.53125 "/></g></g></g><g fill="#ffffff" fill-opacity="1"><g transform="translate(138.480007, 61.501375)"><g><path d="M 33.546875 -2.8125 C 34.078125 -2.414062 34.34375 -1.8125 34.34375 -1 C 34.34375 0.332031 33.6875 1.03125 32.375 1.09375 L 17.515625 1.6875 C 17.335938 2.800781 16.492188 3.359375 14.984375 3.359375 C 13.398438 3.359375 12.546875 2.640625 12.421875 1.203125 L 11.6875 -7.359375 C 9.769531 -5.703125 7.71875 -4.28125 5.53125 -3.09375 C 4.9375 -2.78125 4.421875 -2.625 3.984375 -2.625 C 3.410156 -2.625 2.960938 -2.84375 2.640625 -3.28125 C 2.378906 -3.632812 2.25 -4.003906 2.25 -4.390625 C 2.25 -4.796875 2.394531 -5.148438 2.6875 -5.453125 C 2.832031 -5.609375 3.160156 -5.851562 3.671875 -6.1875 C 6.921875 -8.40625 9.816406 -11.195312 12.359375 -14.5625 L 4.40625 -14.109375 C 4.382812 -14.109375 4.320312 -14.109375 4.21875 -14.109375 C 2.90625 -14.109375 2.25 -14.847656 2.25 -16.328125 C 2.25 -17.660156 2.875 -18.363281 4.125 -18.4375 L 15.265625 -19.109375 C 15.898438 -20.335938 16.425781 -21.570312 16.84375 -22.8125 C 17.164062 -23.78125 17.890625 -24.265625 19.015625 -24.265625 C 19.453125 -24.265625 19.867188 -24.175781 20.265625 -24 C 21.234375 -23.5625 21.71875 -22.867188 21.71875 -21.921875 C 21.71875 -21.453125 21.472656 -20.625 20.984375 -19.4375 L 37.796875 -20.453125 L 37.984375 -20.46875 C 38.515625 -20.507812 38.972656 -20.332031 39.359375 -19.9375 C 39.753906 -19.539062 39.953125 -18.96875 39.953125 -18.21875 C 39.953125 -16.84375 39.328125 -16.113281 38.078125 -16.03125 L 18.484375 -14.90625 C 17.441406 -13.375 16.554688 -12.191406 15.828125 -11.359375 L 15.625 -11.140625 C 15.875 -11.023438 16.085938 -10.875 16.265625 -10.6875 L 30.734375 -11.625 C 30.890625 -11.644531 31.078125 -11.65625 31.296875 -11.65625 C 33.441406 -11.65625 34.515625 -10.671875 34.515625 -8.703125 C 34.515625 -8.359375 34.472656 -7.96875 34.390625 -7.53125 Z M 28.5625 -2.953125 L 28.984375 -6.5 C 28.992188 -6.625 29 -6.703125 29 -6.734375 C 29 -7.179688 28.78125 -7.390625 28.34375 -7.359375 L 28.171875 -7.34375 L 16.921875 -6.6875 L 17.25 -2.46875 Z M 29.546875 -26.390625 L 29.09375 -23.84375 C 28.894531 -22.613281 28.101562 -22 26.71875 -22 C 25.863281 -22 25.226562 -22.257812 24.8125 -22.78125 C 24.53125 -23.132812 24.390625 -23.570312 24.390625 -24.09375 C 24.390625 -24.144531 24.394531 -24.234375 24.40625 -24.359375 L 24.5625 -26.09375 L 16.625 -25.578125 L 16.796875 -23.734375 C 16.804688 -23.617188 16.8125 -23.554688 16.8125 -23.546875 C 16.84375 -22.910156 16.601562 -22.382812 16.09375 -21.96875 C 15.675781 -21.613281 15.128906 -21.4375 14.453125 -21.4375 C 13.097656 -21.4375 12.328125 -22.0625 12.140625 -23.3125 L 11.828125 -25.265625 L 5.96875 -24.890625 C 5.875 -24.890625 5.8125 -24.890625 5.78125 -24.890625 C 5.03125 -24.890625 4.460938 -25.179688 4.078125 -25.765625 C 3.878906 -26.078125 3.78125 -26.460938 3.78125 -26.921875 C 3.78125 -28.234375 4.378906 -28.929688 5.578125 -29.015625 L 11.203125 -29.390625 L 10.828125 -31.671875 C 10.816406 -31.785156 10.8125 -31.921875 10.8125 -32.078125 C 10.8125 -32.878906 11.171875 -33.488281 11.890625 -33.90625 C 12.347656 -34.144531 12.867188 -34.265625 13.453125 -34.265625 C 15.035156 -34.265625 15.894531 -33.523438 16.03125 -32.046875 L 16.265625 -29.71875 L 24.953125 -30.296875 L 25.203125 -32.9375 C 25.328125 -34.28125 26.207031 -34.953125 27.84375 -34.953125 C 28.53125 -34.953125 29.109375 -34.785156 29.578125 -34.453125 C 30.242188 -34.003906 30.578125 -33.394531 30.578125 -32.625 C 30.578125 -32.5 30.5625 -32.347656 30.53125 -32.171875 L 30.265625 -30.640625 L 35.546875 -30.984375 L 35.6875 -31.015625 C 36.3125 -31.046875 36.832031 -30.796875 37.25 -30.265625 C 37.53125 -29.910156 37.671875 -29.472656 37.671875 -28.953125 C 37.671875 -28.109375 37.382812 -27.488281 36.8125 -27.09375 C 36.550781 -26.914062 36.25 -26.816406 35.90625 -26.796875 Z M 29.546875 -26.390625 "/></g></g></g><g fill="#ffffff" fill-opacity="1"><g transform="translate(179.640008, 61.501375)"><g><path d="M 18.234375 -9.90625 L 11.5 -9.5 C 11.144531 -8.488281 10.285156 -7.984375 8.921875 -7.984375 C 7.378906 -7.984375 6.519531 -8.695312 6.34375 -10.125 L 4.671875 -23.6875 C 4.648438 -23.851562 4.640625 -23.976562 4.640625 -24.0625 C 4.640625 -24.945312 5.023438 -25.582031 5.796875 -25.96875 C 6.253906 -26.1875 6.742188 -26.296875 7.265625 -26.296875 L 7.4375 -26.296875 C 8.65625 -26.296875 9.457031 -25.890625 9.84375 -25.078125 L 18.234375 -25.765625 L 18.234375 -32.546875 C 18.234375 -33.367188 18.601562 -33.976562 19.34375 -34.375 C 19.800781 -34.613281 20.3125 -34.734375 20.875 -34.734375 C 21.757812 -34.734375 22.457031 -34.460938 22.96875 -33.921875 C 23.3125 -33.546875 23.484375 -33.085938 23.484375 -32.546875 L 23.484375 -26.1875 L 32.625 -26.921875 C 32.84375 -26.941406 33.144531 -26.953125 33.53125 -26.953125 C 36.0625 -26.953125 37.328125 -25.867188 37.328125 -23.703125 C 37.328125 -23.140625 37.25 -22.519531 37.09375 -21.84375 L 35.546875 -15.09375 C 36.210938 -14.664062 36.546875 -13.992188 36.546875 -13.078125 C 36.546875 -11.691406 35.875 -10.957031 34.53125 -10.875 L 23.484375 -10.21875 L 23.484375 1.09375 C 23.484375 1.675781 23.285156 2.160156 22.890625 2.546875 C 22.367188 3.035156 21.691406 3.28125 20.859375 3.28125 C 19.710938 3.28125 18.921875 2.882812 18.484375 2.09375 C 18.316406 1.800781 18.234375 1.46875 18.234375 1.09375 Z M 18.234375 -14.375 L 18.234375 -21.21875 L 10.453125 -20.625 L 11.21875 -13.953125 Z M 23.484375 -14.6875 L 30.390625 -15.09375 L 31.375 -21.203125 C 31.382812 -21.285156 31.390625 -21.382812 31.390625 -21.5 C 31.390625 -22 31.117188 -22.226562 30.578125 -22.1875 L 30.40625 -22.171875 L 23.484375 -21.640625 Z M 23.484375 -14.6875 "/></g></g></g><g fill="#ffffff" fill-opacity="1"><g transform="translate(220.80001, 61.501375)"><g><path d="M 8.71875 -29.0625 C 9.769531 -29.0625 11.195312 -28.160156 13 -26.359375 C 15.5625 -23.796875 16.84375 -21.796875 16.84375 -20.359375 C 16.84375 -19.378906 16.394531 -18.609375 15.5 -18.046875 C 14.882812 -17.648438 14.25 -17.453125 13.59375 -17.453125 C 12.800781 -17.453125 12.171875 -17.785156 11.703125 -18.453125 C 11.597656 -18.609375 11.429688 -18.9375 11.203125 -19.4375 C 10.222656 -21.613281 8.914062 -23.75 7.28125 -25.84375 C 6.914062 -26.300781 6.734375 -26.765625 6.734375 -27.234375 C 6.734375 -27.765625 6.929688 -28.195312 7.328125 -28.53125 C 7.742188 -28.882812 8.207031 -29.0625 8.71875 -29.0625 Z M 32.828125 -30.65625 C 33.265625 -30.65625 33.679688 -30.582031 34.078125 -30.4375 C 35.203125 -30 35.765625 -29.148438 35.765625 -27.890625 C 35.765625 -27.304688 35.601562 -26.285156 35.28125 -24.828125 C 33.164062 -15.722656 28.445312 -8.472656 21.125 -3.078125 C 19.4375 -1.847656 17.75 -0.804688 16.0625 0.046875 C 15.332031 0.398438 14.695312 0.578125 14.15625 0.578125 C 13.5 0.578125 12.992188 0.320312 12.640625 -0.1875 C 12.347656 -0.582031 12.203125 -0.984375 12.203125 -1.390625 C 12.203125 -1.984375 12.441406 -2.5 12.921875 -2.9375 C 13.085938 -3.09375 13.898438 -3.660156 15.359375 -4.640625 C 17.328125 -5.953125 19.332031 -7.722656 21.375 -9.953125 C 26.164062 -15.171875 29.097656 -21.207031 30.171875 -28.0625 C 30.441406 -29.789062 31.328125 -30.65625 32.828125 -30.65625 Z M 32.828125 -30.65625 "/></g></g></g><g fill="#ffffff" fill-opacity="1"><g transform="translate(261.960011, 61.501375)"><g><path d="M 33.71875 -20.15625 C 34.570312 -20.15625 35.25 -19.890625 35.75 -19.359375 C 36.164062 -18.921875 36.375 -18.332031 36.375 -17.59375 C 36.375 -16.21875 35.726562 -15.398438 34.4375 -15.140625 C 34.09375 -15.054688 29.476562 -14.820312 20.59375 -14.4375 C 16.5 -14.257812 12.171875 -14.046875 7.609375 -13.796875 C 7.441406 -13.785156 7.285156 -13.78125 7.140625 -13.78125 C 6.367188 -13.78125 5.722656 -14.003906 5.203125 -14.453125 C 4.671875 -14.929688 4.40625 -15.5625 4.40625 -16.34375 C 4.40625 -17.46875 4.90625 -18.238281 5.90625 -18.65625 C 6.3125 -18.820312 7.28125 -18.929688 8.8125 -18.984375 C 10.164062 -19.023438 13.59375 -19.1875 19.09375 -19.46875 C 21.425781 -19.582031 24.625 -19.726562 28.6875 -19.90625 C 30.050781 -19.96875 31.132812 -20.023438 31.9375 -20.078125 C 32.925781 -20.128906 33.519531 -20.15625 33.71875 -20.15625 Z M 33.71875 -20.15625 "/></g></g></g><g fill="#ffffff" fill-opacity="1"><g transform="translate(303.120012, 61.501375)"><g><path d="M 28.234375 -31.84375 C 28.953125 -31.84375 29.515625 -31.566406 29.921875 -31.015625 C 30.234375 -30.578125 30.390625 -30.0625 30.390625 -29.46875 C 30.390625 -28.09375 29.738281 -27.300781 28.4375 -27.09375 C 27.414062 -26.9375 25.90625 -26.769531 23.90625 -26.59375 C 23.375 -26.550781 21.140625 -26.421875 17.203125 -26.203125 C 14.796875 -26.066406 13.179688 -26 12.359375 -26 C 10.640625 -26 9.78125 -26.800781 9.78125 -28.40625 C 9.78125 -29.625 10.285156 -30.382812 11.296875 -30.6875 C 11.554688 -30.75 12.148438 -30.785156 13.078125 -30.796875 C 16.859375 -30.859375 21.273438 -31.140625 26.328125 -31.640625 C 26.503906 -31.671875 26.941406 -31.726562 27.640625 -31.8125 C 27.898438 -31.832031 28.097656 -31.84375 28.234375 -31.84375 Z M 31.5 -22.4375 C 33.0625 -22.4375 34.179688 -21.890625 34.859375 -20.796875 C 35.242188 -20.171875 35.4375 -19.429688 35.4375 -18.578125 C 35.4375 -17.347656 35.019531 -15.753906 34.1875 -13.796875 C 32.351562 -9.484375 29.296875 -5.757812 25.015625 -2.625 C 22.742188 -0.96875 20.375 0.316406 17.90625 1.234375 C 17.289062 1.460938 16.765625 1.578125 16.328125 1.578125 C 15.722656 1.578125 15.257812 1.332031 14.9375 0.84375 C 14.65625 0.445312 14.515625 0.0195312 14.515625 -0.4375 C 14.515625 -1.050781 14.800781 -1.566406 15.375 -1.984375 C 15.5 -2.066406 16.101562 -2.390625 17.1875 -2.953125 C 19.875 -4.347656 22.421875 -6.320312 24.828125 -8.875 C 26.828125 -11.007812 28.304688 -13.195312 29.265625 -15.4375 C 29.585938 -16.195312 29.75 -16.722656 29.75 -17.015625 C 29.75 -17.347656 29.503906 -17.515625 29.015625 -17.515625 C 28.796875 -17.515625 26.335938 -17.363281 21.640625 -17.0625 L 12.859375 -16.453125 C 9.503906 -16.203125 7.773438 -16.078125 7.671875 -16.078125 C 6.835938 -16.078125 6.195312 -16.382812 5.75 -17 C 5.46875 -17.394531 5.328125 -17.875 5.328125 -18.4375 C 5.328125 -19.894531 6.023438 -20.722656 7.421875 -20.921875 C 8.296875 -21.046875 14.921875 -21.46875 27.296875 -22.1875 C 28.273438 -22.238281 29.035156 -22.285156 29.578125 -22.328125 C 30.648438 -22.398438 31.289062 -22.4375 31.5 -22.4375 Z M 31.5 -22.4375 "/></g></g></g><g fill="#ffffff" fill-opacity="1"><g transform="translate(344.280014, 61.501375)"><g><path d="M 9.4375 -29.453125 C 10 -29.453125 10.960938 -29.207031 12.328125 -28.71875 C 14.878906 -27.8125 16.988281 -26.742188 18.65625 -25.515625 C 19.53125 -24.867188 19.96875 -24.066406 19.96875 -23.109375 C 19.96875 -22.578125 19.800781 -22.046875 19.46875 -21.515625 C 18.945312 -20.722656 18.25 -20.328125 17.375 -20.328125 C 16.625 -20.328125 15.796875 -20.675781 14.890625 -21.375 C 12.609375 -23.175781 10.53125 -24.609375 8.65625 -25.671875 C 7.707031 -26.203125 7.234375 -26.832031 7.234375 -27.5625 C 7.234375 -28.820312 7.96875 -29.453125 9.4375 -29.453125 Z M 35.8125 -22.890625 C 36.269531 -22.890625 36.710938 -22.734375 37.140625 -22.421875 C 37.703125 -22.003906 37.984375 -21.445312 37.984375 -20.75 C 37.984375 -20.175781 37.753906 -19.554688 37.296875 -18.890625 C 34.160156 -14.179688 30.015625 -10.109375 24.859375 -6.671875 C 20.566406 -3.804688 16.132812 -1.757812 11.5625 -0.53125 C 11.082031 -0.40625 10.664062 -0.34375 10.3125 -0.34375 C 9.15625 -0.34375 8.328125 -0.878906 7.828125 -1.953125 C 7.609375 -2.429688 7.5 -2.890625 7.5 -3.328125 C 7.5 -4.316406 8 -5.0625 9 -5.5625 C 9.207031 -5.65625 10.117188 -5.941406 11.734375 -6.421875 C 17.609375 -8.140625 23.082031 -11.242188 28.15625 -15.734375 C 30.09375 -17.453125 31.925781 -19.410156 33.65625 -21.609375 C 34.3125 -22.460938 35.03125 -22.890625 35.8125 -22.890625 Z M 35.8125 -22.890625 "/></g></g></g><g fill="#ffffff" fill-opacity="1"><g transform="translate(385.440015, 61.501375)"><g><path d="M 14.421875 -27.1875 C 15.492188 -26.082031 16.03125 -25.195312 16.03125 -24.53125 C 16.03125 -23.832031 15.71875 -23.316406 15.09375 -22.984375 C 14.738281 -22.796875 14.304688 -22.703125 13.796875 -22.703125 C 12.773438 -22.703125 12.097656 -23.226562 11.765625 -24.28125 C 11.492188 -25.144531 11.15625 -26.039062 10.75 -26.96875 L 8.515625 -26.828125 C 6.347656 -23.941406 4.753906 -22.5 3.734375 -22.5 C 3.328125 -22.5 2.914062 -22.671875 2.5 -23.015625 C 2.15625 -23.316406 1.984375 -23.675781 1.984375 -24.09375 C 1.984375 -24.570312 2.3125 -25.21875 2.96875 -26.03125 C 4.78125 -28.238281 6.144531 -30.679688 7.0625 -33.359375 C 7.394531 -34.378906 8.078125 -34.890625 9.109375 -34.890625 C 9.585938 -34.890625 10.050781 -34.769531 10.5 -34.53125 C 11.25 -34.132812 11.625 -33.539062 11.625 -32.75 C 11.625 -32.207031 11.398438 -31.507812 10.953125 -30.65625 L 18.21875 -31.21875 C 18.269531 -31.21875 18.316406 -31.21875 18.359375 -31.21875 C 18.796875 -31.21875 19.1875 -31.097656 19.53125 -30.859375 C 19.976562 -30.554688 20.203125 -30.085938 20.203125 -29.453125 C 20.203125 -28.703125 19.941406 -28.140625 19.421875 -27.765625 C 19.160156 -27.585938 18.859375 -27.484375 18.515625 -27.453125 Z M 32.875 -28.171875 C 32.46875 -26.929688 31.6875 -25.65625 30.53125 -24.34375 C 29.875 -23.59375 29.269531 -23.21875 28.71875 -23.21875 C 28.425781 -23.21875 28.144531 -23.300781 27.875 -23.46875 C 27.4375 -23.738281 27.21875 -24.132812 27.21875 -24.65625 C 27.21875 -25.007812 27.347656 -25.46875 27.609375 -26.03125 C 27.796875 -26.4375 28.019531 -27.035156 28.28125 -27.828125 L 24.75 -27.578125 C 23.09375 -24.867188 21.796875 -23.515625 20.859375 -23.515625 C 20.566406 -23.515625 20.265625 -23.617188 19.953125 -23.828125 C 19.460938 -24.128906 19.21875 -24.546875 19.21875 -25.078125 C 19.21875 -25.460938 19.445312 -26.046875 19.90625 -26.828125 C 21.070312 -28.742188 22.023438 -31.101562 22.765625 -33.90625 C 23.035156 -35 23.722656 -35.546875 24.828125 -35.546875 C 25.265625 -35.546875 25.671875 -35.445312 26.046875 -35.25 C 26.828125 -34.863281 27.21875 -34.253906 27.21875 -33.421875 C 27.21875 -32.910156 27.066406 -32.253906 26.765625 -31.453125 L 36.796875 -32.296875 C 36.859375 -32.296875 36.9375 -32.296875 37.03125 -32.296875 C 38.238281 -32.234375 38.84375 -31.613281 38.84375 -30.4375 C 38.84375 -29.207031 38.28125 -28.554688 37.15625 -28.484375 Z M 9.234375 -8.609375 L 9.234375 -2.609375 C 11.097656 -3.085938 12.9375 -3.6875 14.75 -4.40625 C 14.457031 -4.96875 14.207031 -5.40625 14 -5.71875 C 13.769531 -6.09375 13.65625 -6.46875 13.65625 -6.84375 C 13.65625 -7.320312 13.8125 -7.691406 14.125 -7.953125 C 14.457031 -8.210938 14.804688 -8.34375 15.171875 -8.34375 C 16.222656 -8.34375 17.613281 -7.128906 19.34375 -4.703125 C 20.414062 -3.179688 20.953125 -1.945312 20.953125 -1 C 20.953125 -0.28125 20.640625 0.304688 20.015625 0.765625 C 19.546875 1.085938 19.039062 1.25 18.5 1.25 C 17.71875 1.25 17.132812 0.945312 16.75 0.34375 C 16.65625 0.207031 16.515625 -0.109375 16.328125 -0.609375 C 16.242188 -0.847656 16.175781 -1.039062 16.125 -1.1875 C 14.550781 -0.21875 12.457031 0.789062 9.84375 1.84375 C 8.78125 2.28125 7.988281 2.5 7.46875 2.5 C 6.78125 2.5 6.113281 2.160156 5.46875 1.484375 C 4.976562 0.960938 4.734375 0.175781 4.734375 -0.875 L 4.734375 -18.296875 C 4.234375 -18.578125 3.984375 -19.039062 3.984375 -19.6875 C 3.984375 -20.6875 4.539062 -21.25 5.65625 -21.375 L 16.40625 -22.640625 C 16.664062 -22.671875 16.882812 -22.6875 17.0625 -22.6875 C 19.101562 -22.6875 20.125 -21.59375 20.125 -19.40625 C 20.125 -19.363281 20.113281 -19.253906 20.09375 -19.078125 L 19.640625 -10.34375 C 19.578125 -9.007812 18.84375 -8.34375 17.4375 -8.34375 C 16.394531 -8.34375 15.726562 -8.691406 15.4375 -9.390625 Z M 9.234375 -11.828125 L 15.421875 -12.6875 L 15.53125 -14.640625 L 9.234375 -13.859375 Z M 9.234375 -18.515625 L 9.234375 -16.796875 L 15.671875 -17.5625 L 15.6875 -18.234375 C 15.695312 -18.296875 15.703125 -18.359375 15.703125 -18.421875 C 15.734375 -18.953125 15.515625 -19.21875 15.046875 -19.21875 C 14.984375 -19.21875 14.890625 -19.210938 14.765625 -19.203125 Z M 27.90625 -18.328125 L 27.90625 1.484375 C 27.90625 2.078125 27.71875 2.5625 27.34375 2.9375 C 26.882812 3.351562 26.273438 3.5625 25.515625 3.5625 C 24.421875 3.5625 23.675781 3.175781 23.28125 2.40625 C 23.144531 2.144531 23.078125 1.835938 23.078125 1.484375 L 23.078125 -17.984375 C 22.378906 -18.316406 22.03125 -18.976562 22.03125 -19.96875 C 22.03125 -21.226562 22.671875 -21.921875 23.953125 -22.046875 L 34.171875 -23.09375 C 34.390625 -23.125 34.632812 -23.140625 34.90625 -23.140625 C 36.21875 -23.140625 37.140625 -22.6875 37.671875 -21.78125 C 38.054688 -21.113281 38.25 -19.882812 38.25 -18.09375 C 38.25 -14.113281 38.023438 -10.753906 37.578125 -8.015625 C 37.117188 -5.265625 35.851562 -3.890625 33.78125 -3.890625 C 32.625 -3.890625 31.222656 -4.445312 29.578125 -5.5625 C 28.679688 -6.144531 28.234375 -6.789062 28.234375 -7.5 C 28.234375 -8.445312 28.660156 -8.921875 29.515625 -8.921875 C 29.671875 -8.921875 29.867188 -8.882812 30.109375 -8.8125 C 30.847656 -8.625 31.441406 -8.53125 31.890625 -8.53125 C 32.410156 -8.53125 32.722656 -8.84375 32.828125 -9.46875 C 32.929688 -9.945312 33.039062 -10.988281 33.15625 -12.59375 C 33.320312 -14.664062 33.40625 -16.359375 33.40625 -17.671875 C 33.40625 -18.441406 33.125 -18.828125 32.5625 -18.828125 C 32.5 -18.828125 32.429688 -18.828125 32.359375 -18.828125 Z M 27.90625 -18.328125 "/></g></g></g><g fill="#ffffff" fill-opacity="1"><g transform="translate(15.000003, 120.001372)"><g><path d="M 14.765625 -11.28125 L 14.765625 -9.265625 L 19.890625 -9.65625 C 20.316406 -9.6875 20.671875 -9.617188 20.953125 -9.453125 C 21.453125 -9.171875 21.703125 -8.691406 21.703125 -8.015625 C 21.703125 -6.921875 21.1875 -6.332031 20.15625 -6.25 L 14.765625 -5.84375 L 14.765625 -3.9375 L 16.53125 -4.203125 C 17.90625 -4.410156 18.890625 -4.566406 19.484375 -4.671875 C 20.273438 -4.828125 20.78125 -4.90625 21 -4.90625 C 21.78125 -4.90625 22.238281 -4.445312 22.375 -3.53125 C 24.726562 -8.050781 26.375 -13.492188 27.3125 -19.859375 L 24.890625 -19.5625 C 24.734375 -19.550781 24.632812 -19.546875 24.59375 -19.546875 C 24.019531 -19.546875 23.546875 -19.742188 23.171875 -20.140625 C 22.804688 -20.535156 22.625 -21.066406 22.625 -21.734375 C 22.625 -23.160156 23.238281 -23.941406 24.46875 -24.078125 L 27.84375 -24.40625 C 28.082031 -27.332031 28.226562 -29.867188 28.28125 -32.015625 C 28.332031 -33.515625 29.113281 -34.265625 30.625 -34.265625 C 31.332031 -34.265625 31.90625 -34.082031 32.34375 -33.71875 C 32.78125 -33.34375 33 -32.859375 33 -32.265625 C 33 -31.015625 32.820312 -28.546875 32.46875 -24.859375 L 35.03125 -25.125 C 35.34375 -25.144531 35.585938 -25.15625 35.765625 -25.15625 C 38.117188 -25.15625 39.296875 -23.863281 39.296875 -21.28125 C 39.296875 -17.269531 38.992188 -12.738281 38.390625 -7.6875 C 37.867188 -3.46875 37.304688 -0.691406 36.703125 0.640625 C 36.003906 2.140625 34.925781 2.890625 33.46875 2.890625 C 32.59375 2.890625 31.429688 2.535156 29.984375 1.828125 C 28.003906 0.835938 27.015625 -0.078125 27.015625 -0.921875 C 27.015625 -1.171875 27.082031 -1.425781 27.21875 -1.6875 C 27.457031 -2.164062 27.863281 -2.40625 28.4375 -2.40625 C 28.738281 -2.40625 29.109375 -2.304688 29.546875 -2.109375 C 30.328125 -1.765625 31 -1.59375 31.5625 -1.59375 C 32.207031 -1.59375 32.648438 -2.007812 32.890625 -2.84375 C 33.222656 -4.0625 33.585938 -6.0625 33.984375 -8.84375 C 34.191406 -10.375 34.429688 -12.769531 34.703125 -16.03125 C 34.835938 -17.757812 34.90625 -18.851562 34.90625 -19.3125 C 34.90625 -20.132812 34.554688 -20.546875 33.859375 -20.546875 C 33.722656 -20.546875 33.617188 -20.539062 33.546875 -20.53125 L 31.90625 -20.359375 C 31.050781 -14.210938 29.539062 -8.984375 27.375 -4.671875 C 26.21875 -2.335938 24.914062 -0.328125 23.46875 1.359375 C 22.945312 1.953125 22.40625 2.25 21.84375 2.25 C 21.414062 2.25 21.019531 2.082031 20.65625 1.75 C 20.320312 1.425781 20.15625 1.046875 20.15625 0.609375 C 20.15625 0.203125 20.5 -0.507812 21.1875 -1.53125 C 21.289062 -1.695312 21.410156 -1.890625 21.546875 -2.109375 C 21.097656 -1.878906 19.894531 -1.523438 17.9375 -1.046875 C 14.1875 -0.140625 10.085938 0.617188 5.640625 1.234375 C 4.691406 1.359375 4.125 1.421875 3.9375 1.421875 C 2.695312 1.421875 2.078125 0.726562 2.078125 -0.65625 C 2.078125 -1.445312 2.367188 -1.992188 2.953125 -2.296875 C 3.140625 -2.410156 3.6875 -2.503906 4.59375 -2.578125 C 5.875 -2.691406 7.804688 -2.925781 10.390625 -3.28125 L 10.390625 -5.5 L 5.53125 -5.125 C 4.300781 -5.03125 3.6875 -5.59375 3.6875 -6.8125 C 3.6875 -7.90625 4.222656 -8.492188 5.296875 -8.578125 L 10.390625 -8.9375 L 10.390625 -11 L 7.796875 -10.828125 C 7.503906 -10.160156 6.898438 -9.828125 5.984375 -9.828125 C 4.796875 -9.828125 4.140625 -10.375 4.015625 -11.46875 L 2.9375 -21.078125 C 2.914062 -21.171875 2.90625 -21.273438 2.90625 -21.390625 C 2.90625 -22.441406 3.597656 -22.96875 4.984375 -22.96875 C 5.671875 -22.96875 6.195312 -22.769531 6.5625 -22.375 L 10.390625 -22.6875 L 10.390625 -24.53125 L 3.171875 -23.96875 C 3.109375 -23.96875 3.03125 -23.96875 2.9375 -23.96875 C 1.84375 -23.96875 1.296875 -24.523438 1.296875 -25.640625 C 1.296875 -26.773438 1.84375 -27.378906 2.9375 -27.453125 L 10.390625 -28.0625 L 10.390625 -29.578125 C 7.796875 -29.148438 6.238281 -28.9375 5.71875 -28.9375 C 4.957031 -28.9375 4.445312 -29.238281 4.1875 -29.84375 C 4.070312 -30.082031 4.015625 -30.300781 4.015625 -30.5 C 4.015625 -31.15625 4.359375 -31.601562 5.046875 -31.84375 C 5.191406 -31.90625 5.601562 -31.988281 6.28125 -32.09375 C 9.257812 -32.5625 12.414062 -33.34375 15.75 -34.4375 C 16.625 -34.71875 17.238281 -34.859375 17.59375 -34.859375 C 18.414062 -34.859375 19.023438 -34.507812 19.421875 -33.8125 C 19.585938 -33.53125 19.671875 -33.210938 19.671875 -32.859375 C 19.671875 -31.960938 19.175781 -31.378906 18.1875 -31.109375 C 17.40625 -30.890625 16.265625 -30.644531 14.765625 -30.375 L 14.765625 -28.40625 L 21.53125 -28.9375 C 21.789062 -28.96875 22.054688 -28.941406 22.328125 -28.859375 C 23.085938 -28.648438 23.46875 -28.113281 23.46875 -27.25 C 23.46875 -26.070312 22.90625 -25.445312 21.78125 -25.375 L 14.765625 -24.828125 L 14.765625 -23.015625 L 19.21875 -23.359375 C 19.457031 -23.367188 19.597656 -23.375 19.640625 -23.375 C 21.421875 -23.375 22.3125 -22.519531 22.3125 -20.8125 C 22.3125 -20.625 22.304688 -20.460938 22.296875 -20.328125 L 21.53125 -12.265625 C 21.4375 -11.203125 20.757812 -10.671875 19.5 -10.671875 C 18.644531 -10.671875 18.070312 -10.941406 17.78125 -11.484375 Z M 14.5625 -18.484375 L 18 -18.703125 L 18.046875 -19.5625 C 18.046875 -20.113281 17.789062 -20.367188 17.28125 -20.328125 L 14.5625 -20.140625 Z M 10.578125 -18.21875 L 10.578125 -19.859375 L 7.15625 -19.609375 L 7.296875 -18 Z M 14.5625 -15.921875 L 14.5625 -14.1875 L 17.734375 -14.421875 L 17.84375 -16.09375 Z M 10.578125 -15.671875 L 7.53125 -15.484375 L 7.6875 -13.71875 L 10.578125 -13.921875 Z M 10.578125 -15.671875 "/></g></g></g><g fill="#ffffff" fill-opacity="1"><g transform="translate(56.160004, 120.001372)"><g><path d="M 33.25 -0.3125 L 7.59375 1.359375 C 7.507812 1.359375 7.34375 1.359375 7.09375 1.359375 C 4.84375 1.359375 3.640625 0.191406 3.484375 -2.140625 L 2.484375 -16.921875 C 2.472656 -17.023438 2.46875 -17.117188 2.46875 -17.203125 C 2.46875 -17.972656 2.78125 -18.566406 3.40625 -18.984375 C 3.851562 -19.285156 4.414062 -19.4375 5.09375 -19.4375 C 6.625 -19.4375 7.425781 -18.769531 7.5 -17.4375 L 8.390625 -4.203125 C 8.429688 -3.628906 8.738281 -3.363281 9.3125 -3.40625 L 33.46875 -4.84375 L 34.140625 -19.109375 C 34.203125 -20.453125 34.9375 -21.125 36.34375 -21.125 C 37.0625 -21.125 37.671875 -20.988281 38.171875 -20.71875 C 38.929688 -20.289062 39.285156 -19.644531 39.234375 -18.78125 L 39.234375 -18.640625 L 38.203125 0.28125 C 38.140625 1.632812 37.289062 2.3125 35.65625 2.3125 C 34.863281 2.3125 34.25 2.144531 33.8125 1.8125 C 33.363281 1.46875 33.160156 1.019531 33.203125 0.46875 L 33.21875 0.28125 Z M 18.4375 -23.84375 L 18.4375 -27.484375 L 7.734375 -26.71875 L 7.5625 -26.703125 C 6.863281 -26.660156 6.335938 -26.929688 5.984375 -27.515625 C 5.742188 -27.941406 5.625 -28.453125 5.625 -29.046875 C 5.625 -30.390625 6.222656 -31.113281 7.421875 -31.21875 L 32.796875 -33.0625 C 32.847656 -33.0625 32.910156 -33.0625 32.984375 -33.0625 C 34.316406 -33.0625 34.984375 -32.257812 34.984375 -30.65625 C 34.984375 -29.320312 34.367188 -28.613281 33.140625 -28.53125 L 23.09375 -27.8125 L 23.09375 -24.234375 L 27.625 -24.609375 C 27.757812 -24.617188 27.953125 -24.625 28.203125 -24.625 C 30.359375 -24.625 31.390625 -23.660156 31.296875 -21.734375 L 31.28125 -21.515625 L 30.734375 -8.140625 C 30.640625 -6.828125 29.90625 -6.171875 28.53125 -6.171875 C 27.269531 -6.171875 26.566406 -6.664062 26.421875 -7.65625 L 15.359375 -7 C 15.054688 -6.1875 14.332031 -5.78125 13.1875 -5.78125 C 11.90625 -5.78125 11.210938 -6.363281 11.109375 -7.53125 L 9.90625 -22.359375 C 9.851562 -22.953125 10.113281 -23.4375 10.6875 -23.8125 C 11.113281 -24.09375 11.644531 -24.234375 12.28125 -24.234375 C 13.144531 -24.234375 13.773438 -23.988281 14.171875 -23.5 Z M 22.8125 -17.65625 L 26.703125 -17.9375 L 26.75 -19.796875 C 26.726562 -20.367188 26.472656 -20.632812 25.984375 -20.59375 L 25.859375 -20.59375 L 22.8125 -20.34375 Z M 18.6875 -17.375 L 18.6875 -20 L 14.71875 -19.6875 L 14.890625 -17.109375 Z M 22.8125 -14.375 L 22.8125 -11.28125 L 26.515625 -11.5 L 26.59375 -14.625 Z M 18.6875 -14.109375 L 15.078125 -13.859375 L 15.265625 -10.8125 L 18.6875 -11.03125 Z M 18.6875 -14.109375 "/></g></g></g><g fill="#ffffff" fill-opacity="1"><g transform="translate(97.320006, 120.001372)"><g><path d="M 15.5 -34.1875 C 15.914062 -34.1875 16.28125 -34.035156 16.59375 -33.734375 C 16.894531 -33.367188 17.046875 -33 17.046875 -32.625 C 17.046875 -32.238281 16.867188 -31.820312 16.515625 -31.375 C 14.742188 -29.320312 13.296875 -27.054688 12.171875 -24.578125 C 11.054688 -22.109375 10.5 -19.25 10.5 -16 C 10.5 -12.726562 11.035156 -9.878906 12.109375 -7.453125 C 13.191406 -5.023438 14.660156 -2.738281 16.515625 -0.59375 C 16.910156 -0.113281 17.109375 0.320312 17.109375 0.71875 C 17.109375 1.101562 16.9375 1.46875 16.59375 1.8125 C 16.28125 2.125 15.914062 2.28125 15.5 2.28125 C 15.082031 2.28125 14.59375 2.09375 14.03125 1.71875 C 12.582031 0.65625 11.226562 -0.789062 9.96875 -2.625 C 8.71875 -4.457031 7.71875 -6.519531 6.96875 -8.8125 C 6.21875 -11.113281 5.84375 -13.507812 5.84375 -16 C 5.84375 -18.425781 6.222656 -20.785156 6.984375 -23.078125 C 7.753906 -25.378906 8.757812 -27.445312 10 -29.28125 C 11.238281 -31.125 12.582031 -32.578125 14.03125 -33.640625 C 14.507812 -34.003906 15 -34.1875 15.5 -34.1875 Z M 15.5 -34.1875 "/></g></g></g><g fill="#ffffff" fill-opacity="1"><g transform="translate(116.126492, 120.001372)"><g><path d="M 7.21875 -31.296875 L 23.046875 -31.296875 C 24.171875 -31.296875 25.019531 -31.019531 25.59375 -30.46875 C 26.164062 -29.925781 26.453125 -29.21875 26.453125 -28.34375 C 26.453125 -27.875 26.382812 -27.445312 26.25 -27.0625 C 26.113281 -26.6875 25.914062 -26.160156 25.65625 -25.484375 C 24.769531 -23.078125 23.847656 -20.515625 22.890625 -17.796875 C 21.941406 -15.085938 21.023438 -12.394531 20.140625 -9.71875 C 19.265625 -7.050781 18.457031 -4.613281 17.71875 -2.40625 C 17.445312 -1.53125 17.078125 -0.929688 16.609375 -0.609375 C 16.148438 -0.285156 15.648438 -0.125 15.109375 -0.125 C 14.835938 -0.125 14.546875 -0.164062 14.234375 -0.25 C 13.703125 -0.394531 13.265625 -0.632812 12.921875 -0.96875 C 12.585938 -1.3125 12.421875 -1.773438 12.421875 -2.359375 C 12.421875 -2.742188 12.503906 -3.1875 12.671875 -3.6875 C 13.304688 -5.476562 13.960938 -7.367188 14.640625 -9.359375 C 15.328125 -11.347656 16.007812 -13.320312 16.6875 -15.28125 C 17.375 -17.25 18.023438 -19.109375 18.640625 -20.859375 C 19.253906 -22.609375 19.816406 -24.148438 20.328125 -25.484375 C 20.410156 -25.742188 20.453125 -25.945312 20.453125 -26.09375 C 20.453125 -26.332031 20.203125 -26.453125 19.703125 -26.453125 L 9.203125 -26.453125 C 8.703125 -26.453125 8.453125 -26.203125 8.453125 -25.703125 L 8.453125 -21.25 C 8.453125 -20.46875 8.15625 -19.914062 7.5625 -19.59375 C 6.976562 -19.269531 6.429688 -19.109375 5.921875 -19.109375 C 5.441406 -19.109375 4.910156 -19.269531 4.328125 -19.59375 C 3.742188 -19.914062 3.453125 -20.46875 3.453125 -21.25 L 3.453125 -27.375 C 3.453125 -29.988281 4.707031 -31.296875 7.21875 -31.296875 Z M 7.21875 -31.296875 "/></g></g></g><g fill="#ffffff" fill-opacity="1"><g transform="translate(145.022822, 120.001372)"><g><path d="M 2.765625 -16.125 C 2.765625 -19.425781 3.285156 -22.265625 4.328125 -24.640625 C 5.367188 -27.023438 6.796875 -28.847656 8.609375 -30.109375 C 10.429688 -31.378906 12.519531 -32.015625 14.875 -32.015625 C 17.21875 -32.015625 19.296875 -31.378906 21.109375 -30.109375 C 22.929688 -28.847656 24.363281 -27.023438 25.40625 -24.640625 C 26.445312 -22.265625 26.96875 -19.425781 26.96875 -16.125 C 26.96875 -12.425781 26.410156 -9.378906 25.296875 -6.984375 C 24.191406 -4.597656 22.722656 -2.820312 20.890625 -1.65625 C 19.066406 -0.5 17.0625 0.078125 14.875 0.078125 C 12.6875 0.078125 10.675781 -0.5 8.84375 -1.65625 C 7.007812 -2.820312 5.535156 -4.597656 4.421875 -6.984375 C 3.316406 -9.378906 2.765625 -12.425781 2.765625 -16.125 Z M 21.203125 -16 C 21.203125 -19.550781 20.613281 -22.3125 19.4375 -24.28125 C 18.257812 -26.257812 16.738281 -27.25 14.875 -27.25 C 13.019531 -27.25 11.5 -26.257812 10.3125 -24.28125 C 9.125 -22.3125 8.53125 -19.550781 8.53125 -16 C 8.53125 -13.394531 8.832031 -11.265625 9.4375 -9.609375 C 10.039062 -7.960938 10.816406 -6.742188 11.765625 -5.953125 C 12.710938 -5.171875 13.75 -4.78125 14.875 -4.78125 C 15.988281 -4.78125 17.019531 -5.171875 17.96875 -5.953125 C 18.925781 -6.742188 19.703125 -7.960938 20.296875 -9.609375 C 20.898438 -11.265625 21.203125 -13.394531 21.203125 -16 Z M 21.203125 -16 "/></g></g></g><g fill="#ffffff" fill-opacity="1"><g transform="translate(173.919152, 120.001372)"><g><path d="M 33.3125 -29.9375 L 11.375 -0.171875 C 11.039062 0.285156 10.597656 0.515625 10.046875 0.515625 C 9.722656 0.515625 9.394531 0.410156 9.0625 0.203125 C 8.582031 -0.109375 8.34375 -0.519531 8.34375 -1.03125 C 8.34375 -1.351562 8.460938 -1.664062 8.703125 -1.96875 L 30.625 -31.75 C 30.945312 -32.207031 31.382812 -32.4375 31.9375 -32.4375 C 32.332031 -32.4375 32.695312 -32.300781 33.03125 -32.03125 C 33.4375 -31.726562 33.640625 -31.351562 33.640625 -30.90625 C 33.640625 -30.5625 33.53125 -30.238281 33.3125 -29.9375 Z M 10.609375 -32.046875 C 13.078125 -32.046875 15.023438 -31.078125 16.453125 -29.140625 C 17.628906 -27.515625 18.21875 -25.484375 18.21875 -23.046875 C 18.21875 -20.890625 17.726562 -19.039062 16.75 -17.5 C 15.34375 -15.269531 13.273438 -14.15625 10.546875 -14.15625 C 8.191406 -14.15625 6.3125 -15.03125 4.90625 -16.78125 C 3.59375 -18.40625 2.9375 -20.492188 2.9375 -23.046875 C 2.9375 -26.054688 3.796875 -28.398438 5.515625 -30.078125 C 6.867188 -31.390625 8.566406 -32.046875 10.609375 -32.046875 Z M 10.5625 -28.234375 C 9.5 -28.234375 8.671875 -27.75 8.078125 -26.78125 C 7.535156 -25.882812 7.265625 -24.632812 7.265625 -23.03125 C 7.265625 -21.8125 7.441406 -20.78125 7.796875 -19.9375 C 8.359375 -18.59375 9.296875 -17.921875 10.609375 -17.921875 C 11.523438 -17.921875 12.269531 -18.289062 12.84375 -19.03125 C 13.539062 -19.945312 13.890625 -21.296875 13.890625 -23.078125 C 13.890625 -24.628906 13.609375 -25.878906 13.046875 -26.828125 C 12.484375 -27.765625 11.65625 -28.234375 10.5625 -28.234375 Z M 31.4375 -17.765625 C 33.914062 -17.765625 35.863281 -16.789062 37.28125 -14.84375 C 38.457031 -13.21875 39.046875 -11.1875 39.046875 -8.75 C 39.046875 -6.59375 38.5625 -4.75 37.59375 -3.21875 C 36.1875 -0.988281 34.113281 0.125 31.375 0.125 C 29.039062 0.125 27.160156 -0.742188 25.734375 -2.484375 C 24.421875 -4.117188 23.765625 -6.21875 23.765625 -8.78125 C 23.765625 -11.769531 24.628906 -14.109375 26.359375 -15.796875 C 27.710938 -17.109375 29.40625 -17.765625 31.4375 -17.765625 Z M 31.390625 -13.953125 C 30.328125 -13.953125 29.503906 -13.460938 28.921875 -12.484375 C 28.367188 -11.597656 28.09375 -10.351562 28.09375 -8.75 C 28.09375 -7.519531 28.269531 -6.488281 28.625 -5.65625 C 29.1875 -4.320312 30.125 -3.65625 31.4375 -3.65625 C 32.351562 -3.65625 33.097656 -4.023438 33.671875 -4.765625 C 34.367188 -5.660156 34.71875 -7 34.71875 -8.78125 C 34.71875 -10.375 34.4375 -11.625 33.875 -12.53125 C 33.289062 -13.476562 32.460938 -13.953125 31.390625 -13.953125 Z M 31.390625 -13.953125 "/></g></g></g><g fill="#ffffff" fill-opacity="1"><g transform="translate(215.079153, 120.001372)"><g><path d="M 23.609375 -10.234375 C 21.617188 -8.410156 19.613281 -6.894531 17.59375 -5.6875 C 16.675781 -5.125 15.976562 -4.84375 15.5 -4.84375 C 15.0625 -4.84375 14.707031 -5.015625 14.4375 -5.359375 C 14.144531 -5.734375 14 -6.09375 14 -6.4375 C 14 -6.820312 14.171875 -7.164062 14.515625 -7.46875 C 14.648438 -7.570312 15.035156 -7.835938 15.671875 -8.265625 C 17.648438 -9.578125 19.921875 -11.742188 22.484375 -14.765625 L 20.546875 -14.65625 C 20.234375 -13.925781 19.488281 -13.5625 18.3125 -13.5625 C 17.039062 -13.5625 16.320312 -14.078125 16.15625 -15.109375 L 15.078125 -22.484375 C 15.054688 -22.585938 15.046875 -22.695312 15.046875 -22.8125 C 15.046875 -23.539062 15.40625 -24.085938 16.125 -24.453125 C 16.519531 -24.640625 16.976562 -24.734375 17.5 -24.734375 C 18.289062 -24.734375 18.894531 -24.53125 19.3125 -24.125 L 23.5625 -24.390625 L 23.5625 -26.640625 L 17.1875 -26.203125 C 16.695312 -26.179688 16.257812 -26.257812 15.875 -26.4375 C 15.226562 -26.78125 14.90625 -27.328125 14.90625 -28.078125 C 14.90625 -29.359375 15.507812 -30.035156 16.71875 -30.109375 L 23.5625 -30.5625 L 23.5625 -33.3125 C 23.5625 -33.6875 23.65625 -34.015625 23.84375 -34.296875 C 24.269531 -34.921875 24.96875 -35.234375 25.9375 -35.234375 C 26.757812 -35.234375 27.394531 -35 27.84375 -34.53125 C 28.175781 -34.207031 28.34375 -33.800781 28.34375 -33.3125 L 28.34375 -30.890625 L 34.5625 -31.296875 C 34.613281 -31.296875 34.671875 -31.296875 34.734375 -31.296875 C 35.453125 -31.296875 36 -31.054688 36.375 -30.578125 C 36.65625 -30.234375 36.796875 -29.832031 36.796875 -29.375 C 36.796875 -28.125 36.179688 -27.457031 34.953125 -27.375 L 28.34375 -26.953125 L 28.34375 -24.6875 L 33.421875 -25.046875 C 33.503906 -25.046875 33.65625 -25.046875 33.875 -25.046875 C 35.976562 -25.046875 37.03125 -24.21875 37.03125 -22.5625 C 37.03125 -22.21875 36.976562 -21.832031 36.875 -21.40625 L 36.03125 -18.328125 C 36.457031 -17.972656 36.671875 -17.523438 36.671875 -16.984375 C 36.671875 -15.972656 36.109375 -15.4375 34.984375 -15.375 L 28.296875 -15.046875 L 28.296875 -13.703125 C 30.566406 -12.878906 33.144531 -11.609375 36.03125 -9.890625 C 37.09375 -9.242188 37.625 -8.53125 37.625 -7.75 C 37.625 -7.3125 37.484375 -6.851562 37.203125 -6.375 C 36.773438 -5.695312 36.160156 -5.359375 35.359375 -5.359375 C 34.710938 -5.359375 33.988281 -5.734375 33.1875 -6.484375 C 32.15625 -7.410156 30.523438 -8.59375 28.296875 -10.03125 L 28.296875 -4.84375 C 28.296875 -4.351562 28.132812 -3.941406 27.8125 -3.609375 C 27.351562 -3.160156 26.726562 -2.9375 25.9375 -2.9375 C 24.96875 -2.9375 24.269531 -3.265625 23.84375 -3.921875 C 23.6875 -4.179688 23.609375 -4.488281 23.609375 -4.84375 Z M 28.09375 -18.3125 L 31.828125 -18.515625 L 32.15625 -20.875 C 32.1875 -21 32.203125 -21.101562 32.203125 -21.1875 C 32.210938 -21.488281 32.015625 -21.640625 31.609375 -21.640625 C 31.535156 -21.640625 31.472656 -21.640625 31.421875 -21.640625 L 28.09375 -21.40625 Z M 23.8125 -18.09375 L 23.8125 -21.125 L 20.03125 -20.875 L 20.390625 -17.90625 Z M 9.328125 -5.234375 C 10.972656 -5.160156 13.773438 -4.722656 17.734375 -3.921875 C 23.015625 -2.847656 28.632812 -2.101562 34.59375 -1.6875 C 36.363281 -1.5625 37.910156 -1.492188 39.234375 -1.484375 C 40.648438 -1.453125 41.359375 -1.171875 41.359375 -0.640625 C 41.359375 -0.242188 40.769531 0.34375 39.59375 1.125 C 38.46875 1.863281 37.601562 2.382812 37 2.6875 C 36.039062 3.164062 35.117188 3.40625 34.234375 3.40625 C 32.140625 3.40625 25.710938 2.015625 14.953125 -0.765625 C 12.460938 -1.398438 10.390625 -1.71875 8.734375 -1.71875 C 7.515625 -1.71875 6.039062 -1.453125 4.3125 -0.921875 C 3.789062 -0.773438 3.382812 -0.703125 3.09375 -0.703125 C 2.300781 -0.703125 1.765625 -1.082031 1.484375 -1.84375 C 1.378906 -2.113281 1.328125 -2.4375 1.328125 -2.8125 C 1.328125 -3.6875 1.757812 -4.273438 2.625 -4.578125 C 3.070312 -4.734375 3.769531 -4.867188 4.71875 -4.984375 C 7.039062 -7.242188 8.203125 -8.738281 8.203125 -9.46875 C 8.203125 -9.800781 7.921875 -10.101562 7.359375 -10.375 C 6.429688 -10.8125 5.96875 -11.445312 5.96875 -12.28125 C 5.96875 -13.238281 6.457031 -14.660156 7.4375 -16.546875 L 4.328125 -15.875 C 4.066406 -15.820312 3.820312 -15.796875 3.59375 -15.796875 C 2.726562 -15.796875 2.148438 -16.234375 1.859375 -17.109375 C 1.753906 -17.421875 1.703125 -17.726562 1.703125 -18.03125 C 1.703125 -19.1875 2.226562 -19.851562 3.28125 -20.03125 L 9.78125 -21.125 C 10.09375 -21.175781 10.359375 -21.203125 10.578125 -21.203125 C 11.390625 -21.203125 12.015625 -20.960938 12.453125 -20.484375 C 12.796875 -20.117188 12.96875 -19.671875 12.96875 -19.140625 C 12.96875 -18.484375 12.664062 -17.726562 12.0625 -16.875 C 10.75 -15 10.09375 -13.695312 10.09375 -12.96875 C 10.09375 -12.644531 10.226562 -12.40625 10.5 -12.25 C 10.625 -12.164062 10.910156 -12.023438 11.359375 -11.828125 C 12.648438 -11.273438 13.296875 -10.578125 13.296875 -9.734375 C 13.296875 -9.066406 12.953125 -8.378906 12.265625 -7.671875 C 11.671875 -7.066406 10.691406 -6.253906 9.328125 -5.234375 Z M 4.875 -33.125 C 5.3125 -33.125 5.8125 -32.984375 6.375 -32.703125 C 10.269531 -30.804688 12.21875 -29.097656 12.21875 -27.578125 C 12.21875 -27.085938 12.035156 -26.601562 11.671875 -26.125 C 11.179688 -25.46875 10.519531 -25.140625 9.6875 -25.140625 C 8.988281 -25.140625 8.3125 -25.523438 7.65625 -26.296875 C 6.5 -27.648438 5.34375 -28.820312 4.1875 -29.8125 C 3.507812 -30.394531 3.171875 -30.960938 3.171875 -31.515625 C 3.171875 -31.898438 3.300781 -32.242188 3.5625 -32.546875 C 3.882812 -32.929688 4.320312 -33.125 4.875 -33.125 Z M 4.875 -33.125 "/></g></g></g><g fill="#ffffff" fill-opacity="1"><g transform="translate(256.239155, 120.001372)"><g><path d="M 29.640625 -27.078125 C 30.347656 -26.691406 30.703125 -26.066406 30.703125 -25.203125 C 30.703125 -25.078125 30.703125 -25.007812 30.703125 -25 L 30.640625 -24.40625 L 35.390625 -24.734375 L 35.578125 -24.75 C 36.035156 -24.78125 36.453125 -24.648438 36.828125 -24.359375 C 37.285156 -24.035156 37.515625 -23.550781 37.515625 -22.90625 C 37.515625 -21.6875 36.9375 -21.035156 35.78125 -20.953125 L 30.3125 -20.5625 L 30.109375 -18.1875 C 30.742188 -17.914062 31.0625 -17.394531 31.0625 -16.625 C 31.0625 -15.550781 30.503906 -14.976562 29.390625 -14.90625 L 20.921875 -14.421875 C 20.546875 -13.742188 19.847656 -13.40625 18.828125 -13.40625 C 17.546875 -13.40625 16.84375 -14.03125 16.71875 -15.28125 L 16.28125 -19.578125 L 13.5625 -19.40625 C 13.53125 -19.40625 13.445312 -19.40625 13.3125 -19.40625 C 12.625 -19.40625 12.128906 -19.722656 11.828125 -20.359375 C 11.671875 -20.691406 11.59375 -21.054688 11.59375 -21.453125 C 11.59375 -22.242188 11.953125 -22.789062 12.671875 -23.09375 C 12.867188 -23.15625 13.082031 -23.203125 13.3125 -23.234375 L 15.890625 -23.40625 L 15.796875 -24.453125 C 15.773438 -24.554688 15.765625 -24.628906 15.765625 -24.671875 C 15.765625 -25.253906 16.015625 -25.738281 16.515625 -26.125 L 11.21875 -25.765625 L 11.21875 -25.515625 C 11.175781 -19.359375 10.910156 -14.796875 10.421875 -11.828125 C 9.910156 -8.722656 9.015625 -5.71875 7.734375 -2.8125 C 6.960938 -1.101562 6.265625 0.144531 5.640625 0.9375 C 5.128906 1.59375 4.582031 1.921875 4 1.921875 C 3.65625 1.921875 3.289062 1.800781 2.90625 1.5625 C 2.425781 1.257812 2.1875 0.78125 2.1875 0.125 C 2.1875 -0.3125 2.394531 -1.003906 2.8125 -1.953125 C 4.144531 -4.972656 5.050781 -8.394531 5.53125 -12.21875 C 5.875 -15.039062 6.054688 -18.957031 6.078125 -23.96875 L 6.09375 -25.53125 C 5.132812 -25.820312 4.65625 -26.515625 4.65625 -27.609375 C 4.65625 -28.941406 5.296875 -29.648438 6.578125 -29.734375 L 18.921875 -30.578125 L 18.921875 -33.265625 C 18.921875 -34.753906 19.8125 -35.5 21.59375 -35.5 C 23.414062 -35.5 24.328125 -34.753906 24.328125 -33.265625 L 24.328125 -30.953125 L 36.03125 -31.75 L 36.21875 -31.765625 C 36.707031 -31.796875 37.148438 -31.644531 37.546875 -31.3125 C 38.023438 -30.90625 38.265625 -30.332031 38.265625 -29.59375 C 38.265625 -28.3125 37.691406 -27.628906 36.546875 -27.546875 Z M 26.796875 -26.859375 L 19.53125 -26.359375 C 20.101562 -26.035156 20.410156 -25.546875 20.453125 -24.890625 L 20.53125 -23.734375 L 25.9375 -24.09375 L 26 -25.328125 C 26.03125 -25.941406 26.296875 -26.453125 26.796875 -26.859375 Z M 25.765625 -20.265625 L 20.8125 -19.90625 L 20.953125 -17.78125 L 25.671875 -18.09375 Z M 23.3125 -0.859375 C 20.25 0.628906 17.113281 1.785156 13.90625 2.609375 C 12.46875 2.984375 11.515625 3.171875 11.046875 3.171875 C 10.273438 3.171875 9.742188 2.835938 9.453125 2.171875 C 9.328125 1.890625 9.265625 1.628906 9.265625 1.390625 C 9.265625 0.804688 9.582031 0.347656 10.21875 0.015625 C 10.4375 -0.109375 11.203125 -0.335938 12.515625 -0.671875 C 14.628906 -1.222656 16.925781 -2.066406 19.40625 -3.203125 C 19.113281 -3.398438 18.546875 -3.789062 17.703125 -4.375 C 17.148438 -4.738281 16.648438 -5.113281 16.203125 -5.5 C 15.804688 -5.84375 15.609375 -6.253906 15.609375 -6.734375 C 15.609375 -7.066406 15.722656 -7.378906 15.953125 -7.671875 C 16.328125 -8.117188 16.804688 -8.34375 17.390625 -8.34375 C 17.828125 -8.34375 18.640625 -7.96875 19.828125 -7.21875 C 20.515625 -6.789062 21.675781 -6.160156 23.3125 -5.328125 C 24.78125 -6.273438 25.984375 -7.195312 26.921875 -8.09375 C 27.335938 -8.5 27.546875 -8.796875 27.546875 -8.984375 C 27.546875 -9.128906 27.375 -9.203125 27.03125 -9.203125 C 26.9375 -9.203125 26.84375 -9.203125 26.75 -9.203125 L 15.109375 -8.265625 C 15.046875 -8.265625 14.957031 -8.265625 14.84375 -8.265625 C 13.570312 -8.265625 12.9375 -8.925781 12.9375 -10.25 C 12.9375 -11.5 13.476562 -12.15625 14.5625 -12.21875 L 30.734375 -13.3125 C 30.898438 -13.320312 31.070312 -13.328125 31.25 -13.328125 C 33.351562 -13.328125 34.40625 -12.597656 34.40625 -11.140625 C 34.40625 -10.398438 34.078125 -9.585938 33.421875 -8.703125 C 32.097656 -6.890625 30.1875 -5.125 27.6875 -3.40625 C 30.738281 -2.132812 34.203125 -1.070312 38.078125 -0.21875 C 39.367188 0.0507812 40.015625 0.410156 40.015625 0.859375 C 40.015625 1.210938 39.625 1.539062 38.84375 1.84375 C 36.25 2.875 34.4375 3.390625 33.40625 3.390625 C 32.78125 3.390625 31.875 3.148438 30.6875 2.671875 C 28.300781 1.722656 25.84375 0.546875 23.3125 -0.859375 Z M 23.3125 -0.859375 "/></g></g></g><g fill="#ffffff" fill-opacity="1"><g transform="translate(297.399156, 120.001372)"><g><path d="M 2.5625 -32.671875 C 2.5625 -33.035156 2.734375 -33.390625 3.078125 -33.734375 C 3.378906 -34.035156 3.769531 -34.1875 4.25 -34.1875 C 4.726562 -34.1875 5.195312 -34.003906 5.65625 -33.640625 C 7.09375 -32.554688 8.429688 -31.09375 9.671875 -29.25 C 10.921875 -27.414062 11.929688 -25.351562 12.703125 -23.0625 C 13.472656 -20.78125 13.859375 -18.425781 13.859375 -16 C 13.859375 -13.507812 13.472656 -11.125 12.703125 -8.84375 C 11.929688 -6.5625 10.921875 -4.503906 9.671875 -2.671875 C 8.429688 -0.835938 7.09375 0.625 5.65625 1.71875 C 5.21875 2.09375 4.734375 2.28125 4.203125 2.28125 C 3.753906 2.28125 3.378906 2.125 3.078125 1.8125 C 2.765625 1.507812 2.609375 1.160156 2.609375 0.765625 C 2.609375 0.285156 2.804688 -0.164062 3.203125 -0.59375 C 5.046875 -2.738281 6.503906 -5.023438 7.578125 -7.453125 C 8.660156 -9.878906 9.203125 -12.726562 9.203125 -16 C 9.203125 -19.25 8.65625 -22.117188 7.5625 -24.609375 C 6.46875 -27.097656 5.015625 -29.351562 3.203125 -31.375 C 2.773438 -31.851562 2.5625 -32.285156 2.5625 -32.671875 Z M 2.5625 -32.671875 "/></g></g></g></svg>