<svg xmlns="http://www.w3.org/2000/svg" xmlns:xlink="http://www.w3.org/1999/xlink" width="600" zoomAndPan="magnify" viewBox="0 0 450 149.999998" height="200" preserveAspectRatio="xMidYMid meet" version="1.0"><defs><g/><clipPath id="1316528a74"><path d="M 0 5.402344 L 450 5.402344 L 450 144.597656 L 0 144.597656 Z M 0 5.402344 " clip-rule="nonzero"/></clipPath><clipPath id="80787f755c"><path d="M 7.714844 5.402344 L 380.402344 5.402344 C 398.859375 5.402344 416.5625 12.734375 429.613281 25.785156 C 442.667969 38.839844 450 56.542969 450 75 C 450 93.457031 442.667969 111.160156 429.613281 124.214844 C 416.5625 137.265625 398.859375 144.597656 380.402344 144.597656 L 7.714844 144.597656 C -10.742188 144.597656 -28.445312 137.265625 -41.496094 124.214844 C -54.550781 111.160156 -61.882812 93.457031 -61.882812 75 C -61.882812 56.542969 -54.550781 38.839844 -41.496094 25.785156 C -28.445312 12.734375 -10.742188 5.402344 7.714844 5.402344 Z M 7.714844 5.402344 " clip-rule="nonzero"/></clipPath><clipPath id="14823421d1"><path d="M 0 0.402344 L 450 0.402344 L 450 139.597656 L 0 139.597656 Z M 0 0.402344 " clip-rule="nonzero"/></clipPath><clipPath id="d2b484c3bd"><path d="M 7.714844 0.402344 L 380.402344 0.402344 C 398.859375 0.402344 416.5625 7.734375 429.613281 20.785156 C 442.667969 33.839844 450 51.542969 450 70 C 450 88.457031 442.667969 106.160156 429.613281 119.214844 C 416.5625 132.265625 398.859375 139.597656 380.402344 139.597656 L 7.714844 139.597656 C -10.742188 139.597656 -28.445312 132.265625 -41.496094 119.214844 C -54.550781 106.160156 -61.882812 88.457031 -61.882812 70 C -61.882812 51.542969 -54.550781 33.839844 -41.496094 20.785156 C -28.445312 7.734375 -10.742188 0.402344 7.714844 0.402344 Z M 7.714844 0.402344 " clip-rule="nonzero"/></clipPath><clipPath id="0cfaa8c901"><rect x="0" width="450" y="0" height="140"/></clipPath></defs><g clip-path="url(#1316528a74)"><g clip-path="url(#80787f755c)"><g transform="matrix(1, 0, 0, 1, 0, 5)"><g clip-path="url(#0cfaa8c901)"><g clip-path="url(#14823421d1)"><g clip-path="url(#d2b484c3bd)"><path fill="#737373" d="M -61.882812 0.402344 L 449.78125 0.402344 L 449.78125 139.597656 L -61.882812 139.597656 Z M -61.882812 0.402344 " fill-opacity="1" fill-rule="nonzero"/></g></g></g></g></g></g><g fill="#ffffff" fill-opacity="1"><g transform="translate(15.000003, 61.501346)"><g><path d="M 11.734375 -31.515625 C 12.972656 -31.515625 15.039062 -30.628906 17.9375 -28.859375 C 18.8125 -28.328125 19.457031 -27.890625 19.875 -27.546875 C 20.664062 -26.898438 21.0625 -26.140625 21.0625 -25.265625 C 21.0625 -24.691406 20.859375 -24.148438 20.453125 -23.640625 C 19.835938 -22.898438 19.117188 -22.53125 18.296875 -22.53125 C 17.597656 -22.53125 16.878906 -22.910156 16.140625 -23.671875 C 14.929688 -24.910156 13.144531 -26.382812 10.78125 -28.09375 C 10.0625 -28.625 9.703125 -29.191406 9.703125 -29.796875 C 9.703125 -30.128906 9.804688 -30.453125 10.015625 -30.765625 C 10.367188 -31.265625 10.941406 -31.515625 11.734375 -31.515625 Z M 6.765625 -22.234375 C 7.617188 -22.234375 8.863281 -21.929688 10.5 -21.328125 C 12.425781 -20.628906 14.03125 -19.8125 15.3125 -18.875 C 16.207031 -18.21875 16.65625 -17.414062 16.65625 -16.46875 C 16.65625 -15.882812 16.445312 -15.320312 16.03125 -14.78125 C 15.5 -14.070312 14.8125 -13.71875 13.96875 -13.71875 C 13.351562 -13.71875 12.65625 -14.03125 11.875 -14.65625 C 10.332031 -15.9375 8.34375 -17.265625 5.90625 -18.640625 C 5.101562 -19.109375 4.703125 -19.695312 4.703125 -20.40625 C 4.703125 -20.726562 4.789062 -21.050781 4.96875 -21.375 C 5.289062 -21.945312 5.890625 -22.234375 6.765625 -22.234375 Z M 35.90625 -23.578125 C 36.300781 -23.578125 36.691406 -23.46875 37.078125 -23.25 C 37.765625 -22.851562 38.109375 -22.269531 38.109375 -21.5 C 38.109375 -20.71875 37.460938 -19.257812 36.171875 -17.125 C 34.054688 -13.582031 31.171875 -10.335938 27.515625 -7.390625 C 23.160156 -3.859375 18.320312 -1.191406 13 0.609375 C 12.394531 0.816406 11.890625 0.921875 11.484375 0.921875 C 10.398438 0.921875 9.609375 0.429688 9.109375 -0.546875 C 8.859375 -1.023438 8.734375 -1.5 8.734375 -1.96875 C 8.734375 -2.988281 9.207031 -3.753906 10.15625 -4.265625 C 10.289062 -4.335938 11.175781 -4.660156 12.8125 -5.234375 C 17.25 -6.773438 21.382812 -9.078125 25.21875 -12.140625 C 28.914062 -15.078125 31.769531 -18.375 33.78125 -22.03125 C 34.351562 -23.0625 35.0625 -23.578125 35.90625 -23.578125 Z M 35.90625 -23.578125 "/></g></g></g><g fill="#ffffff" fill-opacity="1"><g transform="translate(56.160004, 61.501346)"><g><path d="M 9.4375 -29.453125 C 10 -29.453125 10.960938 -29.207031 12.328125 -28.71875 C 14.878906 -27.8125 16.988281 -26.742188 18.65625 -25.515625 C 19.53125 -24.867188 19.96875 -24.066406 19.96875 -23.109375 C 19.96875 -22.578125 19.800781 -22.046875 19.46875 -21.515625 C 18.945312 -20.722656 18.25 -20.328125 17.375 -20.328125 C 16.625 -20.328125 15.796875 -20.675781 14.890625 -21.375 C 12.609375 -23.175781 10.53125 -24.609375 8.65625 -25.671875 C 7.707031 -26.203125 7.234375 -26.832031 7.234375 -27.5625 C 7.234375 -28.820312 7.96875 -29.453125 9.4375 -29.453125 Z M 35.8125 -22.890625 C 36.269531 -22.890625 36.710938 -22.734375 37.140625 -22.421875 C 37.703125 -22.003906 37.984375 -21.445312 37.984375 -20.75 C 37.984375 -20.175781 37.753906 -19.554688 37.296875 -18.890625 C 34.160156 -14.179688 30.015625 -10.109375 24.859375 -6.671875 C 20.566406 -3.804688 16.132812 -1.757812 11.5625 -0.53125 C 11.082031 -0.40625 10.664062 -0.34375 10.3125 -0.34375 C 9.15625 -0.34375 8.328125 -0.878906 7.828125 -1.953125 C 7.609375 -2.429688 7.5 -2.890625 7.5 -3.328125 C 7.5 -4.316406 8 -5.0625 9 -5.5625 C 9.207031 -5.65625 10.117188 -5.941406 11.734375 -6.421875 C 17.609375 -8.140625 23.082031 -11.242188 28.15625 -15.734375 C 30.09375 -17.453125 31.925781 -19.410156 33.65625 -21.609375 C 34.3125 -22.460938 35.03125 -22.890625 35.8125 -22.890625 Z M 35.8125 -22.890625 "/></g></g></g><g fill="#ffffff" fill-opacity="1"><g transform="translate(97.320006, 61.501346)"><g><path d="M 21.015625 -20.53125 C 21.734375 -20.53125 22.410156 -20.363281 23.046875 -20.03125 C 23.992188 -19.550781 24.691406 -18.835938 25.140625 -17.890625 C 25.429688 -17.285156 25.578125 -16.640625 25.578125 -15.953125 C 25.578125 -15.191406 25.382812 -14.460938 25 -13.765625 C 24.125 -12.171875 22.773438 -11.375 20.953125 -11.375 C 19.960938 -11.375 19.054688 -11.691406 18.234375 -12.328125 C 17.023438 -13.242188 16.421875 -14.457031 16.421875 -15.96875 C 16.421875 -17.28125 16.898438 -18.390625 17.859375 -19.296875 C 18.734375 -20.117188 19.785156 -20.53125 21.015625 -20.53125 Z M 21.015625 -20.53125 "/></g></g></g><g fill="#ffffff" fill-opacity="1"><g transform="translate(138.480007, 61.501346)"><g><path d="M 33.546875 -2.8125 C 34.078125 -2.414062 34.34375 -1.8125 34.34375 -1 C 34.34375 0.332031 33.6875 1.03125 32.375 1.09375 L 17.515625 1.6875 C 17.335938 2.800781 16.492188 3.359375 14.984375 3.359375 C 13.398438 3.359375 12.546875 2.640625 12.421875 1.203125 L 11.6875 -7.359375 C 9.769531 -5.703125 7.71875 -4.28125 5.53125 -3.09375 C 4.9375 -2.78125 4.421875 -2.625 3.984375 -2.625 C 3.410156 -2.625 2.960938 -2.84375 2.640625 -3.28125 C 2.378906 -3.632812 2.25 -4.003906 2.25 -4.390625 C 2.25 -4.796875 2.394531 -5.148438 2.6875 -5.453125 C 2.832031 -5.609375 3.160156 -5.851562 3.671875 -6.1875 C 6.921875 -8.40625 9.816406 -11.195312 12.359375 -14.5625 L 4.40625 -14.109375 C 4.382812 -14.109375 4.320312 -14.109375 4.21875 -14.109375 C 2.90625 -14.109375 2.25 -14.847656 2.25 -16.328125 C 2.25 -17.660156 2.875 -18.363281 4.125 -18.4375 L 15.265625 -19.109375 C 15.898438 -20.335938 16.425781 -21.570312 16.84375 -22.8125 C 17.164062 -23.78125 17.890625 -24.265625 19.015625 -24.265625 C 19.453125 -24.265625 19.867188 -24.175781 20.265625 -24 C 21.234375 -23.5625 21.71875 -22.867188 21.71875 -21.921875 C 21.71875 -21.453125 21.472656 -20.625 20.984375 -19.4375 L 37.796875 -20.453125 L 37.984375 -20.46875 C 38.515625 -20.507812 38.972656 -20.332031 39.359375 -19.9375 C 39.753906 -19.539062 39.953125 -18.96875 39.953125 -18.21875 C 39.953125 -16.84375 39.328125 -16.113281 38.078125 -16.03125 L 18.484375 -14.90625 C 17.441406 -13.375 16.554688 -12.191406 15.828125 -11.359375 L 15.625 -11.140625 C 15.875 -11.023438 16.085938 -10.875 16.265625 -10.6875 L 30.734375 -11.625 C 30.890625 -11.644531 31.078125 -11.65625 31.296875 -11.65625 C 33.441406 -11.65625 34.515625 -10.671875 34.515625 -8.703125 C 34.515625 -8.359375 34.472656 -7.96875 34.390625 -7.53125 Z M 28.5625 -2.953125 L 28.984375 -6.5 C 28.992188 -6.625 29 -6.703125 29 -6.734375 C 29 -7.179688 28.78125 -7.390625 28.34375 -7.359375 L 28.171875 -7.34375 L 16.921875 -6.6875 L 17.25 -2.46875 Z M 29.546875 -26.390625 L 29.09375 -23.84375 C 28.894531 -22.613281 28.101562 -22 26.71875 -22 C 25.863281 -22 25.226562 -22.257812 24.8125 -22.78125 C 24.53125 -23.132812 24.390625 -23.570312 24.390625 -24.09375 C 24.390625 -24.144531 24.394531 -24.234375 24.40625 -24.359375 L 24.5625 -26.09375 L 16.625 -25.578125 L 16.796875 -23.734375 C 16.804688 -23.617188 16.8125 -23.554688 16.8125 -23.546875 C 16.84375 -22.910156 16.601562 -22.382812 16.09375 -21.96875 C 15.675781 -21.613281 15.128906 -21.4375 14.453125 -21.4375 C 13.097656 -21.4375 12.328125 -22.0625 12.140625 -23.3125 L 11.828125 -25.265625 L 5.96875 -24.890625 C 5.875 -24.890625 5.8125 -24.890625 5.78125 -24.890625 C 5.03125 -24.890625 4.460938 -25.179688 4.078125 -25.765625 C 3.878906 -26.078125 3.78125 -26.460938 3.78125 -26.921875 C 3.78125 -28.234375 4.378906 -28.929688 5.578125 -29.015625 L 11.203125 -29.390625 L 10.828125 -31.671875 C 10.816406 -31.785156 10.8125 -31.921875 10.8125 -32.078125 C 10.8125 -32.878906 11.171875 -33.488281 11.890625 -33.90625 C 12.347656 -34.144531 12.867188 -34.265625 13.453125 -34.265625 C 15.035156 -34.265625 15.894531 -33.523438 16.03125 -32.046875 L 16.265625 -29.71875 L 24.953125 -30.296875 L 25.203125 -32.9375 C 25.328125 -34.28125 26.207031 -34.953125 27.84375 -34.953125 C 28.53125 -34.953125 29.109375 -34.785156 29.578125 -34.453125 C 30.242188 -34.003906 30.578125 -33.394531 30.578125 -32.625 C 30.578125 -32.5 30.5625 -32.347656 30.53125 -32.171875 L 30.265625 -30.640625 L 35.546875 -30.984375 L 35.6875 -31.015625 C 36.3125 -31.046875 36.832031 -30.796875 37.25 -30.265625 C 37.53125 -29.910156 37.671875 -29.472656 37.671875 -28.953125 C 37.671875 -28.109375 37.382812 -27.488281 36.8125 -27.09375 C 36.550781 -26.914062 36.25 -26.816406 35.90625 -26.796875 Z M 29.546875 -26.390625 "/></g></g></g><g fill="#ffffff" fill-opacity="1"><g transform="translate(179.640008, 61.501346)"><g><path d="M 18.234375 -9.90625 L 11.5 -9.5 C 11.144531 -8.488281 10.285156 -7.984375 8.921875 -7.984375 C 7.378906 -7.984375 6.519531 -8.695312 6.34375 -10.125 L 4.671875 -23.6875 C 4.648438 -23.851562 4.640625 -23.976562 4.640625 -24.0625 C 4.640625 -24.945312 5.023438 -25.582031 5.796875 -25.96875 C 6.253906 -26.1875 6.742188 -26.296875 7.265625 -26.296875 L 7.4375 -26.296875 C 8.65625 -26.296875 9.457031 -25.890625 9.84375 -25.078125 L 18.234375 -25.765625 L 18.234375 -32.546875 C 18.234375 -33.367188 18.601562 -33.976562 19.34375 -34.375 C 19.800781 -34.613281 20.3125 -34.734375 20.875 -34.734375 C 21.757812 -34.734375 22.457031 -34.460938 22.96875 -33.921875 C 23.3125 -33.546875 23.484375 -33.085938 23.484375 -32.546875 L 23.484375 -26.1875 L 32.625 -26.921875 C 32.84375 -26.941406 33.144531 -26.953125 33.53125 -26.953125 C 36.0625 -26.953125 37.328125 -25.867188 37.328125 -23.703125 C 37.328125 -23.140625 37.25 -22.519531 37.09375 -21.84375 L 35.546875 -15.09375 C 36.210938 -14.664062 36.546875 -13.992188 36.546875 -13.078125 C 36.546875 -11.691406 35.875 -10.957031 34.53125 -10.875 L 23.484375 -10.21875 L 23.484375 1.09375 C 23.484375 1.675781 23.285156 2.160156 22.890625 2.546875 C 22.367188 3.035156 21.691406 3.28125 20.859375 3.28125 C 19.710938 3.28125 18.921875 2.882812 18.484375 2.09375 C 18.316406 1.800781 18.234375 1.46875 18.234375 1.09375 Z M 18.234375 -14.375 L 18.234375 -21.21875 L 10.453125 -20.625 L 11.21875 -13.953125 Z M 23.484375 -14.6875 L 30.390625 -15.09375 L 31.375 -21.203125 C 31.382812 -21.285156 31.390625 -21.382812 31.390625 -21.5 C 31.390625 -22 31.117188 -22.226562 30.578125 -22.1875 L 30.40625 -22.171875 L 23.484375 -21.640625 Z M 23.484375 -14.6875 "/></g></g></g><g fill="#ffffff" fill-opacity="1"><g transform="translate(220.80001, 61.501346)"><g><path d="M 8.71875 -29.0625 C 9.769531 -29.0625 11.195312 -28.160156 13 -26.359375 C 15.5625 -23.796875 16.84375 -21.796875 16.84375 -20.359375 C 16.84375 -19.378906 16.394531 -18.609375 15.5 -18.046875 C 14.882812 -17.648438 14.25 -17.453125 13.59375 -17.453125 C 12.800781 -17.453125 12.171875 -17.785156 11.703125 -18.453125 C 11.597656 -18.609375 11.429688 -18.9375 11.203125 -19.4375 C 10.222656 -21.613281 8.914062 -23.75 7.28125 -25.84375 C 6.914062 -26.300781 6.734375 -26.765625 6.734375 -27.234375 C 6.734375 -27.765625 6.929688 -28.195312 7.328125 -28.53125 C 7.742188 -28.882812 8.207031 -29.0625 8.71875 -29.0625 Z M 32.828125 -30.65625 C 33.265625 -30.65625 33.679688 -30.582031 34.078125 -30.4375 C 35.203125 -30 35.765625 -29.148438 35.765625 -27.890625 C 35.765625 -27.304688 35.601562 -26.285156 35.28125 -24.828125 C 33.164062 -15.722656 28.445312 -8.472656 21.125 -3.078125 C 19.4375 -1.847656 17.75 -0.804688 16.0625 0.046875 C 15.332031 0.398438 14.695312 0.578125 14.15625 0.578125 C 13.5 0.578125 12.992188 0.320312 12.640625 -0.1875 C 12.347656 -0.582031 12.203125 -0.984375 12.203125 -1.390625 C 12.203125 -1.984375 12.441406 -2.5 12.921875 -2.9375 C 13.085938 -3.09375 13.898438 -3.660156 15.359375 -4.640625 C 17.328125 -5.953125 19.332031 -7.722656 21.375 -9.953125 C 26.164062 -15.171875 29.097656 -21.207031 30.171875 -28.0625 C 30.441406 -29.789062 31.328125 -30.65625 32.828125 -30.65625 Z M 32.828125 -30.65625 "/></g></g></g><g fill="#ffffff" fill-opacity="1"><g transform="translate(261.960011, 61.501346)"><g><path d="M 33.71875 -20.15625 C 34.570312 -20.15625 35.25 -19.890625 35.75 -19.359375 C 36.164062 -18.921875 36.375 -18.332031 36.375 -17.59375 C 36.375 -16.21875 35.726562 -15.398438 34.4375 -15.140625 C 34.09375 -15.054688 29.476562 -14.820312 20.59375 -14.4375 C 16.5 -14.257812 12.171875 -14.046875 7.609375 -13.796875 C 7.441406 -13.785156 7.285156 -13.78125 7.140625 -13.78125 C 6.367188 -13.78125 5.722656 -14.003906 5.203125 -14.453125 C 4.671875 -14.929688 4.40625 -15.5625 4.40625 -16.34375 C 4.40625 -17.46875 4.90625 -18.238281 5.90625 -18.65625 C 6.3125 -18.820312 7.28125 -18.929688 8.8125 -18.984375 C 10.164062 -19.023438 13.59375 -19.1875 19.09375 -19.46875 C 21.425781 -19.582031 24.625 -19.726562 28.6875 -19.90625 C 30.050781 -19.96875 31.132812 -20.023438 31.9375 -20.078125 C 32.925781 -20.128906 33.519531 -20.15625 33.71875 -20.15625 Z M 33.71875 -20.15625 "/></g></g></g><g fill="#ffffff" fill-opacity="1"><g transform="translate(303.120012, 61.501346)"><g><path d="M 28.234375 -31.84375 C 28.953125 -31.84375 29.515625 -31.566406 29.921875 -31.015625 C 30.234375 -30.578125 30.390625 -30.0625 30.390625 -29.46875 C 30.390625 -28.09375 29.738281 -27.300781 28.4375 -27.09375 C 27.414062 -26.9375 25.90625 -26.769531 23.90625 -26.59375 C 23.375 -26.550781 21.140625 -26.421875 17.203125 -26.203125 C 14.796875 -26.066406 13.179688 -26 12.359375 -26 C 10.640625 -26 9.78125 -26.800781 9.78125 -28.40625 C 9.78125 -29.625 10.285156 -30.382812 11.296875 -30.6875 C 11.554688 -30.75 12.148438 -30.785156 13.078125 -30.796875 C 16.859375 -30.859375 21.273438 -31.140625 26.328125 -31.640625 C 26.503906 -31.671875 26.941406 -31.726562 27.640625 -31.8125 C 27.898438 -31.832031 28.097656 -31.84375 28.234375 -31.84375 Z M 31.5 -22.4375 C 33.0625 -22.4375 34.179688 -21.890625 34.859375 -20.796875 C 35.242188 -20.171875 35.4375 -19.429688 35.4375 -18.578125 C 35.4375 -17.347656 35.019531 -15.753906 34.1875 -13.796875 C 32.351562 -9.484375 29.296875 -5.757812 25.015625 -2.625 C 22.742188 -0.96875 20.375 0.316406 17.90625 1.234375 C 17.289062 1.460938 16.765625 1.578125 16.328125 1.578125 C 15.722656 1.578125 15.257812 1.332031 14.9375 0.84375 C 14.65625 0.445312 14.515625 0.0195312 14.515625 -0.4375 C 14.515625 -1.050781 14.800781 -1.566406 15.375 -1.984375 C 15.5 -2.066406 16.101562 -2.390625 17.1875 -2.953125 C 19.875 -4.347656 22.421875 -6.320312 24.828125 -8.875 C 26.828125 -11.007812 28.304688 -13.195312 29.265625 -15.4375 C 29.585938 -16.195312 29.75 -16.722656 29.75 -17.015625 C 29.75 -17.347656 29.503906 -17.515625 29.015625 -17.515625 C 28.796875 -17.515625 26.335938 -17.363281 21.640625 -17.0625 L 12.859375 -16.453125 C 9.503906 -16.203125 7.773438 -16.078125 7.671875 -16.078125 C 6.835938 -16.078125 6.195312 -16.382812 5.75 -17 C 5.46875 -17.394531 5.328125 -17.875 5.328125 -18.4375 C 5.328125 -19.894531 6.023438 -20.722656 7.421875 -20.921875 C 8.296875 -21.046875 14.921875 -21.46875 27.296875 -22.1875 C 28.273438 -22.238281 29.035156 -22.285156 29.578125 -22.328125 C 30.648438 -22.398438 31.289062 -22.4375 31.5 -22.4375 Z M 31.5 -22.4375 "/></g></g></g><g fill="#ffffff" fill-opacity="1"><g transform="translate(344.280014, 61.501346)"><g><path d="M 9.4375 -29.453125 C 10 -29.453125 10.960938 -29.207031 12.328125 -28.71875 C 14.878906 -27.8125 16.988281 -26.742188 18.65625 -25.515625 C 19.53125 -24.867188 19.96875 -24.066406 19.96875 -23.109375 C 19.96875 -22.578125 19.800781 -22.046875 19.46875 -21.515625 C 18.945312 -20.722656 18.25 -20.328125 17.375 -20.328125 C 16.625 -20.328125 15.796875 -20.675781 14.890625 -21.375 C 12.609375 -23.175781 10.53125 -24.609375 8.65625 -25.671875 C 7.707031 -26.203125 7.234375 -26.832031 7.234375 -27.5625 C 7.234375 -28.820312 7.96875 -29.453125 9.4375 -29.453125 Z M 35.8125 -22.890625 C 36.269531 -22.890625 36.710938 -22.734375 37.140625 -22.421875 C 37.703125 -22.003906 37.984375 -21.445312 37.984375 -20.75 C 37.984375 -20.175781 37.753906 -19.554688 37.296875 -18.890625 C 34.160156 -14.179688 30.015625 -10.109375 24.859375 -6.671875 C 20.566406 -3.804688 16.132812 -1.757812 11.5625 -0.53125 C 11.082031 -0.40625 10.664062 -0.34375 10.3125 -0.34375 C 9.15625 -0.34375 8.328125 -0.878906 7.828125 -1.953125 C 7.609375 -2.429688 7.5 -2.890625 7.5 -3.328125 C 7.5 -4.316406 8 -5.0625 9 -5.5625 C 9.207031 -5.65625 10.117188 -5.941406 11.734375 -6.421875 C 17.609375 -8.140625 23.082031 -11.242188 28.15625 -15.734375 C 30.09375 -17.453125 31.925781 -19.410156 33.65625 -21.609375 C 34.3125 -22.460938 35.03125 -22.890625 35.8125 -22.890625 Z M 35.8125 -22.890625 "/></g></g></g><g fill="#ffffff" fill-opacity="1"><g transform="translate(385.440015, 61.501346)"><g><path d="M 14.421875 -27.1875 C 15.492188 -26.082031 16.03125 -25.195312 16.03125 -24.53125 C 16.03125 -23.832031 15.71875 -23.316406 15.09375 -22.984375 C 14.738281 -22.796875 14.304688 -22.703125 13.796875 -22.703125 C 12.773438 -22.703125 12.097656 -23.226562 11.765625 -24.28125 C 11.492188 -25.144531 11.15625 -26.039062 10.75 -26.96875 L 8.515625 -26.828125 C 6.347656 -23.941406 4.753906 -22.5 3.734375 -22.5 C 3.328125 -22.5 2.914062 -22.671875 2.5 -23.015625 C 2.15625 -23.316406 1.984375 -23.675781 1.984375 -24.09375 C 1.984375 -24.570312 2.3125 -25.21875 2.96875 -26.03125 C 4.78125 -28.238281 6.144531 -30.679688 7.0625 -33.359375 C 7.394531 -34.378906 8.078125 -34.890625 9.109375 -34.890625 C 9.585938 -34.890625 10.050781 -34.769531 10.5 -34.53125 C 11.25 -34.132812 11.625 -33.539062 11.625 -32.75 C 11.625 -32.207031 11.398438 -31.507812 10.953125 -30.65625 L 18.21875 -31.21875 C 18.269531 -31.21875 18.316406 -31.21875 18.359375 -31.21875 C 18.796875 -31.21875 19.1875 -31.097656 19.53125 -30.859375 C 19.976562 -30.554688 20.203125 -30.085938 20.203125 -29.453125 C 20.203125 -28.703125 19.941406 -28.140625 19.421875 -27.765625 C 19.160156 -27.585938 18.859375 -27.484375 18.515625 -27.453125 Z M 32.875 -28.171875 C 32.46875 -26.929688 31.6875 -25.65625 30.53125 -24.34375 C 29.875 -23.59375 29.269531 -23.21875 28.71875 -23.21875 C 28.425781 -23.21875 28.144531 -23.300781 27.875 -23.46875 C 27.4375 -23.738281 27.21875 -24.132812 27.21875 -24.65625 C 27.21875 -25.007812 27.347656 -25.46875 27.609375 -26.03125 C 27.796875 -26.4375 28.019531 -27.035156 28.28125 -27.828125 L 24.75 -27.578125 C 23.09375 -24.867188 21.796875 -23.515625 20.859375 -23.515625 C 20.566406 -23.515625 20.265625 -23.617188 19.953125 -23.828125 C 19.460938 -24.128906 19.21875 -24.546875 19.21875 -25.078125 C 19.21875 -25.460938 19.445312 -26.046875 19.90625 -26.828125 C 21.070312 -28.742188 22.023438 -31.101562 22.765625 -33.90625 C 23.035156 -35 23.722656 -35.546875 24.828125 -35.546875 C 25.265625 -35.546875 25.671875 -35.445312 26.046875 -35.25 C 26.828125 -34.863281 27.21875 -34.253906 27.21875 -33.421875 C 27.21875 -32.910156 27.066406 -32.253906 26.765625 -31.453125 L 36.796875 -32.296875 C 36.859375 -32.296875 36.9375 -32.296875 37.03125 -32.296875 C 38.238281 -32.234375 38.84375 -31.613281 38.84375 -30.4375 C 38.84375 -29.207031 38.28125 -28.554688 37.15625 -28.484375 Z M 9.234375 -8.609375 L 9.234375 -2.609375 C 11.097656 -3.085938 12.9375 -3.6875 14.75 -4.40625 C 14.457031 -4.96875 14.207031 -5.40625 14 -5.71875 C 13.769531 -6.09375 13.65625 -6.46875 13.65625 -6.84375 C 13.65625 -7.320312 13.8125 -7.691406 14.125 -7.953125 C 14.457031 -8.210938 14.804688 -8.34375 15.171875 -8.34375 C 16.222656 -8.34375 17.613281 -7.128906 19.34375 -4.703125 C 20.414062 -3.179688 20.953125 -1.945312 20.953125 -1 C 20.953125 -0.28125 20.640625 0.304688 20.015625 0.765625 C 19.546875 1.085938 19.039062 1.25 18.5 1.25 C 17.71875 1.25 17.132812 0.945312 16.75 0.34375 C 16.65625 0.207031 16.515625 -0.109375 16.328125 -0.609375 C 16.242188 -0.847656 16.175781 -1.039062 16.125 -1.1875 C 14.550781 -0.21875 12.457031 0.789062 9.84375 1.84375 C 8.78125 2.28125 7.988281 2.5 7.46875 2.5 C 6.78125 2.5 6.113281 2.160156 5.46875 1.484375 C 4.976562 0.960938 4.734375 0.175781 4.734375 -0.875 L 4.734375 -18.296875 C 4.234375 -18.578125 3.984375 -19.039062 3.984375 -19.6875 C 3.984375 -20.6875 4.539062 -21.25 5.65625 -21.375 L 16.40625 -22.640625 C 16.664062 -22.671875 16.882812 -22.6875 17.0625 -22.6875 C 19.101562 -22.6875 20.125 -21.59375 20.125 -19.40625 C 20.125 -19.363281 20.113281 -19.253906 20.09375 -19.078125 L 19.640625 -10.34375 C 19.578125 -9.007812 18.84375 -8.34375 17.4375 -8.34375 C 16.394531 -8.34375 15.726562 -8.691406 15.4375 -9.390625 Z M 9.234375 -11.828125 L 15.421875 -12.6875 L 15.53125 -14.640625 L 9.234375 -13.859375 Z M 9.234375 -18.515625 L 9.234375 -16.796875 L 15.671875 -17.5625 L 15.6875 -18.234375 C 15.695312 -18.296875 15.703125 -18.359375 15.703125 -18.421875 C 15.734375 -18.953125 15.515625 -19.21875 15.046875 -19.21875 C 14.984375 -19.21875 14.890625 -19.210938 14.765625 -19.203125 Z M 27.90625 -18.328125 L 27.90625 1.484375 C 27.90625 2.078125 27.71875 2.5625 27.34375 2.9375 C 26.882812 3.351562 26.273438 3.5625 25.515625 3.5625 C 24.421875 3.5625 23.675781 3.175781 23.28125 2.40625 C 23.144531 2.144531 23.078125 1.835938 23.078125 1.484375 L 23.078125 -17.984375 C 22.378906 -18.316406 22.03125 -18.976562 22.03125 -19.96875 C 22.03125 -21.226562 22.671875 -21.921875 23.953125 -22.046875 L 34.171875 -23.09375 C 34.390625 -23.125 34.632812 -23.140625 34.90625 -23.140625 C 36.21875 -23.140625 37.140625 -22.6875 37.671875 -21.78125 C 38.054688 -21.113281 38.25 -19.882812 38.25 -18.09375 C 38.25 -14.113281 38.023438 -10.753906 37.578125 -8.015625 C 37.117188 -5.265625 35.851562 -3.890625 33.78125 -3.890625 C 32.625 -3.890625 31.222656 -4.445312 29.578125 -5.5625 C 28.679688 -6.144531 28.234375 -6.789062 28.234375 -7.5 C 28.234375 -8.445312 28.660156 -8.921875 29.515625 -8.921875 C 29.671875 -8.921875 29.867188 -8.882812 30.109375 -8.8125 C 30.847656 -8.625 31.441406 -8.53125 31.890625 -8.53125 C 32.410156 -8.53125 32.722656 -8.84375 32.828125 -9.46875 C 32.929688 -9.945312 33.039062 -10.988281 33.15625 -12.59375 C 33.320312 -14.664062 33.40625 -16.359375 33.40625 -17.671875 C 33.40625 -18.441406 33.125 -18.828125 32.5625 -18.828125 C 32.5 -18.828125 32.429688 -18.828125 32.359375 -18.828125 Z M 27.90625 -18.328125 "/></g></g></g><g fill="#ffffff" fill-opacity="1"><g transform="translate(15.000003, 120.001343)"><g><path d="M 12.578125 -17.640625 C 12.453125 -17.984375 12.390625 -18.320312 12.390625 -18.65625 C 12.390625 -19.90625 12.976562 -20.59375 14.15625 -20.71875 L 18.359375 -21.125 L 18.359375 -24.40625 L 15.953125 -24.203125 C 15.859375 -24.179688 15.765625 -24.171875 15.671875 -24.171875 C 15.054688 -24.171875 14.582031 -24.40625 14.25 -24.875 C 14.019531 -25.207031 13.90625 -25.640625 13.90625 -26.171875 C 13.90625 -27.492188 14.503906 -28.203125 15.703125 -28.296875 L 18.359375 -28.53125 L 18.359375 -32.265625 C 18.359375 -32.960938 18.675781 -33.492188 19.3125 -33.859375 C 19.738281 -34.109375 20.191406 -34.234375 20.671875 -34.234375 C 21.296875 -34.234375 21.84375 -34.039062 22.3125 -33.65625 C 22.75 -33.300781 22.96875 -32.835938 22.96875 -32.265625 L 22.96875 -28.9375 L 25.453125 -29.140625 C 25.554688 -29.148438 25.644531 -29.15625 25.71875 -29.15625 C 26.332031 -29.15625 26.796875 -28.929688 27.109375 -28.484375 C 27.378906 -28.097656 27.515625 -27.617188 27.515625 -27.046875 C 27.515625 -25.847656 26.914062 -25.191406 25.71875 -25.078125 L 22.96875 -24.828125 L 22.96875 -21.578125 L 26.84375 -21.96875 C 26.9375 -21.976562 27.015625 -21.984375 27.078125 -21.984375 C 27.734375 -22.023438 28.238281 -21.769531 28.59375 -21.21875 C 28.832031 -20.84375 28.953125 -20.375 28.953125 -19.8125 C 28.953125 -18.59375 28.34375 -17.921875 27.125 -17.796875 L 14.5 -16.59375 C 14.363281 -16.582031 14.269531 -16.578125 14.21875 -16.578125 C 13.9375 -16.578125 13.660156 -16.632812 13.390625 -16.75 C 13.503906 -16.476562 13.5625 -16.238281 13.5625 -16.03125 C 13.5625 -15.414062 13.21875 -14.859375 12.53125 -14.359375 C 12.175781 -14.109375 11.429688 -13.65625 10.296875 -13 L 10.296875 -0.46875 C 10.296875 1.820312 9.332031 2.96875 7.40625 2.96875 C 6.59375 2.96875 5.519531 2.65625 4.1875 2.03125 C 2.4375 1.195312 1.5625 0.367188 1.5625 -0.453125 C 1.5625 -1.335938 1.988281 -1.78125 2.84375 -1.78125 C 3.0625 -1.78125 3.34375 -1.734375 3.6875 -1.640625 C 4.144531 -1.503906 4.570312 -1.4375 4.96875 -1.4375 C 5.519531 -1.4375 5.796875 -1.785156 5.796875 -2.484375 L 5.796875 -10.78125 C 4.628906 -10.25 3.796875 -9.984375 3.296875 -9.984375 C 2.441406 -9.984375 1.820312 -10.378906 1.4375 -11.171875 C 1.257812 -11.566406 1.171875 -11.957031 1.171875 -12.34375 C 1.171875 -13.425781 1.894531 -14.195312 3.34375 -14.65625 C 4.101562 -14.90625 4.921875 -15.195312 5.796875 -15.53125 L 5.796875 -21.609375 L 3.609375 -21.28125 C 3.484375 -21.269531 3.367188 -21.265625 3.265625 -21.265625 C 2.753906 -21.265625 2.335938 -21.46875 2.015625 -21.875 C 1.660156 -22.3125 1.484375 -22.910156 1.484375 -23.671875 C 1.484375 -24.898438 2.03125 -25.585938 3.125 -25.734375 L 5.796875 -26.109375 L 5.796875 -32.546875 C 5.796875 -33.328125 6.15625 -33.894531 6.875 -34.25 C 7.238281 -34.425781 7.632812 -34.515625 8.0625 -34.515625 C 8.757812 -34.515625 9.328125 -34.300781 9.765625 -33.875 C 10.117188 -33.519531 10.296875 -33.078125 10.296875 -32.546875 L 10.296875 -26.75 L 11.34375 -26.890625 C 11.46875 -26.898438 11.554688 -26.90625 11.609375 -26.90625 C 12.890625 -26.90625 13.53125 -26.140625 13.53125 -24.609375 C 13.53125 -23.378906 12.972656 -22.679688 11.859375 -22.515625 L 10.296875 -22.296875 L 10.296875 -17.28125 C 10.960938 -17.601562 11.503906 -17.765625 11.921875 -17.765625 C 12.140625 -17.765625 12.359375 -17.722656 12.578125 -17.640625 Z M 22.96875 -13.34375 L 25.703125 -13.65625 C 25.753906 -13.65625 25.851562 -13.65625 26 -13.65625 C 26.550781 -13.65625 26.988281 -13.453125 27.3125 -13.046875 C 27.613281 -12.691406 27.765625 -12.226562 27.765625 -11.65625 C 27.765625 -10.375 27.148438 -9.664062 25.921875 -9.53125 L 22.96875 -9.203125 L 22.96875 -6.21875 C 24.332031 -6.53125 25.664062 -6.863281 26.96875 -7.21875 C 27.238281 -7.300781 27.484375 -7.34375 27.703125 -7.34375 C 28.703125 -7.34375 29.203125 -6.726562 29.203125 -5.5 C 29.203125 -4.726562 28.789062 -4.160156 27.96875 -3.796875 C 26.238281 -3.046875 23.328125 -2.132812 19.234375 -1.0625 C 16.429688 -0.320312 14.679688 0.046875 13.984375 0.046875 C 13.242188 0.046875 12.710938 -0.242188 12.390625 -0.828125 C 12.117188 -1.285156 11.984375 -1.8125 11.984375 -2.40625 C 11.984375 -3.289062 12.296875 -3.90625 12.921875 -4.25 C 13.140625 -4.375 13.644531 -4.484375 14.4375 -4.578125 C 15.207031 -4.679688 16.515625 -4.90625 18.359375 -5.25 L 18.359375 -8.703125 L 15.296875 -8.375 C 15.109375 -8.34375 14.988281 -8.328125 14.9375 -8.328125 C 14.425781 -8.328125 14.003906 -8.507812 13.671875 -8.875 C 13.347656 -9.257812 13.1875 -9.773438 13.1875 -10.421875 C 13.1875 -11.660156 13.773438 -12.34375 14.953125 -12.46875 L 18.359375 -12.84375 L 18.359375 -14.75 C 18.359375 -15.425781 18.675781 -15.953125 19.3125 -16.328125 C 19.738281 -16.585938 20.191406 -16.71875 20.671875 -16.71875 C 21.359375 -16.71875 21.945312 -16.484375 22.4375 -16.015625 C 22.789062 -15.671875 22.96875 -15.25 22.96875 -14.75 Z M 34.140625 -21.53125 C 34.222656 -21.476562 34.332031 -21.414062 34.46875 -21.34375 C 36.570312 -20.28125 38.5 -19.03125 40.25 -17.59375 C 40.976562 -17.007812 41.34375 -16.328125 41.34375 -15.546875 C 41.34375 -14.859375 41.078125 -14.285156 40.546875 -13.828125 C 40.109375 -13.441406 39.613281 -13.25 39.0625 -13.25 C 38.351562 -13.25 37.597656 -13.703125 36.796875 -14.609375 C 36.117188 -15.367188 35.234375 -16.253906 34.140625 -17.265625 L 34.140625 1.4375 C 34.140625 1.9375 33.988281 2.359375 33.6875 2.703125 C 33.238281 3.222656 32.617188 3.484375 31.828125 3.484375 C 30.828125 3.484375 30.128906 3.125 29.734375 2.40625 C 29.566406 2.113281 29.484375 1.789062 29.484375 1.4375 L 29.484375 -32.703125 C 29.484375 -33.421875 29.773438 -33.96875 30.359375 -34.34375 C 30.796875 -34.632812 31.289062 -34.78125 31.84375 -34.78125 C 32.5625 -34.78125 33.144531 -34.554688 33.59375 -34.109375 C 33.957031 -33.734375 34.140625 -33.265625 34.140625 -32.703125 Z M 34.140625 -21.53125 "/></g></g></g><g fill="#ffffff" fill-opacity="1"><g transform="translate(56.160004, 120.001343)"><g><path d="M 26.5625 -23.734375 C 26.476562 -25.554688 26.367188 -27.515625 26.234375 -29.609375 C 26.210938 -29.847656 26.203125 -30.046875 26.203125 -30.203125 C 26.203125 -31.765625 27.066406 -32.546875 28.796875 -32.546875 C 30.253906 -32.546875 31.066406 -31.867188 31.234375 -30.515625 C 31.328125 -29.785156 31.441406 -27.722656 31.578125 -24.328125 L 31.828125 -24.34375 C 33.484375 -24.507812 34.46875 -24.613281 34.78125 -24.65625 C 34.96875 -24.675781 35.171875 -24.6875 35.390625 -24.6875 C 37.066406 -24.6875 37.90625 -23.929688 37.90625 -22.421875 C 37.90625 -21.222656 37.492188 -20.460938 36.671875 -20.140625 C 36.398438 -20.015625 36.007812 -19.925781 35.5 -19.875 C 35.207031 -19.84375 34.445312 -19.757812 33.21875 -19.625 C 32.726562 -19.570312 32.210938 -19.507812 31.671875 -19.4375 L 31.6875 -18.921875 C 31.738281 -14.972656 31.765625 -12.753906 31.765625 -12.265625 C 31.765625 -6.835938 29.671875 -2.503906 25.484375 0.734375 C 24.472656 1.523438 23.671875 1.921875 23.078125 1.921875 C 22.472656 1.921875 21.992188 1.691406 21.640625 1.234375 C 21.335938 0.847656 21.1875 0.441406 21.1875 0.015625 C 21.1875 -0.554688 21.457031 -1.09375 22 -1.59375 C 24.125 -3.5 25.554688 -5.765625 26.296875 -8.390625 C 26.617188 -9.523438 26.78125 -11.082031 26.78125 -13.0625 C 26.78125 -13.75 26.757812 -15.492188 26.71875 -18.296875 L 26.71875 -18.90625 L 26.171875 -18.84375 C 21.617188 -18.363281 19.234375 -18.125 19.015625 -18.125 C 18.148438 -18.125 17.523438 -18.429688 17.140625 -19.046875 C 16.878906 -19.460938 16.75 -19.953125 16.75 -20.515625 C 16.75 -21.785156 17.457031 -22.539062 18.875 -22.78125 C 19.882812 -22.957031 22.445312 -23.273438 26.5625 -23.734375 Z M 10.9375 -8.09375 C 11.519531 -9.507812 12.007812 -10.523438 12.40625 -11.140625 C 12.78125 -11.734375 13.234375 -12.03125 13.765625 -12.03125 C 14.003906 -12.03125 14.234375 -11.984375 14.453125 -11.890625 C 14.992188 -11.648438 15.265625 -11.207031 15.265625 -10.5625 C 15.265625 -10.300781 15.117188 -9.882812 14.828125 -9.3125 C 14.460938 -8.570312 13.867188 -7.023438 13.046875 -4.671875 C 12.648438 -3.566406 12.304688 -2.800781 12.015625 -2.375 C 11.472656 -1.539062 10.785156 -1.125 9.953125 -1.125 C 8.796875 -1.125 7.921875 -1.820312 7.328125 -3.21875 C 6.390625 -5.363281 5.921875 -8.648438 5.921875 -13.078125 C 5.921875 -16.785156 6.269531 -21.359375 6.96875 -26.796875 C 7.125 -28.003906 7.273438 -28.800781 7.421875 -29.1875 C 7.796875 -30.15625 8.566406 -30.640625 9.734375 -30.640625 C 11.410156 -30.640625 12.25 -29.878906 12.25 -28.359375 C 12.25 -28.117188 12.1875 -27.617188 12.0625 -26.859375 C 11.625 -24.398438 11.226562 -21.046875 10.875 -16.796875 C 10.757812 -15.609375 10.703125 -14.535156 10.703125 -13.578125 C 10.703125 -11.816406 10.78125 -9.988281 10.9375 -8.09375 Z M 10.9375 -8.09375 "/></g></g></g><g fill="#ffffff" fill-opacity="1"><g transform="translate(97.320006, 120.001343)"><g><path d="M 11.796875 -7.171875 C 10.617188 -3.398438 8.632812 -0.296875 5.84375 2.140625 C 5.226562 2.671875 4.609375 2.9375 3.984375 2.9375 C 3.515625 2.9375 3.109375 2.78125 2.765625 2.46875 C 2.378906 2.125 2.1875 1.722656 2.1875 1.265625 C 2.1875 0.898438 2.304688 0.523438 2.546875 0.140625 C 2.640625 -0.0234375 2.945312 -0.4375 3.46875 -1.09375 C 5.21875 -3.34375 6.425781 -5.882812 7.09375 -8.71875 C 7.425781 -10.09375 7.59375 -11.488281 7.59375 -12.90625 L 7.59375 -14.0625 C 6.59375 -14.164062 6.09375 -14.773438 6.09375 -15.890625 C 6.09375 -17.066406 6.644531 -17.691406 7.75 -17.765625 L 31.875 -19.359375 C 32.03125 -19.367188 32.226562 -19.375 32.46875 -19.375 C 34.625 -19.375 35.703125 -18.515625 35.703125 -16.796875 C 35.703125 -16.328125 35.628906 -15.796875 35.484375 -15.203125 L 34.671875 -12.015625 C 35.265625 -11.671875 35.5625 -11.101562 35.5625 -10.3125 C 35.5625 -9.132812 34.972656 -8.515625 33.796875 -8.453125 Z M 23.609375 -11.65625 L 29.75 -12 L 30.1875 -14.5 C 30.21875 -14.644531 30.234375 -14.78125 30.234375 -14.90625 C 30.234375 -15.332031 29.953125 -15.546875 29.390625 -15.546875 C 29.335938 -15.546875 29.28125 -15.546875 29.21875 -15.546875 L 23.609375 -15.15625 Z M 18.71875 -11.359375 L 18.71875 -14.828125 L 12.671875 -14.390625 L 12.671875 -13.109375 C 12.671875 -12.453125 12.640625 -11.753906 12.578125 -11.015625 Z M 23.609375 -26.59375 L 23.609375 -24.609375 L 32.703125 -25.28125 C 32.734375 -25.28125 32.785156 -25.28125 32.859375 -25.28125 C 33.515625 -25.28125 34.007812 -25.019531 34.34375 -24.5 C 34.5625 -24.175781 34.671875 -23.796875 34.671875 -23.359375 C 34.671875 -22.585938 34.40625 -22.019531 33.875 -21.65625 C 33.613281 -21.46875 33.304688 -21.359375 32.953125 -21.328125 L 9.859375 -19.703125 L 9.703125 -19.6875 C 9.210938 -19.6875 8.804688 -19.832031 8.484375 -20.125 C 8.085938 -20.457031 7.890625 -20.929688 7.890625 -21.546875 C 7.890625 -22.304688 8.148438 -22.867188 8.671875 -23.234375 C 8.929688 -23.421875 9.25 -23.53125 9.625 -23.5625 L 18.484375 -24.21875 L 18.484375 -26.25 L 6.5 -25.453125 C 6.46875 -25.453125 6.414062 -25.453125 6.34375 -25.453125 C 5.101562 -25.453125 4.484375 -26.117188 4.484375 -27.453125 C 4.484375 -28.804688 5.070312 -29.523438 6.25 -29.609375 L 18.484375 -30.4375 L 18.484375 -33.015625 C 18.484375 -33.828125 18.835938 -34.429688 19.546875 -34.828125 C 19.992188 -35.066406 20.492188 -35.1875 21.046875 -35.1875 C 21.929688 -35.1875 22.617188 -34.914062 23.109375 -34.375 C 23.441406 -34 23.609375 -33.546875 23.609375 -33.015625 L 23.609375 -30.78125 L 35.71875 -31.578125 C 36.445312 -31.640625 36.988281 -31.394531 37.34375 -30.84375 C 37.613281 -30.445312 37.75 -29.960938 37.75 -29.390625 C 37.75 -28.160156 37.175781 -27.503906 36.03125 -27.421875 Z M 23.609375 -26.59375 "/></g></g></g><g fill="#ffffff" fill-opacity="1"><g transform="translate(138.480007, 120.001343)"><g><path d="M 17.3125 -24.5625 C 17.875 -26.957031 18.273438 -29.125 18.515625 -31.0625 C 18.722656 -32.71875 19.609375 -33.546875 21.171875 -33.546875 C 22.972656 -33.546875 23.875 -32.738281 23.875 -31.125 C 23.875 -30.03125 23.546875 -28.003906 22.890625 -25.046875 C 24.828125 -25.191406 27.003906 -25.394531 29.421875 -25.65625 C 29.753906 -25.6875 30.046875 -25.703125 30.296875 -25.703125 C 31.410156 -25.703125 32.359375 -25.421875 33.140625 -24.859375 C 34.148438 -24.117188 34.65625 -23.050781 34.65625 -21.65625 C 34.65625 -21.175781 34.476562 -19.738281 34.125 -17.34375 C 33.101562 -10.488281 31.738281 -5.359375 30.03125 -1.953125 C 28.957031 0.171875 27.539062 1.234375 25.78125 1.234375 C 24.832031 1.234375 23.847656 0.867188 22.828125 0.140625 C 19.734375 -2.015625 18.1875 -3.613281 18.1875 -4.65625 C 18.1875 -4.976562 18.289062 -5.300781 18.5 -5.625 C 18.726562 -5.976562 19.070312 -6.15625 19.53125 -6.15625 C 19.988281 -6.15625 20.5625 -5.984375 21.25 -5.640625 C 23.019531 -4.722656 24.125 -4.265625 24.5625 -4.265625 C 24.957031 -4.265625 25.316406 -4.550781 25.640625 -5.125 C 26.597656 -6.945312 27.492188 -9.757812 28.328125 -13.5625 C 28.992188 -16.601562 29.328125 -18.71875 29.328125 -19.90625 C 29.328125 -20.5 29.066406 -20.796875 28.546875 -20.796875 C 27.660156 -20.796875 25.328125 -20.609375 21.546875 -20.234375 C 18.921875 -12.347656 14.804688 -6.210938 9.203125 -1.828125 C 7.992188 -0.867188 7.066406 -0.390625 6.421875 -0.390625 C 5.910156 -0.390625 5.472656 -0.582031 5.109375 -0.96875 C 4.671875 -1.425781 4.453125 -1.894531 4.453125 -2.375 C 4.453125 -2.882812 4.679688 -3.390625 5.140625 -3.890625 C 5.253906 -4.003906 5.722656 -4.4375 6.546875 -5.1875 C 9.960938 -8.300781 12.742188 -12.242188 14.890625 -17.015625 C 15.234375 -17.796875 15.601562 -18.75 16 -19.875 C 11.664062 -19.40625 9.132812 -19.171875 8.40625 -19.171875 C 6.726562 -19.171875 5.890625 -20.003906 5.890625 -21.671875 C 5.890625 -23.179688 6.9375 -23.976562 9.03125 -24.0625 C 10.875 -24.125 13.632812 -24.289062 17.3125 -24.5625 Z M 17.3125 -24.5625 "/></g></g></g><g fill="#ffffff" fill-opacity="1"><g transform="translate(179.640008, 120.001343)"><g><path d="M 33.71875 -20.15625 C 34.570312 -20.15625 35.25 -19.890625 35.75 -19.359375 C 36.164062 -18.921875 36.375 -18.332031 36.375 -17.59375 C 36.375 -16.21875 35.726562 -15.398438 34.4375 -15.140625 C 34.09375 -15.054688 29.476562 -14.820312 20.59375 -14.4375 C 16.5 -14.257812 12.171875 -14.046875 7.609375 -13.796875 C 7.441406 -13.785156 7.285156 -13.78125 7.140625 -13.78125 C 6.367188 -13.78125 5.722656 -14.003906 5.203125 -14.453125 C 4.671875 -14.929688 4.40625 -15.5625 4.40625 -16.34375 C 4.40625 -17.46875 4.90625 -18.238281 5.90625 -18.65625 C 6.3125 -18.820312 7.28125 -18.929688 8.8125 -18.984375 C 10.164062 -19.023438 13.59375 -19.1875 19.09375 -19.46875 C 21.425781 -19.582031 24.625 -19.726562 28.6875 -19.90625 C 30.050781 -19.96875 31.132812 -20.023438 31.9375 -20.078125 C 32.925781 -20.128906 33.519531 -20.15625 33.71875 -20.15625 Z M 33.71875 -20.15625 "/></g></g></g><g fill="#ffffff" fill-opacity="1"><g transform="translate(220.80001, 120.001343)"><g><path d="M 20 -16.625 L 20 -0.546875 C 20 0.210938 19.75 0.796875 19.25 1.203125 C 18.789062 1.609375 18.175781 1.8125 17.40625 1.8125 C 15.65625 1.8125 14.78125 1.023438 14.78125 -0.546875 L 14.78125 -31.21875 C 14.78125 -32.769531 15.65625 -33.546875 17.40625 -33.546875 C 18.539062 -33.546875 19.316406 -33.15625 19.734375 -32.375 C 19.910156 -32.039062 20 -31.65625 20 -31.21875 L 20 -21.125 C 24.875 -19.851562 28.664062 -18.320312 31.375 -16.53125 C 32.5625 -15.757812 33.15625 -14.820312 33.15625 -13.71875 C 33.15625 -13 32.910156 -12.378906 32.421875 -11.859375 C 31.898438 -11.296875 31.257812 -11.015625 30.5 -11.015625 C 29.84375 -11.015625 29.03125 -11.347656 28.0625 -12.015625 C 25.769531 -13.578125 23.082031 -15.113281 20 -16.625 Z M 28.921875 -29.28125 C 29.691406 -29.28125 30.921875 -28.515625 32.609375 -26.984375 C 34.046875 -25.691406 34.765625 -24.664062 34.765625 -23.90625 C 34.765625 -23.363281 34.53125 -22.90625 34.0625 -22.53125 C 33.675781 -22.238281 33.257812 -22.09375 32.8125 -22.09375 C 32.1875 -22.09375 31.65625 -22.445312 31.21875 -23.15625 C 30.425781 -24.457031 29.453125 -25.703125 28.296875 -26.890625 C 27.921875 -27.285156 27.734375 -27.691406 27.734375 -28.109375 C 27.734375 -28.890625 28.128906 -29.28125 28.921875 -29.28125 Z M 33.1875 -32.5 C 34 -32.5 35.179688 -31.851562 36.734375 -30.5625 C 38.171875 -29.351562 38.890625 -28.328125 38.890625 -27.484375 C 38.890625 -26.890625 38.660156 -26.425781 38.203125 -26.09375 C 37.878906 -25.84375 37.507812 -25.71875 37.09375 -25.71875 C 36.507812 -25.71875 35.992188 -26.0625 35.546875 -26.75 C 34.785156 -27.875 33.804688 -29.015625 32.609375 -30.171875 C 32.171875 -30.585938 31.953125 -30.992188 31.953125 -31.390625 C 31.953125 -31.671875 32.0625 -31.925781 32.28125 -32.15625 C 32.5 -32.382812 32.800781 -32.5 33.1875 -32.5 Z M 33.1875 -32.5 "/></g></g></g><g fill="#ffffff" fill-opacity="1"><g transform="translate(261.960011, 120.001343)"><g><path d="M 8.34375 -29.609375 C 10.5625 -30.660156 12.75 -31.988281 14.90625 -33.59375 C 15.476562 -34.03125 16.070312 -34.25 16.6875 -34.25 C 17.445312 -34.25 18.078125 -33.9375 18.578125 -33.3125 C 19.003906 -32.789062 19.21875 -32.203125 19.21875 -31.546875 C 19.21875 -30.554688 18.601562 -29.734375 17.375 -29.078125 C 14.613281 -27.628906 11.859375 -26.535156 9.109375 -25.796875 L 9.25 -21.1875 L 16.359375 -22.125 C 16.441406 -22.144531 16.53125 -22.15625 16.625 -22.15625 C 17.28125 -22.15625 17.816406 -21.914062 18.234375 -21.4375 C 18.585938 -21.019531 18.765625 -20.507812 18.765625 -19.90625 C 18.765625 -18.957031 18.421875 -18.273438 17.734375 -17.859375 C 17.460938 -17.691406 17.148438 -17.59375 16.796875 -17.5625 L 9.390625 -16.71875 L 9.578125 -11 L 17 -11.859375 C 17.050781 -11.859375 17.144531 -11.859375 17.28125 -11.859375 C 17.957031 -11.859375 18.5 -11.585938 18.90625 -11.046875 C 19.257812 -10.597656 19.4375 -10.070312 19.4375 -9.46875 C 19.4375 -8.476562 19.019531 -7.789062 18.1875 -7.40625 C 17.988281 -7.3125 17.75 -7.25 17.46875 -7.21875 L 9.71875 -6.4375 L 9.734375 -6.125 C 9.722656 -5.488281 9.539062 -4.976562 9.1875 -4.59375 C 8.707031 -4.101562 8.050781 -3.859375 7.21875 -3.859375 C 6.082031 -3.859375 5.3125 -4.269531 4.90625 -5.09375 C 4.75 -5.382812 4.664062 -5.726562 4.65625 -6.125 L 3.78125 -27.96875 C 3.78125 -28.664062 4 -29.222656 4.4375 -29.640625 C 4.925781 -30.078125 5.582031 -30.296875 6.40625 -30.296875 C 7.21875 -30.296875 7.863281 -30.066406 8.34375 -29.609375 Z M 26.203125 -24.921875 L 26.203125 1.09375 C 26.203125 1.6875 26.015625 2.175781 25.640625 2.5625 C 25.140625 3.070312 24.472656 3.328125 23.640625 3.328125 C 22.535156 3.328125 21.78125 2.910156 21.375 2.078125 C 21.238281 1.785156 21.171875 1.457031 21.171875 1.09375 L 21.171875 -24.40625 C 20.742188 -24.457031 20.382812 -24.609375 20.09375 -24.859375 C 19.550781 -25.316406 19.28125 -25.960938 19.28125 -26.796875 C 19.28125 -27.828125 19.707031 -28.554688 20.5625 -28.984375 C 20.882812 -29.140625 21.222656 -29.234375 21.578125 -29.265625 L 33.8125 -30.625 C 34.1875 -30.664062 34.566406 -30.6875 34.953125 -30.6875 C 36.242188 -30.6875 37.175781 -30.335938 37.75 -29.640625 C 38.039062 -29.273438 38.25 -28.816406 38.375 -28.265625 C 38.457031 -27.847656 38.5 -26.957031 38.5 -25.59375 C 38.5 -20.21875 38.191406 -15.671875 37.578125 -11.953125 C 37.328125 -10.378906 36.941406 -9.265625 36.421875 -8.609375 C 35.804688 -7.847656 34.890625 -7.46875 33.671875 -7.46875 C 32.472656 -7.46875 30.769531 -8.066406 28.5625 -9.265625 C 27.5 -9.859375 26.96875 -10.550781 26.96875 -11.34375 C 26.96875 -12.40625 27.519531 -12.9375 28.625 -12.9375 C 28.832031 -12.9375 29.0625 -12.910156 29.3125 -12.859375 C 30.082031 -12.679688 30.722656 -12.59375 31.234375 -12.59375 C 31.941406 -12.59375 32.378906 -13.070312 32.546875 -14.03125 C 32.679688 -14.769531 32.796875 -15.785156 32.890625 -17.078125 C 33.109375 -19.722656 33.21875 -22.054688 33.21875 -24.078125 C 33.21875 -24.679688 33.15625 -25.070312 33.03125 -25.25 C 32.875 -25.476562 32.597656 -25.59375 32.203125 -25.59375 C 32.066406 -25.59375 31.941406 -25.585938 31.828125 -25.578125 Z M 26.203125 -24.921875 "/></g></g></g><g fill="#ffffff" fill-opacity="1"><g transform="translate(303.120012, 120.001343)"><g><path d="M 8.703125 -20.6875 L 8.65625 -20.0625 C 8.539062 -18.375 8.414062 -17.023438 8.28125 -16.015625 C 8.269531 -15.890625 8.257812 -15.78125 8.25 -15.6875 C 8.613281 -16 9.082031 -16.15625 9.65625 -16.15625 C 10.34375 -16.15625 10.863281 -15.976562 11.21875 -15.625 L 14.234375 -15.96875 L 14.234375 -18.984375 C 14.234375 -19.660156 14.492188 -20.175781 15.015625 -20.53125 C 15.367188 -20.757812 15.796875 -20.875 16.296875 -20.875 C 16.992188 -20.875 17.539062 -20.65625 17.9375 -20.21875 C 18.238281 -19.894531 18.390625 -19.484375 18.390625 -18.984375 L 18.390625 -16.484375 L 21.4375 -16.84375 C 21.726562 -16.882812 22.066406 -16.90625 22.453125 -16.90625 C 23.710938 -16.90625 24.554688 -16.503906 24.984375 -15.703125 C 25.296875 -15.117188 25.453125 -14.101562 25.453125 -12.65625 C 25.453125 -8.820312 25.191406 -6.113281 24.671875 -4.53125 C 24.222656 -3.1875 23.4375 -2.515625 22.3125 -2.515625 C 21.300781 -2.515625 20.300781 -2.96875 19.3125 -3.875 C 18.769531 -4.300781 18.5 -4.738281 18.5 -5.1875 C 18.5 -5.976562 18.867188 -6.375 19.609375 -6.375 C 19.742188 -6.375 19.914062 -6.351562 20.125 -6.3125 C 20.21875 -6.300781 20.316406 -6.296875 20.421875 -6.296875 C 20.753906 -6.296875 20.960938 -6.535156 21.046875 -7.015625 C 21.242188 -8.203125 21.34375 -9.894531 21.34375 -12.09375 C 21.34375 -12.726562 21.15625 -13.03125 20.78125 -13 C 20.71875 -13 20.640625 -12.992188 20.546875 -12.984375 L 18.390625 -12.6875 L 18.390625 1 C 18.390625 1.4375 18.238281 1.816406 17.9375 2.140625 C 17.539062 2.554688 16.992188 2.765625 16.296875 2.765625 C 15.460938 2.765625 14.859375 2.472656 14.484375 1.890625 C 14.316406 1.640625 14.234375 1.34375 14.234375 1 L 14.234375 -12.15625 L 11.8125 -11.859375 L 12.140625 -4.28125 L 12.140625 -4.15625 C 12.210938 -3.007812 11.554688 -2.4375 10.171875 -2.4375 C 8.898438 -2.4375 8.238281 -3.023438 8.1875 -4.203125 L 7.796875 -12.96875 C 7.109375 -9.164062 6.109375 -5.972656 4.796875 -3.390625 C 4.035156 -1.910156 3.265625 -1.171875 2.484375 -1.171875 C 2.085938 -1.171875 1.710938 -1.3125 1.359375 -1.59375 C 1.015625 -1.851562 0.84375 -2.21875 0.84375 -2.6875 C 0.84375 -3.09375 0.960938 -3.625 1.203125 -4.28125 C 3.328125 -9.75 4.390625 -17.003906 4.390625 -26.046875 L 4.375 -27.734375 L 4.375 -27.875 C 3.78125 -28.238281 3.484375 -28.851562 3.484375 -29.71875 C 3.484375 -30.894531 4.113281 -31.546875 5.375 -31.671875 L 21.59375 -33.34375 C 21.71875 -33.351562 21.867188 -33.359375 22.046875 -33.359375 C 22.835938 -33.359375 23.5 -33.175781 24.03125 -32.8125 C 24.726562 -32.320312 25.078125 -31.597656 25.078125 -30.640625 C 25.078125 -30.296875 25.035156 -29.941406 24.953125 -29.578125 L 24 -25.53125 C 24.320312 -25.144531 24.484375 -24.660156 24.484375 -24.078125 C 24.484375 -22.941406 23.882812 -22.304688 22.6875 -22.171875 Z M 8.859375 -24.53125 L 19.734375 -25.65625 L 20.125 -28.421875 C 20.132812 -28.515625 20.140625 -28.601562 20.140625 -28.6875 C 20.140625 -29.070312 19.9375 -29.238281 19.53125 -29.1875 L 8.921875 -28.0625 C 8.921875 -26.75 8.898438 -25.570312 8.859375 -24.53125 Z M 31.453125 -26.84375 L 31.453125 -10.96875 C 31.453125 -10.507812 31.304688 -10.113281 31.015625 -9.78125 C 30.597656 -9.351562 30.03125 -9.140625 29.3125 -9.140625 C 28.414062 -9.140625 27.769531 -9.445312 27.375 -10.0625 C 27.207031 -10.320312 27.125 -10.625 27.125 -10.96875 L 27.125 -26.84375 C 27.125 -27.46875 27.40625 -27.953125 27.96875 -28.296875 C 28.382812 -28.554688 28.835938 -28.6875 29.328125 -28.6875 C 29.929688 -28.6875 30.441406 -28.492188 30.859375 -28.109375 C 31.253906 -27.773438 31.453125 -27.351562 31.453125 -26.84375 Z M 38.796875 -31.96875 L 38.796875 -0.96875 C 38.796875 1.550781 37.765625 2.8125 35.703125 2.8125 C 34.597656 2.8125 33.070312 2.414062 31.125 1.625 C 30.238281 1.269531 29.550781 0.925781 29.0625 0.59375 C 28.425781 0.195312 28.109375 -0.289062 28.109375 -0.875 C 28.109375 -1.851562 28.617188 -2.34375 29.640625 -2.34375 C 29.921875 -2.34375 30.28125 -2.289062 30.71875 -2.1875 C 31.988281 -1.90625 32.867188 -1.765625 33.359375 -1.765625 C 33.941406 -1.765625 34.234375 -2.113281 34.234375 -2.8125 L 34.234375 -31.96875 C 34.234375 -32.664062 34.539062 -33.191406 35.15625 -33.546875 C 35.570312 -33.804688 36.03125 -33.9375 36.53125 -33.9375 C 37.15625 -33.9375 37.703125 -33.742188 38.171875 -33.359375 C 38.585938 -33.003906 38.796875 -32.539062 38.796875 -31.96875 Z M 38.796875 -31.96875 "/></g></g></g></svg>