<svg xmlns="http://www.w3.org/2000/svg" xmlns:xlink="http://www.w3.org/1999/xlink" width="600" zoomAndPan="magnify" viewBox="0 0 450 149.999998" height="200" preserveAspectRatio="xMidYMid meet" version="1.0"><defs><g/><clipPath id="95fc7a96ee"><path d="M 0 5.402344 L 450 5.402344 L 450 144.597656 L 0 144.597656 Z M 0 5.402344 " clip-rule="nonzero"/></clipPath><clipPath id="651d38677b"><path d="M 7.714844 5.402344 L 380.402344 5.402344 C 398.859375 5.402344 416.5625 12.734375 429.613281 25.785156 C 442.667969 38.839844 450 56.542969 450 75 C 450 93.457031 442.667969 111.160156 429.613281 124.214844 C 416.5625 137.265625 398.859375 144.597656 380.402344 144.597656 L 7.714844 144.597656 C -10.742188 144.597656 -28.445312 137.265625 -41.496094 124.214844 C -54.550781 111.160156 -61.882812 93.457031 -61.882812 75 C -61.882812 56.542969 -54.550781 38.839844 -41.496094 25.785156 C -28.445312 12.734375 -10.742188 5.402344 7.714844 5.402344 Z M 7.714844 5.402344 " clip-rule="nonzero"/></clipPath><clipPath id="142c1c956b"><path d="M 0 0.402344 L 450 0.402344 L 450 139.597656 L 0 139.597656 Z M 0 0.402344 " clip-rule="nonzero"/></clipPath><clipPath id="332fdf194a"><path d="M 7.714844 0.402344 L 380.402344 0.402344 C 398.859375 0.402344 416.5625 7.734375 429.613281 20.785156 C 442.667969 33.839844 450 51.542969 450 70 C 450 88.457031 442.667969 106.160156 429.613281 119.214844 C 416.5625 132.265625 398.859375 139.597656 380.402344 139.597656 L 7.714844 139.597656 C -10.742188 139.597656 -28.445312 132.265625 -41.496094 119.214844 C -54.550781 106.160156 -61.882812 88.457031 -61.882812 70 C -61.882812 51.542969 -54.550781 33.839844 -41.496094 20.785156 C -28.445312 7.734375 -10.742188 0.402344 7.714844 0.402344 Z M 7.714844 0.402344 " clip-rule="nonzero"/></clipPath><clipPath id="c81a102658"><rect x="0" width="450" y="0" height="140"/></clipPath></defs><g clip-path="url(#95fc7a96ee)"><g clip-path="url(#651d38677b)"><g transform="matrix(1, 0, 0, 1, 0, 5)"><g clip-path="url(#c81a102658)"><g clip-path="url(#142c1c956b)"><g clip-path="url(#332fdf194a)"><path fill="#737373" d="M -61.882812 0.402344 L 449.78125 0.402344 L 449.78125 139.597656 L -61.882812 139.597656 Z M -61.882812 0.402344 " fill-opacity="1" fill-rule="nonzero"/></g></g></g></g></g></g><g fill="#ffffff" fill-opacity="1"><g transform="translate(15.000003, 54.602313)"><g><path d="M 20.28125 -17.484375 C 19.832031 -16.472656 18.929688 -15.023438 17.578125 -13.140625 C 19.015625 -13.265625 20.785156 -13.519531 22.890625 -13.90625 C 22.835938 -13.976562 22.773438 -14.070312 22.703125 -14.1875 C 22.171875 -14.96875 21.90625 -15.488281 21.90625 -15.75 C 21.90625 -16.039062 22.035156 -16.300781 22.296875 -16.53125 C 22.484375 -16.707031 22.695312 -16.796875 22.9375 -16.796875 C 23.53125 -16.796875 24.507812 -16.066406 25.875 -14.609375 C 27.007812 -13.359375 27.578125 -12.410156 27.578125 -11.765625 C 27.578125 -11.359375 27.390625 -11 27.015625 -10.6875 C 26.679688 -10.414062 26.304688 -10.28125 25.890625 -10.28125 C 25.265625 -10.28125 24.765625 -10.675781 24.390625 -11.46875 C 24.335938 -11.5625 24.285156 -11.671875 24.234375 -11.796875 C 22.773438 -11.347656 20.984375 -10.925781 18.859375 -10.53125 C 16.992188 -10.1875 15.835938 -10.015625 15.390625 -10.015625 C 14.941406 -10.015625 14.601562 -10.210938 14.375 -10.609375 C 14.082031 -11.109375 13.9375 -11.507812 13.9375 -11.8125 C 13.9375 -12.113281 14.175781 -12.625 14.65625 -13.34375 C 15.394531 -14.457031 16.128906 -15.75 16.859375 -17.21875 L 14.09375 -16.984375 C 14.019531 -16.984375 13.953125 -16.984375 13.890625 -16.984375 C 12.992188 -17.023438 12.546875 -17.570312 12.546875 -18.625 C 12.546875 -19.5625 12.972656 -20.0625 13.828125 -20.125 L 18.203125 -20.484375 L 18.203125 -23.609375 C 18.203125 -24.117188 18.425781 -24.503906 18.875 -24.765625 C 19.175781 -24.953125 19.5 -25.046875 19.84375 -25.046875 C 20.332031 -25.046875 20.742188 -24.894531 21.078125 -24.59375 C 21.359375 -24.351562 21.5 -24.023438 21.5 -23.609375 L 21.5 -20.75 L 26.515625 -21.15625 C 26.535156 -21.15625 26.597656 -21.15625 26.703125 -21.15625 C 27.097656 -21.15625 27.421875 -21.03125 27.671875 -20.78125 C 27.941406 -20.519531 28.078125 -20.148438 28.078125 -19.671875 C 28.078125 -18.648438 27.644531 -18.101562 26.78125 -18.03125 Z M 6.140625 -16.234375 C 6.210938 -16.316406 6.300781 -16.421875 6.40625 -16.546875 C 7.363281 -17.742188 8.226562 -18.910156 9 -20.046875 C 9.425781 -20.671875 9.894531 -20.984375 10.40625 -20.984375 C 10.726562 -20.984375 11.039062 -20.867188 11.34375 -20.640625 C 11.757812 -20.328125 11.96875 -19.941406 11.96875 -19.484375 C 11.96875 -19.046875 11.648438 -18.40625 11.015625 -17.5625 C 9.378906 -15.375 7.425781 -13.328125 5.15625 -11.421875 C 6.28125 -11.640625 7.75 -12.015625 9.5625 -12.546875 C 9.195312 -13.316406 9.015625 -13.816406 9.015625 -14.046875 C 9.015625 -14.335938 9.125 -14.570312 9.34375 -14.75 C 9.5625 -14.914062 9.789062 -15 10.03125 -15 C 10.40625 -15 10.757812 -14.789062 11.09375 -14.375 C 11.84375 -13.4375 12.492188 -12.429688 13.046875 -11.359375 C 13.234375 -10.992188 13.328125 -10.664062 13.328125 -10.375 C 13.328125 -9.875 13.109375 -9.503906 12.671875 -9.265625 C 12.429688 -9.140625 12.179688 -9.078125 11.921875 -9.078125 C 11.273438 -9.078125 10.789062 -9.523438 10.46875 -10.421875 L 10.234375 -10.328125 C 9.785156 -10.160156 9.332031 -10.007812 8.875 -9.875 L 8.875 1 C 8.875 1.3125 8.769531 1.578125 8.5625 1.796875 C 8.257812 2.097656 7.859375 2.25 7.359375 2.25 C 6.722656 2.25 6.265625 2.03125 5.984375 1.59375 C 5.867188 1.425781 5.8125 1.226562 5.8125 1 L 5.8125 -9.0625 L 5.5 -9 C 3.789062 -8.601562 2.757812 -8.40625 2.40625 -8.40625 C 2.007812 -8.40625 1.695312 -8.613281 1.46875 -9.03125 C 1.226562 -9.425781 1.109375 -9.773438 1.109375 -10.078125 C 1.109375 -10.316406 1.1875 -10.539062 1.34375 -10.75 C 1.425781 -10.851562 1.664062 -11.113281 2.0625 -11.53125 C 2.851562 -12.351562 3.65625 -13.238281 4.46875 -14.1875 C 3.914062 -14.5 3.300781 -14.816406 2.625 -15.140625 C 1.738281 -15.597656 1.296875 -16.117188 1.296875 -16.703125 C 1.296875 -17.148438 1.613281 -17.773438 2.25 -18.578125 C 3.65625 -20.347656 4.835938 -22.035156 5.796875 -23.640625 C 6.210938 -24.328125 6.710938 -24.671875 7.296875 -24.671875 C 7.585938 -24.671875 7.875 -24.585938 8.15625 -24.421875 C 8.613281 -24.160156 8.84375 -23.757812 8.84375 -23.21875 C 8.84375 -22.789062 8.648438 -22.28125 8.265625 -21.6875 C 7.242188 -20.175781 6 -18.679688 4.53125 -17.203125 L 4.9375 -16.953125 C 5.519531 -16.617188 5.921875 -16.378906 6.140625 -16.234375 Z M 3.765625 -7.8125 C 3.992188 -7.8125 4.210938 -7.765625 4.421875 -7.671875 C 5.003906 -7.453125 5.296875 -6.988281 5.296875 -6.28125 C 5.296875 -5.863281 5.128906 -5.148438 4.796875 -4.140625 C 4.316406 -2.722656 3.765625 -1.539062 3.140625 -0.59375 C 2.804688 -0.09375 2.429688 0.15625 2.015625 0.15625 C 1.816406 0.15625 1.601562 0.09375 1.375 -0.03125 C 1.007812 -0.238281 0.828125 -0.566406 0.828125 -1.015625 C 0.828125 -1.203125 0.90625 -1.523438 1.0625 -1.984375 C 1.632812 -3.710938 2.035156 -5.164062 2.265625 -6.34375 C 2.460938 -7.320312 2.960938 -7.8125 3.765625 -7.8125 Z M 10.390625 -8.390625 C 10.773438 -8.390625 11.101562 -8.1875 11.375 -7.78125 C 11.6875 -7.300781 12.097656 -6.46875 12.609375 -5.28125 C 12.765625 -4.9375 12.867188 -4.707031 12.921875 -4.59375 C 13.078125 -4.238281 13.15625 -3.921875 13.15625 -3.640625 C 13.15625 -3.160156 12.921875 -2.789062 12.453125 -2.53125 C 12.203125 -2.394531 11.9375 -2.328125 11.65625 -2.328125 C 10.90625 -2.328125 10.441406 -2.816406 10.265625 -3.796875 C 10.109375 -4.691406 9.875 -5.660156 9.5625 -6.703125 C 9.457031 -7.046875 9.40625 -7.3125 9.40625 -7.5 C 9.40625 -8.09375 9.734375 -8.390625 10.390625 -8.390625 Z M 20.609375 -8.8125 C 20.648438 -9.71875 21.175781 -10.171875 22.1875 -10.171875 C 23.269531 -10.171875 23.804688 -9.71875 23.796875 -8.8125 L 23.609375 -2.09375 L 23.59375 -1.9375 C 23.59375 -1.675781 23.664062 -1.488281 23.8125 -1.375 C 23.945312 -1.28125 24.195312 -1.234375 24.5625 -1.234375 C 25.539062 -1.234375 26.109375 -1.390625 26.265625 -1.703125 C 26.421875 -2.003906 26.535156 -2.816406 26.609375 -4.140625 C 26.660156 -4.941406 26.976562 -5.34375 27.5625 -5.34375 C 28.070312 -5.34375 28.40625 -5.03125 28.5625 -4.40625 C 28.851562 -3.257812 29 -1.992188 29 -0.609375 C 29 0.609375 28.472656 1.363281 27.421875 1.65625 C 26.816406 1.832031 25.804688 1.921875 24.390625 1.921875 C 22.910156 1.921875 21.921875 1.789062 21.421875 1.53125 C 20.710938 1.175781 20.359375 0.460938 20.359375 -0.609375 L 20.375 -0.828125 Z M 17.734375 -9.5 C 18.929688 -9.5 19.53125 -8.953125 19.53125 -7.859375 C 19.53125 -6.953125 19.234375 -5.753906 18.640625 -4.265625 C 17.628906 -1.753906 16.144531 0.140625 14.1875 1.421875 C 13.5625 1.816406 13.070312 2.015625 12.71875 2.015625 C 12.40625 2.015625 12.117188 1.894531 11.859375 1.65625 C 11.617188 1.414062 11.5 1.144531 11.5 0.84375 C 11.5 0.476562 11.757812 0.078125 12.28125 -0.359375 C 14.34375 -2.085938 15.648438 -4.695312 16.203125 -8.1875 C 16.335938 -9.0625 16.847656 -9.5 17.734375 -9.5 Z M 17.734375 -9.5 "/></g></g></g><g fill="#ffffff" fill-opacity="1"><g transform="translate(44.399999, 54.602313)"><g><path d="M 20.515625 -14.46875 C 20.554688 -14.28125 20.578125 -14.101562 20.578125 -13.9375 C 20.578125 -12.96875 20.128906 -12.441406 19.234375 -12.359375 L 10.53125 -11.609375 C 10.46875 -11.609375 10.40625 -11.609375 10.34375 -11.609375 C 9.90625 -11.609375 9.5625 -11.769531 9.3125 -12.09375 C 9.125 -12.363281 9.03125 -12.703125 9.03125 -13.109375 C 9.03125 -13.347656 9.0625 -13.585938 9.125 -13.828125 C 7.414062 -12.429688 5.820312 -11.332031 4.34375 -10.53125 C 3.625 -10.144531 3.078125 -9.953125 2.703125 -9.953125 C 2.328125 -9.953125 2.019531 -10.097656 1.78125 -10.390625 C 1.570312 -10.648438 1.46875 -10.925781 1.46875 -11.21875 C 1.46875 -11.570312 1.613281 -11.867188 1.90625 -12.109375 C 2 -12.203125 2.398438 -12.484375 3.109375 -12.953125 C 4.953125 -14.179688 6.867188 -15.898438 8.859375 -18.109375 C 10.492188 -19.910156 11.878906 -21.765625 13.015625 -23.671875 C 13.484375 -24.441406 14.054688 -24.828125 14.734375 -24.828125 C 15.085938 -24.828125 15.425781 -24.738281 15.75 -24.5625 C 16.300781 -24.25 16.578125 -23.769531 16.578125 -23.125 C 16.578125 -22.988281 16.5625 -22.84375 16.53125 -22.6875 C 17.5625 -21.476562 19.023438 -20.078125 20.921875 -18.484375 C 23.503906 -16.316406 25.878906 -14.660156 28.046875 -13.515625 C 28.859375 -13.085938 29.265625 -12.710938 29.265625 -12.390625 C 29.265625 -12.171875 29.050781 -11.988281 28.625 -11.84375 C 27.113281 -11.351562 26.019531 -11.109375 25.34375 -11.109375 C 24.9375 -11.109375 24.546875 -11.222656 24.171875 -11.453125 C 23.328125 -11.972656 22.109375 -12.976562 20.515625 -14.46875 Z M 19.40625 -15.53125 C 17.71875 -17.21875 16.289062 -18.757812 15.125 -20.15625 C 13.882812 -18.4375 12.242188 -16.628906 10.203125 -14.734375 L 19.046875 -15.546875 C 19.066406 -15.546875 19.113281 -15.546875 19.1875 -15.546875 C 19.207031 -15.546875 19.28125 -15.539062 19.40625 -15.53125 Z M 22.859375 -2.546875 C 23.378906 -2.304688 23.640625 -1.785156 23.640625 -0.984375 C 23.640625 -0.390625 23.421875 0.0351562 22.984375 0.296875 C 22.796875 0.410156 22.585938 0.472656 22.359375 0.484375 L 11.21875 1.03125 C 11.03125 1.78125 10.40625 2.15625 9.34375 2.15625 C 8.289062 2.15625 7.707031 1.675781 7.59375 0.71875 L 6.5 -7.984375 C 6.5 -8.035156 6.5 -8.085938 6.5 -8.140625 C 6.550781 -8.785156 6.90625 -9.222656 7.5625 -9.453125 C 7.832031 -9.546875 8.125 -9.59375 8.4375 -9.59375 C 9.195312 -9.59375 9.734375 -9.375 10.046875 -8.9375 L 20.609375 -9.8125 C 20.765625 -9.820312 20.957031 -9.828125 21.1875 -9.828125 C 22.914062 -9.828125 23.78125 -9.09375 23.78125 -7.625 C 23.78125 -7.300781 23.742188 -6.960938 23.671875 -6.609375 Z M 19.265625 -2.46875 L 19.734375 -5.90625 C 19.742188 -5.957031 19.75 -6.007812 19.75 -6.0625 C 19.75 -6.40625 19.578125 -6.578125 19.234375 -6.578125 C 19.222656 -6.578125 19.179688 -6.578125 19.109375 -6.578125 L 10.5625 -5.921875 L 10.96875 -2.015625 Z M 19.265625 -2.46875 "/></g></g></g><g fill="#ffffff" fill-opacity="1"><g transform="translate(73.799995, 54.602313)"><g><path d="M 12.640625 -1.984375 C 13.015625 -1.722656 13.203125 -1.332031 13.203125 -0.8125 C 13.203125 0.0195312 12.800781 0.472656 12 0.546875 L 6.53125 1.015625 C 6.363281 1.671875 5.851562 2 5 2 C 4.0625 2 3.539062 1.5625 3.4375 0.6875 L 2.78125 -5.734375 C 2.769531 -5.859375 2.765625 -5.929688 2.765625 -5.953125 C 2.765625 -6.390625 2.929688 -6.726562 3.265625 -6.96875 C 3.546875 -7.1875 3.90625 -7.296875 4.34375 -7.296875 C 4.882812 -7.296875 5.304688 -7.160156 5.609375 -6.890625 L 10.5 -7.390625 C 10.707031 -7.398438 10.882812 -7.40625 11.03125 -7.40625 C 12.507812 -7.40625 13.25 -6.785156 13.25 -5.546875 C 13.25 -5.335938 13.222656 -5.082031 13.171875 -4.78125 Z M 9.71875 -1.9375 L 9.96875 -4.171875 L 9.96875 -4.3125 C 9.988281 -4.582031 9.820312 -4.71875 9.46875 -4.71875 C 9.457031 -4.71875 9.429688 -4.71875 9.390625 -4.71875 L 6.171875 -4.375 L 6.390625 -1.625 Z M 18.515625 -10.65625 L 18.515625 -3.484375 C 18.515625 -2.796875 18.691406 -2.378906 19.046875 -2.234375 C 19.390625 -2.078125 20.132812 -2 21.28125 -2 C 22.78125 -2 23.804688 -2.078125 24.359375 -2.234375 C 24.910156 -2.390625 25.25 -2.75 25.375 -3.3125 C 25.46875 -3.75 25.539062 -4.484375 25.59375 -5.515625 C 25.644531 -6.398438 26.023438 -6.84375 26.734375 -6.84375 C 27.347656 -6.84375 27.757812 -6.394531 27.96875 -5.5 C 28.269531 -4.15625 28.421875 -2.988281 28.421875 -2 C 28.421875 -0.644531 27.878906 0.238281 26.796875 0.65625 C 25.816406 1.03125 24.101562 1.21875 21.65625 1.21875 C 19.15625 1.21875 17.539062 1.078125 16.8125 0.796875 C 16.039062 0.492188 15.554688 -0.109375 15.359375 -1.015625 C 15.265625 -1.441406 15.21875 -1.984375 15.21875 -2.640625 L 15.21875 -10.5625 C 14.800781 -10.851562 14.59375 -11.316406 14.59375 -11.953125 C 14.59375 -12.910156 15.007812 -13.425781 15.84375 -13.5 L 22.421875 -14.0625 L 22.921875 -18.265625 C 22.929688 -18.347656 22.9375 -18.410156 22.9375 -18.453125 C 22.9375 -18.753906 22.78125 -18.894531 22.46875 -18.875 C 22.4375 -18.875 22.390625 -18.875 22.328125 -18.875 L 15.59375 -18.203125 C 15.570312 -18.203125 15.519531 -18.203125 15.4375 -18.203125 C 15.03125 -18.203125 14.703125 -18.359375 14.453125 -18.671875 C 14.222656 -18.972656 14.109375 -19.367188 14.109375 -19.859375 C 14.109375 -20.816406 14.535156 -21.335938 15.390625 -21.421875 L 23.34375 -22.15625 C 23.613281 -22.1875 23.847656 -22.203125 24.046875 -22.203125 C 25.648438 -22.203125 26.453125 -21.484375 26.453125 -20.046875 C 26.453125 -19.773438 26.425781 -19.460938 26.375 -19.109375 L 25.625 -14 C 26 -13.695312 26.1875 -13.253906 26.1875 -12.671875 C 26.1875 -11.785156 25.738281 -11.300781 24.84375 -11.21875 Z M 5.78125 -24.859375 C 6.601562 -24.859375 7.882812 -24.453125 9.625 -23.640625 C 10.726562 -23.128906 11.28125 -22.53125 11.28125 -21.84375 C 11.28125 -21.601562 11.222656 -21.359375 11.109375 -21.109375 C 10.816406 -20.523438 10.347656 -20.234375 9.703125 -20.234375 C 9.296875 -20.234375 8.835938 -20.40625 8.328125 -20.75 C 7.335938 -21.40625 6.40625 -21.992188 5.53125 -22.515625 L 5.421875 -22.609375 C 4.835938 -22.941406 4.546875 -23.320312 4.546875 -23.75 C 4.546875 -24.488281 4.957031 -24.859375 5.78125 -24.859375 Z M 12.515625 -16.859375 L 2.703125 -16.0625 C 2.617188 -16.050781 2.566406 -16.046875 2.546875 -16.046875 C 1.617188 -16.046875 1.15625 -16.554688 1.15625 -17.578125 C 1.15625 -18.390625 1.570312 -18.828125 2.40625 -18.890625 L 12.171875 -19.71875 C 12.222656 -19.71875 12.285156 -19.71875 12.359375 -19.71875 C 12.992188 -19.71875 13.421875 -19.4375 13.640625 -18.875 C 13.710938 -18.664062 13.75 -18.445312 13.75 -18.21875 C 13.75 -17.382812 13.335938 -16.929688 12.515625 -16.859375 Z M 11.140625 -12.78125 L 4.703125 -12.21875 C 4.640625 -12.207031 4.597656 -12.203125 4.578125 -12.203125 C 3.742188 -12.203125 3.328125 -12.65625 3.328125 -13.5625 C 3.328125 -14.351562 3.695312 -14.785156 4.4375 -14.859375 L 10.90625 -15.421875 C 10.945312 -15.421875 11.007812 -15.421875 11.09375 -15.421875 C 11.632812 -15.421875 12.003906 -15.164062 12.203125 -14.65625 C 12.273438 -14.476562 12.3125 -14.285156 12.3125 -14.078125 C 12.3125 -13.285156 11.921875 -12.851562 11.140625 -12.78125 Z M 11.1875 -8.875 L 4.703125 -8.3125 C 4.671875 -8.3125 4.617188 -8.3125 4.546875 -8.3125 C 4.097656 -8.3125 3.765625 -8.515625 3.546875 -8.921875 C 3.421875 -9.148438 3.359375 -9.40625 3.359375 -9.6875 C 3.359375 -10.46875 3.726562 -10.890625 4.46875 -10.953125 L 10.9375 -11.484375 C 11.03125 -11.492188 11.082031 -11.5 11.09375 -11.5 C 11.914062 -11.5 12.328125 -11.0625 12.328125 -10.1875 C 12.328125 -9.382812 11.945312 -8.945312 11.1875 -8.875 Z M 11.1875 -8.875 "/></g></g></g><g fill="#ffffff" fill-opacity="1"><g transform="translate(103.199991, 54.602313)"><g><path d="M 19.40625 -17.46875 C 19.425781 -17.34375 19.4375 -17.226562 19.4375 -17.125 C 19.4375 -16.238281 19.015625 -15.757812 18.171875 -15.6875 L 11.90625 -15.140625 C 11.875 -15.140625 11.804688 -15.140625 11.703125 -15.140625 C 10.921875 -15.140625 10.53125 -15.570312 10.53125 -16.4375 C 10.53125 -16.625 10.566406 -16.816406 10.640625 -17.015625 C 10.492188 -16.910156 10.296875 -16.753906 10.046875 -16.546875 C 7.992188 -14.898438 5.867188 -13.570312 3.671875 -12.5625 C 3.203125 -12.351562 2.816406 -12.25 2.515625 -12.25 C 2.109375 -12.25 1.796875 -12.425781 1.578125 -12.78125 C 1.429688 -13 1.359375 -13.226562 1.359375 -13.46875 C 1.359375 -13.820312 1.488281 -14.125 1.75 -14.375 C 1.882812 -14.5 2.285156 -14.765625 2.953125 -15.171875 C 5.648438 -16.816406 8.144531 -18.820312 10.4375 -21.1875 C 11.5 -22.269531 12.398438 -23.332031 13.140625 -24.375 C 13.597656 -25.03125 14.132812 -25.359375 14.75 -25.359375 C 15.15625 -25.359375 15.519531 -25.242188 15.84375 -25.015625 C 16.300781 -24.710938 16.53125 -24.304688 16.53125 -23.796875 C 16.53125 -23.722656 16.519531 -23.625 16.5 -23.5 C 16.570312 -23.425781 16.664062 -23.335938 16.78125 -23.234375 C 17.695312 -22.390625 18.90625 -21.441406 20.40625 -20.390625 C 23.09375 -18.492188 25.703125 -16.957031 28.234375 -15.78125 C 28.878906 -15.46875 29.203125 -15.15625 29.203125 -14.84375 C 29.203125 -14.5625 28.960938 -14.34375 28.484375 -14.1875 C 27.015625 -13.707031 25.957031 -13.46875 25.3125 -13.46875 C 24.9375 -13.46875 24.382812 -13.707031 23.65625 -14.1875 C 22.300781 -15.082031 20.882812 -16.175781 19.40625 -17.46875 Z M 18.375 -18.359375 C 17.25 -19.359375 16.175781 -20.378906 15.15625 -21.421875 C 13.976562 -20.066406 12.769531 -18.851562 11.53125 -17.78125 C 11.644531 -17.800781 11.734375 -17.816406 11.796875 -17.828125 L 18.03125 -18.359375 C 18.113281 -18.367188 18.164062 -18.375 18.1875 -18.375 C 18.226562 -18.375 18.289062 -18.367188 18.375 -18.359375 Z M 5.765625 -6.25 C 6.679688 -6.25 7.140625 -5.769531 7.140625 -4.8125 C 7.140625 -3.875 6.910156 -2.726562 6.453125 -1.375 C 6.210938 -0.65625 5.929688 -0.0234375 5.609375 0.515625 C 5.210938 1.191406 4.695312 1.53125 4.0625 1.53125 C 3.65625 1.53125 3.285156 1.40625 2.953125 1.15625 C 2.484375 0.8125 2.25 0.359375 2.25 -0.203125 C 2.25 -0.566406 2.425781 -1.007812 2.78125 -1.53125 C 3.375 -2.457031 3.929688 -3.644531 4.453125 -5.09375 C 4.722656 -5.863281 5.160156 -6.25 5.765625 -6.25 Z M 9.578125 -6.921875 C 10.148438 -6.921875 10.671875 -6.53125 11.140625 -5.75 C 12.097656 -4.15625 13.097656 -3.039062 14.140625 -2.40625 C 15.578125 -1.507812 17.234375 -1.0625 19.109375 -1.0625 C 19.921875 -1.0625 20.328125 -1.234375 20.328125 -1.578125 C 20.328125 -1.835938 20.15625 -2.375 19.8125 -3.1875 C 19.65625 -3.5625 19.578125 -3.84375 19.578125 -4.03125 C 19.578125 -4.351562 19.722656 -4.59375 20.015625 -4.75 C 20.171875 -4.820312 20.332031 -4.859375 20.5 -4.859375 C 20.820312 -4.859375 21.144531 -4.695312 21.46875 -4.375 C 22.25 -3.613281 22.972656 -2.671875 23.640625 -1.546875 C 23.992188 -0.953125 24.171875 -0.414062 24.171875 0.0625 C 24.171875 1.394531 22.882812 2.0625 20.3125 2.0625 C 15.90625 2.0625 12.628906 0.878906 10.484375 -1.484375 C 9.628906 -2.441406 8.945312 -3.566406 8.4375 -4.859375 C 8.3125 -5.179688 8.25 -5.460938 8.25 -5.703125 C 8.25 -6.128906 8.421875 -6.457031 8.765625 -6.6875 C 9.015625 -6.84375 9.285156 -6.921875 9.578125 -6.921875 Z M 13.796875 -8.09375 C 14.140625 -8.09375 14.507812 -7.90625 14.90625 -7.53125 C 15.851562 -6.664062 16.53125 -6.234375 16.9375 -6.234375 C 17.125 -6.234375 17.316406 -6.328125 17.515625 -6.515625 C 17.765625 -6.734375 17.988281 -6.84375 18.1875 -6.84375 C 18.332031 -6.84375 18.472656 -6.789062 18.609375 -6.6875 C 18.796875 -6.539062 18.890625 -6.332031 18.890625 -6.0625 C 18.890625 -5.46875 18.648438 -4.804688 18.171875 -4.078125 C 17.710938 -3.367188 17.195312 -3.015625 16.625 -3.015625 C 15.957031 -3.015625 15.144531 -3.535156 14.1875 -4.578125 C 13.257812 -5.546875 12.796875 -6.382812 12.796875 -7.09375 C 12.796875 -7.425781 12.921875 -7.679688 13.171875 -7.859375 C 13.359375 -8.015625 13.566406 -8.09375 13.796875 -8.09375 Z M 22.859375 -8.15625 C 23.328125 -8.15625 24.054688 -7.800781 25.046875 -7.09375 C 27.304688 -5.46875 28.4375 -4.210938 28.4375 -3.328125 C 28.4375 -2.816406 28.222656 -2.375 27.796875 -2 C 27.460938 -1.707031 27.066406 -1.5625 26.609375 -1.5625 C 25.992188 -1.5625 25.445312 -1.90625 24.96875 -2.59375 C 24.226562 -3.613281 23.363281 -4.664062 22.375 -5.75 C 21.945312 -6.195312 21.734375 -6.617188 21.734375 -7.015625 C 21.734375 -7.285156 21.820312 -7.53125 22 -7.75 C 22.238281 -8.019531 22.523438 -8.15625 22.859375 -8.15625 Z M 17.921875 -11.34375 L 8.21875 -10.53125 C 8.132812 -10.519531 8.078125 -10.515625 8.046875 -10.515625 C 7.640625 -10.515625 7.320312 -10.664062 7.09375 -10.96875 C 6.882812 -11.226562 6.78125 -11.554688 6.78125 -11.953125 C 6.78125 -12.867188 7.210938 -13.367188 8.078125 -13.453125 L 19.953125 -14.453125 C 20.046875 -14.460938 20.140625 -14.46875 20.234375 -14.46875 C 20.972656 -14.46875 21.535156 -14.253906 21.921875 -13.828125 C 22.210938 -13.503906 22.359375 -13.113281 22.359375 -12.65625 C 22.359375 -11.851562 21.789062 -10.566406 20.65625 -8.796875 C 20.363281 -8.328125 20.128906 -7.988281 19.953125 -7.78125 C 19.578125 -7.351562 19.148438 -7.140625 18.671875 -7.140625 C 18.316406 -7.140625 17.96875 -7.257812 17.625 -7.5 C 17.207031 -7.789062 17 -8.148438 17 -8.578125 C 17 -8.859375 17.097656 -9.128906 17.296875 -9.390625 C 18.035156 -10.378906 18.40625 -10.960938 18.40625 -11.140625 C 18.40625 -11.296875 18.242188 -11.363281 17.921875 -11.34375 Z M 17.921875 -11.34375 "/></g></g></g><g fill="#ffffff" fill-opacity="1"><g transform="translate(132.599987, 54.602313)"><g><path d="M 16.421875 -18.1875 L 19.4375 -18.375 C 19.476562 -18.425781 19.539062 -18.515625 19.625 -18.640625 C 20.195312 -19.503906 20.78125 -20.53125 21.375 -21.71875 C 21.738281 -22.445312 22.234375 -22.8125 22.859375 -22.8125 C 23.171875 -22.8125 23.476562 -22.71875 23.78125 -22.53125 C 24.320312 -22.175781 24.59375 -21.726562 24.59375 -21.1875 C 24.59375 -20.882812 24.457031 -20.566406 24.1875 -20.234375 C 23.925781 -19.910156 23.359375 -19.34375 22.484375 -18.53125 L 26.3125 -18.75 C 26.84375 -18.78125 27.28125 -18.71875 27.625 -18.5625 C 28.15625 -18.300781 28.421875 -17.910156 28.421875 -17.390625 C 28.421875 -16.816406 27.921875 -15.945312 26.921875 -14.78125 C 26.054688 -13.769531 25.398438 -13.265625 24.953125 -13.265625 C 24.722656 -13.265625 24.515625 -13.335938 24.328125 -13.484375 C 24.046875 -13.679688 23.90625 -13.90625 23.90625 -14.15625 C 23.90625 -14.269531 24.023438 -14.5625 24.265625 -15.03125 C 24.453125 -15.40625 24.546875 -15.671875 24.546875 -15.828125 C 24.546875 -16.035156 24.382812 -16.140625 24.0625 -16.140625 C 24.03125 -16.140625 24.003906 -16.140625 23.984375 -16.140625 L 13.90625 -15.59375 C 14.101562 -15.53125 14.304688 -15.421875 14.515625 -15.265625 C 15.097656 -14.828125 15.550781 -14.609375 15.875 -14.609375 C 16.03125 -14.609375 16.226562 -14.703125 16.46875 -14.890625 C 16.664062 -15.035156 16.828125 -15.109375 16.953125 -15.109375 C 17.296875 -15.109375 17.46875 -14.894531 17.46875 -14.46875 C 17.46875 -13.90625 17.3125 -13.359375 17 -12.828125 C 16.75 -12.398438 16.414062 -12.1875 16 -12.1875 C 15.613281 -12.1875 15.164062 -12.363281 14.65625 -12.71875 C 14.101562 -13.082031 13.625 -13.578125 13.21875 -14.203125 C 13.050781 -14.453125 12.96875 -14.679688 12.96875 -14.890625 C 12.96875 -15.203125 13.117188 -15.425781 13.421875 -15.5625 L 5.625 -15.125 C 5.5 -14.125 5.367188 -13.382812 5.234375 -12.90625 C 4.960938 -11.988281 4.40625 -11.53125 3.5625 -11.53125 C 3.28125 -11.53125 3.003906 -11.585938 2.734375 -11.703125 C 2.085938 -11.984375 1.765625 -12.460938 1.765625 -13.140625 C 1.765625 -13.503906 1.894531 -13.921875 2.15625 -14.390625 C 2.59375 -15.191406 2.941406 -16.125 3.203125 -17.1875 C 3.398438 -17.957031 3.820312 -18.34375 4.46875 -18.34375 C 5.050781 -18.34375 5.445312 -18.09375 5.65625 -17.59375 L 7.375 -17.703125 C 7.332031 -17.773438 7.28125 -17.894531 7.21875 -18.0625 C 7.132812 -18.320312 6.9375 -18.722656 6.625 -19.265625 C 6.4375 -19.609375 6.34375 -19.867188 6.34375 -20.046875 C 6.34375 -20.410156 6.554688 -20.664062 6.984375 -20.8125 C 6.316406 -20.90625 5.984375 -21.257812 5.984375 -21.875 C 5.984375 -22.457031 6.253906 -22.84375 6.796875 -23.03125 C 6.953125 -23.070312 7.394531 -23.128906 8.125 -23.203125 C 11.289062 -23.503906 15.1875 -24.226562 19.8125 -25.375 C 20.070312 -25.4375 20.3125 -25.46875 20.53125 -25.46875 C 21.070312 -25.46875 21.476562 -25.273438 21.75 -24.890625 C 21.9375 -24.628906 22.03125 -24.34375 22.03125 -24.03125 C 22.03125 -23.25 21.601562 -22.757812 20.75 -22.5625 C 19.96875 -22.375 17.789062 -22.019531 14.21875 -21.5 C 14.601562 -21.40625 14.957031 -21.265625 15.28125 -21.078125 C 16.332031 -20.460938 16.859375 -19.828125 16.859375 -19.171875 C 16.859375 -18.816406 16.710938 -18.488281 16.421875 -18.1875 Z M 14.171875 -18.078125 C 14.023438 -18.222656 13.898438 -18.425781 13.796875 -18.6875 C 13.597656 -19.207031 13.347656 -19.6875 13.046875 -20.125 C 12.910156 -20.332031 12.84375 -20.53125 12.84375 -20.71875 C 12.84375 -20.988281 12.957031 -21.210938 13.1875 -21.390625 C 11.363281 -21.171875 9.523438 -20.988281 7.671875 -20.84375 C 8.222656 -20.71875 8.722656 -20.484375 9.171875 -20.140625 C 9.867188 -19.609375 10.21875 -19.054688 10.21875 -18.484375 C 10.21875 -18.265625 10.15625 -18.050781 10.03125 -17.84375 Z M 9.609375 -4.125 C 8.210938 -3.144531 6.742188 -2.34375 5.203125 -1.71875 C 4.765625 -1.539062 4.40625 -1.453125 4.125 -1.453125 C 3.78125 -1.453125 3.515625 -1.585938 3.328125 -1.859375 C 3.191406 -2.078125 3.125 -2.289062 3.125 -2.5 C 3.125 -2.789062 3.269531 -3.050781 3.5625 -3.28125 C 3.644531 -3.351562 3.921875 -3.519531 4.390625 -3.78125 C 5.960938 -4.632812 7.488281 -5.765625 8.96875 -7.171875 C 9.476562 -7.660156 9.929688 -8.148438 10.328125 -8.640625 C 10.660156 -9.054688 11.078125 -9.265625 11.578125 -9.265625 C 11.953125 -9.265625 12.296875 -9.144531 12.609375 -8.90625 C 12.972656 -8.625 13.15625 -8.289062 13.15625 -7.90625 C 13.15625 -7.894531 13.15625 -7.875 13.15625 -7.84375 L 19.984375 -8.28125 C 20.109375 -8.289062 20.207031 -8.296875 20.28125 -8.296875 C 21.007812 -8.296875 21.554688 -8.117188 21.921875 -7.765625 C 22.171875 -7.515625 22.296875 -7.210938 22.296875 -6.859375 C 22.296875 -6.265625 21.941406 -5.582031 21.234375 -4.8125 C 20.367188 -3.851562 19.242188 -2.921875 17.859375 -2.015625 C 20.535156 -0.910156 23.539062 -0.0859375 26.875 0.453125 C 27.75 0.585938 28.1875 0.820312 28.1875 1.15625 C 28.1875 1.394531 27.960938 1.597656 27.515625 1.765625 C 25.828125 2.390625 24.582031 2.703125 23.78125 2.703125 C 22.882812 2.703125 21.503906 2.363281 19.640625 1.6875 C 17.953125 1.0625 16.429688 0.378906 15.078125 -0.359375 C 13.515625 0.441406 11.804688 1.117188 9.953125 1.671875 C 8.179688 2.191406 6.554688 2.546875 5.078125 2.734375 C 4.898438 2.765625 4.75 2.78125 4.625 2.78125 C 3.832031 2.78125 3.4375 2.4375 3.4375 1.75 C 3.4375 1.382812 3.660156 1.09375 4.109375 0.875 C 4.265625 0.8125 4.628906 0.710938 5.203125 0.578125 C 7.648438 -0.00390625 10.046875 -0.863281 12.390625 -2 C 11.367188 -2.707031 10.441406 -3.414062 9.609375 -4.125 Z M 11.28125 -5.40625 C 12.070312 -4.851562 13.242188 -4.175781 14.796875 -3.375 C 15.867188 -4.09375 16.660156 -4.703125 17.171875 -5.203125 C 17.460938 -5.484375 17.609375 -5.664062 17.609375 -5.75 C 17.609375 -5.800781 17.539062 -5.828125 17.40625 -5.828125 C 17.375 -5.828125 17.304688 -5.820312 17.203125 -5.8125 L 11.359375 -5.46875 C 11.335938 -5.445312 11.3125 -5.425781 11.28125 -5.40625 Z M 10.28125 -14.578125 C 10.625 -14.578125 10.96875 -14.367188 11.3125 -13.953125 C 12.050781 -13.035156 12.984375 -12.351562 14.109375 -11.90625 C 14.941406 -11.5625 16.0625 -11.390625 17.46875 -11.390625 C 18.09375 -11.390625 18.40625 -11.53125 18.40625 -11.8125 C 18.40625 -11.96875 18.3125 -12.226562 18.125 -12.59375 C 18.007812 -12.800781 17.953125 -12.988281 17.953125 -13.15625 C 17.953125 -13.394531 18.0625 -13.585938 18.28125 -13.734375 C 18.414062 -13.828125 18.554688 -13.875 18.703125 -13.875 C 19.066406 -13.875 19.53125 -13.550781 20.09375 -12.90625 C 21.007812 -11.863281 21.46875 -11.066406 21.46875 -10.515625 C 21.46875 -9.390625 20.28125 -8.828125 17.90625 -8.828125 C 14.6875 -8.828125 12.171875 -9.769531 10.359375 -11.65625 C 9.585938 -12.457031 9.203125 -13.097656 9.203125 -13.578125 C 9.203125 -13.890625 9.328125 -14.144531 9.578125 -14.34375 C 9.773438 -14.5 10.007812 -14.578125 10.28125 -14.578125 Z M 7.546875 -13.921875 C 8.328125 -13.921875 8.71875 -13.46875 8.71875 -12.5625 C 8.71875 -11.851562 8.398438 -10.789062 7.765625 -9.375 C 7.347656 -8.425781 6.8125 -7.953125 6.15625 -7.953125 C 5.863281 -7.953125 5.570312 -8.050781 5.28125 -8.25 C 4.8125 -8.570312 4.578125 -8.988281 4.578125 -9.5 C 4.578125 -9.832031 4.753906 -10.226562 5.109375 -10.6875 C 5.597656 -11.3125 6.007812 -12.050781 6.34375 -12.90625 C 6.613281 -13.582031 7.015625 -13.921875 7.546875 -13.921875 Z M 21.5 -15.09375 C 21.988281 -15.09375 22.753906 -14.648438 23.796875 -13.765625 C 25.140625 -12.660156 25.8125 -11.773438 25.8125 -11.109375 C 25.8125 -10.703125 25.65625 -10.351562 25.34375 -10.0625 C 25.039062 -9.78125 24.671875 -9.640625 24.234375 -9.640625 C 23.679688 -9.640625 23.222656 -9.972656 22.859375 -10.640625 C 22.347656 -11.523438 21.710938 -12.390625 20.953125 -13.234375 C 20.660156 -13.546875 20.515625 -13.859375 20.515625 -14.171875 C 20.515625 -14.421875 20.617188 -14.632812 20.828125 -14.8125 C 21.035156 -15 21.257812 -15.09375 21.5 -15.09375 Z M 21.5 -15.09375 "/></g></g></g><g fill="#ffffff" fill-opacity="1"><g transform="translate(161.999983, 54.602313)"><g><path d="M 10.015625 -10.71875 C 10.429688 -10.414062 10.640625 -9.9375 10.640625 -9.28125 C 10.640625 -8.382812 10.222656 -7.867188 9.390625 -7.734375 L 5.109375 -7.078125 C 5.085938 -6.765625 4.992188 -6.5 4.828125 -6.28125 C 4.535156 -5.925781 4.125 -5.75 3.59375 -5.75 C 3 -5.75 2.566406 -5.957031 2.296875 -6.375 C 2.179688 -6.570312 2.117188 -6.796875 2.109375 -7.046875 L 1.59375 -19.984375 C 1.59375 -20.234375 1.640625 -20.445312 1.734375 -20.625 C 1.972656 -21.132812 2.421875 -21.390625 3.078125 -21.390625 C 3.753906 -21.390625 4.234375 -21.128906 4.515625 -20.609375 L 7.859375 -21.15625 C 8.117188 -21.195312 8.34375 -21.21875 8.53125 -21.21875 C 9.8125 -21.21875 10.453125 -20.488281 10.453125 -19.03125 C 10.453125 -18.945312 10.445312 -18.832031 10.4375 -18.6875 Z M 7.203125 -10.578125 L 7.4375 -17.484375 C 7.425781 -17.816406 7.296875 -17.972656 7.046875 -17.953125 C 7.003906 -17.953125 6.957031 -17.945312 6.90625 -17.9375 L 4.71875 -17.59375 L 5 -10.203125 Z M 22.515625 -13.15625 L 16.15625 -12.65625 C 15.9375 -12 15.429688 -11.671875 14.640625 -11.671875 C 13.585938 -11.671875 13.03125 -12.113281 12.96875 -13 L 12.3125 -22.328125 C 12.3125 -22.347656 12.3125 -22.382812 12.3125 -22.4375 C 12.3125 -22.914062 12.492188 -23.289062 12.859375 -23.5625 C 13.140625 -23.769531 13.507812 -23.875 13.96875 -23.875 C 14.65625 -23.875 15.125 -23.628906 15.375 -23.140625 L 23.578125 -23.96875 C 23.648438 -23.976562 23.769531 -23.984375 23.9375 -23.984375 C 24.539062 -23.984375 25.03125 -23.84375 25.40625 -23.5625 C 25.96875 -23.113281 26.222656 -22.515625 26.171875 -21.765625 L 26.15625 -21.609375 L 25.71875 -13.53125 C 25.664062 -12.601562 25.097656 -12.140625 24.015625 -12.140625 C 23.203125 -12.140625 22.703125 -12.476562 22.515625 -13.15625 Z M 22.734375 -19.71875 L 22.78125 -20.609375 C 22.78125 -20.640625 22.78125 -20.671875 22.78125 -20.703125 C 22.78125 -21.078125 22.550781 -21.25 22.09375 -21.21875 L 15.671875 -20.609375 L 15.796875 -19.109375 Z M 22.625 -17.328125 L 15.953125 -16.78125 L 16.0625 -15.140625 L 22.5625 -15.671875 Z M 23.921875 0.515625 L 15.28125 0.9375 C 15.195312 1.78125 14.671875 2.203125 13.703125 2.203125 C 12.640625 2.203125 12.085938 1.738281 12.046875 0.8125 L 11.4375 -9.78125 L 11.421875 -9.921875 C 11.398438 -10.378906 11.59375 -10.726562 12 -10.96875 C 12.28125 -11.15625 12.644531 -11.25 13.09375 -11.25 C 13.820312 -11.25 14.316406 -11.015625 14.578125 -10.546875 L 25.328125 -11.25 C 25.472656 -11.257812 25.578125 -11.265625 25.640625 -11.265625 C 27.191406 -11.265625 27.914062 -10.46875 27.8125 -8.875 L 27.25 0.8125 C 27.1875 1.757812 26.640625 2.234375 25.609375 2.234375 C 24.992188 2.234375 24.539062 2.070312 24.25 1.75 C 23.988281 1.457031 23.875 1.128906 23.90625 0.765625 L 23.921875 0.625 Z M 24.296875 -6.8125 L 24.359375 -7.953125 C 24.367188 -7.984375 24.375 -8.015625 24.375 -8.046875 C 24.394531 -8.398438 24.203125 -8.570312 23.796875 -8.5625 C 23.785156 -8.5625 23.765625 -8.5625 23.734375 -8.5625 L 14.84375 -7.9375 L 14.921875 -6.21875 Z M 24.171875 -4.171875 L 15.0625 -3.640625 L 15.140625 -1.765625 L 24.0625 -2.234375 Z M 24.171875 -4.171875 "/></g></g></g><g fill="#ffffff" fill-opacity="1"><g transform="translate(191.399979, 54.602313)"><g><path d="M 14.453125 -9.484375 L 14.453125 -0.234375 C 14.453125 0.398438 14.34375 0.929688 14.125 1.359375 C 13.78125 1.992188 13.25 2.3125 12.53125 2.3125 C 11.59375 2.3125 10.335938 1.960938 8.765625 1.265625 C 8.179688 1.003906 7.890625 0.664062 7.890625 0.25 C 7.890625 -0.457031 8.191406 -0.8125 8.796875 -0.8125 C 8.890625 -0.8125 9.019531 -0.789062 9.1875 -0.75 C 9.675781 -0.644531 10.15625 -0.59375 10.625 -0.59375 C 11.039062 -0.59375 11.25 -0.84375 11.25 -1.34375 L 11.25 -9.265625 L 2.4375 -8.671875 C 2.007812 -8.640625 1.671875 -8.742188 1.421875 -8.984375 C 1.140625 -9.234375 1 -9.601562 1 -10.09375 C 1 -11.050781 1.414062 -11.554688 2.25 -11.609375 L 15.71875 -12.515625 C 16.050781 -12.535156 16.332031 -12.46875 16.5625 -12.3125 C 16.957031 -12.070312 17.15625 -11.671875 17.15625 -11.109375 C 17.15625 -10.140625 16.734375 -9.625 15.890625 -9.5625 Z M 9.859375 -15.515625 C 10.109375 -15.296875 10.234375 -15.015625 10.234375 -14.671875 C 10.234375 -14.078125 9.863281 -13.75 9.125 -13.6875 L 6.078125 -13.40625 C 5.960938 -12.90625 5.554688 -12.65625 4.859375 -12.65625 C 4.109375 -12.65625 3.703125 -12.96875 3.640625 -13.59375 L 3.1875 -17.75 C 3.175781 -17.800781 3.171875 -17.863281 3.171875 -17.9375 C 3.171875 -18.40625 3.359375 -18.75 3.734375 -18.96875 C 3.929688 -19.082031 4.160156 -19.140625 4.421875 -19.140625 C 4.847656 -19.140625 5.1875 -19.015625 5.4375 -18.765625 L 8.375 -19.09375 C 8.507812 -19.101562 8.632812 -19.109375 8.75 -19.109375 C 9.726562 -19.109375 10.21875 -18.65625 10.21875 -17.75 C 10.21875 -17.613281 10.207031 -17.457031 10.1875 -17.28125 Z M 7.703125 -15.5625 L 7.8125 -16.546875 C 7.8125 -16.566406 7.8125 -16.585938 7.8125 -16.609375 C 7.8125 -16.878906 7.671875 -17.003906 7.390625 -16.984375 L 5.8125 -16.8125 L 5.953125 -15.390625 Z M 9.921875 -4 C 10.128906 -3.78125 10.234375 -3.503906 10.234375 -3.171875 C 10.234375 -2.492188 9.84375 -2.113281 9.0625 -2.03125 L 5.828125 -1.71875 C 5.828125 -1.65625 5.828125 -1.609375 5.828125 -1.578125 C 5.828125 -0.867188 5.410156 -0.515625 4.578125 -0.515625 C 3.796875 -0.515625 3.375 -0.90625 3.3125 -1.6875 L 2.859375 -6.5 C 2.847656 -6.613281 2.84375 -6.679688 2.84375 -6.703125 C 2.84375 -7.148438 3.007812 -7.476562 3.34375 -7.6875 C 3.550781 -7.820312 3.804688 -7.890625 4.109375 -7.890625 C 4.578125 -7.890625 4.945312 -7.765625 5.21875 -7.515625 L 7.90625 -7.828125 C 8.394531 -7.878906 8.691406 -7.90625 8.796875 -7.90625 C 9.734375 -7.90625 10.203125 -7.40625 10.203125 -6.40625 C 10.203125 -6.28125 10.171875 -5.960938 10.109375 -5.453125 Z M 7.59375 -4.09375 L 7.6875 -5.171875 C 7.6875 -5.210938 7.6875 -5.242188 7.6875 -5.265625 C 7.6875 -5.535156 7.5625 -5.671875 7.3125 -5.671875 C 7.269531 -5.671875 7.234375 -5.671875 7.203125 -5.671875 L 5.578125 -5.46875 L 5.6875 -3.890625 Z M 22.34375 -11 C 23.488281 -7.113281 25.632812 -3.492188 28.78125 -0.140625 C 29.28125 0.390625 29.53125 0.757812 29.53125 0.96875 C 29.53125 1.195312 29.3125 1.378906 28.875 1.515625 C 28.03125 1.765625 27.316406 1.890625 26.734375 1.890625 C 26.066406 1.890625 25.554688 1.644531 25.203125 1.15625 C 23.816406 -0.757812 22.585938 -3.175781 21.515625 -6.09375 C 20.691406 -3.332031 19.492188 -1.082031 17.921875 0.65625 C 17.117188 1.550781 16.4375 2 15.875 2 C 15.59375 2 15.351562 1.894531 15.15625 1.6875 C 14.925781 1.445312 14.8125 1.160156 14.8125 0.828125 C 14.8125 0.515625 15.035156 0.0976562 15.484375 -0.421875 C 16.867188 -2.046875 17.84375 -3.988281 18.40625 -6.25 C 18.925781 -8.332031 19.203125 -10.867188 19.234375 -13.859375 C 19.242188 -14.984375 19.75 -15.546875 20.75 -15.546875 C 21.445312 -15.546875 21.925781 -15.3125 22.1875 -14.84375 C 22.320312 -14.601562 22.390625 -14.101562 22.390625 -13.34375 C 22.390625 -12.664062 22.375 -11.882812 22.34375 -11 Z M 14.375 -20.671875 L 14.375 -13.96875 C 14.375 -13.5625 14.234375 -13.238281 13.953125 -13 C 13.671875 -12.75 13.296875 -12.625 12.828125 -12.625 C 11.773438 -12.625 11.25 -13.070312 11.25 -13.96875 L 11.25 -20.421875 L 2.9375 -19.78125 L 2.8125 -19.765625 C 2.4375 -19.765625 2.128906 -19.875 1.890625 -20.09375 C 1.609375 -20.351562 1.46875 -20.710938 1.46875 -21.171875 C 1.46875 -22.148438 1.878906 -22.671875 2.703125 -22.734375 L 14.96875 -23.671875 C 14.988281 -23.671875 15.023438 -23.671875 15.078125 -23.671875 C 15.492188 -23.671875 15.820312 -23.523438 16.0625 -23.234375 C 16.28125 -22.941406 16.390625 -22.570312 16.390625 -22.125 C 16.390625 -21.257812 15.96875 -20.796875 15.125 -20.734375 Z M 19.109375 -16.3125 C 18.722656 -15.5 18.234375 -14.671875 17.640625 -13.828125 C 17.242188 -13.273438 16.804688 -13 16.328125 -13 C 16.046875 -13 15.796875 -13.082031 15.578125 -13.25 C 15.273438 -13.488281 15.125 -13.785156 15.125 -14.140625 C 15.125 -14.398438 15.28125 -14.832031 15.59375 -15.4375 C 16.375 -16.914062 17.050781 -18.753906 17.625 -20.953125 C 17.84375 -21.804688 18.023438 -22.65625 18.171875 -23.5 C 18.304688 -24.40625 18.816406 -24.859375 19.703125 -24.859375 C 20.867188 -24.859375 21.453125 -24.335938 21.453125 -23.296875 C 21.453125 -22.585938 21.132812 -21.335938 20.5 -19.546875 L 26.375 -20.046875 C 26.488281 -20.046875 26.582031 -20.046875 26.65625 -20.046875 C 27.226562 -20.046875 27.6875 -19.929688 28.03125 -19.703125 C 28.519531 -19.367188 28.765625 -18.859375 28.765625 -18.171875 C 28.765625 -17.367188 28.34375 -16.203125 27.5 -14.671875 C 26.882812 -13.566406 26.378906 -12.789062 25.984375 -12.34375 C 25.660156 -11.988281 25.304688 -11.8125 24.921875 -11.8125 C 24.691406 -11.8125 24.472656 -11.875 24.265625 -12 C 23.929688 -12.207031 23.765625 -12.503906 23.765625 -12.890625 C 23.765625 -13.140625 23.863281 -13.457031 24.0625 -13.84375 C 24.664062 -15.007812 24.96875 -15.882812 24.96875 -16.46875 C 24.96875 -16.664062 24.828125 -16.773438 24.546875 -16.796875 C 24.484375 -16.796875 24.421875 -16.796875 24.359375 -16.796875 Z M 19.109375 -16.3125 "/></g></g></g><g fill="#ffffff" fill-opacity="1"><g transform="translate(220.799964, 54.602313)"><g><path d="M 17.0625 -21.125 C 17.0625 -21.5 17.171875 -21.800781 17.390625 -22.03125 C 17.609375 -22.269531 17.875 -22.4375 18.1875 -22.53125 C 18.5 -22.625 18.785156 -22.671875 19.046875 -22.671875 C 19.304688 -22.671875 19.59375 -22.625 19.90625 -22.53125 C 20.21875 -22.4375 20.484375 -22.269531 20.703125 -22.03125 C 20.921875 -21.789062 21.03125 -21.476562 21.03125 -21.09375 L 21.03125 -2.859375 C 21.03125 -2.054688 20.816406 -1.398438 20.390625 -0.890625 C 19.960938 -0.390625 19.40625 -0.132812 18.71875 -0.125 L 18.609375 -0.125 C 18.128906 -0.125 17.632812 -0.234375 17.125 -0.453125 C 16.625 -0.671875 16.15625 -1.160156 15.71875 -1.921875 L 6.453125 -17.921875 L 6.6875 -1.71875 L 6.6875 -1.6875 C 6.6875 -1.28125 6.578125 -0.960938 6.359375 -0.734375 C 6.140625 -0.503906 5.875 -0.335938 5.5625 -0.234375 C 5.25 -0.140625 4.96875 -0.09375 4.71875 -0.09375 C 4.3125 -0.09375 3.875 -0.210938 3.40625 -0.453125 C 2.945312 -0.691406 2.71875 -1.113281 2.71875 -1.71875 L 2.71875 -19.75 C 2.71875 -20.570312 3.003906 -21.253906 3.578125 -21.796875 C 4.148438 -22.347656 4.835938 -22.640625 5.640625 -22.671875 L 5.875 -22.671875 C 6.476562 -22.671875 7.0625 -22.53125 7.625 -22.25 C 8.1875 -21.976562 8.6875 -21.453125 9.125 -20.671875 L 17.3125 -6.453125 L 17.0625 -21.09375 Z M 17.0625 -21.125 "/></g></g></g><g fill="#ffffff" fill-opacity="1"><g transform="translate(243.959738, 54.602313)"><g><path d="M 5.640625 -22.359375 L 17.40625 -22.359375 C 17.9375 -22.359375 18.3125 -22.148438 18.53125 -21.734375 C 18.757812 -21.328125 18.875 -20.953125 18.875 -20.609375 C 18.875 -20.265625 18.757812 -19.890625 18.53125 -19.484375 C 18.3125 -19.085938 17.9375 -18.890625 17.40625 -18.890625 L 7.390625 -18.890625 C 7.023438 -18.890625 6.84375 -18.703125 6.84375 -18.328125 L 6.84375 -13.40625 L 16.109375 -13.40625 C 16.628906 -13.40625 16.988281 -13.195312 17.1875 -12.78125 C 17.382812 -12.375 17.484375 -12.015625 17.484375 -11.703125 C 17.484375 -11.378906 17.382812 -11.007812 17.1875 -10.59375 C 16.988281 -10.1875 16.628906 -9.984375 16.109375 -9.984375 L 6.84375 -9.984375 L 6.84375 -4.53125 C 6.84375 -4.164062 7.023438 -3.984375 7.390625 -3.984375 L 17.859375 -3.984375 C 18.410156 -3.984375 18.789062 -3.773438 19 -3.359375 C 19.21875 -2.953125 19.328125 -2.578125 19.328125 -2.234375 C 19.328125 -1.890625 19.21875 -1.503906 19 -1.078125 C 18.789062 -0.660156 18.410156 -0.453125 17.859375 -0.453125 L 5.640625 -0.453125 C 3.691406 -0.453125 2.71875 -1.421875 2.71875 -3.359375 L 2.71875 -19.4375 C 2.71875 -21.382812 3.691406 -22.359375 5.640625 -22.359375 Z M 5.640625 -22.359375 "/></g></g></g><g fill="#ffffff" fill-opacity="1"><g transform="translate(263.735699, 54.602313)"><g><path d="M 1.4375 -20.671875 C 1.4375 -21.015625 1.523438 -21.328125 1.703125 -21.609375 C 1.890625 -21.898438 2.125 -22.128906 2.40625 -22.296875 C 2.613281 -22.410156 2.828125 -22.5 3.046875 -22.5625 C 3.273438 -22.632812 3.5 -22.671875 3.71875 -22.671875 C 4.351562 -22.671875 4.90625 -22.375 5.375 -21.78125 L 10.734375 -14.65625 L 16.109375 -21.78125 C 16.566406 -22.375 17.125 -22.671875 17.78125 -22.671875 C 18.1875 -22.671875 18.625 -22.546875 19.09375 -22.296875 C 19.363281 -22.128906 19.585938 -21.898438 19.765625 -21.609375 C 19.953125 -21.328125 20.046875 -21.015625 20.046875 -20.671875 C 20.046875 -20.253906 19.890625 -19.851562 19.578125 -19.46875 L 13.3125 -11.609375 L 20.25 -3.515625 C 20.582031 -3.117188 20.75 -2.691406 20.75 -2.234375 C 20.75 -1.566406 20.453125 -1.019531 19.859375 -0.59375 C 19.441406 -0.289062 18.992188 -0.140625 18.515625 -0.140625 C 17.816406 -0.140625 17.226562 -0.445312 16.75 -1.0625 L 10.734375 -8.53125 L 4.75 -1.0625 C 4.257812 -0.445312 3.664062 -0.140625 2.96875 -0.140625 C 2.488281 -0.140625 2.039062 -0.289062 1.625 -0.59375 C 1.019531 -1.019531 0.71875 -1.566406 0.71875 -2.234375 C 0.71875 -2.691406 0.890625 -3.117188 1.234375 -3.515625 L 8.15625 -11.609375 L 1.890625 -19.46875 C 1.585938 -19.851562 1.4375 -20.253906 1.4375 -20.671875 Z M 1.4375 -20.671875 "/></g></g></g><g fill="#ffffff" fill-opacity="1"><g transform="translate(284.610293, 54.602313)"><g><path d="M 2 -22.359375 L 18.75 -22.359375 C 19.320312 -22.359375 19.710938 -22.140625 19.921875 -21.703125 C 20.140625 -21.273438 20.25 -20.878906 20.25 -20.515625 C 20.25 -20.160156 20.140625 -19.769531 19.921875 -19.34375 C 19.710938 -18.925781 19.320312 -18.71875 18.75 -18.71875 L 12.453125 -18.71875 L 12.453125 -1.828125 C 12.453125 -1.179688 12.21875 -0.734375 11.75 -0.484375 C 11.28125 -0.242188 10.828125 -0.125 10.390625 -0.125 C 9.953125 -0.125 9.492188 -0.242188 9.015625 -0.484375 C 8.546875 -0.734375 8.3125 -1.179688 8.3125 -1.828125 L 8.3125 -18.71875 L 2 -18.71875 C 1.425781 -18.71875 1.035156 -18.925781 0.828125 -19.34375 C 0.617188 -19.769531 0.515625 -20.160156 0.515625 -20.515625 C 0.515625 -20.878906 0.617188 -21.273438 0.828125 -21.703125 C 1.035156 -22.140625 1.425781 -22.359375 2 -22.359375 Z M 2 -22.359375 "/></g></g></g><g fill="#ffffff" fill-opacity="1"><g transform="translate(304.767137, 54.602313)"><g/></g></g><g fill="#ffffff" fill-opacity="1"><g transform="translate(313.527497, 54.602313)"><g><path d="M 2.25 -16.6875 C 2.25 -17.675781 2.53125 -18.644531 3.09375 -19.59375 C 3.664062 -20.550781 4.539062 -21.332031 5.71875 -21.9375 C 6.90625 -22.550781 8.425781 -22.859375 10.28125 -22.859375 C 11.5 -22.859375 12.726562 -22.632812 13.96875 -22.1875 C 15.207031 -21.75 16.210938 -21.132812 16.984375 -20.34375 C 17.378906 -19.894531 17.578125 -19.410156 17.578125 -18.890625 C 17.578125 -18.492188 17.4375 -18.125 17.15625 -17.78125 C 16.738281 -17.300781 16.226562 -17.0625 15.625 -17.0625 C 15.144531 -17.0625 14.71875 -17.234375 14.34375 -17.578125 C 13.75 -18.160156 13.132812 -18.613281 12.5 -18.9375 C 11.863281 -19.269531 11.113281 -19.4375 10.25 -19.4375 C 9.03125 -19.4375 8.0625 -19.21875 7.34375 -18.78125 C 6.625 -18.34375 6.265625 -17.710938 6.265625 -16.890625 C 6.265625 -16.109375 6.609375 -15.476562 7.296875 -15 C 7.566406 -14.800781 8 -14.578125 8.59375 -14.328125 C 9.195312 -14.078125 10.09375 -13.785156 11.28125 -13.453125 C 12.4375 -13.109375 13.445312 -12.769531 14.3125 -12.4375 C 15.1875 -12.101562 15.925781 -11.707031 16.53125 -11.25 C 17.414062 -10.582031 18.035156 -9.875 18.390625 -9.125 C 18.742188 -8.382812 18.921875 -7.519531 18.921875 -6.53125 C 18.921875 -5.132812 18.550781 -3.941406 17.8125 -2.953125 C 17.082031 -1.960938 16.0625 -1.207031 14.75 -0.6875 C 13.445312 -0.164062 11.957031 0.09375 10.28125 0.09375 C 8.582031 0.09375 7.046875 -0.203125 5.671875 -0.796875 C 4.296875 -1.390625 3.175781 -2.15625 2.3125 -3.09375 C 1.832031 -3.59375 1.59375 -4.144531 1.59375 -4.75 C 1.59375 -5.164062 1.722656 -5.539062 1.984375 -5.875 C 2.359375 -6.363281 2.847656 -6.609375 3.453125 -6.609375 C 3.972656 -6.609375 4.460938 -6.375 4.921875 -5.90625 C 5.660156 -5.175781 6.453125 -4.578125 7.296875 -4.109375 C 8.148438 -3.640625 9.132812 -3.40625 10.25 -3.40625 C 11.601562 -3.40625 12.679688 -3.65625 13.484375 -4.15625 C 14.296875 -4.664062 14.703125 -5.367188 14.703125 -6.265625 C 14.703125 -6.703125 14.613281 -7.101562 14.4375 -7.46875 C 14.257812 -7.832031 13.96875 -8.148438 13.5625 -8.421875 C 13.082031 -8.765625 12.476562 -9.066406 11.75 -9.328125 C 11.019531 -9.597656 10.191406 -9.867188 9.265625 -10.140625 C 7.890625 -10.578125 6.832031 -10.96875 6.09375 -11.3125 C 5.351562 -11.664062 4.753906 -12.003906 4.296875 -12.328125 C 2.929688 -13.265625 2.25 -14.71875 2.25 -16.6875 Z M 2.25 -16.6875 "/></g></g></g><g fill="#ffffff" fill-opacity="1"><g transform="translate(333.098381, 54.602313)"><g><path d="M 2 -22.359375 L 18.75 -22.359375 C 19.320312 -22.359375 19.710938 -22.140625 19.921875 -21.703125 C 20.140625 -21.273438 20.25 -20.878906 20.25 -20.515625 C 20.25 -20.160156 20.140625 -19.769531 19.921875 -19.34375 C 19.710938 -18.925781 19.320312 -18.71875 18.75 -18.71875 L 12.453125 -18.71875 L 12.453125 -1.828125 C 12.453125 -1.179688 12.21875 -0.734375 11.75 -0.484375 C 11.28125 -0.242188 10.828125 -0.125 10.390625 -0.125 C 9.953125 -0.125 9.492188 -0.242188 9.015625 -0.484375 C 8.546875 -0.734375 8.3125 -1.179688 8.3125 -1.828125 L 8.3125 -18.71875 L 2 -18.71875 C 1.425781 -18.71875 1.035156 -18.925781 0.828125 -19.34375 C 0.617188 -19.769531 0.515625 -20.160156 0.515625 -20.515625 C 0.515625 -20.878906 0.617188 -21.273438 0.828125 -21.703125 C 1.035156 -22.140625 1.425781 -22.359375 2 -22.359375 Z M 2 -22.359375 "/></g></g></g><g fill="#ffffff" fill-opacity="1"><g transform="translate(351.453444, 54.602313)"><g><path d="M 7.84375 -20.46875 C 8.207031 -21.382812 8.644531 -22 9.15625 -22.3125 C 9.675781 -22.632812 10.242188 -22.796875 10.859375 -22.796875 C 11.484375 -22.796875 12.046875 -22.632812 12.546875 -22.3125 C 13.054688 -22 13.503906 -21.382812 13.890625 -20.46875 L 20.953125 -2.921875 C 21.085938 -2.578125 21.15625 -2.242188 21.15625 -1.921875 C 21.15625 -1.179688 20.734375 -0.640625 19.890625 -0.296875 C 19.585938 -0.179688 19.285156 -0.125 18.984375 -0.125 C 18.585938 -0.125 18.203125 -0.238281 17.828125 -0.46875 C 17.460938 -0.695312 17.179688 -1.070312 16.984375 -1.59375 L 15.203125 -6.15625 L 6.5 -6.15625 L 4.75 -1.59375 C 4.539062 -1.070312 4.25 -0.695312 3.875 -0.46875 C 3.507812 -0.238281 3.125 -0.125 2.71875 -0.125 C 2.425781 -0.125 2.128906 -0.179688 1.828125 -0.296875 C 0.992188 -0.640625 0.578125 -1.179688 0.578125 -1.921875 C 0.578125 -2.242188 0.644531 -2.578125 0.78125 -2.921875 Z M 10.859375 -18.65625 L 7.734375 -9.65625 L 13.953125 -9.65625 Z M 10.859375 -18.65625 "/></g></g></g><g fill="#ffffff" fill-opacity="1"><g transform="translate(372.577085, 54.602313)"><g><path d="M 1.53125 -11.390625 C 1.53125 -12.992188 1.785156 -14.488281 2.296875 -15.875 C 2.804688 -17.269531 3.539062 -18.488281 4.5 -19.53125 C 5.46875 -20.570312 6.625 -21.382812 7.96875 -21.96875 C 9.3125 -22.5625 10.828125 -22.859375 12.515625 -22.859375 C 13.523438 -22.859375 14.53125 -22.71875 15.53125 -22.4375 C 16.53125 -22.15625 17.441406 -21.765625 18.265625 -21.265625 C 19.085938 -20.765625 19.726562 -20.1875 20.1875 -19.53125 C 20.507812 -19.070312 20.671875 -18.617188 20.671875 -18.171875 C 20.671875 -17.679688 20.441406 -17.234375 19.984375 -16.828125 C 19.546875 -16.484375 19.101562 -16.3125 18.65625 -16.3125 C 18.101562 -16.3125 17.65625 -16.535156 17.3125 -16.984375 C 16.789062 -17.660156 16.125 -18.226562 15.3125 -18.6875 C 14.507812 -19.144531 13.535156 -19.375 12.390625 -19.375 C 10.390625 -19.375 8.796875 -18.660156 7.609375 -17.234375 C 6.429688 -15.804688 5.84375 -13.851562 5.84375 -11.375 C 5.84375 -9.75 6.125 -8.351562 6.6875 -7.1875 C 7.25 -6.019531 7.988281 -5.117188 8.90625 -4.484375 C 9.820312 -3.859375 10.832031 -3.546875 11.9375 -3.546875 C 13.457031 -3.546875 14.675781 -4.023438 15.59375 -4.984375 C 16.519531 -5.941406 17.210938 -7.125 17.671875 -8.53125 L 13.453125 -8.53125 C 12.921875 -8.53125 12.554688 -8.726562 12.359375 -9.125 C 12.160156 -9.53125 12.0625 -9.890625 12.0625 -10.203125 C 12.0625 -10.515625 12.160156 -10.859375 12.359375 -11.234375 C 12.554688 -11.609375 12.921875 -11.796875 13.453125 -11.796875 L 19.375 -11.796875 C 20.914062 -11.796875 21.6875 -11.03125 21.6875 -9.5 L 21.6875 -1.765625 C 21.6875 -1.160156 21.5 -0.738281 21.125 -0.5 C 20.757812 -0.257812 20.414062 -0.140625 20.09375 -0.140625 C 19.863281 -0.140625 19.601562 -0.175781 19.3125 -0.25 C 19.03125 -0.320312 18.789062 -0.46875 18.59375 -0.6875 C 18.394531 -0.914062 18.296875 -1.269531 18.296875 -1.75 L 18.296875 -3.71875 C 17.898438 -2.820312 17.351562 -2.097656 16.65625 -1.546875 C 15.96875 -0.992188 15.1875 -0.585938 14.3125 -0.328125 C 13.4375 -0.0664062 12.535156 0.0625 11.609375 0.0625 C 9.554688 0.0625 7.773438 -0.414062 6.265625 -1.375 C 4.765625 -2.34375 3.597656 -3.6875 2.765625 -5.40625 C 1.941406 -7.125 1.53125 -9.117188 1.53125 -11.390625 Z M 1.53125 -11.390625 "/></g></g></g><g fill="#ffffff" fill-opacity="1"><g transform="translate(395.795452, 54.602313)"><g><path d="M 5.640625 -22.359375 L 17.40625 -22.359375 C 17.9375 -22.359375 18.3125 -22.148438 18.53125 -21.734375 C 18.757812 -21.328125 18.875 -20.953125 18.875 -20.609375 C 18.875 -20.265625 18.757812 -19.890625 18.53125 -19.484375 C 18.3125 -19.085938 17.9375 -18.890625 17.40625 -18.890625 L 7.390625 -18.890625 C 7.023438 -18.890625 6.84375 -18.703125 6.84375 -18.328125 L 6.84375 -13.40625 L 16.109375 -13.40625 C 16.628906 -13.40625 16.988281 -13.195312 17.1875 -12.78125 C 17.382812 -12.375 17.484375 -12.015625 17.484375 -11.703125 C 17.484375 -11.378906 17.382812 -11.007812 17.1875 -10.59375 C 16.988281 -10.1875 16.628906 -9.984375 16.109375 -9.984375 L 6.84375 -9.984375 L 6.84375 -4.53125 C 6.84375 -4.164062 7.023438 -3.984375 7.390625 -3.984375 L 17.859375 -3.984375 C 18.410156 -3.984375 18.789062 -3.773438 19 -3.359375 C 19.21875 -2.953125 19.328125 -2.578125 19.328125 -2.234375 C 19.328125 -1.890625 19.21875 -1.503906 19 -1.078125 C 18.789062 -0.660156 18.410156 -0.453125 17.859375 -0.453125 L 5.640625 -0.453125 C 3.691406 -0.453125 2.71875 -1.421875 2.71875 -3.359375 L 2.71875 -19.4375 C 2.71875 -21.382812 3.691406 -22.359375 5.640625 -22.359375 Z M 5.640625 -22.359375 "/></g></g></g><g fill="#ffffff" fill-opacity="1"><g transform="translate(15.000003, 108.60231)"><g><path d="M 20.234375 -13.265625 L 20.234375 -0.328125 C 20.234375 0.554688 20.078125 1.300781 19.765625 1.90625 C 19.285156 2.789062 18.539062 3.234375 17.53125 3.234375 C 16.21875 3.234375 14.460938 2.742188 12.265625 1.765625 C 11.453125 1.410156 11.046875 0.9375 11.046875 0.34375 C 11.046875 -0.632812 11.46875 -1.125 12.3125 -1.125 C 12.445312 -1.125 12.628906 -1.097656 12.859375 -1.046875 C 13.546875 -0.910156 14.21875 -0.84375 14.875 -0.84375 C 15.457031 -0.84375 15.75 -1.191406 15.75 -1.890625 L 15.75 -12.96875 L 3.40625 -12.140625 C 2.8125 -12.097656 2.335938 -12.242188 1.984375 -12.578125 C 1.585938 -12.929688 1.390625 -13.445312 1.390625 -14.125 C 1.390625 -15.46875 1.976562 -16.179688 3.15625 -16.265625 L 22 -17.515625 C 22.46875 -17.546875 22.863281 -17.457031 23.1875 -17.25 C 23.738281 -16.90625 24.015625 -16.335938 24.015625 -15.546875 C 24.015625 -14.191406 23.425781 -13.472656 22.25 -13.390625 Z M 13.796875 -21.71875 C 14.148438 -21.414062 14.328125 -21.023438 14.328125 -20.546875 C 14.328125 -19.710938 13.8125 -19.25 12.78125 -19.15625 L 8.515625 -18.765625 C 8.347656 -18.066406 7.78125 -17.71875 6.8125 -17.71875 C 5.757812 -17.71875 5.1875 -18.15625 5.09375 -19.03125 L 4.46875 -24.859375 C 4.457031 -24.921875 4.453125 -25.007812 4.453125 -25.125 C 4.453125 -25.78125 4.710938 -26.257812 5.234375 -26.5625 C 5.503906 -26.71875 5.820312 -26.796875 6.1875 -26.796875 C 6.789062 -26.796875 7.265625 -26.617188 7.609375 -26.265625 L 11.734375 -26.71875 C 11.921875 -26.738281 12.09375 -26.75 12.25 -26.75 C 13.625 -26.75 14.3125 -26.117188 14.3125 -24.859375 C 14.3125 -24.660156 14.289062 -24.441406 14.25 -24.203125 Z M 10.78125 -21.78125 L 10.9375 -23.171875 C 10.9375 -23.203125 10.9375 -23.226562 10.9375 -23.25 C 10.9375 -23.632812 10.738281 -23.804688 10.34375 -23.765625 L 8.140625 -23.546875 L 8.328125 -21.546875 Z M 13.890625 -5.59375 C 14.179688 -5.289062 14.328125 -4.90625 14.328125 -4.4375 C 14.328125 -3.488281 13.78125 -2.957031 12.6875 -2.84375 L 8.15625 -2.40625 C 8.15625 -2.320312 8.15625 -2.257812 8.15625 -2.21875 C 8.15625 -1.21875 7.570312 -0.71875 6.40625 -0.71875 C 5.320312 -0.71875 4.734375 -1.265625 4.640625 -2.359375 L 4 -9.109375 C 3.988281 -9.253906 3.984375 -9.347656 3.984375 -9.390625 C 3.984375 -10.003906 4.210938 -10.460938 4.671875 -10.765625 C 4.972656 -10.953125 5.332031 -11.046875 5.75 -11.046875 C 6.414062 -11.046875 6.929688 -10.867188 7.296875 -10.515625 L 11.078125 -10.953125 C 11.753906 -11.035156 12.171875 -11.078125 12.328125 -11.078125 C 13.640625 -11.078125 14.296875 -10.375 14.296875 -8.96875 C 14.296875 -8.789062 14.25 -8.34375 14.15625 -7.625 Z M 10.625 -5.71875 L 10.765625 -7.234375 C 10.765625 -7.296875 10.765625 -7.335938 10.765625 -7.359375 C 10.765625 -7.742188 10.585938 -7.9375 10.234375 -7.9375 C 10.179688 -7.9375 10.132812 -7.9375 10.09375 -7.9375 L 7.8125 -7.65625 L 7.953125 -5.453125 Z M 31.28125 -15.40625 C 32.882812 -9.957031 35.890625 -4.890625 40.296875 -0.203125 C 40.992188 0.546875 41.34375 1.066406 41.34375 1.359375 C 41.34375 1.679688 41.035156 1.929688 40.421875 2.109375 C 39.242188 2.460938 38.242188 2.640625 37.421875 2.640625 C 36.492188 2.640625 35.785156 2.300781 35.296875 1.625 C 33.347656 -1.0625 31.625 -4.445312 30.125 -8.53125 C 28.976562 -4.664062 27.296875 -1.515625 25.078125 0.921875 C 23.960938 2.171875 23.015625 2.796875 22.234375 2.796875 C 21.835938 2.796875 21.5 2.648438 21.21875 2.359375 C 20.894531 2.023438 20.734375 1.628906 20.734375 1.171875 C 20.734375 0.734375 21.046875 0.144531 21.671875 -0.59375 C 23.617188 -2.863281 24.988281 -5.582031 25.78125 -8.75 C 26.5 -11.664062 26.878906 -15.21875 26.921875 -19.40625 C 26.941406 -20.976562 27.648438 -21.765625 29.046875 -21.765625 C 30.023438 -21.765625 30.695312 -21.4375 31.0625 -20.78125 C 31.257812 -20.445312 31.359375 -19.75 31.359375 -18.6875 C 31.359375 -17.738281 31.332031 -16.644531 31.28125 -15.40625 Z M 20.125 -28.9375 L 20.125 -19.5625 C 20.125 -18.988281 19.929688 -18.53125 19.546875 -18.1875 C 19.148438 -17.84375 18.625 -17.671875 17.96875 -17.671875 C 16.488281 -17.671875 15.75 -18.300781 15.75 -19.5625 L 15.75 -28.59375 L 4.125 -27.6875 L 3.9375 -27.671875 C 3.414062 -27.671875 2.984375 -27.828125 2.640625 -28.140625 C 2.242188 -28.492188 2.046875 -28.992188 2.046875 -29.640625 C 2.046875 -31.015625 2.625 -31.742188 3.78125 -31.828125 L 20.953125 -33.140625 C 20.984375 -33.140625 21.035156 -33.140625 21.109375 -33.140625 C 21.691406 -33.140625 22.148438 -32.9375 22.484375 -32.53125 C 22.796875 -32.113281 22.953125 -31.59375 22.953125 -30.96875 C 22.953125 -29.757812 22.359375 -29.109375 21.171875 -29.015625 Z M 26.765625 -22.84375 C 26.210938 -21.695312 25.519531 -20.535156 24.6875 -19.359375 C 24.144531 -18.578125 23.535156 -18.1875 22.859375 -18.1875 C 22.460938 -18.1875 22.109375 -18.3125 21.796875 -18.5625 C 21.390625 -18.882812 21.1875 -19.296875 21.1875 -19.796875 C 21.1875 -20.160156 21.40625 -20.765625 21.84375 -21.609375 C 22.925781 -23.679688 23.867188 -26.253906 24.671875 -29.328125 C 24.984375 -30.523438 25.238281 -31.710938 25.4375 -32.890625 C 25.625 -34.160156 26.335938 -34.796875 27.578125 -34.796875 C 29.222656 -34.796875 30.046875 -34.066406 30.046875 -32.609375 C 30.046875 -31.617188 29.59375 -29.867188 28.6875 -27.359375 L 36.9375 -28.0625 C 37.082031 -28.070312 37.210938 -28.078125 37.328125 -28.078125 C 38.117188 -28.078125 38.757812 -27.910156 39.25 -27.578125 C 39.9375 -27.117188 40.28125 -26.410156 40.28125 -25.453125 C 40.28125 -24.316406 39.6875 -22.679688 38.5 -20.546875 C 37.632812 -19.003906 36.925781 -17.914062 36.375 -17.28125 C 35.925781 -16.78125 35.429688 -16.53125 34.890625 -16.53125 C 34.566406 -16.53125 34.265625 -16.617188 33.984375 -16.796875 C 33.503906 -17.097656 33.265625 -17.515625 33.265625 -18.046875 C 33.265625 -18.398438 33.40625 -18.84375 33.6875 -19.375 C 34.539062 -21.019531 34.96875 -22.242188 34.96875 -23.046875 C 34.96875 -23.335938 34.769531 -23.492188 34.375 -23.515625 C 34.28125 -23.515625 34.191406 -23.515625 34.109375 -23.515625 Z M 26.765625 -22.84375 "/></g></g></g><g fill="#ffffff" fill-opacity="1"><g transform="translate(56.160004, 108.60231)"><g><path d="M 30.234375 -9.328125 C 30.628906 -8.929688 30.828125 -8.410156 30.828125 -7.765625 C 30.828125 -6.566406 30.238281 -5.910156 29.0625 -5.796875 L 23.140625 -5.234375 C 23.066406 -4.203125 22.4375 -3.6875 21.25 -3.6875 C 20.03125 -3.6875 19.382812 -4.234375 19.3125 -5.328125 L 18.59375 -16.390625 C 18.59375 -16.410156 18.59375 -16.457031 18.59375 -16.53125 C 18.59375 -17.113281 18.832031 -17.554688 19.3125 -17.859375 C 19.65625 -18.078125 20.070312 -18.1875 20.5625 -18.1875 C 21.320312 -18.1875 21.890625 -17.921875 22.265625 -17.390625 L 27.8125 -18.03125 C 27.976562 -18.039062 28.171875 -18.046875 28.390625 -18.046875 C 30.097656 -18.046875 30.953125 -17.210938 30.953125 -15.546875 C 30.953125 -15.359375 30.9375 -15.160156 30.90625 -14.953125 Z M 26.578125 -9.46875 L 26.921875 -13.234375 C 26.921875 -13.328125 26.921875 -13.394531 26.921875 -13.4375 C 26.921875 -13.875 26.738281 -14.078125 26.375 -14.046875 C 26.332031 -14.046875 26.273438 -14.039062 26.203125 -14.03125 L 22.6875 -13.578125 L 22.921875 -9.140625 Z M 15.859375 -2.75 C 16.367188 -2.394531 16.625 -1.863281 16.625 -1.15625 C 16.625 0.0078125 16.078125 0.648438 14.984375 0.765625 L 8.21875 1.4375 C 8.019531 2.351562 7.320312 2.8125 6.125 2.8125 C 4.84375 2.8125 4.140625 2.207031 4.015625 1 L 3.140625 -8.09375 C 3.140625 -8.15625 3.140625 -8.234375 3.140625 -8.328125 C 3.140625 -9.015625 3.425781 -9.523438 4 -9.859375 C 4.363281 -10.097656 4.796875 -10.21875 5.296875 -10.21875 C 6.015625 -10.21875 6.582031 -10.007812 7 -9.59375 L 12.9375 -10.25 C 13.226562 -10.28125 13.507812 -10.296875 13.78125 -10.296875 C 15.695312 -10.296875 16.65625 -9.441406 16.65625 -7.734375 C 16.65625 -7.429688 16.617188 -7.082031 16.546875 -6.6875 Z M 11.953125 -2.625 L 12.3125 -5.890625 C 12.3125 -6.367188 12.117188 -6.609375 11.734375 -6.609375 C 11.640625 -6.609375 11.5625 -6.609375 11.5 -6.609375 L 7.6875 -6.15625 L 8.015625 -2.21875 Z M 7.109375 -34.703125 C 7.628906 -34.703125 8.546875 -34.488281 9.859375 -34.0625 C 11.328125 -33.59375 12.4375 -33.128906 13.1875 -32.671875 C 14.09375 -32.109375 14.546875 -31.429688 14.546875 -30.640625 C 14.546875 -30.210938 14.414062 -29.804688 14.15625 -29.421875 C 13.71875 -28.765625 13.113281 -28.4375 12.34375 -28.4375 C 11.800781 -28.4375 11.179688 -28.664062 10.484375 -29.125 C 8.492188 -30.414062 7.140625 -31.25 6.421875 -31.625 C 5.804688 -31.945312 5.5 -32.453125 5.5 -33.140625 C 5.5 -34.179688 6.035156 -34.703125 7.109375 -34.703125 Z M 15.703125 -23.6875 L 3.40625 -22.59375 C 3.28125 -22.582031 3.171875 -22.578125 3.078125 -22.578125 C 2.554688 -22.578125 2.132812 -22.765625 1.8125 -23.140625 C 1.488281 -23.503906 1.328125 -24.015625 1.328125 -24.671875 C 1.328125 -25.847656 1.890625 -26.484375 3.015625 -26.578125 L 15.234375 -27.6875 C 15.304688 -27.6875 15.351562 -27.6875 15.375 -27.6875 C 16.226562 -27.6875 16.816406 -27.300781 17.140625 -26.53125 C 17.273438 -26.21875 17.34375 -25.898438 17.34375 -25.578125 C 17.34375 -24.410156 16.796875 -23.78125 15.703125 -23.6875 Z M 13.984375 -17.921875 L 5.84375 -17.1875 C 5.738281 -17.175781 5.671875 -17.171875 5.640625 -17.171875 C 4.890625 -17.171875 4.367188 -17.523438 4.078125 -18.234375 C 3.984375 -18.472656 3.9375 -18.742188 3.9375 -19.046875 C 3.9375 -20.128906 4.457031 -20.726562 5.5 -20.84375 L 13.640625 -21.640625 C 13.679688 -21.640625 13.753906 -21.640625 13.859375 -21.640625 C 14.472656 -21.640625 14.941406 -21.398438 15.265625 -20.921875 C 15.484375 -20.578125 15.59375 -20.191406 15.59375 -19.765625 C 15.59375 -18.648438 15.054688 -18.035156 13.984375 -17.921875 Z M 14.03125 -12.421875 L 5.890625 -11.625 C 5.847656 -11.625 5.765625 -11.625 5.640625 -11.625 C 5.054688 -11.625 4.601562 -11.882812 4.28125 -12.40625 C 4.082031 -12.738281 3.984375 -13.125 3.984375 -13.5625 C 3.984375 -14.65625 4.5 -15.25 5.53125 -15.34375 L 13.734375 -16.03125 C 13.835938 -16.050781 13.898438 -16.0625 13.921875 -16.0625 C 14.578125 -16.0625 15.0625 -15.8125 15.375 -15.3125 C 15.570312 -15.019531 15.671875 -14.664062 15.671875 -14.25 C 15.671875 -13.46875 15.34375 -12.921875 14.6875 -12.609375 C 14.476562 -12.515625 14.257812 -12.453125 14.03125 -12.421875 Z M 29.34375 -20.921875 L 20 -20.03125 C 19.863281 -20.019531 19.78125 -20.015625 19.75 -20.015625 C 19.257812 -20.015625 18.847656 -20.171875 18.515625 -20.484375 C 18.097656 -20.878906 17.890625 -21.425781 17.890625 -22.125 C 17.890625 -23.351562 18.488281 -24.03125 19.6875 -24.15625 L 29.015625 -25.078125 C 29.066406 -25.078125 29.144531 -25.078125 29.25 -25.078125 C 29.769531 -25.078125 30.191406 -24.925781 30.515625 -24.625 C 30.910156 -24.269531 31.109375 -23.765625 31.109375 -23.109375 C 31.109375 -21.753906 30.519531 -21.023438 29.34375 -20.921875 Z M 38.1875 -28.984375 L 38.1875 -0.921875 C 38.1875 1.796875 37.132812 3.15625 35.03125 3.15625 C 34.257812 3.15625 33.128906 2.894531 31.640625 2.375 C 28.773438 1.363281 27.34375 0.359375 27.34375 -0.640625 C 27.34375 -0.867188 27.394531 -1.097656 27.5 -1.328125 C 27.726562 -1.847656 28.160156 -2.109375 28.796875 -2.109375 C 29.023438 -2.109375 29.335938 -2.054688 29.734375 -1.953125 C 30.617188 -1.691406 31.488281 -1.5625 32.34375 -1.5625 C 33.082031 -1.5625 33.453125 -2.003906 33.453125 -2.890625 L 33.453125 -27.125 C 33.453125 -27.84375 33.144531 -28.1875 32.53125 -28.15625 C 32.46875 -28.15625 32.398438 -28.148438 32.328125 -28.140625 L 19.421875 -26.921875 C 19.296875 -26.910156 19.210938 -26.90625 19.171875 -26.90625 C 18.347656 -26.90625 17.773438 -27.304688 17.453125 -28.109375 C 17.304688 -28.484375 17.234375 -28.910156 17.234375 -29.390625 C 17.234375 -30.710938 17.835938 -31.429688 19.046875 -31.546875 L 33.859375 -32.890625 C 34.066406 -32.910156 34.289062 -32.921875 34.53125 -32.921875 C 36.96875 -32.921875 38.1875 -31.609375 38.1875 -28.984375 Z M 38.1875 -28.984375 "/></g></g></g><g fill="#ffffff" fill-opacity="1"><g transform="translate(97.320006, 108.60231)"><g><path d="M 17.3125 -24.5625 C 17.875 -26.957031 18.273438 -29.125 18.515625 -31.0625 C 18.722656 -32.71875 19.609375 -33.546875 21.171875 -33.546875 C 22.972656 -33.546875 23.875 -32.738281 23.875 -31.125 C 23.875 -30.03125 23.546875 -28.003906 22.890625 -25.046875 C 24.828125 -25.191406 27.003906 -25.394531 29.421875 -25.65625 C 29.753906 -25.6875 30.046875 -25.703125 30.296875 -25.703125 C 31.410156 -25.703125 32.359375 -25.421875 33.140625 -24.859375 C 34.148438 -24.117188 34.65625 -23.050781 34.65625 -21.65625 C 34.65625 -21.175781 34.476562 -19.738281 34.125 -17.34375 C 33.101562 -10.488281 31.738281 -5.359375 30.03125 -1.953125 C 28.957031 0.171875 27.539062 1.234375 25.78125 1.234375 C 24.832031 1.234375 23.847656 0.867188 22.828125 0.140625 C 19.734375 -2.015625 18.1875 -3.613281 18.1875 -4.65625 C 18.1875 -4.976562 18.289062 -5.300781 18.5 -5.625 C 18.726562 -5.976562 19.070312 -6.15625 19.53125 -6.15625 C 19.988281 -6.15625 20.5625 -5.984375 21.25 -5.640625 C 23.019531 -4.722656 24.125 -4.265625 24.5625 -4.265625 C 24.957031 -4.265625 25.316406 -4.550781 25.640625 -5.125 C 26.597656 -6.945312 27.492188 -9.757812 28.328125 -13.5625 C 28.992188 -16.601562 29.328125 -18.71875 29.328125 -19.90625 C 29.328125 -20.5 29.066406 -20.796875 28.546875 -20.796875 C 27.660156 -20.796875 25.328125 -20.609375 21.546875 -20.234375 C 18.921875 -12.347656 14.804688 -6.210938 9.203125 -1.828125 C 7.992188 -0.867188 7.066406 -0.390625 6.421875 -0.390625 C 5.910156 -0.390625 5.472656 -0.582031 5.109375 -0.96875 C 4.671875 -1.425781 4.453125 -1.894531 4.453125 -2.375 C 4.453125 -2.882812 4.679688 -3.390625 5.140625 -3.890625 C 5.253906 -4.003906 5.722656 -4.4375 6.546875 -5.1875 C 9.960938 -8.300781 12.742188 -12.242188 14.890625 -17.015625 C 15.234375 -17.796875 15.601562 -18.75 16 -19.875 C 11.664062 -19.40625 9.132812 -19.171875 8.40625 -19.171875 C 6.726562 -19.171875 5.890625 -20.003906 5.890625 -21.671875 C 5.890625 -23.179688 6.9375 -23.976562 9.03125 -24.0625 C 10.875 -24.125 13.632812 -24.289062 17.3125 -24.5625 Z M 17.3125 -24.5625 "/></g></g></g><g fill="#ffffff" fill-opacity="1"><g transform="translate(138.480007, 108.60231)"><g><path d="M 33.71875 -20.15625 C 34.570312 -20.15625 35.25 -19.890625 35.75 -19.359375 C 36.164062 -18.921875 36.375 -18.332031 36.375 -17.59375 C 36.375 -16.21875 35.726562 -15.398438 34.4375 -15.140625 C 34.09375 -15.054688 29.476562 -14.820312 20.59375 -14.4375 C 16.5 -14.257812 12.171875 -14.046875 7.609375 -13.796875 C 7.441406 -13.785156 7.285156 -13.78125 7.140625 -13.78125 C 6.367188 -13.78125 5.722656 -14.003906 5.203125 -14.453125 C 4.671875 -14.929688 4.40625 -15.5625 4.40625 -16.34375 C 4.40625 -17.46875 4.90625 -18.238281 5.90625 -18.65625 C 6.3125 -18.820312 7.28125 -18.929688 8.8125 -18.984375 C 10.164062 -19.023438 13.59375 -19.1875 19.09375 -19.46875 C 21.425781 -19.582031 24.625 -19.726562 28.6875 -19.90625 C 30.050781 -19.96875 31.132812 -20.023438 31.9375 -20.078125 C 32.925781 -20.128906 33.519531 -20.15625 33.71875 -20.15625 Z M 33.71875 -20.15625 "/></g></g></g><g fill="#ffffff" fill-opacity="1"><g transform="translate(179.640008, 108.60231)"><g><path d="M 20 -16.625 L 20 -0.546875 C 20 0.210938 19.75 0.796875 19.25 1.203125 C 18.789062 1.609375 18.175781 1.8125 17.40625 1.8125 C 15.65625 1.8125 14.78125 1.023438 14.78125 -0.546875 L 14.78125 -31.21875 C 14.78125 -32.769531 15.65625 -33.546875 17.40625 -33.546875 C 18.539062 -33.546875 19.316406 -33.15625 19.734375 -32.375 C 19.910156 -32.039062 20 -31.65625 20 -31.21875 L 20 -21.125 C 24.875 -19.851562 28.664062 -18.320312 31.375 -16.53125 C 32.5625 -15.757812 33.15625 -14.820312 33.15625 -13.71875 C 33.15625 -13 32.910156 -12.378906 32.421875 -11.859375 C 31.898438 -11.296875 31.257812 -11.015625 30.5 -11.015625 C 29.84375 -11.015625 29.03125 -11.347656 28.0625 -12.015625 C 25.769531 -13.578125 23.082031 -15.113281 20 -16.625 Z M 28.921875 -29.28125 C 29.691406 -29.28125 30.921875 -28.515625 32.609375 -26.984375 C 34.046875 -25.691406 34.765625 -24.664062 34.765625 -23.90625 C 34.765625 -23.363281 34.53125 -22.90625 34.0625 -22.53125 C 33.675781 -22.238281 33.257812 -22.09375 32.8125 -22.09375 C 32.1875 -22.09375 31.65625 -22.445312 31.21875 -23.15625 C 30.425781 -24.457031 29.453125 -25.703125 28.296875 -26.890625 C 27.921875 -27.285156 27.734375 -27.691406 27.734375 -28.109375 C 27.734375 -28.890625 28.128906 -29.28125 28.921875 -29.28125 Z M 33.1875 -32.5 C 34 -32.5 35.179688 -31.851562 36.734375 -30.5625 C 38.171875 -29.351562 38.890625 -28.328125 38.890625 -27.484375 C 38.890625 -26.890625 38.660156 -26.425781 38.203125 -26.09375 C 37.878906 -25.84375 37.507812 -25.71875 37.09375 -25.71875 C 36.507812 -25.71875 35.992188 -26.0625 35.546875 -26.75 C 34.785156 -27.875 33.804688 -29.015625 32.609375 -30.171875 C 32.171875 -30.585938 31.953125 -30.992188 31.953125 -31.390625 C 31.953125 -31.671875 32.0625 -31.925781 32.28125 -32.15625 C 32.5 -32.382812 32.800781 -32.5 33.1875 -32.5 Z M 33.1875 -32.5 "/></g></g></g><g fill="#ffffff" fill-opacity="1"><g transform="translate(220.80001, 108.60231)"><g><path d="M 8.34375 -29.609375 C 10.5625 -30.660156 12.75 -31.988281 14.90625 -33.59375 C 15.476562 -34.03125 16.070312 -34.25 16.6875 -34.25 C 17.445312 -34.25 18.078125 -33.9375 18.578125 -33.3125 C 19.003906 -32.789062 19.21875 -32.203125 19.21875 -31.546875 C 19.21875 -30.554688 18.601562 -29.734375 17.375 -29.078125 C 14.613281 -27.628906 11.859375 -26.535156 9.109375 -25.796875 L 9.25 -21.1875 L 16.359375 -22.125 C 16.441406 -22.144531 16.53125 -22.15625 16.625 -22.15625 C 17.28125 -22.15625 17.816406 -21.914062 18.234375 -21.4375 C 18.585938 -21.019531 18.765625 -20.507812 18.765625 -19.90625 C 18.765625 -18.957031 18.421875 -18.273438 17.734375 -17.859375 C 17.460938 -17.691406 17.148438 -17.59375 16.796875 -17.5625 L 9.390625 -16.71875 L 9.578125 -11 L 17 -11.859375 C 17.050781 -11.859375 17.144531 -11.859375 17.28125 -11.859375 C 17.957031 -11.859375 18.5 -11.585938 18.90625 -11.046875 C 19.257812 -10.597656 19.4375 -10.070312 19.4375 -9.46875 C 19.4375 -8.476562 19.019531 -7.789062 18.1875 -7.40625 C 17.988281 -7.3125 17.75 -7.25 17.46875 -7.21875 L 9.71875 -6.4375 L 9.734375 -6.125 C 9.722656 -5.488281 9.539062 -4.976562 9.1875 -4.59375 C 8.707031 -4.101562 8.050781 -3.859375 7.21875 -3.859375 C 6.082031 -3.859375 5.3125 -4.269531 4.90625 -5.09375 C 4.75 -5.382812 4.664062 -5.726562 4.65625 -6.125 L 3.78125 -27.96875 C 3.78125 -28.664062 4 -29.222656 4.4375 -29.640625 C 4.925781 -30.078125 5.582031 -30.296875 6.40625 -30.296875 C 7.21875 -30.296875 7.863281 -30.066406 8.34375 -29.609375 Z M 26.203125 -24.921875 L 26.203125 1.09375 C 26.203125 1.6875 26.015625 2.175781 25.640625 2.5625 C 25.140625 3.070312 24.472656 3.328125 23.640625 3.328125 C 22.535156 3.328125 21.78125 2.910156 21.375 2.078125 C 21.238281 1.785156 21.171875 1.457031 21.171875 1.09375 L 21.171875 -24.40625 C 20.742188 -24.457031 20.382812 -24.609375 20.09375 -24.859375 C 19.550781 -25.316406 19.28125 -25.960938 19.28125 -26.796875 C 19.28125 -27.828125 19.707031 -28.554688 20.5625 -28.984375 C 20.882812 -29.140625 21.222656 -29.234375 21.578125 -29.265625 L 33.8125 -30.625 C 34.1875 -30.664062 34.566406 -30.6875 34.953125 -30.6875 C 36.242188 -30.6875 37.175781 -30.335938 37.75 -29.640625 C 38.039062 -29.273438 38.25 -28.816406 38.375 -28.265625 C 38.457031 -27.847656 38.5 -26.957031 38.5 -25.59375 C 38.5 -20.21875 38.191406 -15.671875 37.578125 -11.953125 C 37.328125 -10.378906 36.941406 -9.265625 36.421875 -8.609375 C 35.804688 -7.847656 34.890625 -7.46875 33.671875 -7.46875 C 32.472656 -7.46875 30.769531 -8.066406 28.5625 -9.265625 C 27.5 -9.859375 26.96875 -10.550781 26.96875 -11.34375 C 26.96875 -12.40625 27.519531 -12.9375 28.625 -12.9375 C 28.832031 -12.9375 29.0625 -12.910156 29.3125 -12.859375 C 30.082031 -12.679688 30.722656 -12.59375 31.234375 -12.59375 C 31.941406 -12.59375 32.378906 -13.070312 32.546875 -14.03125 C 32.679688 -14.769531 32.796875 -15.785156 32.890625 -17.078125 C 33.109375 -19.722656 33.21875 -22.054688 33.21875 -24.078125 C 33.21875 -24.679688 33.15625 -25.070312 33.03125 -25.25 C 32.875 -25.476562 32.597656 -25.59375 32.203125 -25.59375 C 32.066406 -25.59375 31.941406 -25.585938 31.828125 -25.578125 Z M 26.203125 -24.921875 "/></g></g></g><g fill="#ffffff" fill-opacity="1"><g transform="translate(261.960011, 108.60231)"><g><path d="M 8.703125 -20.6875 L 8.65625 -20.0625 C 8.539062 -18.375 8.414062 -17.023438 8.28125 -16.015625 C 8.269531 -15.890625 8.257812 -15.78125 8.25 -15.6875 C 8.613281 -16 9.082031 -16.15625 9.65625 -16.15625 C 10.34375 -16.15625 10.863281 -15.976562 11.21875 -15.625 L 14.234375 -15.96875 L 14.234375 -18.984375 C 14.234375 -19.660156 14.492188 -20.175781 15.015625 -20.53125 C 15.367188 -20.757812 15.796875 -20.875 16.296875 -20.875 C 16.992188 -20.875 17.539062 -20.65625 17.9375 -20.21875 C 18.238281 -19.894531 18.390625 -19.484375 18.390625 -18.984375 L 18.390625 -16.484375 L 21.4375 -16.84375 C 21.726562 -16.882812 22.066406 -16.90625 22.453125 -16.90625 C 23.710938 -16.90625 24.554688 -16.503906 24.984375 -15.703125 C 25.296875 -15.117188 25.453125 -14.101562 25.453125 -12.65625 C 25.453125 -8.820312 25.191406 -6.113281 24.671875 -4.53125 C 24.222656 -3.1875 23.4375 -2.515625 22.3125 -2.515625 C 21.300781 -2.515625 20.300781 -2.96875 19.3125 -3.875 C 18.769531 -4.300781 18.5 -4.738281 18.5 -5.1875 C 18.5 -5.976562 18.867188 -6.375 19.609375 -6.375 C 19.742188 -6.375 19.914062 -6.351562 20.125 -6.3125 C 20.21875 -6.300781 20.316406 -6.296875 20.421875 -6.296875 C 20.753906 -6.296875 20.960938 -6.535156 21.046875 -7.015625 C 21.242188 -8.203125 21.34375 -9.894531 21.34375 -12.09375 C 21.34375 -12.726562 21.15625 -13.03125 20.78125 -13 C 20.71875 -13 20.640625 -12.992188 20.546875 -12.984375 L 18.390625 -12.6875 L 18.390625 1 C 18.390625 1.4375 18.238281 1.816406 17.9375 2.140625 C 17.539062 2.554688 16.992188 2.765625 16.296875 2.765625 C 15.460938 2.765625 14.859375 2.472656 14.484375 1.890625 C 14.316406 1.640625 14.234375 1.34375 14.234375 1 L 14.234375 -12.15625 L 11.8125 -11.859375 L 12.140625 -4.28125 L 12.140625 -4.15625 C 12.210938 -3.007812 11.554688 -2.4375 10.171875 -2.4375 C 8.898438 -2.4375 8.238281 -3.023438 8.1875 -4.203125 L 7.796875 -12.96875 C 7.109375 -9.164062 6.109375 -5.972656 4.796875 -3.390625 C 4.035156 -1.910156 3.265625 -1.171875 2.484375 -1.171875 C 2.085938 -1.171875 1.710938 -1.3125 1.359375 -1.59375 C 1.015625 -1.851562 0.84375 -2.21875 0.84375 -2.6875 C 0.84375 -3.09375 0.960938 -3.625 1.203125 -4.28125 C 3.328125 -9.75 4.390625 -17.003906 4.390625 -26.046875 L 4.375 -27.734375 L 4.375 -27.875 C 3.78125 -28.238281 3.484375 -28.851562 3.484375 -29.71875 C 3.484375 -30.894531 4.113281 -31.546875 5.375 -31.671875 L 21.59375 -33.34375 C 21.71875 -33.351562 21.867188 -33.359375 22.046875 -33.359375 C 22.835938 -33.359375 23.5 -33.175781 24.03125 -32.8125 C 24.726562 -32.320312 25.078125 -31.597656 25.078125 -30.640625 C 25.078125 -30.296875 25.035156 -29.941406 24.953125 -29.578125 L 24 -25.53125 C 24.320312 -25.144531 24.484375 -24.660156 24.484375 -24.078125 C 24.484375 -22.941406 23.882812 -22.304688 22.6875 -22.171875 Z M 8.859375 -24.53125 L 19.734375 -25.65625 L 20.125 -28.421875 C 20.132812 -28.515625 20.140625 -28.601562 20.140625 -28.6875 C 20.140625 -29.070312 19.9375 -29.238281 19.53125 -29.1875 L 8.921875 -28.0625 C 8.921875 -26.75 8.898438 -25.570312 8.859375 -24.53125 Z M 31.453125 -26.84375 L 31.453125 -10.96875 C 31.453125 -10.507812 31.304688 -10.113281 31.015625 -9.78125 C 30.597656 -9.351562 30.03125 -9.140625 29.3125 -9.140625 C 28.414062 -9.140625 27.769531 -9.445312 27.375 -10.0625 C 27.207031 -10.320312 27.125 -10.625 27.125 -10.96875 L 27.125 -26.84375 C 27.125 -27.46875 27.40625 -27.953125 27.96875 -28.296875 C 28.382812 -28.554688 28.835938 -28.6875 29.328125 -28.6875 C 29.929688 -28.6875 30.441406 -28.492188 30.859375 -28.109375 C 31.253906 -27.773438 31.453125 -27.351562 31.453125 -26.84375 Z M 38.796875 -31.96875 L 38.796875 -0.96875 C 38.796875 1.550781 37.765625 2.8125 35.703125 2.8125 C 34.597656 2.8125 33.070312 2.414062 31.125 1.625 C 30.238281 1.269531 29.550781 0.925781 29.0625 0.59375 C 28.425781 0.195312 28.109375 -0.289062 28.109375 -0.875 C 28.109375 -1.851562 28.617188 -2.34375 29.640625 -2.34375 C 29.921875 -2.34375 30.28125 -2.289062 30.71875 -2.1875 C 31.988281 -1.90625 32.867188 -1.765625 33.359375 -1.765625 C 33.941406 -1.765625 34.234375 -2.113281 34.234375 -2.8125 L 34.234375 -31.96875 C 34.234375 -32.664062 34.539062 -33.191406 35.15625 -33.546875 C 35.570312 -33.804688 36.03125 -33.9375 36.53125 -33.9375 C 37.15625 -33.9375 37.703125 -33.742188 38.171875 -33.359375 C 38.585938 -33.003906 38.796875 -32.539062 38.796875 -31.96875 Z M 38.796875 -31.96875 "/></g></g></g></svg>