<svg xmlns="http://www.w3.org/2000/svg" xmlns:xlink="http://www.w3.org/1999/xlink" width="600" zoomAndPan="magnify" viewBox="0 0 450 149.999998" height="200" preserveAspectRatio="xMidYMid meet" version="1.0"><defs><g/><clipPath id="a8c1107407"><path d="M 0 5.402344 L 450 5.402344 L 450 144.597656 L 0 144.597656 Z M 0 5.402344 " clip-rule="nonzero"/></clipPath><clipPath id="d8a7fb22a7"><path d="M 7.714844 5.402344 L 380.402344 5.402344 C 398.859375 5.402344 416.5625 12.734375 429.613281 25.785156 C 442.667969 38.839844 450 56.542969 450 75 C 450 93.457031 442.667969 111.160156 429.613281 124.214844 C 416.5625 137.265625 398.859375 144.597656 380.402344 144.597656 L 7.714844 144.597656 C -10.742188 144.597656 -28.445312 137.265625 -41.496094 124.214844 C -54.550781 111.160156 -61.882812 93.457031 -61.882812 75 C -61.882812 56.542969 -54.550781 38.839844 -41.496094 25.785156 C -28.445312 12.734375 -10.742188 5.402344 7.714844 5.402344 Z M 7.714844 5.402344 " clip-rule="nonzero"/></clipPath><clipPath id="9092a17553"><path d="M 0 0.402344 L 450 0.402344 L 450 139.597656 L 0 139.597656 Z M 0 0.402344 " clip-rule="nonzero"/></clipPath><clipPath id="8b77fe37a7"><path d="M 7.714844 0.402344 L 380.402344 0.402344 C 398.859375 0.402344 416.5625 7.734375 429.613281 20.785156 C 442.667969 33.839844 450 51.542969 450 70 C 450 88.457031 442.667969 106.160156 429.613281 119.214844 C 416.5625 132.265625 398.859375 139.597656 380.402344 139.597656 L 7.714844 139.597656 C -10.742188 139.597656 -28.445312 132.265625 -41.496094 119.214844 C -54.550781 106.160156 -61.882812 88.457031 -61.882812 70 C -61.882812 51.542969 -54.550781 33.839844 -41.496094 20.785156 C -28.445312 7.734375 -10.742188 0.402344 7.714844 0.402344 Z M 7.714844 0.402344 " clip-rule="nonzero"/></clipPath><clipPath id="a77c98e866"><rect x="0" width="450" y="0" height="140"/></clipPath></defs><g clip-path="url(#a8c1107407)"><g clip-path="url(#d8a7fb22a7)"><g transform="matrix(1, 0, 0, 1, 0, 5)"><g clip-path="url(#a77c98e866)"><g clip-path="url(#9092a17553)"><g clip-path="url(#8b77fe37a7)"><path fill="#22a76e" d="M -61.882812 0.402344 L 449.78125 0.402344 L 449.78125 139.597656 L -61.882812 139.597656 Z M -61.882812 0.402344 " fill-opacity="1" fill-rule="nonzero"/></g></g></g></g></g></g><g fill="#ffffff" fill-opacity="1"><g transform="translate(15.000003, 57.751346)"><g><path d="M 23.4375 -16.734375 L 23.4375 -12.609375 L 29.484375 -12.9375 C 29.554688 -12.9375 29.613281 -12.9375 29.65625 -12.9375 C 30.3125 -12.9375 30.816406 -12.695312 31.171875 -12.21875 C 31.441406 -11.84375 31.578125 -11.363281 31.578125 -10.78125 C 31.578125 -9.332031 30.9375 -8.582031 29.65625 -8.53125 L 23.4375 -8.203125 L 23.4375 -3.421875 L 34.859375 -3.859375 L 34.953125 -3.875 C 35.109375 -3.90625 35.375 -3.851562 35.75 -3.71875 C 36.550781 -3.4375 36.953125 -2.726562 36.953125 -1.59375 C 36.953125 -0.0507812 36.296875 0.742188 34.984375 0.796875 L 7.65625 1.8125 C 6.238281 1.863281 5.53125 1.109375 5.53125 -0.453125 C 5.53125 -1.984375 6.179688 -2.769531 7.484375 -2.8125 L 18.3125 -3.21875 L 18.3125 -7.953125 L 12.140625 -7.65625 L 11.953125 -7.625 C 11.453125 -7.601562 11.023438 -7.757812 10.671875 -8.09375 C 10.253906 -8.5 10.046875 -9.054688 10.046875 -9.765625 C 10.046875 -11.203125 10.691406 -11.953125 11.984375 -12.015625 L 18.3125 -12.34375 L 18.3125 -16.46875 L 12.859375 -16.15625 L 12.671875 -16.15625 C 12.085938 -16.132812 11.609375 -16.332031 11.234375 -16.75 C 10.910156 -17.125 10.75 -17.601562 10.75 -18.1875 C 10.75 -18.21875 10.75 -18.28125 10.75 -18.375 C 7.375 -15.832031 5.125 -14.5625 4 -14.5625 C 3.375 -14.5625 2.894531 -14.8125 2.5625 -15.3125 C 2.34375 -15.65625 2.234375 -16.019531 2.234375 -16.40625 C 2.234375 -16.84375 2.367188 -17.21875 2.640625 -17.53125 C 2.773438 -17.695312 3.3125 -18.085938 4.25 -18.703125 C 6.78125 -20.410156 9.453125 -22.78125 12.265625 -25.8125 C 14.671875 -28.40625 16.632812 -31.019531 18.15625 -33.65625 C 18.707031 -34.632812 19.476562 -35.125 20.46875 -35.125 C 21.03125 -35.125 21.539062 -34.972656 22 -34.671875 C 22.726562 -34.210938 23.09375 -33.585938 23.09375 -32.796875 C 23.09375 -32.546875 23.054688 -32.285156 22.984375 -32.015625 C 23.597656 -31.328125 24.335938 -30.585938 25.203125 -29.796875 C 29.734375 -25.609375 34.4375 -22.320312 39.3125 -19.9375 C 40.457031 -19.363281 41.03125 -18.828125 41.03125 -18.328125 C 41.03125 -17.921875 40.644531 -17.585938 39.875 -17.328125 C 37.976562 -16.710938 36.59375 -16.40625 35.71875 -16.40625 C 35.1875 -16.40625 34.71875 -16.535156 34.3125 -16.796875 C 33.082031 -17.585938 31.988281 -18.351562 31.03125 -19.09375 C 30.90625 -17.789062 30.273438 -17.109375 29.140625 -17.046875 Z M 28.203125 -21.375 C 25.378906 -23.832031 22.984375 -26.242188 21.015625 -28.609375 C 19.171875 -26.023438 16.632812 -23.328125 13.40625 -20.515625 Z M 28.203125 -21.375 "/></g></g></g><g fill="#ffffff" fill-opacity="1"><g transform="translate(56.160004, 57.751346)"><g><path d="M 33.25 -0.3125 L 7.59375 1.359375 C 7.507812 1.359375 7.34375 1.359375 7.09375 1.359375 C 4.84375 1.359375 3.640625 0.191406 3.484375 -2.140625 L 2.484375 -16.921875 C 2.472656 -17.023438 2.46875 -17.117188 2.46875 -17.203125 C 2.46875 -17.972656 2.78125 -18.566406 3.40625 -18.984375 C 3.851562 -19.285156 4.414062 -19.4375 5.09375 -19.4375 C 6.625 -19.4375 7.425781 -18.769531 7.5 -17.4375 L 8.390625 -4.203125 C 8.429688 -3.628906 8.738281 -3.363281 9.3125 -3.40625 L 33.46875 -4.84375 L 34.140625 -19.109375 C 34.203125 -20.453125 34.9375 -21.125 36.34375 -21.125 C 37.0625 -21.125 37.671875 -20.988281 38.171875 -20.71875 C 38.929688 -20.289062 39.285156 -19.644531 39.234375 -18.78125 L 39.234375 -18.640625 L 38.203125 0.28125 C 38.140625 1.632812 37.289062 2.3125 35.65625 2.3125 C 34.863281 2.3125 34.25 2.144531 33.8125 1.8125 C 33.363281 1.46875 33.160156 1.019531 33.203125 0.46875 L 33.21875 0.28125 Z M 18.4375 -23.84375 L 18.4375 -27.484375 L 7.734375 -26.71875 L 7.5625 -26.703125 C 6.863281 -26.660156 6.335938 -26.929688 5.984375 -27.515625 C 5.742188 -27.941406 5.625 -28.453125 5.625 -29.046875 C 5.625 -30.390625 6.222656 -31.113281 7.421875 -31.21875 L 32.796875 -33.0625 C 32.847656 -33.0625 32.910156 -33.0625 32.984375 -33.0625 C 34.316406 -33.0625 34.984375 -32.257812 34.984375 -30.65625 C 34.984375 -29.320312 34.367188 -28.613281 33.140625 -28.53125 L 23.09375 -27.8125 L 23.09375 -24.234375 L 27.625 -24.609375 C 27.757812 -24.617188 27.953125 -24.625 28.203125 -24.625 C 30.359375 -24.625 31.390625 -23.660156 31.296875 -21.734375 L 31.28125 -21.515625 L 30.734375 -8.140625 C 30.640625 -6.828125 29.90625 -6.171875 28.53125 -6.171875 C 27.269531 -6.171875 26.566406 -6.664062 26.421875 -7.65625 L 15.359375 -7 C 15.054688 -6.1875 14.332031 -5.78125 13.1875 -5.78125 C 11.90625 -5.78125 11.210938 -6.363281 11.109375 -7.53125 L 9.90625 -22.359375 C 9.851562 -22.953125 10.113281 -23.4375 10.6875 -23.8125 C 11.113281 -24.09375 11.644531 -24.234375 12.28125 -24.234375 C 13.144531 -24.234375 13.773438 -23.988281 14.171875 -23.5 Z M 22.8125 -17.65625 L 26.703125 -17.9375 L 26.75 -19.796875 C 26.726562 -20.367188 26.472656 -20.632812 25.984375 -20.59375 L 25.859375 -20.59375 L 22.8125 -20.34375 Z M 18.6875 -17.375 L 18.6875 -20 L 14.71875 -19.6875 L 14.890625 -17.109375 Z M 22.8125 -14.375 L 22.8125 -11.28125 L 26.515625 -11.5 L 26.59375 -14.625 Z M 18.6875 -14.109375 L 15.078125 -13.859375 L 15.265625 -10.8125 L 18.6875 -11.03125 Z M 18.6875 -14.109375 "/></g></g></g><g fill="#ffffff" fill-opacity="1"><g transform="translate(97.320006, 57.751346)"><g><path d="M 18.6875 -22 L 33.3125 -22.921875 C 33.46875 -22.941406 33.648438 -22.953125 33.859375 -22.953125 C 36.367188 -22.953125 37.625 -21.644531 37.625 -19.03125 C 37.625 -18.84375 37.625 -18.695312 37.625 -18.59375 L 36.484375 0.71875 C 36.398438 2.113281 35.546875 2.8125 33.921875 2.8125 C 33.046875 2.8125 32.367188 2.546875 31.890625 2.015625 C 31.535156 1.617188 31.359375 1.128906 31.359375 0.546875 C 31.359375 0.546875 31.359375 0.488281 31.359375 0.375 L 31.390625 -0.125 L 10.234375 0.859375 C 10.179688 1.367188 9.988281 1.785156 9.65625 2.109375 C 9.195312 2.578125 8.5625 2.8125 7.75 2.8125 C 6.195312 2.8125 5.378906 2.128906 5.296875 0.765625 L 4 -19.6875 C 3.988281 -19.90625 3.984375 -20.054688 3.984375 -20.140625 C 3.984375 -20.929688 4.34375 -21.523438 5.0625 -21.921875 C 5.53125 -22.179688 6.046875 -22.3125 6.609375 -22.3125 C 7.585938 -22.3125 8.3125 -22 8.78125 -21.375 L 13.90625 -21.703125 C 14.832031 -22.992188 15.96875 -24.785156 17.3125 -27.078125 L 7.171875 -26.453125 C 7.109375 -26.453125 7.050781 -26.453125 7 -26.453125 C 6.34375 -26.453125 5.820312 -26.671875 5.4375 -27.109375 C 5.050781 -27.546875 4.859375 -28.113281 4.859375 -28.8125 C 4.859375 -30.164062 5.460938 -30.878906 6.671875 -30.953125 L 33.75 -32.671875 L 33.921875 -32.6875 C 34.710938 -32.738281 35.320312 -32.40625 35.75 -31.6875 C 35.9375 -31.34375 36.03125 -30.9375 36.03125 -30.46875 C 36.03125 -28.957031 35.441406 -28.164062 34.265625 -28.09375 L 22.96875 -27.421875 C 21.695312 -25.503906 20.269531 -23.695312 18.6875 -22 Z M 18.03125 -17.671875 L 18.109375 -15.234375 L 23.234375 -15.546875 L 23.28125 -18 Z M 27.78125 -18.265625 L 27.4375 -4.25 L 31.625 -4.453125 L 32.28125 -17.3125 C 32.289062 -18.0625 31.96875 -18.453125 31.3125 -18.484375 L 31.234375 -18.484375 C 31.191406 -18.484375 31.164062 -18.484375 31.15625 -18.484375 Z M 9.3125 -17.140625 L 10.03125 -3.34375 L 14.109375 -3.546875 L 13.59375 -17.40625 Z M 18.1875 -12.203125 L 18.265625 -9.53125 L 23.140625 -9.859375 L 23.171875 -12.515625 Z M 18.359375 -6.484375 L 18.4375 -3.78125 L 23.03125 -4.015625 L 23.078125 -6.78125 Z M 18.359375 -6.484375 "/></g></g></g><g fill="#ffffff" fill-opacity="1"><g transform="translate(138.480007, 57.751346)"><g><path d="M 30.265625 -7.28125 C 33.285156 -4.976562 36.210938 -3.25 39.046875 -2.09375 C 40.128906 -1.644531 40.671875 -1.1875 40.671875 -0.71875 C 40.671875 -0.351562 40.367188 -0.0546875 39.765625 0.171875 C 37.628906 0.972656 35.898438 1.375 34.578125 1.375 C 33.835938 1.375 32.960938 1.007812 31.953125 0.28125 C 28.410156 -2.21875 25.160156 -5.304688 22.203125 -8.984375 C 21.742188 -9.566406 21.378906 -10.054688 21.109375 -10.453125 C 20.847656 -10.835938 20.71875 -11.222656 20.71875 -11.609375 C 20.71875 -12.046875 20.875 -12.4375 21.1875 -12.78125 C 21.507812 -13.15625 21.921875 -13.34375 22.421875 -13.34375 C 22.878906 -13.34375 23.535156 -12.957031 24.390625 -12.1875 C 25.265625 -11.375 26.226562 -10.539062 27.28125 -9.6875 C 28.675781 -10.84375 30.140625 -12.226562 31.671875 -13.84375 C 32.335938 -14.550781 33.023438 -14.90625 33.734375 -14.90625 C 34.390625 -14.90625 34.972656 -14.640625 35.484375 -14.109375 C 36.015625 -13.566406 36.28125 -12.984375 36.28125 -12.359375 C 36.28125 -11.671875 35.90625 -11.035156 35.15625 -10.453125 C 33.78125 -9.429688 32.148438 -8.375 30.265625 -7.28125 Z M 21.59375 -15.5 C 21.664062 -15.28125 21.703125 -15.078125 21.703125 -14.890625 C 21.703125 -14.285156 21.316406 -13.632812 20.546875 -12.9375 C 19.628906 -12.09375 18.40625 -11.144531 16.875 -10.09375 L 16.875 -1.6875 C 18.476562 -2.101562 20.332031 -2.878906 22.4375 -4.015625 C 22.9375 -4.296875 23.378906 -4.4375 23.765625 -4.4375 C 24.378906 -4.4375 24.863281 -4.175781 25.21875 -3.65625 C 25.425781 -3.351562 25.53125 -3.007812 25.53125 -2.625 C 25.53125 -2.039062 25.238281 -1.535156 24.65625 -1.109375 C 23.1875 -0.078125 21.164062 1.03125 18.59375 2.21875 C 16.601562 3.132812 15.222656 3.59375 14.453125 3.59375 C 13.773438 3.59375 13.109375 3.15625 12.453125 2.28125 C 12.097656 1.800781 11.921875 1.082031 11.921875 0.125 L 11.921875 -7.140625 C 7.546875 -4.878906 4.835938 -3.75 3.796875 -3.75 C 3.160156 -3.75 2.707031 -4.007812 2.4375 -4.53125 C 2.25 -4.875 2.15625 -5.207031 2.15625 -5.53125 C 2.15625 -6.03125 2.378906 -6.457031 2.828125 -6.8125 C 3.003906 -6.945312 3.566406 -7.234375 4.515625 -7.671875 C 7.585938 -9.085938 10.8125 -10.988281 14.1875 -13.375 C 15.039062 -13.976562 15.84375 -14.59375 16.59375 -15.21875 L 5.140625 -14.546875 L 4.984375 -14.515625 C 4.316406 -14.492188 3.804688 -14.773438 3.453125 -15.359375 C 3.265625 -15.660156 3.171875 -16.03125 3.171875 -16.46875 C 3.171875 -17.789062 3.757812 -18.488281 4.9375 -18.5625 L 18.265625 -19.375 L 18.265625 -21.328125 L 9.640625 -20.796875 L 9.46875 -20.78125 C 9.070312 -20.738281 8.691406 -20.859375 8.328125 -21.140625 C 7.941406 -21.453125 7.75 -21.90625 7.75 -22.5 C 7.75 -23.632812 8.3125 -24.242188 9.4375 -24.328125 L 18.265625 -24.890625 L 18.265625 -26.78125 L 8.640625 -26.171875 C 8.097656 -26.128906 7.660156 -26.257812 7.328125 -26.5625 C 6.941406 -26.914062 6.75 -27.414062 6.75 -28.0625 C 6.75 -29.300781 7.304688 -29.957031 8.421875 -30.03125 L 18.265625 -30.640625 L 18.265625 -33.265625 C 18.265625 -34.128906 18.632812 -34.742188 19.375 -35.109375 C 19.832031 -35.335938 20.3125 -35.453125 20.8125 -35.453125 C 21.707031 -35.453125 22.398438 -35.179688 22.890625 -34.640625 C 23.210938 -34.265625 23.375 -33.804688 23.375 -33.265625 L 23.375 -30.953125 L 33 -31.546875 C 33.457031 -31.566406 33.878906 -31.457031 34.265625 -31.21875 C 34.742188 -30.894531 34.984375 -30.378906 34.984375 -29.671875 C 34.984375 -28.441406 34.425781 -27.796875 33.3125 -27.734375 L 23.375 -27.09375 L 23.375 -25.21875 L 32 -25.78125 L 32.140625 -25.796875 C 32.515625 -25.804688 32.875 -25.695312 33.21875 -25.46875 C 33.65625 -25.15625 33.875 -24.6875 33.875 -24.0625 C 33.875 -22.863281 33.335938 -22.234375 32.265625 -22.171875 L 23.375 -21.640625 L 23.375 -19.6875 L 36.75 -20.484375 L 36.890625 -20.515625 C 37.398438 -20.535156 37.835938 -20.351562 38.203125 -19.96875 C 38.546875 -19.613281 38.71875 -19.140625 38.71875 -18.546875 C 38.71875 -17.203125 38.144531 -16.492188 37 -16.421875 Z M 21.59375 -15.5 "/></g></g></g><g fill="#ffffff" fill-opacity="1"><g transform="translate(179.640008, 57.751346)"><g><path d="M 23.890625 -16.65625 L 23.890625 -1.296875 C 23.890625 1.460938 22.632812 2.84375 20.125 2.84375 C 19.050781 2.84375 17.554688 2.441406 15.640625 1.640625 C 14.441406 1.117188 13.539062 0.632812 12.9375 0.1875 C 12.363281 -0.238281 12.078125 -0.722656 12.078125 -1.265625 C 12.078125 -2.316406 12.648438 -2.84375 13.796875 -2.84375 C 14.078125 -2.84375 14.851562 -2.703125 16.125 -2.421875 C 16.707031 -2.296875 17.1875 -2.234375 17.5625 -2.234375 C 18.226562 -2.234375 18.5625 -2.640625 18.5625 -3.453125 L 18.5625 -16.296875 L 5.375 -15.46875 L 5.1875 -15.4375 C 4.425781 -15.382812 3.863281 -15.703125 3.5 -16.390625 C 3.28125 -16.804688 3.171875 -17.316406 3.171875 -17.921875 C 3.171875 -19.410156 3.796875 -20.195312 5.046875 -20.28125 L 36.703125 -22.4375 C 36.785156 -22.4375 36.835938 -22.4375 36.859375 -22.4375 C 38.242188 -22.4375 38.9375 -21.585938 38.9375 -19.890625 C 38.9375 -18.390625 38.300781 -17.597656 37.03125 -17.515625 Z M 30.703125 -27.6875 L 10.5 -26.203125 C 9.769531 -26.148438 9.222656 -26.367188 8.859375 -26.859375 C 8.535156 -27.296875 8.375 -27.863281 8.375 -28.5625 C 8.375 -30.15625 9.015625 -31 10.296875 -31.09375 L 30.40625 -32.5 C 30.90625 -32.539062 31.34375 -32.441406 31.71875 -32.203125 C 32.300781 -31.816406 32.59375 -31.160156 32.59375 -30.234375 C 32.59375 -28.617188 31.960938 -27.769531 30.703125 -27.6875 Z M 11.265625 -13.921875 C 11.804688 -13.921875 12.3125 -13.769531 12.78125 -13.46875 C 13.582031 -12.945312 13.984375 -12.242188 13.984375 -11.359375 C 13.984375 -10.785156 13.695312 -10.054688 13.125 -9.171875 C 11.1875 -6.160156 9.015625 -3.648438 6.609375 -1.640625 C 5.867188 -1.035156 5.210938 -0.734375 4.640625 -0.734375 C 4.140625 -0.734375 3.722656 -0.90625 3.390625 -1.25 C 2.960938 -1.644531 2.75 -2.101562 2.75 -2.625 C 2.75 -3.175781 3.117188 -3.894531 3.859375 -4.78125 C 5.660156 -6.957031 7.253906 -9.359375 8.640625 -11.984375 C 9.304688 -13.273438 10.179688 -13.921875 11.265625 -13.921875 Z M 29.203125 -14.640625 C 30.335938 -14.640625 32.203125 -13.195312 34.796875 -10.3125 C 37.179688 -7.675781 38.375 -5.6875 38.375 -4.34375 C 38.375 -3.550781 38.03125 -2.894531 37.34375 -2.375 C 36.78125 -1.957031 36.1875 -1.75 35.5625 -1.75 C 34.789062 -1.75 34.148438 -2.054688 33.640625 -2.671875 C 33.515625 -2.804688 33.300781 -3.160156 33 -3.734375 C 31.738281 -6.046875 30.140625 -8.519531 28.203125 -11.15625 C 27.691406 -11.820312 27.4375 -12.4375 27.4375 -13 C 27.4375 -13.550781 27.644531 -13.976562 28.0625 -14.28125 C 28.382812 -14.519531 28.765625 -14.640625 29.203125 -14.640625 Z M 29.203125 -14.640625 "/></g></g></g><g fill="#ffffff" fill-opacity="1"><g transform="translate(220.80001, 57.751346)"><g><path d="M 15.546875 -21.703125 C 15.148438 -21.703125 14.609375 -21.25 13.921875 -20.34375 C 11.984375 -17.789062 9.984375 -15.492188 7.921875 -13.453125 C 7.097656 -12.648438 6.289062 -12.25 5.5 -12.25 C 4.820312 -12.25 4.238281 -12.515625 3.75 -13.046875 C 3.207031 -13.628906 2.9375 -14.238281 2.9375 -14.875 C 2.9375 -15.457031 3.160156 -16.003906 3.609375 -16.515625 C 3.734375 -16.648438 4.039062 -16.925781 4.53125 -17.34375 C 6.6875 -19.238281 8.984375 -21.675781 11.421875 -24.65625 C 12.648438 -26.164062 13.960938 -26.921875 15.359375 -26.921875 C 16.421875 -26.921875 17.519531 -26.476562 18.65625 -25.59375 C 18.988281 -25.332031 19.707031 -24.648438 20.8125 -23.546875 C 22.914062 -21.453125 25.601562 -19.097656 28.875 -16.484375 C 32.269531 -13.765625 35.007812 -11.734375 37.09375 -10.390625 C 38.207031 -9.671875 38.765625 -8.804688 38.765625 -7.796875 C 38.765625 -7.203125 38.546875 -6.613281 38.109375 -6.03125 C 37.585938 -5.332031 36.941406 -4.984375 36.171875 -4.984375 C 35.515625 -4.984375 34.898438 -5.179688 34.328125 -5.578125 C 32.304688 -6.960938 29.941406 -8.828125 27.234375 -11.171875 C 23.421875 -14.453125 19.984375 -17.675781 16.921875 -20.84375 C 16.359375 -21.414062 15.898438 -21.703125 15.546875 -21.703125 Z M 15.546875 -21.703125 "/></g></g></g><g fill="#ffffff" fill-opacity="1"><g transform="translate(15.000003, 116.251343)"><g><path d="M 28.875 -25.546875 C 28.507812 -20.796875 27.523438 -16.273438 25.921875 -11.984375 C 23.960938 -6.742188 21.191406 -2.675781 17.609375 0.21875 C 16.796875 0.894531 16.109375 1.234375 15.546875 1.234375 C 15.109375 1.234375 14.703125 1.0625 14.328125 0.71875 C 14.003906 0.414062 13.84375 0.0390625 13.84375 -0.40625 C 13.84375 -0.90625 14.019531 -1.382812 14.375 -1.84375 C 14.445312 -1.9375 14.734375 -2.257812 15.234375 -2.8125 C 18.453125 -6.363281 20.8125 -10.929688 22.3125 -16.515625 C 23.144531 -19.617188 23.664062 -22.472656 23.875 -25.078125 L 20.125 -24.734375 C 20.082031 -24.734375 20 -24.734375 19.875 -24.734375 C 18.488281 -24.734375 17.796875 -25.59375 17.796875 -27.3125 C 17.796875 -28.164062 18.082031 -28.816406 18.65625 -29.265625 C 18.957031 -29.484375 19.304688 -29.613281 19.703125 -29.65625 L 33.984375 -30.90625 C 34.222656 -30.9375 34.472656 -30.953125 34.734375 -30.953125 C 37.285156 -30.953125 38.5625 -29.628906 38.5625 -26.984375 C 38.5625 -24.835938 38.332031 -21.109375 37.875 -15.796875 C 37.300781 -8.929688 36.484375 -4.054688 35.421875 -1.171875 C 34.648438 0.921875 33.4375 1.96875 31.78125 1.96875 C 30.707031 1.96875 29.226562 1.550781 27.34375 0.71875 C 25.226562 -0.226562 24.171875 -1.128906 24.171875 -1.984375 C 24.171875 -2.242188 24.242188 -2.519531 24.390625 -2.8125 C 24.628906 -3.332031 25.066406 -3.59375 25.703125 -3.59375 C 25.972656 -3.59375 26.347656 -3.523438 26.828125 -3.390625 C 27.835938 -3.109375 28.664062 -2.96875 29.3125 -2.96875 C 30.007812 -2.96875 30.515625 -3.3125 30.828125 -4 C 31.410156 -5.238281 31.988281 -7.738281 32.5625 -11.5 C 33.28125 -16.039062 33.640625 -20.359375 33.640625 -24.453125 C 33.640625 -25.398438 33.289062 -25.875 32.59375 -25.875 C 32.507812 -25.875 32.4375 -25.875 32.375 -25.875 Z M 11.546875 -20.75 L 11.546875 -13.859375 C 11.546875 -12.960938 11.945312 -12.515625 12.75 -12.515625 C 13.707031 -12.515625 14.789062 -12.675781 16 -13 C 16.269531 -13.082031 16.53125 -13.125 16.78125 -13.125 C 17.707031 -13.125 18.328125 -12.6875 18.640625 -11.8125 C 18.753906 -11.507812 18.8125 -11.175781 18.8125 -10.8125 C 18.8125 -9.476562 18.144531 -8.65625 16.8125 -8.34375 C 15.300781 -7.988281 13.539062 -7.8125 11.53125 -7.8125 C 8.175781 -7.8125 6.5 -9.171875 6.5 -11.890625 L 6.5 -19.859375 L 4.0625 -19.40625 C 3.894531 -19.375 3.707031 -19.359375 3.5 -19.359375 C 2.570312 -19.359375 1.945312 -19.816406 1.625 -20.734375 C 1.488281 -21.128906 1.421875 -21.539062 1.421875 -21.96875 C 1.421875 -23.164062 1.953125 -23.867188 3.015625 -24.078125 L 6.5 -24.71875 L 6.5 -32.34375 C 6.5 -33.132812 6.875 -33.707031 7.625 -34.0625 C 8.0625 -34.28125 8.539062 -34.390625 9.0625 -34.390625 C 9.882812 -34.390625 10.539062 -34.144531 11.03125 -33.65625 C 11.375 -33.3125 11.546875 -32.875 11.546875 -32.34375 L 11.546875 -25.640625 L 15.078125 -26.296875 C 15.210938 -26.316406 15.382812 -26.328125 15.59375 -26.328125 C 16.539062 -26.328125 17.179688 -25.84375 17.515625 -24.875 C 17.648438 -24.476562 17.71875 -24.082031 17.71875 -23.6875 C 17.71875 -22.476562 17.1875 -21.78125 16.125 -21.59375 Z M 11.546875 -20.75 "/></g></g></g><g fill="#ffffff" fill-opacity="1"><g transform="translate(56.160004, 116.251343)"><g><path d="M 15.03125 -17.640625 C 15.40625 -18.472656 15.96875 -19.390625 16.71875 -20.390625 C 17.019531 -20.796875 17.359375 -21 17.734375 -21 C 18.015625 -21 18.269531 -20.925781 18.5 -20.78125 C 18.90625 -20.53125 19.109375 -20.179688 19.109375 -19.734375 C 19.109375 -19.378906 18.9375 -18.878906 18.59375 -18.234375 C 17.664062 -16.429688 16.894531 -14.722656 16.28125 -13.109375 C 15.757812 -11.734375 14.953125 -11.046875 13.859375 -11.046875 C 13.109375 -11.046875 12.421875 -11.472656 11.796875 -12.328125 C 10.585938 -13.941406 9.984375 -16.570312 9.984375 -20.21875 C 9.984375 -23.769531 10.285156 -27.175781 10.890625 -30.4375 C 11.160156 -31.875 11.976562 -32.59375 13.34375 -32.59375 C 14.195312 -32.59375 14.851562 -32.34375 15.3125 -31.84375 C 15.6875 -31.445312 15.875 -30.941406 15.875 -30.328125 C 15.875 -30.109375 15.828125 -29.710938 15.734375 -29.140625 C 15.160156 -25.898438 14.875 -22.988281 14.875 -20.40625 C 14.875 -19.144531 14.925781 -18.222656 15.03125 -17.640625 Z M 27.546875 -32.53125 C 28.867188 -32.53125 29.703125 -31.851562 30.046875 -30.5 C 30.585938 -28.332031 30.859375 -25.0625 30.859375 -20.6875 C 30.859375 -12.09375 28.953125 -5.691406 25.140625 -1.484375 C 23.046875 0.828125 21.378906 1.984375 20.140625 1.984375 C 19.523438 1.984375 19.050781 1.742188 18.71875 1.265625 C 18.488281 0.929688 18.375 0.578125 18.375 0.203125 C 18.375 -0.398438 18.703125 -1.03125 19.359375 -1.6875 C 20.984375 -3.3125 22.191406 -4.851562 22.984375 -6.3125 C 24.765625 -9.613281 25.65625 -14.460938 25.65625 -20.859375 C 25.65625 -24.398438 25.476562 -27.382812 25.125 -29.8125 C 25.082031 -30.050781 25.0625 -30.257812 25.0625 -30.4375 C 25.0625 -31.832031 25.890625 -32.53125 27.546875 -32.53125 Z M 27.546875 -32.53125 "/></g></g></g><g fill="#ffffff" fill-opacity="1"><g transform="translate(97.320006, 116.251343)"><g><path d="M 28.8125 1.09375 L 14.484375 1.859375 C 14.148438 2.835938 13.363281 3.328125 12.125 3.328125 C 11.082031 3.328125 10.34375 2.941406 9.90625 2.171875 C 9.738281 1.867188 9.644531 1.535156 9.625 1.171875 L 8.703125 -12.015625 C 8.703125 -12.066406 8.703125 -12.128906 8.703125 -12.203125 C 8.703125 -12.898438 9.03125 -13.429688 9.6875 -13.796875 C 10.175781 -14.085938 10.707031 -14.234375 11.28125 -14.234375 C 12.15625 -14.234375 12.851562 -13.9375 13.375 -13.34375 L 30.796875 -14.546875 C 30.878906 -14.546875 31.039062 -14.546875 31.28125 -14.546875 C 33.519531 -14.546875 34.640625 -13.53125 34.640625 -11.5 C 34.640625 -11.320312 34.632812 -11.144531 34.625 -10.96875 L 33.65625 1.203125 C 33.53125 2.640625 32.71875 3.359375 31.21875 3.359375 C 30.320312 3.359375 29.65625 3.085938 29.21875 2.546875 C 28.945312 2.191406 28.8125 1.765625 28.8125 1.265625 C 28.8125 1.222656 28.8125 1.164062 28.8125 1.09375 Z M 29.390625 -8.609375 L 29.453125 -9.640625 L 29.453125 -9.859375 C 29.429688 -10.398438 29.175781 -10.6875 28.6875 -10.71875 L 28.53125 -10.703125 L 13.96875 -9.78125 L 14.09375 -7.671875 Z M 29.1875 -5.109375 L 14.28125 -4.203125 L 14.421875 -1.890625 L 29.046875 -2.703125 Z M 13.328125 -20.859375 C 15.347656 -20.078125 17.003906 -19.269531 18.296875 -18.4375 C 19.035156 -17.957031 19.40625 -17.367188 19.40625 -16.671875 C 19.40625 -16.273438 19.28125 -15.898438 19.03125 -15.546875 C 18.625 -14.941406 18.035156 -14.640625 17.265625 -14.640625 C 16.660156 -14.640625 16.046875 -14.945312 15.421875 -15.5625 C 14.410156 -16.570312 13.28125 -17.488281 12.03125 -18.3125 C 10.382812 -15.738281 8.070312 -13.679688 5.09375 -12.140625 C 4.5 -11.835938 4.007812 -11.6875 3.625 -11.6875 C 3.21875 -11.6875 2.882812 -11.835938 2.625 -12.140625 C 2.320312 -12.472656 2.171875 -12.828125 2.171875 -13.203125 C 2.171875 -13.628906 2.363281 -14.019531 2.75 -14.375 C 2.882812 -14.507812 3.265625 -14.796875 3.890625 -15.234375 C 6.003906 -16.722656 7.546875 -18.535156 8.515625 -20.671875 L 4.25 -20.234375 C 4.09375 -20.222656 4.003906 -20.21875 3.984375 -20.21875 C 3.367188 -20.21875 2.914062 -20.515625 2.625 -21.109375 C 2.476562 -21.421875 2.40625 -21.773438 2.40625 -22.171875 C 2.40625 -23.191406 2.9375 -23.75 4 -23.84375 L 9.5 -24.390625 C 9.550781 -24.898438 9.578125 -25.410156 9.578125 -25.921875 L 9.578125 -26.375 L 5.46875 -26 C 5.363281 -25.988281 5.269531 -25.984375 5.1875 -25.984375 C 4.613281 -25.984375 4.179688 -26.203125 3.890625 -26.640625 C 3.703125 -26.910156 3.609375 -27.242188 3.609375 -27.640625 C 3.609375 -28.753906 4.128906 -29.359375 5.171875 -29.453125 L 9.578125 -29.859375 L 9.578125 -32.46875 C 9.578125 -33.207031 9.910156 -33.753906 10.578125 -34.109375 C 10.992188 -34.328125 11.445312 -34.4375 11.9375 -34.4375 C 12.601562 -34.4375 13.164062 -34.25 13.625 -33.875 C 14.070312 -33.519531 14.296875 -33.050781 14.296875 -32.46875 L 14.296875 -30.296875 L 17.34375 -30.578125 C 17.957031 -30.628906 18.429688 -30.460938 18.765625 -30.078125 C 19.066406 -29.722656 19.21875 -29.273438 19.21875 -28.734375 C 19.21875 -27.734375 18.691406 -27.1875 17.640625 -27.09375 L 14.296875 -26.78125 L 14.296875 -26.125 C 14.296875 -25.71875 14.273438 -25.28125 14.234375 -24.8125 L 18.265625 -25.203125 C 18.296875 -25.203125 18.375 -25.203125 18.5 -25.203125 C 18.976562 -25.203125 19.351562 -25.0625 19.625 -24.78125 C 19.957031 -24.457031 20.125 -24.03125 20.125 -23.5 C 20.125 -22.394531 19.585938 -21.785156 18.515625 -21.671875 L 13.4375 -21.171875 C 13.394531 -21.066406 13.359375 -20.960938 13.328125 -20.859375 Z M 32.21875 -22.296875 C 34.28125 -20.078125 36.710938 -18.226562 39.515625 -16.75 C 40.585938 -16.195312 41.125 -15.71875 41.125 -15.3125 C 41.125 -14.976562 40.738281 -14.6875 39.96875 -14.4375 C 38.570312 -13.988281 37.472656 -13.765625 36.671875 -13.765625 C 36.054688 -13.765625 35.421875 -14.035156 34.765625 -14.578125 C 33.117188 -15.941406 31.4375 -17.84375 29.71875 -20.28125 C 29.664062 -20.175781 29.597656 -20.0625 29.515625 -19.9375 C 28.160156 -17.65625 26.019531 -15.867188 23.09375 -14.578125 C 22.4375 -14.273438 21.910156 -14.125 21.515625 -14.125 C 21.140625 -14.125 20.835938 -14.265625 20.609375 -14.546875 C 20.335938 -14.867188 20.203125 -15.195312 20.203125 -15.53125 C 20.203125 -15.863281 20.28125 -16.125 20.4375 -16.3125 C 20.601562 -16.507812 21.066406 -16.882812 21.828125 -17.4375 C 23.578125 -18.707031 24.832031 -20.140625 25.59375 -21.734375 L 22.265625 -21.46875 C 22.171875 -21.457031 22.117188 -21.453125 22.109375 -21.453125 C 21.722656 -21.453125 21.390625 -21.5625 21.109375 -21.78125 C 20.710938 -22.09375 20.515625 -22.554688 20.515625 -23.171875 C 20.515625 -24.296875 21.007812 -24.90625 22 -25 L 26.640625 -25.40625 C 26.691406 -25.894531 26.71875 -26.375 26.71875 -26.84375 L 26.71875 -27.484375 L 22.765625 -27.125 C 22.628906 -27.113281 22.539062 -27.109375 22.5 -27.109375 C 21.894531 -27.109375 21.460938 -27.367188 21.203125 -27.890625 C 21.035156 -28.191406 20.953125 -28.539062 20.953125 -28.9375 C 20.953125 -29.9375 21.460938 -30.484375 22.484375 -30.578125 L 26.71875 -30.984375 L 26.71875 -33.34375 C 26.71875 -34.082031 27.054688 -34.628906 27.734375 -34.984375 C 28.140625 -35.203125 28.585938 -35.3125 29.078125 -35.3125 C 29.859375 -35.3125 30.472656 -35.082031 30.921875 -34.625 C 31.253906 -34.28125 31.421875 -33.851562 31.421875 -33.34375 L 31.421875 -31.4375 L 35.625 -31.828125 C 35.71875 -31.835938 35.789062 -31.84375 35.84375 -31.84375 C 36.457031 -31.84375 36.910156 -31.597656 37.203125 -31.109375 C 37.378906 -30.828125 37.46875 -30.5 37.46875 -30.125 C 37.46875 -29 36.945312 -28.390625 35.90625 -28.296875 L 31.421875 -27.90625 L 31.421875 -26.796875 C 31.421875 -26.554688 31.410156 -26.226562 31.390625 -25.8125 L 37.546875 -26.375 C 38.015625 -26.414062 38.410156 -26.304688 38.734375 -26.046875 C 39.191406 -25.703125 39.421875 -25.179688 39.421875 -24.484375 C 39.421875 -23.421875 38.898438 -22.847656 37.859375 -22.765625 Z M 32.21875 -22.296875 "/></g></g></g><g fill="#ffffff" fill-opacity="1"><g transform="translate(138.480007, 116.251343)"><g><path d="M 16.796875 -33.984375 C 17.742188 -33.984375 19.144531 -33.726562 21 -33.21875 C 22.894531 -32.695312 24.316406 -32.191406 25.265625 -31.703125 C 26.347656 -31.128906 26.890625 -30.335938 26.890625 -29.328125 C 26.890625 -28.929688 26.785156 -28.535156 26.578125 -28.140625 C 26.097656 -27.234375 25.367188 -26.78125 24.390625 -26.78125 C 23.910156 -26.78125 23.257812 -27.003906 22.4375 -27.453125 C 21.132812 -28.171875 19.085938 -29.085938 16.296875 -30.203125 C 15.128906 -30.671875 14.546875 -31.28125 14.546875 -32.03125 C 14.546875 -33.332031 15.296875 -33.984375 16.796875 -33.984375 Z M 21.125 -19.953125 C 15.488281 -18.609375 11.992188 -17.9375 10.640625 -17.9375 C 9.640625 -17.9375 8.976562 -18.414062 8.65625 -19.375 C 8.519531 -19.757812 8.453125 -20.164062 8.453125 -20.59375 C 8.453125 -21.476562 8.789062 -22.09375 9.46875 -22.4375 C 9.707031 -22.539062 10.265625 -22.65625 11.140625 -22.78125 C 15.515625 -23.351562 19.691406 -24.050781 23.671875 -24.875 C 24.128906 -24.96875 24.550781 -25.015625 24.9375 -25.015625 C 25.894531 -25.015625 26.695312 -24.769531 27.34375 -24.28125 C 28.007812 -23.757812 28.34375 -23.109375 28.34375 -22.328125 C 28.34375 -21.628906 27.910156 -20.875 27.046875 -20.0625 C 25.734375 -18.800781 23.535156 -16.523438 20.453125 -13.234375 L 20.5625 -13.109375 C 21.625 -13.773438 22.582031 -14.109375 23.4375 -14.109375 C 24.332031 -14.109375 25.003906 -13.71875 25.453125 -12.9375 C 25.734375 -12.457031 25.875 -11.882812 25.875 -11.21875 C 25.875 -10.96875 25.835938 -10.578125 25.765625 -10.046875 C 25.441406 -8.109375 25.28125 -6.425781 25.28125 -5 C 25.28125 -4.46875 25.40625 -4.097656 25.65625 -3.890625 C 25.945312 -3.648438 26.515625 -3.53125 27.359375 -3.53125 C 29.492188 -3.53125 31.644531 -3.722656 33.8125 -4.109375 C 34.09375 -4.160156 34.347656 -4.1875 34.578125 -4.1875 C 35.640625 -4.1875 36.34375 -3.6875 36.6875 -2.6875 C 36.800781 -2.375 36.859375 -2.023438 36.859375 -1.640625 C 36.859375 -0.285156 36.222656 0.539062 34.953125 0.84375 C 33.734375 1.125 30.984375 1.265625 26.703125 1.265625 C 24.609375 1.265625 23.050781 1 22.03125 0.46875 C 20.675781 -0.238281 20 -1.421875 20 -3.078125 C 20 -3.898438 20.132812 -5.628906 20.40625 -8.265625 C 20.445312 -8.648438 20.46875 -8.894531 20.46875 -9 C 20.46875 -9.289062 20.382812 -9.4375 20.21875 -9.4375 C 19.695312 -9.4375 18.492188 -8.625 16.609375 -7 C 14.734375 -5.394531 13.050781 -3.535156 11.5625 -1.421875 C 11.1875 -0.867188 10.941406 -0.523438 10.828125 -0.390625 C 10.222656 0.359375 9.523438 0.734375 8.734375 0.734375 C 8.160156 0.734375 7.640625 0.53125 7.171875 0.125 C 6.546875 -0.4375 6.234375 -1.066406 6.234375 -1.765625 C 6.234375 -2.378906 6.648438 -3.195312 7.484375 -4.21875 C 11.597656 -9.269531 16.171875 -14.472656 21.203125 -19.828125 Z M 21.125 -19.953125 "/></g></g></g><g fill="#ffffff" fill-opacity="1"><g transform="translate(179.640008, 116.251343)"><g><path d="M 21.96875 -27.375 C 17.8125 -26.59375 15.210938 -26.203125 14.171875 -26.203125 C 13.398438 -26.203125 12.804688 -26.4375 12.390625 -26.90625 C 12.003906 -27.3125 11.8125 -27.851562 11.8125 -28.53125 C 11.8125 -29.675781 12.304688 -30.441406 13.296875 -30.828125 C 13.617188 -30.929688 14.21875 -31.019531 15.09375 -31.09375 C 19.082031 -31.375 22.398438 -31.832031 25.046875 -32.46875 C 25.335938 -32.53125 25.601562 -32.5625 25.84375 -32.5625 C 26.84375 -32.5625 27.675781 -32.160156 28.34375 -31.359375 C 28.8125 -30.804688 29.046875 -30.203125 29.046875 -29.546875 C 29.046875 -28.890625 28.789062 -28.289062 28.28125 -27.75 C 26.539062 -25.820312 22.507812 -21.976562 16.1875 -16.21875 L 16.296875 -16.078125 C 18.785156 -17.679688 21.5625 -18.484375 24.625 -18.484375 C 27.46875 -18.484375 29.851562 -17.816406 31.78125 -16.484375 C 34.175781 -14.847656 35.375 -12.597656 35.375 -9.734375 C 35.375 -5.835938 33.707031 -2.9375 30.375 -1.03125 C 27.925781 0.382812 24.863281 1.09375 21.1875 1.09375 C 19.257812 1.09375 17.582031 0.664062 16.15625 -0.1875 C 14.300781 -1.289062 13.375 -2.757812 13.375 -4.59375 C 13.375 -5.988281 13.988281 -7.144531 15.21875 -8.0625 C 16.539062 -9.039062 18.207031 -9.53125 20.21875 -9.53125 C 23.488281 -9.53125 26.132812 -8.085938 28.15625 -5.203125 C 29.4375 -6.503906 30.078125 -8 30.078125 -9.6875 C 30.078125 -11.226562 29.429688 -12.441406 28.140625 -13.328125 C 27.109375 -14.035156 25.773438 -14.390625 24.140625 -14.390625 C 19.546875 -14.390625 15.28125 -12.867188 11.34375 -9.828125 C 10.644531 -9.273438 9.988281 -9 9.375 -9 C 8.757812 -9 8.21875 -9.265625 7.75 -9.796875 C 7.257812 -10.390625 7.015625 -11.023438 7.015625 -11.703125 C 7.015625 -12.398438 7.253906 -12.988281 7.734375 -13.46875 C 7.835938 -13.582031 8.226562 -13.929688 8.90625 -14.515625 C 13.5625 -18.609375 17.976562 -22.851562 22.15625 -27.25 Z M 24.359375 -3.28125 C 23.046875 -4.988281 21.613281 -5.84375 20.0625 -5.84375 C 18.539062 -5.84375 17.78125 -5.390625 17.78125 -4.484375 C 17.78125 -4.066406 18.015625 -3.710938 18.484375 -3.421875 C 19.078125 -3.054688 19.929688 -2.875 21.046875 -2.875 C 22.285156 -2.875 23.300781 -2.984375 24.09375 -3.203125 C 24.144531 -3.210938 24.1875 -3.222656 24.21875 -3.234375 C 24.226562 -3.234375 24.273438 -3.25 24.359375 -3.28125 Z M 24.359375 -3.28125 "/></g></g></g></svg>