<svg xmlns="http://www.w3.org/2000/svg" xmlns:xlink="http://www.w3.org/1999/xlink" width="600" zoomAndPan="magnify" viewBox="0 0 450 149.999998" height="200" preserveAspectRatio="xMidYMid meet" version="1.0"><defs><g/><clipPath id="ec3b3e3979"><path d="M 0 5.402344 L 450 5.402344 L 450 144.597656 L 0 144.597656 Z M 0 5.402344 " clip-rule="nonzero"/></clipPath><clipPath id="2221398718"><path d="M 7.714844 5.402344 L 380.402344 5.402344 C 398.859375 5.402344 416.5625 12.734375 429.613281 25.785156 C 442.667969 38.839844 450 56.542969 450 75 C 450 93.457031 442.667969 111.160156 429.613281 124.214844 C 416.5625 137.265625 398.859375 144.597656 380.402344 144.597656 L 7.714844 144.597656 C -10.742188 144.597656 -28.445312 137.265625 -41.496094 124.214844 C -54.550781 111.160156 -61.882812 93.457031 -61.882812 75 C -61.882812 56.542969 -54.550781 38.839844 -41.496094 25.785156 C -28.445312 12.734375 -10.742188 5.402344 7.714844 5.402344 Z M 7.714844 5.402344 " clip-rule="nonzero"/></clipPath><clipPath id="16092a5d4f"><path d="M 0 0.402344 L 450 0.402344 L 450 139.597656 L 0 139.597656 Z M 0 0.402344 " clip-rule="nonzero"/></clipPath><clipPath id="4ed529cab2"><path d="M 7.714844 0.402344 L 380.402344 0.402344 C 398.859375 0.402344 416.5625 7.734375 429.613281 20.785156 C 442.667969 33.839844 450 51.542969 450 70 C 450 88.457031 442.667969 106.160156 429.613281 119.214844 C 416.5625 132.265625 398.859375 139.597656 380.402344 139.597656 L 7.714844 139.597656 C -10.742188 139.597656 -28.445312 132.265625 -41.496094 119.214844 C -54.550781 106.160156 -61.882812 88.457031 -61.882812 70 C -61.882812 51.542969 -54.550781 33.839844 -41.496094 20.785156 C -28.445312 7.734375 -10.742188 0.402344 7.714844 0.402344 Z M 7.714844 0.402344 " clip-rule="nonzero"/></clipPath><clipPath id="0ed2bc079a"><rect x="0" width="450" y="0" height="140"/></clipPath></defs><g clip-path="url(#ec3b3e3979)"><g clip-path="url(#2221398718)"><g transform="matrix(1, 0, 0, 1, 0, 5)"><g clip-path="url(#0ed2bc079a)"><g clip-path="url(#16092a5d4f)"><g clip-path="url(#4ed529cab2)"><path fill="#22a76e" d="M -61.882812 0.402344 L 449.78125 0.402344 L 449.78125 139.597656 L -61.882812 139.597656 Z M -61.882812 0.402344 " fill-opacity="1" fill-rule="nonzero"/></g></g></g></g></g></g><g fill="#ffffff" fill-opacity="1"><g transform="translate(15.000003, 57.751346)"><g><path d="M 18.6875 -15.921875 C 14.707031 -15.679688 10.421875 -15.378906 5.828125 -15.015625 C 5.472656 -14.984375 5.238281 -14.96875 5.125 -14.96875 C 4.113281 -14.96875 3.414062 -15.363281 3.03125 -16.15625 C 2.84375 -16.53125 2.75 -16.976562 2.75 -17.5 C 2.75 -18.851562 3.472656 -19.609375 4.921875 -19.765625 C 6.796875 -19.984375 15.484375 -20.503906 30.984375 -21.328125 C 33.859375 -21.472656 35.347656 -21.546875 35.453125 -21.546875 C 36.234375 -21.546875 36.847656 -21.316406 37.296875 -20.859375 C 37.710938 -20.429688 37.921875 -19.863281 37.921875 -19.15625 C 37.921875 -17.9375 37.445312 -17.164062 36.5 -16.84375 C 36.195312 -16.738281 35.617188 -16.675781 34.765625 -16.65625 C 32.878906 -16.601562 29.6875 -16.476562 25.1875 -16.28125 L 24.171875 -16.265625 C 23.941406 -9.796875 21.984375 -4.875 18.296875 -1.5 C 16.160156 0.457031 14.476562 1.4375 13.25 1.4375 C 12.644531 1.4375 12.160156 1.195312 11.796875 0.71875 C 11.460938 0.28125 11.296875 -0.15625 11.296875 -0.59375 C 11.296875 -1.125 11.507812 -1.597656 11.9375 -2.015625 C 12.070312 -2.160156 12.503906 -2.507812 13.234375 -3.0625 C 15.484375 -4.769531 17.039062 -7.175781 17.90625 -10.28125 C 18.3125 -11.78125 18.570312 -13.660156 18.6875 -15.921875 Z M 27.515625 -31.9375 C 28.148438 -31.9375 28.675781 -31.753906 29.09375 -31.390625 C 29.632812 -30.941406 29.90625 -30.320312 29.90625 -29.53125 C 29.90625 -28.164062 29.21875 -27.363281 27.84375 -27.125 C 27.070312 -27.007812 25.515625 -26.851562 23.171875 -26.65625 C 18.890625 -26.300781 15.359375 -26.125 12.578125 -26.125 C 10.535156 -26.125 9.515625 -26.953125 9.515625 -28.609375 C 9.515625 -29.566406 9.90625 -30.238281 10.6875 -30.625 C 11.113281 -30.820312 12.03125 -30.921875 13.4375 -30.921875 C 16.800781 -30.910156 20.191406 -31.085938 23.609375 -31.453125 C 24.359375 -31.535156 25.300781 -31.660156 26.4375 -31.828125 C 26.957031 -31.898438 27.316406 -31.9375 27.515625 -31.9375 Z M 32.171875 -33.53125 C 32.941406 -33.53125 34.175781 -32.765625 35.875 -31.234375 C 37.300781 -29.929688 38.015625 -28.898438 38.015625 -28.140625 C 38.015625 -27.609375 37.785156 -27.148438 37.328125 -26.765625 C 36.953125 -26.460938 36.535156 -26.3125 36.078125 -26.3125 C 35.441406 -26.3125 34.960938 -26.582031 34.640625 -27.125 C 33.753906 -28.59375 32.726562 -29.925781 31.5625 -31.125 C 31.175781 -31.519531 30.984375 -31.929688 30.984375 -32.359375 C 30.984375 -33.140625 31.378906 -33.53125 32.171875 -33.53125 Z M 36.03125 -36.609375 C 36.851562 -36.609375 38.035156 -35.957031 39.578125 -34.65625 C 41.015625 -33.457031 41.734375 -32.441406 41.734375 -31.609375 C 41.734375 -31.015625 41.507812 -30.546875 41.0625 -30.203125 C 40.726562 -29.960938 40.359375 -29.84375 39.953125 -29.84375 C 39.359375 -29.84375 38.835938 -30.179688 38.390625 -30.859375 C 37.660156 -31.972656 36.679688 -33.109375 35.453125 -34.265625 C 35.015625 -34.691406 34.796875 -35.109375 34.796875 -35.515625 C 34.796875 -35.773438 34.90625 -36.023438 35.125 -36.265625 C 35.34375 -36.492188 35.644531 -36.609375 36.03125 -36.609375 Z M 36.03125 -36.609375 "/></g></g></g><g fill="#ffffff" fill-opacity="1"><g transform="translate(56.160004, 57.751346)"><g><path d="M 11.328125 -31.515625 C 12.566406 -31.515625 14.632812 -30.628906 17.53125 -28.859375 C 18.40625 -28.328125 19.050781 -27.890625 19.46875 -27.546875 C 20.257812 -26.898438 20.65625 -26.140625 20.65625 -25.265625 C 20.65625 -24.691406 20.445312 -24.148438 20.03125 -23.640625 C 19.414062 -22.898438 18.703125 -22.53125 17.890625 -22.53125 C 17.191406 -22.53125 16.472656 -22.910156 15.734375 -23.671875 C 14.523438 -24.910156 12.738281 -26.382812 10.375 -28.09375 C 9.65625 -28.625 9.296875 -29.191406 9.296875 -29.796875 C 9.296875 -30.128906 9.394531 -30.453125 9.59375 -30.765625 C 9.945312 -31.265625 10.523438 -31.515625 11.328125 -31.515625 Z M 6.359375 -22.234375 C 7.203125 -22.234375 8.445312 -21.929688 10.09375 -21.328125 C 12.019531 -20.628906 13.625 -19.8125 14.90625 -18.875 C 15.800781 -18.21875 16.25 -17.414062 16.25 -16.46875 C 16.25 -15.882812 16.039062 -15.320312 15.625 -14.78125 C 15.09375 -14.070312 14.40625 -13.71875 13.5625 -13.71875 C 12.945312 -13.71875 12.25 -14.03125 11.46875 -14.65625 C 9.914062 -15.9375 7.925781 -17.265625 5.5 -18.640625 C 4.6875 -19.109375 4.28125 -19.695312 4.28125 -20.40625 C 4.28125 -20.726562 4.367188 -21.050781 4.546875 -21.375 C 4.878906 -21.945312 5.484375 -22.234375 6.359375 -22.234375 Z M 35.5 -23.578125 C 35.894531 -23.578125 36.285156 -23.46875 36.671875 -23.25 C 37.347656 -22.851562 37.6875 -22.269531 37.6875 -21.5 C 37.6875 -20.71875 37.046875 -19.257812 35.765625 -17.125 C 33.648438 -13.582031 30.765625 -10.335938 27.109375 -7.390625 C 22.742188 -3.859375 17.90625 -1.191406 12.59375 0.609375 C 11.988281 0.816406 11.484375 0.921875 11.078125 0.921875 C 9.992188 0.921875 9.203125 0.429688 8.703125 -0.546875 C 8.453125 -1.023438 8.328125 -1.5 8.328125 -1.96875 C 8.328125 -2.988281 8.796875 -3.753906 9.734375 -4.265625 C 9.878906 -4.335938 10.769531 -4.660156 12.40625 -5.234375 C 16.832031 -6.773438 20.96875 -9.078125 24.8125 -12.140625 C 28.507812 -15.078125 31.359375 -18.375 33.359375 -22.03125 C 33.941406 -23.0625 34.65625 -23.578125 35.5 -23.578125 Z M 30.359375 -32.6875 C 31.117188 -32.6875 32.335938 -31.921875 34.015625 -30.390625 C 35.453125 -29.085938 36.171875 -28.054688 36.171875 -27.296875 C 36.171875 -26.765625 35.941406 -26.304688 35.484375 -25.921875 C 35.109375 -25.617188 34.691406 -25.46875 34.234375 -25.46875 C 33.617188 -25.46875 33.09375 -25.820312 32.65625 -26.53125 C 31.851562 -27.832031 30.878906 -29.085938 29.734375 -30.296875 C 29.347656 -30.691406 29.15625 -31.097656 29.15625 -31.515625 C 29.15625 -32.296875 29.554688 -32.6875 30.359375 -32.6875 Z M 34.625 -35.78125 C 35.4375 -35.78125 36.617188 -35.132812 38.171875 -33.84375 C 39.597656 -32.632812 40.3125 -31.613281 40.3125 -30.78125 C 40.3125 -30.164062 40.085938 -29.695312 39.640625 -29.375 C 39.296875 -29.125 38.925781 -29 38.53125 -29 C 37.945312 -29 37.425781 -29.34375 36.96875 -30.03125 C 36.21875 -31.144531 35.242188 -32.285156 34.046875 -33.453125 C 33.609375 -33.867188 33.390625 -34.273438 33.390625 -34.671875 C 33.390625 -34.953125 33.5 -35.207031 33.71875 -35.4375 C 33.9375 -35.664062 34.238281 -35.78125 34.625 -35.78125 Z M 34.625 -35.78125 "/></g></g></g><g fill="#ffffff" fill-opacity="1"><g transform="translate(97.320006, 57.751346)"><g><path d="M 22.515625 -30.53125 L 30.296875 -30.828125 L 30.625 -30.84375 C 33.144531 -30.84375 34.40625 -29.765625 34.40625 -27.609375 C 34.40625 -26.953125 34.242188 -26.039062 33.921875 -24.875 C 31.210938 -15.332031 25.675781 -7.765625 17.3125 -2.171875 C 14.03125 0.015625 11.785156 1.109375 10.578125 1.109375 C 9.953125 1.109375 9.460938 0.832031 9.109375 0.28125 C 8.859375 -0.09375 8.734375 -0.453125 8.734375 -0.796875 C 8.734375 -1.347656 8.992188 -1.847656 9.515625 -2.296875 C 9.691406 -2.441406 10.1875 -2.765625 11 -3.265625 C 15.007812 -5.722656 18.5 -8.613281 21.46875 -11.9375 C 19.5 -13.957031 17.707031 -15.613281 16.09375 -16.90625 C 15.34375 -17.488281 14.96875 -18.066406 14.96875 -18.640625 C 14.96875 -18.992188 15.082031 -19.328125 15.3125 -19.640625 C 15.695312 -20.148438 16.207031 -20.40625 16.84375 -20.40625 C 17.351562 -20.40625 17.988281 -20.234375 18.75 -19.890625 C 20.914062 -18.921875 22.882812 -17.710938 24.65625 -16.265625 C 26.363281 -19.023438 27.59375 -21.710938 28.34375 -24.328125 C 28.5625 -25.078125 28.671875 -25.539062 28.671875 -25.71875 C 28.671875 -26.019531 28.453125 -26.171875 28.015625 -26.171875 C 27.972656 -26.171875 27.929688 -26.171875 27.890625 -26.171875 L 20.28125 -25.78125 C 17.4375 -21.988281 14.523438 -19.097656 11.546875 -17.109375 C 10.585938 -16.460938 9.796875 -16.140625 9.171875 -16.140625 C 8.597656 -16.140625 8.160156 -16.363281 7.859375 -16.8125 C 7.648438 -17.113281 7.546875 -17.441406 7.546875 -17.796875 C 7.546875 -18.273438 7.742188 -18.757812 8.140625 -19.25 C 8.273438 -19.414062 8.695312 -19.820312 9.40625 -20.46875 C 11.78125 -22.625 13.929688 -25.253906 15.859375 -28.359375 C 16.367188 -29.210938 16.828125 -30.035156 17.234375 -30.828125 C 17.804688 -31.984375 18.664062 -32.5625 19.8125 -32.5625 C 20.632812 -32.5625 21.316406 -32.28125 21.859375 -31.71875 C 22.171875 -31.40625 22.390625 -31.007812 22.515625 -30.53125 Z M 22.515625 -30.53125 "/></g></g></g><g fill="#ffffff" fill-opacity="1"><g transform="translate(138.480007, 57.751346)"><g><path d="M 12.859375 -27.890625 C 14.597656 -27.890625 15.46875 -26.898438 15.46875 -24.921875 C 15.46875 -17.804688 14.140625 -12.085938 11.484375 -7.765625 C 10.359375 -5.921875 9.019531 -4.390625 7.46875 -3.171875 C 6.90625 -2.734375 6.300781 -2.515625 5.65625 -2.515625 C 5.21875 -2.515625 4.828125 -2.664062 4.484375 -2.96875 C 4.085938 -3.320312 3.890625 -3.757812 3.890625 -4.28125 C 3.890625 -4.875 4.160156 -5.476562 4.703125 -6.09375 C 6.910156 -8.632812 8.421875 -11.671875 9.234375 -15.203125 C 9.859375 -17.941406 10.175781 -21.269531 10.1875 -25.1875 C 10.207031 -25.988281 10.394531 -26.597656 10.75 -27.015625 C 11.269531 -27.597656 11.972656 -27.890625 12.859375 -27.890625 Z M 24.65625 -29.40625 L 24.65625 -8.484375 C 24.65625 -7.953125 24.773438 -7.6875 25.015625 -7.6875 C 25.523438 -7.6875 26.847656 -8.425781 28.984375 -9.90625 C 32.015625 -11.96875 34.515625 -14.085938 36.484375 -16.265625 C 37.171875 -17.023438 37.8125 -17.40625 38.40625 -17.40625 C 38.90625 -17.40625 39.394531 -17.207031 39.875 -16.8125 C 40.332031 -16.4375 40.5625 -15.925781 40.5625 -15.28125 C 40.5625 -14.71875 40.335938 -14.125 39.890625 -13.5 C 38.304688 -11.289062 35.90625 -8.925781 32.6875 -6.40625 C 30.175781 -4.414062 27.773438 -2.863281 25.484375 -1.75 C 24.628906 -1.320312 23.875 -1.109375 23.21875 -1.109375 C 22.488281 -1.109375 21.765625 -1.359375 21.046875 -1.859375 C 20.003906 -2.585938 19.484375 -3.734375 19.484375 -5.296875 L 19.484375 -29.40625 C 19.484375 -30.3125 19.875 -30.972656 20.65625 -31.390625 C 21.0625 -31.628906 21.507812 -31.75 22 -31.75 C 22.757812 -31.75 23.390625 -31.535156 23.890625 -31.109375 C 24.398438 -30.671875 24.65625 -30.101562 24.65625 -29.40625 Z M 24.65625 -29.40625 "/></g></g></g><g fill="#ffffff" fill-opacity="1"><g transform="translate(179.640008, 57.751346)"><g><path d="M 27.3125 -8.78125 C 27.75 -11.820312 28.296875 -16.207031 28.953125 -21.9375 C 28.984375 -22.226562 29 -22.425781 29 -22.53125 C 29 -22.914062 28.785156 -23.109375 28.359375 -23.109375 C 28.171875 -23.109375 27.722656 -23.078125 27.015625 -23.015625 C 26.015625 -22.910156 23.835938 -22.734375 20.484375 -22.484375 C 16.703125 -22.179688 13.507812 -21.90625 10.90625 -21.65625 C 10.625 -21.625 10.40625 -21.609375 10.25 -21.609375 C 9.488281 -21.609375 8.878906 -21.847656 8.421875 -22.328125 C 8.046875 -22.742188 7.859375 -23.28125 7.859375 -23.9375 C 7.859375 -25.113281 8.296875 -25.898438 9.171875 -26.296875 C 9.472656 -26.429688 10.238281 -26.546875 11.46875 -26.640625 C 22.8125 -27.566406 28.898438 -28.070312 29.734375 -28.15625 C 29.984375 -28.1875 30.191406 -28.203125 30.359375 -28.203125 C 32.109375 -28.203125 33.316406 -27.460938 33.984375 -25.984375 C 34.222656 -25.429688 34.34375 -24.84375 34.34375 -24.21875 C 34.34375 -24.03125 34.296875 -23.519531 34.203125 -22.6875 C 33.441406 -16.320312 32.863281 -11.6875 32.46875 -8.78125 C 33.363281 -8.394531 33.8125 -7.648438 33.8125 -6.546875 C 33.8125 -5.453125 33.332031 -4.71875 32.375 -4.34375 C 32.019531 -4.207031 31.242188 -4.113281 30.046875 -4.0625 C 26.210938 -3.882812 19.71875 -3.445312 10.5625 -2.75 C 10.269531 -2.71875 10.066406 -2.703125 9.953125 -2.703125 C 8.359375 -2.703125 7.5625 -3.53125 7.5625 -5.1875 C 7.5625 -6.632812 8.300781 -7.445312 9.78125 -7.625 C 11.382812 -7.820312 17.226562 -8.207031 27.3125 -8.78125 Z M 27.3125 -8.78125 "/></g></g></g><g fill="#ffffff" fill-opacity="1"><g transform="translate(220.80001, 57.751346)"><g><path d="M 9.4375 -29.453125 C 10 -29.453125 10.960938 -29.207031 12.328125 -28.71875 C 14.878906 -27.8125 16.988281 -26.742188 18.65625 -25.515625 C 19.53125 -24.867188 19.96875 -24.066406 19.96875 -23.109375 C 19.96875 -22.578125 19.800781 -22.046875 19.46875 -21.515625 C 18.945312 -20.722656 18.25 -20.328125 17.375 -20.328125 C 16.625 -20.328125 15.796875 -20.675781 14.890625 -21.375 C 12.609375 -23.175781 10.53125 -24.609375 8.65625 -25.671875 C 7.707031 -26.203125 7.234375 -26.832031 7.234375 -27.5625 C 7.234375 -28.820312 7.96875 -29.453125 9.4375 -29.453125 Z M 35.8125 -22.890625 C 36.269531 -22.890625 36.710938 -22.734375 37.140625 -22.421875 C 37.703125 -22.003906 37.984375 -21.445312 37.984375 -20.75 C 37.984375 -20.175781 37.753906 -19.554688 37.296875 -18.890625 C 34.160156 -14.179688 30.015625 -10.109375 24.859375 -6.671875 C 20.566406 -3.804688 16.132812 -1.757812 11.5625 -0.53125 C 11.082031 -0.40625 10.664062 -0.34375 10.3125 -0.34375 C 9.15625 -0.34375 8.328125 -0.878906 7.828125 -1.953125 C 7.609375 -2.429688 7.5 -2.890625 7.5 -3.328125 C 7.5 -4.316406 8 -5.0625 9 -5.5625 C 9.207031 -5.65625 10.117188 -5.941406 11.734375 -6.421875 C 17.609375 -8.140625 23.082031 -11.242188 28.15625 -15.734375 C 30.09375 -17.453125 31.925781 -19.410156 33.65625 -21.609375 C 34.3125 -22.460938 35.03125 -22.890625 35.8125 -22.890625 Z M 35.8125 -22.890625 "/></g></g></g><g fill="#ffffff" fill-opacity="1"><g transform="translate(261.960011, 57.751346)"><g><path d="M 19.3125 -15.921875 C 15.332031 -15.679688 11.046875 -15.378906 6.453125 -15.015625 C 6.097656 -14.984375 5.867188 -14.96875 5.765625 -14.96875 C 4.753906 -14.96875 4.054688 -15.363281 3.671875 -16.15625 C 3.484375 -16.53125 3.390625 -16.976562 3.390625 -17.5 C 3.390625 -18.851562 4.113281 -19.609375 5.5625 -19.765625 C 7.4375 -19.984375 16.125 -20.503906 31.625 -21.328125 C 34.5 -21.472656 35.988281 -21.546875 36.09375 -21.546875 C 36.875 -21.546875 37.488281 -21.316406 37.9375 -20.859375 C 38.351562 -20.429688 38.5625 -19.863281 38.5625 -19.15625 C 38.5625 -17.9375 38.085938 -17.164062 37.140625 -16.84375 C 36.835938 -16.738281 36.253906 -16.675781 35.390625 -16.65625 C 33.503906 -16.601562 30.3125 -16.476562 25.8125 -16.28125 L 24.8125 -16.265625 C 24.582031 -9.796875 22.617188 -4.875 18.921875 -1.5 C 16.796875 0.457031 15.117188 1.4375 13.890625 1.4375 C 13.285156 1.4375 12.796875 1.195312 12.421875 0.71875 C 12.097656 0.28125 11.9375 -0.15625 11.9375 -0.59375 C 11.9375 -1.125 12.148438 -1.597656 12.578125 -2.015625 C 12.710938 -2.160156 13.140625 -2.507812 13.859375 -3.0625 C 16.117188 -4.769531 17.679688 -7.175781 18.546875 -10.28125 C 18.953125 -11.78125 19.207031 -13.660156 19.3125 -15.921875 Z M 28.390625 -32.015625 C 29.117188 -32.015625 29.710938 -31.796875 30.171875 -31.359375 C 30.609375 -30.941406 30.828125 -30.394531 30.828125 -29.71875 C 30.828125 -28.375 30.210938 -27.5625 28.984375 -27.28125 C 28.265625 -27.101562 26.414062 -26.890625 23.4375 -26.640625 C 19.394531 -26.296875 15.972656 -26.125 13.171875 -26.125 C 11.160156 -26.125 10.15625 -26.945312 10.15625 -28.59375 C 10.15625 -29.6875 10.644531 -30.398438 11.625 -30.734375 C 11.96875 -30.847656 12.710938 -30.910156 13.859375 -30.921875 C 17.554688 -30.921875 21.5625 -31.179688 25.875 -31.703125 C 26.300781 -31.742188 26.800781 -31.8125 27.375 -31.90625 C 27.832031 -31.976562 28.171875 -32.015625 28.390625 -32.015625 Z M 28.390625 -32.015625 "/></g></g></g><g fill="#ffffff" fill-opacity="1"><g transform="translate(303.120012, 57.751346)"><g><path d="M 9.4375 -29.453125 C 10 -29.453125 10.960938 -29.207031 12.328125 -28.71875 C 14.878906 -27.8125 16.988281 -26.742188 18.65625 -25.515625 C 19.53125 -24.867188 19.96875 -24.066406 19.96875 -23.109375 C 19.96875 -22.578125 19.800781 -22.046875 19.46875 -21.515625 C 18.945312 -20.722656 18.25 -20.328125 17.375 -20.328125 C 16.625 -20.328125 15.796875 -20.675781 14.890625 -21.375 C 12.609375 -23.175781 10.53125 -24.609375 8.65625 -25.671875 C 7.707031 -26.203125 7.234375 -26.832031 7.234375 -27.5625 C 7.234375 -28.820312 7.96875 -29.453125 9.4375 -29.453125 Z M 35.8125 -22.890625 C 36.269531 -22.890625 36.710938 -22.734375 37.140625 -22.421875 C 37.703125 -22.003906 37.984375 -21.445312 37.984375 -20.75 C 37.984375 -20.175781 37.753906 -19.554688 37.296875 -18.890625 C 34.160156 -14.179688 30.015625 -10.109375 24.859375 -6.671875 C 20.566406 -3.804688 16.132812 -1.757812 11.5625 -0.53125 C 11.082031 -0.40625 10.664062 -0.34375 10.3125 -0.34375 C 9.15625 -0.34375 8.328125 -0.878906 7.828125 -1.953125 C 7.609375 -2.429688 7.5 -2.890625 7.5 -3.328125 C 7.5 -4.316406 8 -5.0625 9 -5.5625 C 9.207031 -5.65625 10.117188 -5.941406 11.734375 -6.421875 C 17.609375 -8.140625 23.082031 -11.242188 28.15625 -15.734375 C 30.09375 -17.453125 31.925781 -19.410156 33.65625 -21.609375 C 34.3125 -22.460938 35.03125 -22.890625 35.8125 -22.890625 Z M 35.8125 -22.890625 "/></g></g></g><g fill="#ffffff" fill-opacity="1"><g transform="translate(344.280014, 57.751346)"><g><path d="M 6.28125 -28.0625 C 7.207031 -28.0625 8.566406 -26.972656 10.359375 -24.796875 C 12.328125 -22.398438 13.3125 -20.5625 13.3125 -19.28125 C 13.3125 -18.46875 12.988281 -17.789062 12.34375 -17.25 C 11.726562 -16.71875 11.046875 -16.453125 10.296875 -16.453125 C 9.234375 -16.453125 8.441406 -17.140625 7.921875 -18.515625 C 7.109375 -20.742188 6.125 -22.789062 4.96875 -24.65625 C 4.570312 -25.289062 4.375 -25.828125 4.375 -26.265625 C 4.375 -26.691406 4.539062 -27.078125 4.875 -27.421875 C 5.289062 -27.847656 5.757812 -28.0625 6.28125 -28.0625 Z M 16.84375 -31.421875 C 17.726562 -31.421875 18.734375 -30.609375 19.859375 -28.984375 C 21.023438 -27.253906 21.925781 -25.523438 22.5625 -23.796875 C 22.78125 -23.171875 22.890625 -22.59375 22.890625 -22.0625 C 22.890625 -21.007812 22.492188 -20.21875 21.703125 -19.6875 C 21.160156 -19.34375 20.582031 -19.171875 19.96875 -19.171875 C 18.875 -19.171875 18.109375 -19.675781 17.671875 -20.6875 C 17.609375 -20.84375 17.507812 -21.191406 17.375 -21.734375 C 16.738281 -24.273438 16.035156 -26.4375 15.265625 -28.21875 C 15.023438 -28.769531 14.90625 -29.265625 14.90625 -29.703125 C 14.90625 -30.285156 15.144531 -30.734375 15.625 -31.046875 C 16 -31.296875 16.40625 -31.421875 16.84375 -31.421875 Z M 33.546875 -30.1875 C 34.097656 -30.1875 34.625 -30.054688 35.125 -29.796875 C 36.019531 -29.328125 36.46875 -28.554688 36.46875 -27.484375 C 36.46875 -26.535156 36.164062 -24.90625 35.5625 -22.59375 C 33.019531 -12.914062 27.582031 -5.671875 19.25 -0.859375 C 17.863281 -0.0546875 16.851562 0.34375 16.21875 0.34375 C 15.46875 0.34375 14.914062 0.015625 14.5625 -0.640625 C 14.375 -0.992188 14.28125 -1.332031 14.28125 -1.65625 C 14.28125 -2.375 14.773438 -3.066406 15.765625 -3.734375 C 20.734375 -7.046875 24.492188 -11.050781 27.046875 -15.75 C 28.953125 -19.238281 30.28125 -23.171875 31.03125 -27.546875 C 31.34375 -29.304688 32.179688 -30.1875 33.546875 -30.1875 Z M 33.546875 -30.1875 "/></g></g></g><g fill="#ffffff" fill-opacity="1"><g transform="translate(15.000003, 116.251343)"><g><path d="M 31.34375 -18.59375 L 38.046875 -19.109375 C 38.066406 -19.109375 38.117188 -19.109375 38.203125 -19.109375 C 38.859375 -19.109375 39.363281 -18.847656 39.71875 -18.328125 C 39.957031 -17.992188 40.078125 -17.609375 40.078125 -17.171875 C 40.078125 -16.398438 39.789062 -15.835938 39.21875 -15.484375 C 38.957031 -15.316406 38.65625 -15.222656 38.3125 -15.203125 L 24.875 -14.1875 C 23.375 -13.269531 22 -12.460938 20.75 -11.765625 L 30.40625 -12.515625 C 30.695312 -12.535156 30.898438 -12.546875 31.015625 -12.546875 C 33.078125 -12.546875 34.109375 -11.375 34.109375 -9.03125 L 34.109375 1.390625 C 34.109375 1.921875 33.9375 2.375 33.59375 2.75 C 33.113281 3.269531 32.453125 3.53125 31.609375 3.53125 C 30.253906 3.53125 29.4375 2.972656 29.15625 1.859375 L 17.171875 2.46875 C 16.710938 3.195312 15.972656 3.5625 14.953125 3.5625 C 13.867188 3.5625 13.113281 3.179688 12.6875 2.421875 C 12.539062 2.128906 12.46875 1.800781 12.46875 1.4375 L 12.46875 -7.5625 C 7.289062 -5.21875 4.289062 -4.046875 3.46875 -4.046875 C 2.863281 -4.046875 2.410156 -4.3125 2.109375 -4.84375 C 1.921875 -5.1875 1.828125 -5.503906 1.828125 -5.796875 C 1.828125 -6.335938 2.097656 -6.785156 2.640625 -7.140625 C 2.835938 -7.265625 3.375 -7.488281 4.25 -7.8125 C 7.71875 -9.15625 11.742188 -11.070312 16.328125 -13.5625 L 3.984375 -12.640625 C 3.910156 -12.640625 3.859375 -12.640625 3.828125 -12.640625 C 3.117188 -12.640625 2.59375 -12.90625 2.25 -13.4375 C 2.0625 -13.738281 1.96875 -14.09375 1.96875 -14.5 C 1.96875 -15.71875 2.554688 -16.375 3.734375 -16.46875 L 17.046875 -17.5 L 17.046875 -19.375 L 10.15625 -18.90625 C 10.0625 -18.894531 9.984375 -18.890625 9.921875 -18.890625 C 9.378906 -18.890625 8.953125 -19.109375 8.640625 -19.546875 C 8.421875 -19.847656 8.3125 -20.203125 8.3125 -20.609375 C 8.3125 -21.742188 8.84375 -22.351562 9.90625 -22.4375 L 17.046875 -22.921875 L 17.046875 -24.6875 C 17.046875 -25.21875 17.234375 -25.65625 17.609375 -26 C 18.109375 -26.4375 18.75 -26.65625 19.53125 -26.65625 C 20.5625 -26.65625 21.273438 -26.316406 21.671875 -25.640625 C 21.835938 -25.359375 21.921875 -25.039062 21.921875 -24.6875 L 21.921875 -23.28125 L 26 -23.5625 C 26.03125 -23.5625 26.078125 -23.5625 26.140625 -23.5625 C 26.546875 -23.5625 26.894531 -23.445312 27.1875 -23.21875 C 27.601562 -22.882812 27.8125 -22.410156 27.8125 -21.796875 C 27.8125 -21.691406 27.796875 -21.554688 27.765625 -21.390625 L 28 -21.546875 C 29.15625 -22.503906 30.164062 -23.378906 31.03125 -24.171875 C 31.726562 -24.804688 32.425781 -25.125 33.125 -25.125 C 33.695312 -25.125 34.195312 -24.925781 34.625 -24.53125 C 35.082031 -24.09375 35.3125 -23.585938 35.3125 -23.015625 C 35.3125 -22.441406 35.0625 -21.894531 34.5625 -21.375 C 33.925781 -20.738281 32.851562 -19.8125 31.34375 -18.59375 Z M 23.3125 -17.96875 L 24.28125 -18.6875 L 25.21875 -19.40625 L 26.0625 -20.015625 L 21.765625 -19.734375 L 21.765625 -17.859375 Z M 29.09375 -7.109375 L 29.09375 -8.09375 C 29.09375 -8.820312 28.773438 -9.164062 28.140625 -9.125 L 27.96875 -9.109375 L 17.4375 -8.375 L 17.4375 -6.421875 Z M 29.09375 -3.875 L 17.4375 -3.203125 L 17.4375 -1 L 29.09375 -1.578125 Z M 28.546875 -28 L 28.265625 -26.53125 C 28.023438 -25.363281 27.226562 -24.78125 25.875 -24.78125 C 25 -24.78125 24.359375 -25.050781 23.953125 -25.59375 C 23.703125 -25.90625 23.578125 -26.273438 23.578125 -26.703125 C 23.578125 -26.785156 23.585938 -26.890625 23.609375 -27.015625 L 23.6875 -27.703125 L 16.875 -27.296875 L 16.953125 -26.453125 C 16.972656 -26.359375 16.984375 -26.296875 16.984375 -26.265625 C 16.984375 -25.554688 16.695312 -25.023438 16.125 -24.671875 C 15.695312 -24.410156 15.191406 -24.28125 14.609375 -24.28125 C 13.273438 -24.28125 12.507812 -24.867188 12.3125 -26.046875 L 12.140625 -27.03125 L 6.09375 -26.65625 L 5.90625 -26.65625 C 5.289062 -26.632812 4.78125 -26.875 4.375 -27.375 C 4.082031 -27.71875 3.9375 -28.132812 3.9375 -28.625 C 3.9375 -29.445312 4.238281 -30.035156 4.84375 -30.390625 C 5.113281 -30.554688 5.421875 -30.644531 5.765625 -30.65625 L 11.4375 -31.015625 L 11.21875 -32.375 C 11.1875 -32.519531 11.171875 -32.644531 11.171875 -32.75 C 11.171875 -33.757812 11.71875 -34.429688 12.8125 -34.765625 C 13.132812 -34.859375 13.460938 -34.90625 13.796875 -34.90625 C 14.367188 -34.90625 14.867188 -34.773438 15.296875 -34.515625 C 15.910156 -34.128906 16.257812 -33.554688 16.34375 -32.796875 L 16.484375 -31.3125 L 24.09375 -31.765625 L 24.28125 -33.421875 C 24.414062 -34.734375 25.238281 -35.390625 26.75 -35.390625 L 26.890625 -35.390625 C 27.523438 -35.390625 28.097656 -35.226562 28.609375 -34.90625 C 29.222656 -34.476562 29.53125 -33.910156 29.53125 -33.203125 C 29.53125 -33.035156 29.515625 -32.867188 29.484375 -32.703125 L 29.375 -32.078125 L 35.0625 -32.421875 C 35.4375 -32.453125 35.800781 -32.378906 36.15625 -32.203125 C 36.84375 -31.867188 37.1875 -31.28125 37.1875 -30.4375 C 37.1875 -29.144531 36.585938 -28.460938 35.390625 -28.390625 Z M 28.546875 -28 "/></g></g></g><g fill="#ffffff" fill-opacity="1"><g transform="translate(56.160004, 116.251343)"><g><path d="M 28.21875 -22.765625 L 28.21875 -18.984375 L 34.828125 -19.609375 C 34.890625 -19.617188 34.984375 -19.625 35.109375 -19.625 C 35.722656 -19.625 36.21875 -19.410156 36.59375 -18.984375 C 36.957031 -18.546875 37.140625 -17.972656 37.140625 -17.265625 C 37.140625 -15.953125 36.519531 -15.25 35.28125 -15.15625 L 28.21875 -14.625 L 28.21875 -10.671875 L 35.828125 -11.375 C 36.554688 -11.445312 37.128906 -11.257812 37.546875 -10.8125 C 37.929688 -10.394531 38.125 -9.828125 38.125 -9.109375 C 38.125 -7.597656 37.492188 -6.804688 36.234375 -6.734375 L 28.21875 -6.125 L 28.21875 1.09375 C 28.21875 1.6875 28.023438 2.171875 27.640625 2.546875 C 27.160156 3.035156 26.5 3.28125 25.65625 3.28125 C 24.507812 3.28125 23.738281 2.867188 23.34375 2.046875 C 23.207031 1.765625 23.140625 1.445312 23.140625 1.09375 L 23.140625 -22.3125 L 20.734375 -22.109375 C 18.640625 -18.421875 16.953125 -16.578125 15.671875 -16.578125 C 15.316406 -16.578125 14.953125 -16.691406 14.578125 -16.921875 C 14.054688 -17.242188 13.796875 -17.722656 13.796875 -18.359375 C 13.796875 -18.734375 14.101562 -19.394531 14.71875 -20.34375 C 16.15625 -22.570312 17.46875 -25.269531 18.65625 -28.4375 C 19.257812 -30.070312 19.710938 -31.554688 20.015625 -32.890625 C 20.316406 -34.222656 21.101562 -34.890625 22.375 -34.890625 C 22.945312 -34.890625 23.488281 -34.742188 24 -34.453125 C 24.695312 -34.054688 25.046875 -33.441406 25.046875 -32.609375 C 25.046875 -31.742188 24.445312 -29.929688 23.25 -27.171875 L 23.171875 -26.953125 L 36.875 -28.21875 C 36.96875 -28.226562 37.082031 -28.234375 37.21875 -28.234375 C 38.613281 -28.234375 39.3125 -27.441406 39.3125 -25.859375 C 39.3125 -24.441406 38.695312 -23.675781 37.46875 -23.5625 Z M 12.484375 -24.328125 L 12.484375 -0.078125 C 12.484375 0.453125 12.304688 0.898438 11.953125 1.265625 C 11.492188 1.765625 10.847656 2.015625 10.015625 2.015625 C 8.929688 2.015625 8.179688 1.632812 7.765625 0.875 C 7.609375 0.59375 7.53125 0.273438 7.53125 -0.078125 L 7.53125 -17 C 6.539062 -15.820312 5.804688 -14.992188 5.328125 -14.515625 C 4.710938 -13.890625 4.085938 -13.578125 3.453125 -13.578125 C 2.929688 -13.578125 2.476562 -13.796875 2.09375 -14.234375 C 1.789062 -14.597656 1.640625 -15 1.640625 -15.4375 C 1.640625 -15.789062 1.734375 -16.132812 1.921875 -16.46875 C 2.023438 -16.65625 2.347656 -17.113281 2.890625 -17.84375 C 4.109375 -19.457031 5.5 -21.734375 7.0625 -24.671875 C 8.351562 -27.117188 9.476562 -29.523438 10.4375 -31.890625 C 11.007812 -33.304688 11.863281 -34.015625 13 -34.015625 C 13.4375 -34.015625 13.867188 -33.90625 14.296875 -33.6875 C 15.117188 -33.269531 15.53125 -32.585938 15.53125 -31.640625 C 15.53125 -30.410156 14.515625 -27.972656 12.484375 -24.328125 Z M 12.484375 -24.328125 "/></g></g></g><g fill="#ffffff" fill-opacity="1"><g transform="translate(97.320006, 116.251343)"><g><path d="M 31.671875 -13.78125 L 31.671875 -12 L 35.984375 -12.21875 C 36.398438 -12.25 36.757812 -12.148438 37.0625 -11.921875 C 37.40625 -11.671875 37.578125 -11.285156 37.578125 -10.765625 C 37.578125 -9.765625 37.117188 -9.242188 36.203125 -9.203125 L 31.671875 -8.9375 L 31.671875 -7.21875 L 35.984375 -7.421875 L 36.078125 -7.4375 C 36.203125 -7.457031 36.425781 -7.410156 36.75 -7.296875 C 37.320312 -7.109375 37.609375 -6.671875 37.609375 -5.984375 C 37.609375 -4.984375 37.148438 -4.457031 36.234375 -4.40625 L 31.671875 -4.15625 L 31.671875 -2.4375 L 38.171875 -2.765625 C 38.492188 -2.785156 38.789062 -2.734375 39.0625 -2.609375 C 39.664062 -2.316406 39.96875 -1.796875 39.96875 -1.046875 C 39.96875 0.128906 39.40625 0.742188 38.28125 0.796875 L 23.9375 1.5 C 23.894531 1.90625 23.753906 2.238281 23.515625 2.5 C 23.117188 2.96875 22.554688 3.203125 21.828125 3.203125 C 20.972656 3.203125 20.347656 2.90625 19.953125 2.3125 C 19.773438 2.039062 19.6875 1.722656 19.6875 1.359375 L 19.6875 -11.65625 C 18.625 -10.5 17.566406 -9.460938 16.515625 -8.546875 C 16.003906 -8.097656 15.523438 -7.875 15.078125 -7.875 C 14.609375 -7.875 14.210938 -8.078125 13.890625 -8.484375 C 13.628906 -8.816406 13.5 -9.15625 13.5 -9.5 C 13.5 -9.90625 13.65625 -10.3125 13.96875 -10.71875 C 14.050781 -10.820312 14.515625 -11.3125 15.359375 -12.1875 C 17.285156 -14.175781 19.144531 -16.628906 20.9375 -19.546875 L 17.796875 -19.3125 C 17.773438 -19.3125 17.722656 -19.3125 17.640625 -19.3125 C 17.023438 -19.3125 16.539062 -19.519531 16.1875 -19.9375 C 15.882812 -20.289062 15.734375 -20.71875 15.734375 -21.21875 C 15.734375 -22.039062 16.039062 -22.640625 16.65625 -23.015625 C 16.914062 -23.160156 17.207031 -23.25 17.53125 -23.28125 L 23.1875 -23.6875 C 23.769531 -24.832031 24.25 -25.859375 24.625 -26.765625 L 21.671875 -26.5625 C 20.242188 -24.789062 19.128906 -23.90625 18.328125 -23.90625 C 18.003906 -23.90625 17.707031 -24.007812 17.4375 -24.21875 C 16.976562 -24.570312 16.75 -24.988281 16.75 -25.46875 C 16.75 -25.90625 17.03125 -26.46875 17.59375 -27.15625 C 18.882812 -28.738281 20.015625 -30.75 20.984375 -33.1875 C 21.441406 -34.320312 22.144531 -34.890625 23.09375 -34.890625 C 23.519531 -34.890625 23.921875 -34.789062 24.296875 -34.59375 C 25.015625 -34.226562 25.375 -33.660156 25.375 -32.890625 C 25.375 -32.453125 25.113281 -31.769531 24.59375 -30.84375 L 24.53125 -30.71875 L 35.1875 -31.546875 C 35.476562 -31.566406 35.773438 -31.523438 36.078125 -31.421875 C 36.929688 -31.148438 37.359375 -30.535156 37.359375 -29.578125 C 37.359375 -28.890625 37.113281 -28.347656 36.625 -27.953125 C 36.351562 -27.742188 36.023438 -27.628906 35.640625 -27.609375 L 29.453125 -27.125 C 29.203125 -26.320312 28.796875 -25.304688 28.234375 -24.078125 L 38.328125 -24.8125 L 38.46875 -24.828125 C 38.882812 -24.859375 39.296875 -24.75 39.703125 -24.5 C 40.253906 -24.175781 40.53125 -23.625 40.53125 -22.84375 C 40.53125 -22.09375 40.253906 -21.535156 39.703125 -21.171875 C 39.453125 -21.003906 39.148438 -20.90625 38.796875 -20.875 L 25.96875 -19.9375 C 25.3125 -18.851562 24.550781 -17.71875 23.6875 -16.53125 L 28.234375 -16.796875 C 28.554688 -17.398438 28.832031 -18 29.0625 -18.59375 C 29.46875 -19.613281 30.082031 -20.125 30.90625 -20.125 C 31.21875 -20.125 31.523438 -20.050781 31.828125 -19.90625 C 32.609375 -19.539062 33 -19.03125 33 -18.375 C 33 -17.96875 32.785156 -17.523438 32.359375 -17.046875 L 36.765625 -17.3125 C 36.835938 -17.3125 36.898438 -17.3125 36.953125 -17.3125 C 37.921875 -17.3125 38.40625 -16.796875 38.40625 -15.765625 C 38.40625 -14.710938 37.9375 -14.160156 37 -14.109375 Z M 27.625 -13.53125 L 23.9375 -13.3125 L 23.9375 -11.59375 L 27.625 -11.765625 Z M 27.625 -8.71875 L 23.9375 -8.515625 L 23.9375 -6.828125 L 27.625 -7.015625 Z M 27.625 -3.953125 L 23.9375 -3.78125 L 23.9375 -2.046875 L 27.625 -2.234375 Z M 7.546875 -13.1875 C 6.421875 -11.050781 5.347656 -9.265625 4.328125 -7.828125 C 3.804688 -7.109375 3.242188 -6.75 2.640625 -6.75 C 2.273438 -6.75 1.941406 -6.878906 1.640625 -7.140625 C 1.253906 -7.453125 1.0625 -7.84375 1.0625 -8.3125 C 1.0625 -8.71875 1.378906 -9.421875 2.015625 -10.421875 C 3.222656 -12.390625 4.46875 -14.910156 5.75 -17.984375 C 6.34375 -19.453125 6.742188 -20.5 6.953125 -21.125 L 3.8125 -20.796875 C 3.707031 -20.785156 3.613281 -20.78125 3.53125 -20.78125 C 2.582031 -20.78125 1.953125 -21.207031 1.640625 -22.0625 C 1.535156 -22.363281 1.484375 -22.710938 1.484375 -23.109375 C 1.484375 -24.453125 2.046875 -25.175781 3.171875 -25.28125 L 7.546875 -25.703125 L 7.546875 -32.09375 C 7.546875 -32.832031 7.875 -33.378906 8.53125 -33.734375 C 8.9375 -33.953125 9.390625 -34.0625 9.890625 -34.0625 C 10.523438 -34.0625 11.078125 -33.878906 11.546875 -33.515625 C 11.984375 -33.160156 12.203125 -32.6875 12.203125 -32.09375 L 12.203125 -26.140625 L 13.765625 -26.296875 C 13.859375 -26.304688 13.9375 -26.3125 14 -26.3125 C 14.675781 -26.351562 15.207031 -26.128906 15.59375 -25.640625 C 15.882812 -25.253906 16.03125 -24.75 16.03125 -24.125 C 16.03125 -22.78125 15.453125 -22.046875 14.296875 -21.921875 L 12.203125 -21.703125 L 12.203125 -19.21875 C 13.648438 -18.34375 14.757812 -17.550781 15.53125 -16.84375 C 16.101562 -16.300781 16.390625 -15.738281 16.390625 -15.15625 C 16.390625 -14.75 16.238281 -14.375 15.9375 -14.03125 C 15.445312 -13.46875 14.925781 -13.1875 14.375 -13.1875 C 13.800781 -13.1875 13.300781 -13.519531 12.875 -14.1875 C 12.5625 -14.6875 12.335938 -15.015625 12.203125 -15.171875 L 12.203125 0.921875 C 12.203125 1.398438 12.046875 1.804688 11.734375 2.140625 C 11.265625 2.609375 10.640625 2.84375 9.859375 2.84375 C 8.898438 2.84375 8.210938 2.515625 7.796875 1.859375 C 7.628906 1.585938 7.546875 1.273438 7.546875 0.921875 Z M 7.546875 -13.1875 "/></g></g></g><g fill="#ffffff" fill-opacity="1"><g transform="translate(138.480007, 116.251343)"><g><path d="M 31.421875 -4.453125 L 22.1875 -3.890625 L 22.1875 1.203125 C 22.1875 2.503906 21.484375 3.15625 20.078125 3.15625 C 18.578125 3.15625 17.828125 2.503906 17.828125 1.203125 L 17.828125 -15.421875 C 17.828125 -16.628906 18.578125 -17.234375 20.078125 -17.234375 C 20.921875 -17.234375 21.53125 -16.976562 21.90625 -16.46875 L 32.46875 -17.3125 C 32.6875 -17.320312 32.828125 -17.328125 32.890625 -17.328125 C 34.878906 -17.328125 35.875 -16.296875 35.875 -14.234375 L 35.875 0 C 35.875 2.351562 34.875 3.53125 32.875 3.53125 C 32.03125 3.53125 30.828125 3.207031 29.265625 2.5625 C 28.347656 2.175781 27.601562 1.804688 27.03125 1.453125 C 26.46875 1.109375 26.1875 0.695312 26.1875 0.21875 C 26.1875 -0.625 26.625 -1.046875 27.5 -1.046875 C 27.707031 -1.046875 27.992188 -1.007812 28.359375 -0.9375 C 29.253906 -0.757812 29.972656 -0.671875 30.515625 -0.671875 C 31.117188 -0.671875 31.421875 -0.992188 31.421875 -1.640625 Z M 31.421875 -12.359375 L 31.421875 -13.140625 C 31.421875 -13.734375 31.082031 -14.003906 30.40625 -13.953125 L 22.1875 -13.296875 L 22.1875 -11.6875 Z M 31.421875 -9.3125 L 22.1875 -8.671875 L 22.1875 -6.96875 L 31.421875 -7.5625 Z M 28.609375 -32.09375 L 35.375 -32.671875 L 35.546875 -32.6875 C 36.640625 -32.6875 37.1875 -32.132812 37.1875 -31.03125 C 37.1875 -29.945312 36.648438 -29.359375 35.578125 -29.265625 L 28.609375 -28.6875 L 28.609375 -27.125 L 34.34375 -27.609375 C 34.425781 -27.609375 34.484375 -27.609375 34.515625 -27.609375 C 35.554688 -27.609375 36.078125 -27.113281 36.078125 -26.125 C 36.078125 -25.113281 35.578125 -24.566406 34.578125 -24.484375 L 28.609375 -24.03125 L 28.609375 -22.375 L 38.640625 -23.09375 C 38.742188 -23.101562 38.804688 -23.109375 38.828125 -23.109375 C 39.929688 -23.109375 40.484375 -22.550781 40.484375 -21.4375 C 40.484375 -20.269531 39.941406 -19.644531 38.859375 -19.5625 L 15.078125 -17.890625 C 15.003906 -17.890625 14.945312 -17.890625 14.90625 -17.890625 C 13.8125 -17.890625 13.265625 -18.445312 13.265625 -19.5625 C 13.265625 -20.695312 13.8125 -21.300781 14.90625 -21.375 L 23.90625 -22.03125 L 23.90625 -23.671875 L 18.703125 -23.28125 C 18.597656 -23.257812 18.523438 -23.25 18.484375 -23.25 C 17.484375 -23.25 16.984375 -23.742188 16.984375 -24.734375 C 16.984375 -25.710938 17.484375 -26.242188 18.484375 -26.328125 L 23.90625 -26.765625 L 23.90625 -28.28125 L 17.671875 -27.765625 C 17.566406 -27.753906 17.507812 -27.75 17.5 -27.75 C 16.382812 -27.75 15.828125 -28.300781 15.828125 -29.40625 C 15.828125 -30.488281 16.363281 -31.078125 17.4375 -31.171875 L 23.90625 -31.703125 L 23.90625 -33.640625 C 23.90625 -34.390625 24.242188 -34.914062 24.921875 -35.21875 C 25.316406 -35.40625 25.757812 -35.5 26.25 -35.5 C 26.945312 -35.5 27.519531 -35.328125 27.96875 -34.984375 C 28.394531 -34.640625 28.609375 -34.191406 28.609375 -33.640625 Z M 3.796875 -26.421875 C 4.546875 -26.421875 5.023438 -26.0625 5.234375 -25.34375 C 5.359375 -24.945312 5.421875 -23.570312 5.421875 -21.21875 C 5.421875 -19.0625 5.3125 -17.296875 5.09375 -15.921875 C 4.894531 -14.671875 4.222656 -14.046875 3.078125 -14.046875 C 2.648438 -14.046875 2.257812 -14.15625 1.90625 -14.375 C 1.375 -14.707031 1.109375 -15.207031 1.109375 -15.875 C 1.109375 -16.125 1.171875 -16.523438 1.296875 -17.078125 C 1.828125 -19.503906 2.132812 -21.976562 2.21875 -24.5 C 2.269531 -25.78125 2.796875 -26.421875 3.796875 -26.421875 Z M 12.421875 -29.40625 C 13.160156 -29.40625 14.222656 -28.140625 15.609375 -25.609375 C 15.890625 -25.109375 16.03125 -24.640625 16.03125 -24.203125 C 16.03125 -23.460938 15.753906 -22.925781 15.203125 -22.59375 C 14.898438 -22.40625 14.535156 -22.3125 14.109375 -22.3125 C 13.222656 -22.3125 12.632812 -22.914062 12.34375 -24.125 C 12.207031 -24.664062 11.9375 -25.628906 11.53125 -27.015625 C 11.363281 -27.546875 11.28125 -27.929688 11.28125 -28.171875 C 11.28125 -28.628906 11.457031 -28.976562 11.8125 -29.21875 C 12 -29.34375 12.203125 -29.40625 12.421875 -29.40625 Z M 11.09375 -32.75 L 11.09375 0.765625 C 11.09375 1.140625 11.003906 1.476562 10.828125 1.78125 C 10.421875 2.4375 9.769531 2.765625 8.875 2.765625 C 7.9375 2.765625 7.273438 2.425781 6.890625 1.75 C 6.722656 1.457031 6.640625 1.128906 6.640625 0.765625 L 6.640625 -32.75 C 6.640625 -33.570312 6.988281 -34.164062 7.6875 -34.53125 C 8.0625 -34.726562 8.453125 -34.828125 8.859375 -34.828125 C 9.390625 -34.828125 9.863281 -34.679688 10.28125 -34.390625 C 10.820312 -34.003906 11.09375 -33.457031 11.09375 -32.75 Z M 11.09375 -32.75 "/></g></g></g><g fill="#ffffff" fill-opacity="1"><g transform="translate(179.640008, 116.251343)"><g><path d="M 14.0625 -11.625 L 14.0625 -8.75 L 19.109375 -9.25 C 19.171875 -9.25 19.25 -9.25 19.34375 -9.25 C 20.476562 -9.25 21.046875 -8.585938 21.046875 -7.265625 C 21.046875 -5.972656 20.441406 -5.273438 19.234375 -5.171875 L 14.0625 -4.71875 L 14.0625 1 C 14.0625 1.507812 13.90625 1.945312 13.59375 2.3125 C 13.144531 2.820312 12.515625 3.078125 11.703125 3.078125 C 10.710938 3.078125 10.019531 2.710938 9.625 1.984375 C 9.457031 1.703125 9.375 1.375 9.375 1 L 9.375 -4.28125 L 3.65625 -3.78125 C 3.570312 -3.78125 3.472656 -3.78125 3.359375 -3.78125 C 2.265625 -3.832031 1.71875 -4.488281 1.71875 -5.75 C 1.71875 -6.988281 2.320312 -7.660156 3.53125 -7.765625 L 9.375 -8.328125 L 9.375 -11.171875 L 4.796875 -10.75 C 4.703125 -10.75 4.609375 -10.75 4.515625 -10.75 C 3.378906 -10.800781 2.8125 -11.503906 2.8125 -12.859375 C 2.8125 -13.984375 3.382812 -14.597656 4.53125 -14.703125 L 5.84375 -14.828125 C 5.832031 -14.910156 5.804688 -15.066406 5.765625 -15.296875 C 5.585938 -16.304688 5.390625 -17.21875 5.171875 -18.03125 C 5.085938 -18.300781 5.046875 -18.53125 5.046875 -18.71875 C 5.046875 -18.800781 5.0625 -18.890625 5.09375 -18.984375 L 3 -18.828125 C 2.894531 -18.816406 2.789062 -18.8125 2.6875 -18.8125 C 1.5625 -18.8125 1 -19.445312 1 -20.71875 C 1 -21.988281 1.585938 -22.671875 2.765625 -22.765625 L 9.046875 -23.296875 L 9.046875 -25.8125 L 4.921875 -25.453125 C 4.890625 -25.453125 4.804688 -25.453125 4.671875 -25.453125 C 4.128906 -25.453125 3.691406 -25.632812 3.359375 -26 C 3.054688 -26.351562 2.90625 -26.820312 2.90625 -27.40625 C 2.90625 -28.6875 3.507812 -29.378906 4.71875 -29.484375 L 9.046875 -29.875 L 9.046875 -33.140625 C 9.046875 -33.941406 9.40625 -34.523438 10.125 -34.890625 C 10.507812 -35.066406 10.914062 -35.15625 11.34375 -35.15625 C 12.144531 -35.15625 12.765625 -34.898438 13.203125 -34.390625 C 13.503906 -34.046875 13.65625 -33.628906 13.65625 -33.140625 L 13.65625 -30.296875 L 16.921875 -30.578125 C 17.484375 -30.628906 17.941406 -30.519531 18.296875 -30.25 C 18.753906 -29.894531 18.984375 -29.351562 18.984375 -28.625 C 18.984375 -27.34375 18.382812 -26.644531 17.1875 -26.53125 L 13.65625 -26.234375 L 13.65625 -23.703125 L 19.28125 -24.203125 C 19.34375 -24.203125 19.425781 -24.203125 19.53125 -24.203125 C 20.695312 -24.203125 21.28125 -23.566406 21.28125 -22.296875 C 21.28125 -20.992188 20.695312 -20.296875 19.53125 -20.203125 L 17.390625 -20.015625 C 18.003906 -19.578125 18.3125 -19.050781 18.3125 -18.4375 C 18.3125 -18.125 18.203125 -17.789062 17.984375 -17.4375 C 17.765625 -17.101562 17.390625 -16.578125 16.859375 -15.859375 L 18.109375 -15.953125 C 18.234375 -15.960938 18.316406 -15.96875 18.359375 -15.96875 C 19.503906 -15.96875 20.078125 -15.332031 20.078125 -14.0625 C 20.078125 -12.8125 19.472656 -12.128906 18.265625 -12.015625 Z M 14.609375 -19.796875 L 7.59375 -19.203125 C 8.1875 -18.679688 8.757812 -17.929688 9.3125 -16.953125 C 9.695312 -16.273438 9.890625 -15.765625 9.890625 -15.421875 C 9.890625 -15.347656 9.890625 -15.273438 9.890625 -15.203125 L 12.859375 -15.46875 C 13.421875 -16.9375 13.8125 -17.976562 14.03125 -18.59375 C 14.21875 -19.15625 14.410156 -19.554688 14.609375 -19.796875 Z M 21.546875 -27.78125 C 20.929688 -28.144531 20.625 -28.816406 20.625 -29.796875 C 20.625 -31.066406 21.242188 -31.769531 22.484375 -31.90625 L 34.1875 -33.21875 C 34.445312 -33.25 34.710938 -33.265625 34.984375 -33.265625 C 37.109375 -33.265625 38.171875 -32.144531 38.171875 -29.90625 C 38.171875 -29.1875 38.03125 -27.96875 37.75 -26.25 C 37.46875 -24.445312 37.085938 -23.117188 36.609375 -22.265625 C 36.003906 -21.203125 35.046875 -20.671875 33.734375 -20.671875 C 32.546875 -20.671875 31.140625 -21.132812 29.515625 -22.0625 C 28.773438 -22.488281 28.40625 -22.988281 28.40625 -23.5625 C 28.40625 -23.894531 28.472656 -24.175781 28.609375 -24.40625 C 28.835938 -24.789062 29.164062 -24.984375 29.59375 -24.984375 C 29.726562 -24.984375 29.925781 -24.941406 30.1875 -24.859375 C 30.769531 -24.691406 31.28125 -24.609375 31.71875 -24.609375 C 32.300781 -24.609375 32.660156 -24.832031 32.796875 -25.28125 C 33.109375 -26.238281 33.265625 -27.210938 33.265625 -28.203125 C 33.265625 -28.554688 33.066406 -28.734375 32.671875 -28.734375 C 32.617188 -28.734375 32.578125 -28.734375 32.546875 -28.734375 L 26.09375 -28.03125 L 26.09375 -18.359375 L 34.53125 -19.15625 C 34.820312 -19.1875 35.050781 -19.203125 35.21875 -19.203125 C 37.300781 -19.203125 38.34375 -18.222656 38.34375 -16.265625 C 38.34375 -15.453125 38.070312 -14.222656 37.53125 -12.578125 C 36.738281 -10.066406 35.710938 -7.617188 34.453125 -5.234375 C 36.296875 -3.242188 38.0625 -1.710938 39.75 -0.640625 C 40.59375 -0.0859375 41.015625 0.378906 41.015625 0.765625 C 41.015625 1.078125 40.710938 1.363281 40.109375 1.625 C 38.710938 2.207031 37.59375 2.5 36.75 2.5 C 36.0625 2.5 35.40625 2.171875 34.78125 1.515625 C 33.957031 0.640625 33.101562 -0.382812 32.21875 -1.5625 C 31.125 0 30.179688 1.179688 29.390625 1.984375 C 28.859375 2.535156 28.335938 2.8125 27.828125 2.8125 C 27.359375 2.8125 26.960938 2.613281 26.640625 2.21875 C 26.378906 1.914062 26.25 1.597656 26.25 1.265625 C 26.25 0.828125 26.515625 0.234375 27.046875 -0.515625 C 27.742188 -1.484375 28.550781 -2.800781 29.46875 -4.46875 L 29.75 -5 C 28.519531 -6.832031 27.488281 -8.722656 26.65625 -10.671875 C 26.382812 -11.304688 26.25 -11.8125 26.25 -12.1875 C 26.25 -12.644531 26.429688 -13 26.796875 -13.25 C 27.128906 -13.457031 27.457031 -13.5625 27.78125 -13.5625 C 28.382812 -13.5625 28.945312 -13.082031 29.46875 -12.125 C 29.90625 -11.300781 30.625 -10.164062 31.625 -8.71875 C 32.25 -10.289062 32.734375 -11.828125 33.078125 -13.328125 C 33.191406 -13.796875 33.25 -14.117188 33.25 -14.296875 C 33.25 -14.648438 33.078125 -14.820312 32.734375 -14.8125 C 32.660156 -14.8125 32.570312 -14.800781 32.46875 -14.78125 L 26.09375 -14.0625 L 26.09375 1.765625 C 26.09375 3.046875 25.335938 3.6875 23.828125 3.6875 C 22.304688 3.6875 21.546875 3.046875 21.546875 1.765625 Z M 21.546875 -27.78125 "/></g></g></g></svg>