<svg xmlns="http://www.w3.org/2000/svg" xmlns:xlink="http://www.w3.org/1999/xlink" width="600" zoomAndPan="magnify" viewBox="0 0 450 149.999998" height="200" preserveAspectRatio="xMidYMid meet" version="1.0"><defs><g/><clipPath id="798a5b6bf4"><path d="M 0 5.402344 L 450 5.402344 L 450 144.597656 L 0 144.597656 Z M 0 5.402344 " clip-rule="nonzero"/></clipPath><clipPath id="00d0631bfc"><path d="M 7.714844 5.402344 L 380.402344 5.402344 C 398.859375 5.402344 416.5625 12.734375 429.613281 25.785156 C 442.667969 38.839844 450 56.542969 450 75 C 450 93.457031 442.667969 111.160156 429.613281 124.214844 C 416.5625 137.265625 398.859375 144.597656 380.402344 144.597656 L 7.714844 144.597656 C -10.742188 144.597656 -28.445312 137.265625 -41.496094 124.214844 C -54.550781 111.160156 -61.882812 93.457031 -61.882812 75 C -61.882812 56.542969 -54.550781 38.839844 -41.496094 25.785156 C -28.445312 12.734375 -10.742188 5.402344 7.714844 5.402344 Z M 7.714844 5.402344 " clip-rule="nonzero"/></clipPath><clipPath id="7d4f3267ed"><path d="M 0 0.402344 L 450 0.402344 L 450 139.597656 L 0 139.597656 Z M 0 0.402344 " clip-rule="nonzero"/></clipPath><clipPath id="75a63b470e"><path d="M 7.714844 0.402344 L 380.402344 0.402344 C 398.859375 0.402344 416.5625 7.734375 429.613281 20.785156 C 442.667969 33.839844 450 51.542969 450 70 C 450 88.457031 442.667969 106.160156 429.613281 119.214844 C 416.5625 132.265625 398.859375 139.597656 380.402344 139.597656 L 7.714844 139.597656 C -10.742188 139.597656 -28.445312 132.265625 -41.496094 119.214844 C -54.550781 106.160156 -61.882812 88.457031 -61.882812 70 C -61.882812 51.542969 -54.550781 33.839844 -41.496094 20.785156 C -28.445312 7.734375 -10.742188 0.402344 7.714844 0.402344 Z M 7.714844 0.402344 " clip-rule="nonzero"/></clipPath><clipPath id="17f0781664"><rect x="0" width="450" y="0" height="140"/></clipPath></defs><g clip-path="url(#798a5b6bf4)"><g clip-path="url(#00d0631bfc)"><g transform="matrix(1, 0, 0, 1, 0, 5)"><g clip-path="url(#17f0781664)"><g clip-path="url(#7d4f3267ed)"><g clip-path="url(#75a63b470e)"><path fill="#22a76e" d="M -61.882812 0.402344 L 449.78125 0.402344 L 449.78125 139.597656 L -61.882812 139.597656 Z M -61.882812 0.402344 " fill-opacity="1" fill-rule="nonzero"/></g></g></g></g></g></g><g fill="#ffffff" fill-opacity="1"><g transform="translate(15.000003, 57.751376)"><g><path d="M 18.6875 -15.921875 C 14.707031 -15.679688 10.421875 -15.378906 5.828125 -15.015625 C 5.472656 -14.984375 5.238281 -14.96875 5.125 -14.96875 C 4.113281 -14.96875 3.414062 -15.363281 3.03125 -16.15625 C 2.84375 -16.53125 2.75 -16.976562 2.75 -17.5 C 2.75 -18.851562 3.472656 -19.609375 4.921875 -19.765625 C 6.796875 -19.984375 15.484375 -20.503906 30.984375 -21.328125 C 33.859375 -21.472656 35.347656 -21.546875 35.453125 -21.546875 C 36.234375 -21.546875 36.847656 -21.316406 37.296875 -20.859375 C 37.710938 -20.429688 37.921875 -19.863281 37.921875 -19.15625 C 37.921875 -17.9375 37.445312 -17.164062 36.5 -16.84375 C 36.195312 -16.738281 35.617188 -16.675781 34.765625 -16.65625 C 32.878906 -16.601562 29.6875 -16.476562 25.1875 -16.28125 L 24.171875 -16.265625 C 23.941406 -9.796875 21.984375 -4.875 18.296875 -1.5 C 16.160156 0.457031 14.476562 1.4375 13.25 1.4375 C 12.644531 1.4375 12.160156 1.195312 11.796875 0.71875 C 11.460938 0.28125 11.296875 -0.15625 11.296875 -0.59375 C 11.296875 -1.125 11.507812 -1.597656 11.9375 -2.015625 C 12.070312 -2.160156 12.503906 -2.507812 13.234375 -3.0625 C 15.484375 -4.769531 17.039062 -7.175781 17.90625 -10.28125 C 18.3125 -11.78125 18.570312 -13.660156 18.6875 -15.921875 Z M 27.515625 -31.9375 C 28.148438 -31.9375 28.675781 -31.753906 29.09375 -31.390625 C 29.632812 -30.941406 29.90625 -30.320312 29.90625 -29.53125 C 29.90625 -28.164062 29.21875 -27.363281 27.84375 -27.125 C 27.070312 -27.007812 25.515625 -26.851562 23.171875 -26.65625 C 18.890625 -26.300781 15.359375 -26.125 12.578125 -26.125 C 10.535156 -26.125 9.515625 -26.953125 9.515625 -28.609375 C 9.515625 -29.566406 9.90625 -30.238281 10.6875 -30.625 C 11.113281 -30.820312 12.03125 -30.921875 13.4375 -30.921875 C 16.800781 -30.910156 20.191406 -31.085938 23.609375 -31.453125 C 24.359375 -31.535156 25.300781 -31.660156 26.4375 -31.828125 C 26.957031 -31.898438 27.316406 -31.9375 27.515625 -31.9375 Z M 32.171875 -33.53125 C 32.941406 -33.53125 34.175781 -32.765625 35.875 -31.234375 C 37.300781 -29.929688 38.015625 -28.898438 38.015625 -28.140625 C 38.015625 -27.609375 37.785156 -27.148438 37.328125 -26.765625 C 36.953125 -26.460938 36.535156 -26.3125 36.078125 -26.3125 C 35.441406 -26.3125 34.960938 -26.582031 34.640625 -27.125 C 33.753906 -28.59375 32.726562 -29.925781 31.5625 -31.125 C 31.175781 -31.519531 30.984375 -31.929688 30.984375 -32.359375 C 30.984375 -33.140625 31.378906 -33.53125 32.171875 -33.53125 Z M 36.03125 -36.609375 C 36.851562 -36.609375 38.035156 -35.957031 39.578125 -34.65625 C 41.015625 -33.457031 41.734375 -32.441406 41.734375 -31.609375 C 41.734375 -31.015625 41.507812 -30.546875 41.0625 -30.203125 C 40.726562 -29.960938 40.359375 -29.84375 39.953125 -29.84375 C 39.359375 -29.84375 38.835938 -30.179688 38.390625 -30.859375 C 37.660156 -31.972656 36.679688 -33.109375 35.453125 -34.265625 C 35.015625 -34.691406 34.796875 -35.109375 34.796875 -35.515625 C 34.796875 -35.773438 34.90625 -36.023438 35.125 -36.265625 C 35.34375 -36.492188 35.644531 -36.609375 36.03125 -36.609375 Z M 36.03125 -36.609375 "/></g></g></g><g fill="#ffffff" fill-opacity="1"><g transform="translate(56.160004, 57.751376)"><g><path d="M 11.328125 -31.515625 C 12.566406 -31.515625 14.632812 -30.628906 17.53125 -28.859375 C 18.40625 -28.328125 19.050781 -27.890625 19.46875 -27.546875 C 20.257812 -26.898438 20.65625 -26.140625 20.65625 -25.265625 C 20.65625 -24.691406 20.445312 -24.148438 20.03125 -23.640625 C 19.414062 -22.898438 18.703125 -22.53125 17.890625 -22.53125 C 17.191406 -22.53125 16.472656 -22.910156 15.734375 -23.671875 C 14.523438 -24.910156 12.738281 -26.382812 10.375 -28.09375 C 9.65625 -28.625 9.296875 -29.191406 9.296875 -29.796875 C 9.296875 -30.128906 9.394531 -30.453125 9.59375 -30.765625 C 9.945312 -31.265625 10.523438 -31.515625 11.328125 -31.515625 Z M 6.359375 -22.234375 C 7.203125 -22.234375 8.445312 -21.929688 10.09375 -21.328125 C 12.019531 -20.628906 13.625 -19.8125 14.90625 -18.875 C 15.800781 -18.21875 16.25 -17.414062 16.25 -16.46875 C 16.25 -15.882812 16.039062 -15.320312 15.625 -14.78125 C 15.09375 -14.070312 14.40625 -13.71875 13.5625 -13.71875 C 12.945312 -13.71875 12.25 -14.03125 11.46875 -14.65625 C 9.914062 -15.9375 7.925781 -17.265625 5.5 -18.640625 C 4.6875 -19.109375 4.28125 -19.695312 4.28125 -20.40625 C 4.28125 -20.726562 4.367188 -21.050781 4.546875 -21.375 C 4.878906 -21.945312 5.484375 -22.234375 6.359375 -22.234375 Z M 35.5 -23.578125 C 35.894531 -23.578125 36.285156 -23.46875 36.671875 -23.25 C 37.347656 -22.851562 37.6875 -22.269531 37.6875 -21.5 C 37.6875 -20.71875 37.046875 -19.257812 35.765625 -17.125 C 33.648438 -13.582031 30.765625 -10.335938 27.109375 -7.390625 C 22.742188 -3.859375 17.90625 -1.191406 12.59375 0.609375 C 11.988281 0.816406 11.484375 0.921875 11.078125 0.921875 C 9.992188 0.921875 9.203125 0.429688 8.703125 -0.546875 C 8.453125 -1.023438 8.328125 -1.5 8.328125 -1.96875 C 8.328125 -2.988281 8.796875 -3.753906 9.734375 -4.265625 C 9.878906 -4.335938 10.769531 -4.660156 12.40625 -5.234375 C 16.832031 -6.773438 20.96875 -9.078125 24.8125 -12.140625 C 28.507812 -15.078125 31.359375 -18.375 33.359375 -22.03125 C 33.941406 -23.0625 34.65625 -23.578125 35.5 -23.578125 Z M 30.359375 -32.6875 C 31.117188 -32.6875 32.335938 -31.921875 34.015625 -30.390625 C 35.453125 -29.085938 36.171875 -28.054688 36.171875 -27.296875 C 36.171875 -26.765625 35.941406 -26.304688 35.484375 -25.921875 C 35.109375 -25.617188 34.691406 -25.46875 34.234375 -25.46875 C 33.617188 -25.46875 33.09375 -25.820312 32.65625 -26.53125 C 31.851562 -27.832031 30.878906 -29.085938 29.734375 -30.296875 C 29.347656 -30.691406 29.15625 -31.097656 29.15625 -31.515625 C 29.15625 -32.296875 29.554688 -32.6875 30.359375 -32.6875 Z M 34.625 -35.78125 C 35.4375 -35.78125 36.617188 -35.132812 38.171875 -33.84375 C 39.597656 -32.632812 40.3125 -31.613281 40.3125 -30.78125 C 40.3125 -30.164062 40.085938 -29.695312 39.640625 -29.375 C 39.296875 -29.125 38.925781 -29 38.53125 -29 C 37.945312 -29 37.425781 -29.34375 36.96875 -30.03125 C 36.21875 -31.144531 35.242188 -32.285156 34.046875 -33.453125 C 33.609375 -33.867188 33.390625 -34.273438 33.390625 -34.671875 C 33.390625 -34.953125 33.5 -35.207031 33.71875 -35.4375 C 33.9375 -35.664062 34.238281 -35.78125 34.625 -35.78125 Z M 34.625 -35.78125 "/></g></g></g><g fill="#ffffff" fill-opacity="1"><g transform="translate(97.320006, 57.751376)"><g><path d="M 22.515625 -30.53125 L 30.296875 -30.828125 L 30.625 -30.84375 C 33.144531 -30.84375 34.40625 -29.765625 34.40625 -27.609375 C 34.40625 -26.953125 34.242188 -26.039062 33.921875 -24.875 C 31.210938 -15.332031 25.675781 -7.765625 17.3125 -2.171875 C 14.03125 0.015625 11.785156 1.109375 10.578125 1.109375 C 9.953125 1.109375 9.460938 0.832031 9.109375 0.28125 C 8.859375 -0.09375 8.734375 -0.453125 8.734375 -0.796875 C 8.734375 -1.347656 8.992188 -1.847656 9.515625 -2.296875 C 9.691406 -2.441406 10.1875 -2.765625 11 -3.265625 C 15.007812 -5.722656 18.5 -8.613281 21.46875 -11.9375 C 19.5 -13.957031 17.707031 -15.613281 16.09375 -16.90625 C 15.34375 -17.488281 14.96875 -18.066406 14.96875 -18.640625 C 14.96875 -18.992188 15.082031 -19.328125 15.3125 -19.640625 C 15.695312 -20.148438 16.207031 -20.40625 16.84375 -20.40625 C 17.351562 -20.40625 17.988281 -20.234375 18.75 -19.890625 C 20.914062 -18.921875 22.882812 -17.710938 24.65625 -16.265625 C 26.363281 -19.023438 27.59375 -21.710938 28.34375 -24.328125 C 28.5625 -25.078125 28.671875 -25.539062 28.671875 -25.71875 C 28.671875 -26.019531 28.453125 -26.171875 28.015625 -26.171875 C 27.972656 -26.171875 27.929688 -26.171875 27.890625 -26.171875 L 20.28125 -25.78125 C 17.4375 -21.988281 14.523438 -19.097656 11.546875 -17.109375 C 10.585938 -16.460938 9.796875 -16.140625 9.171875 -16.140625 C 8.597656 -16.140625 8.160156 -16.363281 7.859375 -16.8125 C 7.648438 -17.113281 7.546875 -17.441406 7.546875 -17.796875 C 7.546875 -18.273438 7.742188 -18.757812 8.140625 -19.25 C 8.273438 -19.414062 8.695312 -19.820312 9.40625 -20.46875 C 11.78125 -22.625 13.929688 -25.253906 15.859375 -28.359375 C 16.367188 -29.210938 16.828125 -30.035156 17.234375 -30.828125 C 17.804688 -31.984375 18.664062 -32.5625 19.8125 -32.5625 C 20.632812 -32.5625 21.316406 -32.28125 21.859375 -31.71875 C 22.171875 -31.40625 22.390625 -31.007812 22.515625 -30.53125 Z M 22.515625 -30.53125 "/></g></g></g><g fill="#ffffff" fill-opacity="1"><g transform="translate(138.480007, 57.751376)"><g><path d="M 12.859375 -27.890625 C 14.597656 -27.890625 15.46875 -26.898438 15.46875 -24.921875 C 15.46875 -17.804688 14.140625 -12.085938 11.484375 -7.765625 C 10.359375 -5.921875 9.019531 -4.390625 7.46875 -3.171875 C 6.90625 -2.734375 6.300781 -2.515625 5.65625 -2.515625 C 5.21875 -2.515625 4.828125 -2.664062 4.484375 -2.96875 C 4.085938 -3.320312 3.890625 -3.757812 3.890625 -4.28125 C 3.890625 -4.875 4.160156 -5.476562 4.703125 -6.09375 C 6.910156 -8.632812 8.421875 -11.671875 9.234375 -15.203125 C 9.859375 -17.941406 10.175781 -21.269531 10.1875 -25.1875 C 10.207031 -25.988281 10.394531 -26.597656 10.75 -27.015625 C 11.269531 -27.597656 11.972656 -27.890625 12.859375 -27.890625 Z M 24.65625 -29.40625 L 24.65625 -8.484375 C 24.65625 -7.953125 24.773438 -7.6875 25.015625 -7.6875 C 25.523438 -7.6875 26.847656 -8.425781 28.984375 -9.90625 C 32.015625 -11.96875 34.515625 -14.085938 36.484375 -16.265625 C 37.171875 -17.023438 37.8125 -17.40625 38.40625 -17.40625 C 38.90625 -17.40625 39.394531 -17.207031 39.875 -16.8125 C 40.332031 -16.4375 40.5625 -15.925781 40.5625 -15.28125 C 40.5625 -14.71875 40.335938 -14.125 39.890625 -13.5 C 38.304688 -11.289062 35.90625 -8.925781 32.6875 -6.40625 C 30.175781 -4.414062 27.773438 -2.863281 25.484375 -1.75 C 24.628906 -1.320312 23.875 -1.109375 23.21875 -1.109375 C 22.488281 -1.109375 21.765625 -1.359375 21.046875 -1.859375 C 20.003906 -2.585938 19.484375 -3.734375 19.484375 -5.296875 L 19.484375 -29.40625 C 19.484375 -30.3125 19.875 -30.972656 20.65625 -31.390625 C 21.0625 -31.628906 21.507812 -31.75 22 -31.75 C 22.757812 -31.75 23.390625 -31.535156 23.890625 -31.109375 C 24.398438 -30.671875 24.65625 -30.101562 24.65625 -29.40625 Z M 24.65625 -29.40625 "/></g></g></g><g fill="#ffffff" fill-opacity="1"><g transform="translate(179.640008, 57.751376)"><g><path d="M 27.3125 -8.78125 C 27.75 -11.820312 28.296875 -16.207031 28.953125 -21.9375 C 28.984375 -22.226562 29 -22.425781 29 -22.53125 C 29 -22.914062 28.785156 -23.109375 28.359375 -23.109375 C 28.171875 -23.109375 27.722656 -23.078125 27.015625 -23.015625 C 26.015625 -22.910156 23.835938 -22.734375 20.484375 -22.484375 C 16.703125 -22.179688 13.507812 -21.90625 10.90625 -21.65625 C 10.625 -21.625 10.40625 -21.609375 10.25 -21.609375 C 9.488281 -21.609375 8.878906 -21.847656 8.421875 -22.328125 C 8.046875 -22.742188 7.859375 -23.28125 7.859375 -23.9375 C 7.859375 -25.113281 8.296875 -25.898438 9.171875 -26.296875 C 9.472656 -26.429688 10.238281 -26.546875 11.46875 -26.640625 C 22.8125 -27.566406 28.898438 -28.070312 29.734375 -28.15625 C 29.984375 -28.1875 30.191406 -28.203125 30.359375 -28.203125 C 32.109375 -28.203125 33.316406 -27.460938 33.984375 -25.984375 C 34.222656 -25.429688 34.34375 -24.84375 34.34375 -24.21875 C 34.34375 -24.03125 34.296875 -23.519531 34.203125 -22.6875 C 33.441406 -16.320312 32.863281 -11.6875 32.46875 -8.78125 C 33.363281 -8.394531 33.8125 -7.648438 33.8125 -6.546875 C 33.8125 -5.453125 33.332031 -4.71875 32.375 -4.34375 C 32.019531 -4.207031 31.242188 -4.113281 30.046875 -4.0625 C 26.210938 -3.882812 19.71875 -3.445312 10.5625 -2.75 C 10.269531 -2.71875 10.066406 -2.703125 9.953125 -2.703125 C 8.359375 -2.703125 7.5625 -3.53125 7.5625 -5.1875 C 7.5625 -6.632812 8.300781 -7.445312 9.78125 -7.625 C 11.382812 -7.820312 17.226562 -8.207031 27.3125 -8.78125 Z M 27.3125 -8.78125 "/></g></g></g><g fill="#ffffff" fill-opacity="1"><g transform="translate(220.80001, 57.751376)"><g><path d="M 9.4375 -29.453125 C 10 -29.453125 10.960938 -29.207031 12.328125 -28.71875 C 14.878906 -27.8125 16.988281 -26.742188 18.65625 -25.515625 C 19.53125 -24.867188 19.96875 -24.066406 19.96875 -23.109375 C 19.96875 -22.578125 19.800781 -22.046875 19.46875 -21.515625 C 18.945312 -20.722656 18.25 -20.328125 17.375 -20.328125 C 16.625 -20.328125 15.796875 -20.675781 14.890625 -21.375 C 12.609375 -23.175781 10.53125 -24.609375 8.65625 -25.671875 C 7.707031 -26.203125 7.234375 -26.832031 7.234375 -27.5625 C 7.234375 -28.820312 7.96875 -29.453125 9.4375 -29.453125 Z M 35.8125 -22.890625 C 36.269531 -22.890625 36.710938 -22.734375 37.140625 -22.421875 C 37.703125 -22.003906 37.984375 -21.445312 37.984375 -20.75 C 37.984375 -20.175781 37.753906 -19.554688 37.296875 -18.890625 C 34.160156 -14.179688 30.015625 -10.109375 24.859375 -6.671875 C 20.566406 -3.804688 16.132812 -1.757812 11.5625 -0.53125 C 11.082031 -0.40625 10.664062 -0.34375 10.3125 -0.34375 C 9.15625 -0.34375 8.328125 -0.878906 7.828125 -1.953125 C 7.609375 -2.429688 7.5 -2.890625 7.5 -3.328125 C 7.5 -4.316406 8 -5.0625 9 -5.5625 C 9.207031 -5.65625 10.117188 -5.941406 11.734375 -6.421875 C 17.609375 -8.140625 23.082031 -11.242188 28.15625 -15.734375 C 30.09375 -17.453125 31.925781 -19.410156 33.65625 -21.609375 C 34.3125 -22.460938 35.03125 -22.890625 35.8125 -22.890625 Z M 35.8125 -22.890625 "/></g></g></g><g fill="#ffffff" fill-opacity="1"><g transform="translate(261.960011, 57.751376)"><g><path d="M 19.3125 -15.921875 C 15.332031 -15.679688 11.046875 -15.378906 6.453125 -15.015625 C 6.097656 -14.984375 5.867188 -14.96875 5.765625 -14.96875 C 4.753906 -14.96875 4.054688 -15.363281 3.671875 -16.15625 C 3.484375 -16.53125 3.390625 -16.976562 3.390625 -17.5 C 3.390625 -18.851562 4.113281 -19.609375 5.5625 -19.765625 C 7.4375 -19.984375 16.125 -20.503906 31.625 -21.328125 C 34.5 -21.472656 35.988281 -21.546875 36.09375 -21.546875 C 36.875 -21.546875 37.488281 -21.316406 37.9375 -20.859375 C 38.351562 -20.429688 38.5625 -19.863281 38.5625 -19.15625 C 38.5625 -17.9375 38.085938 -17.164062 37.140625 -16.84375 C 36.835938 -16.738281 36.253906 -16.675781 35.390625 -16.65625 C 33.503906 -16.601562 30.3125 -16.476562 25.8125 -16.28125 L 24.8125 -16.265625 C 24.582031 -9.796875 22.617188 -4.875 18.921875 -1.5 C 16.796875 0.457031 15.117188 1.4375 13.890625 1.4375 C 13.285156 1.4375 12.796875 1.195312 12.421875 0.71875 C 12.097656 0.28125 11.9375 -0.15625 11.9375 -0.59375 C 11.9375 -1.125 12.148438 -1.597656 12.578125 -2.015625 C 12.710938 -2.160156 13.140625 -2.507812 13.859375 -3.0625 C 16.117188 -4.769531 17.679688 -7.175781 18.546875 -10.28125 C 18.953125 -11.78125 19.207031 -13.660156 19.3125 -15.921875 Z M 28.390625 -32.015625 C 29.117188 -32.015625 29.710938 -31.796875 30.171875 -31.359375 C 30.609375 -30.941406 30.828125 -30.394531 30.828125 -29.71875 C 30.828125 -28.375 30.210938 -27.5625 28.984375 -27.28125 C 28.265625 -27.101562 26.414062 -26.890625 23.4375 -26.640625 C 19.394531 -26.296875 15.972656 -26.125 13.171875 -26.125 C 11.160156 -26.125 10.15625 -26.945312 10.15625 -28.59375 C 10.15625 -29.6875 10.644531 -30.398438 11.625 -30.734375 C 11.96875 -30.847656 12.710938 -30.910156 13.859375 -30.921875 C 17.554688 -30.921875 21.5625 -31.179688 25.875 -31.703125 C 26.300781 -31.742188 26.800781 -31.8125 27.375 -31.90625 C 27.832031 -31.976562 28.171875 -32.015625 28.390625 -32.015625 Z M 28.390625 -32.015625 "/></g></g></g><g fill="#ffffff" fill-opacity="1"><g transform="translate(303.120012, 57.751376)"><g><path d="M 9.4375 -29.453125 C 10 -29.453125 10.960938 -29.207031 12.328125 -28.71875 C 14.878906 -27.8125 16.988281 -26.742188 18.65625 -25.515625 C 19.53125 -24.867188 19.96875 -24.066406 19.96875 -23.109375 C 19.96875 -22.578125 19.800781 -22.046875 19.46875 -21.515625 C 18.945312 -20.722656 18.25 -20.328125 17.375 -20.328125 C 16.625 -20.328125 15.796875 -20.675781 14.890625 -21.375 C 12.609375 -23.175781 10.53125 -24.609375 8.65625 -25.671875 C 7.707031 -26.203125 7.234375 -26.832031 7.234375 -27.5625 C 7.234375 -28.820312 7.96875 -29.453125 9.4375 -29.453125 Z M 35.8125 -22.890625 C 36.269531 -22.890625 36.710938 -22.734375 37.140625 -22.421875 C 37.703125 -22.003906 37.984375 -21.445312 37.984375 -20.75 C 37.984375 -20.175781 37.753906 -19.554688 37.296875 -18.890625 C 34.160156 -14.179688 30.015625 -10.109375 24.859375 -6.671875 C 20.566406 -3.804688 16.132812 -1.757812 11.5625 -0.53125 C 11.082031 -0.40625 10.664062 -0.34375 10.3125 -0.34375 C 9.15625 -0.34375 8.328125 -0.878906 7.828125 -1.953125 C 7.609375 -2.429688 7.5 -2.890625 7.5 -3.328125 C 7.5 -4.316406 8 -5.0625 9 -5.5625 C 9.207031 -5.65625 10.117188 -5.941406 11.734375 -6.421875 C 17.609375 -8.140625 23.082031 -11.242188 28.15625 -15.734375 C 30.09375 -17.453125 31.925781 -19.410156 33.65625 -21.609375 C 34.3125 -22.460938 35.03125 -22.890625 35.8125 -22.890625 Z M 35.8125 -22.890625 "/></g></g></g><g fill="#ffffff" fill-opacity="1"><g transform="translate(344.280014, 57.751376)"><g><path d="M 6.28125 -28.0625 C 7.207031 -28.0625 8.566406 -26.972656 10.359375 -24.796875 C 12.328125 -22.398438 13.3125 -20.5625 13.3125 -19.28125 C 13.3125 -18.46875 12.988281 -17.789062 12.34375 -17.25 C 11.726562 -16.71875 11.046875 -16.453125 10.296875 -16.453125 C 9.234375 -16.453125 8.441406 -17.140625 7.921875 -18.515625 C 7.109375 -20.742188 6.125 -22.789062 4.96875 -24.65625 C 4.570312 -25.289062 4.375 -25.828125 4.375 -26.265625 C 4.375 -26.691406 4.539062 -27.078125 4.875 -27.421875 C 5.289062 -27.847656 5.757812 -28.0625 6.28125 -28.0625 Z M 16.84375 -31.421875 C 17.726562 -31.421875 18.734375 -30.609375 19.859375 -28.984375 C 21.023438 -27.253906 21.925781 -25.523438 22.5625 -23.796875 C 22.78125 -23.171875 22.890625 -22.59375 22.890625 -22.0625 C 22.890625 -21.007812 22.492188 -20.21875 21.703125 -19.6875 C 21.160156 -19.34375 20.582031 -19.171875 19.96875 -19.171875 C 18.875 -19.171875 18.109375 -19.675781 17.671875 -20.6875 C 17.609375 -20.84375 17.507812 -21.191406 17.375 -21.734375 C 16.738281 -24.273438 16.035156 -26.4375 15.265625 -28.21875 C 15.023438 -28.769531 14.90625 -29.265625 14.90625 -29.703125 C 14.90625 -30.285156 15.144531 -30.734375 15.625 -31.046875 C 16 -31.296875 16.40625 -31.421875 16.84375 -31.421875 Z M 33.546875 -30.1875 C 34.097656 -30.1875 34.625 -30.054688 35.125 -29.796875 C 36.019531 -29.328125 36.46875 -28.554688 36.46875 -27.484375 C 36.46875 -26.535156 36.164062 -24.90625 35.5625 -22.59375 C 33.019531 -12.914062 27.582031 -5.671875 19.25 -0.859375 C 17.863281 -0.0546875 16.851562 0.34375 16.21875 0.34375 C 15.46875 0.34375 14.914062 0.015625 14.5625 -0.640625 C 14.375 -0.992188 14.28125 -1.332031 14.28125 -1.65625 C 14.28125 -2.375 14.773438 -3.066406 15.765625 -3.734375 C 20.734375 -7.046875 24.492188 -11.050781 27.046875 -15.75 C 28.953125 -19.238281 30.28125 -23.171875 31.03125 -27.546875 C 31.34375 -29.304688 32.179688 -30.1875 33.546875 -30.1875 Z M 33.546875 -30.1875 "/></g></g></g><g fill="#ffffff" fill-opacity="1"><g transform="translate(15.000003, 116.251372)"><g><path d="M 23.609375 -5.234375 C 21.078125 -2.492188 18.421875 -0.398438 15.640625 1.046875 C 14.785156 1.492188 14.128906 1.71875 13.671875 1.71875 C 13.140625 1.71875 12.738281 1.519531 12.46875 1.125 C 12.257812 0.820312 12.15625 0.519531 12.15625 0.21875 C 12.15625 -0.21875 12.34375 -0.601562 12.71875 -0.9375 C 12.863281 -1.082031 13.265625 -1.359375 13.921875 -1.765625 C 16.179688 -3.171875 18.320312 -5.03125 20.34375 -7.34375 L 15.375 -7.0625 C 14.082031 -6.988281 13.4375 -7.613281 13.4375 -8.9375 C 13.4375 -10.207031 14.035156 -10.882812 15.234375 -10.96875 L 23.609375 -11.484375 L 23.609375 -12.515625 C 23.609375 -13.265625 23.9375 -13.816406 24.59375 -14.171875 C 24.988281 -14.390625 25.425781 -14.5 25.90625 -14.5 C 26.664062 -14.5 27.273438 -14.265625 27.734375 -13.796875 C 28.054688 -13.460938 28.21875 -13.035156 28.21875 -12.515625 L 28.21875 -11.765625 L 37.390625 -12.34375 C 37.960938 -12.382812 38.425781 -12.242188 38.78125 -11.921875 C 39.164062 -11.554688 39.359375 -11.054688 39.359375 -10.421875 C 39.359375 -9.117188 38.769531 -8.4375 37.59375 -8.375 L 30.953125 -7.984375 C 34.054688 -5.453125 37.019531 -3.46875 39.84375 -2.03125 C 40.695312 -1.601562 41.125 -1.207031 41.125 -0.84375 C 41.125 -0.5 40.785156 -0.203125 40.109375 0.046875 C 38.609375 0.578125 37.453125 0.84375 36.640625 0.84375 C 36.128906 0.84375 35.679688 0.691406 35.296875 0.390625 C 32.410156 -1.878906 30.050781 -4.09375 28.21875 -6.25 L 28.21875 1.484375 C 28.21875 1.984375 28.054688 2.40625 27.734375 2.75 C 27.273438 3.21875 26.664062 3.453125 25.90625 3.453125 C 24.9375 3.453125 24.25 3.109375 23.84375 2.421875 C 23.6875 2.148438 23.609375 1.835938 23.609375 1.484375 Z M 33.546875 -27.96875 C 34.003906 -27.6875 34.234375 -27.242188 34.234375 -26.640625 C 34.234375 -25.734375 33.695312 -25.238281 32.625 -25.15625 L 22.890625 -24.40625 C 22.554688 -23.71875 21.851562 -23.375 20.78125 -23.375 C 19.582031 -23.375 18.910156 -23.957031 18.765625 -25.125 L 17.890625 -31.90625 C 17.867188 -32.019531 17.859375 -32.109375 17.859375 -32.171875 C 17.859375 -32.929688 18.222656 -33.46875 18.953125 -33.78125 C 19.347656 -33.9375 19.773438 -34.015625 20.234375 -34.015625 C 21.085938 -34.015625 21.707031 -33.742188 22.09375 -33.203125 L 31.0625 -34.015625 C 31.226562 -34.035156 31.410156 -34.046875 31.609375 -34.046875 C 33.398438 -34.046875 34.296875 -33.28125 34.296875 -31.75 C 34.296875 -31.5 34.257812 -31.203125 34.1875 -30.859375 Z M 29.25 -27.9375 L 29.515625 -29.9375 C 29.523438 -30.007812 29.53125 -30.070312 29.53125 -30.125 C 29.53125 -30.46875 29.316406 -30.617188 28.890625 -30.578125 L 22.625 -30 L 22.84375 -27.453125 Z M 18.515625 -13.953125 C 18.191406 -13.390625 17.597656 -13.109375 16.734375 -13.109375 C 15.722656 -13.109375 15.140625 -13.65625 14.984375 -14.75 L 14.15625 -20.84375 C 14.132812 -20.90625 14.125 -20.992188 14.125 -21.109375 C 14.125 -21.648438 14.375 -22.078125 14.875 -22.390625 C 15.207031 -22.609375 15.613281 -22.71875 16.09375 -22.71875 C 16.695312 -22.71875 17.171875 -22.546875 17.515625 -22.203125 L 22.625 -22.6875 C 22.78125 -22.695312 22.921875 -22.703125 23.046875 -22.703125 C 24.390625 -22.703125 25.0625 -22.0625 25.0625 -20.78125 C 25.0625 -20.570312 25.046875 -20.363281 25.015625 -20.15625 L 24.609375 -17.015625 C 24.910156 -16.703125 25.0625 -16.328125 25.0625 -15.890625 C 25.0625 -15.003906 24.515625 -14.503906 23.421875 -14.390625 Z M 18.453125 -16.9375 L 21.28125 -17.1875 L 21.40625 -18.984375 C 21.4375 -19.359375 21.28125 -19.550781 20.9375 -19.5625 L 18.21875 -19.25 Z M 37.734375 -17.78125 C 38.210938 -17.476562 38.453125 -17.023438 38.453125 -16.421875 C 38.453125 -15.523438 37.910156 -15.035156 36.828125 -14.953125 L 30.640625 -14.515625 C 30.253906 -14.117188 29.734375 -13.921875 29.078125 -13.921875 C 28.035156 -13.921875 27.46875 -14.460938 27.375 -15.546875 L 26.828125 -21.640625 C 26.828125 -21.703125 26.828125 -21.796875 26.828125 -21.921875 C 26.878906 -22.984375 27.507812 -23.515625 28.71875 -23.515625 C 29.394531 -23.515625 29.921875 -23.296875 30.296875 -22.859375 L 35.515625 -23.359375 C 35.722656 -23.367188 35.863281 -23.375 35.9375 -23.375 C 37.53125 -23.375 38.328125 -22.675781 38.328125 -21.28125 C 38.328125 -21 38.300781 -20.722656 38.25 -20.453125 Z M 34.109375 -17.765625 L 34.34375 -19.609375 C 34.34375 -19.660156 34.34375 -19.707031 34.34375 -19.75 C 34.34375 -20.050781 34.144531 -20.1875 33.75 -20.15625 L 30.78125 -19.90625 L 30.921875 -17.515625 Z M 10.546875 -22.265625 L 10.546875 -17.578125 C 10.742188 -17.679688 11.007812 -17.8125 11.34375 -17.96875 C 11.84375 -18.226562 12.300781 -18.359375 12.71875 -18.359375 C 13.21875 -18.359375 13.640625 -18.164062 13.984375 -17.78125 C 14.296875 -17.4375 14.453125 -17.070312 14.453125 -16.6875 C 14.453125 -16.09375 14.117188 -15.5625 13.453125 -15.09375 C 13.097656 -14.84375 12.128906 -14.242188 10.546875 -13.296875 L 10.546875 -0.515625 C 10.546875 1.753906 9.609375 2.890625 7.734375 2.890625 C 6.554688 2.890625 4.957031 2.300781 2.9375 1.125 C 2.070312 0.632812 1.640625 0.0859375 1.640625 -0.515625 C 1.640625 -1.359375 2.113281 -1.78125 3.0625 -1.78125 C 3.28125 -1.78125 3.53125 -1.75 3.8125 -1.6875 C 4.414062 -1.550781 4.875 -1.484375 5.1875 -1.484375 C 5.8125 -1.484375 6.125 -1.84375 6.125 -2.5625 L 6.125 -10.890625 C 4.875 -10.273438 3.96875 -9.96875 3.40625 -9.96875 C 2.519531 -9.96875 1.882812 -10.390625 1.5 -11.234375 C 1.320312 -11.628906 1.234375 -12 1.234375 -12.34375 C 1.234375 -13.070312 1.5625 -13.65625 2.21875 -14.09375 C 2.445312 -14.238281 2.882812 -14.425781 3.53125 -14.65625 C 4.5 -15.019531 5.363281 -15.359375 6.125 -15.671875 L 6.125 -21.65625 L 3.78125 -21.328125 C 3.632812 -21.316406 3.503906 -21.3125 3.390625 -21.3125 C 2.554688 -21.3125 2 -21.78125 1.71875 -22.71875 C 1.625 -23.050781 1.578125 -23.398438 1.578125 -23.765625 C 1.578125 -24.941406 2.128906 -25.597656 3.234375 -25.734375 L 6.125 -26.125 L 6.125 -32.890625 C 6.125 -33.628906 6.4375 -34.171875 7.0625 -34.515625 C 7.457031 -34.722656 7.875 -34.828125 8.3125 -34.828125 C 9.070312 -34.828125 9.65625 -34.597656 10.0625 -34.140625 C 10.382812 -33.816406 10.546875 -33.398438 10.546875 -32.890625 L 10.546875 -26.71875 L 12.0625 -26.921875 C 12.1875 -26.941406 12.273438 -26.953125 12.328125 -26.953125 C 13.609375 -26.953125 14.25 -26.1875 14.25 -24.65625 C 14.25 -23.40625 13.679688 -22.707031 12.546875 -22.5625 Z M 10.546875 -22.265625 "/></g></g></g><g fill="#ffffff" fill-opacity="1"><g transform="translate(56.160004, 116.251372)"><g><path d="M 28.21875 -22.765625 L 28.21875 -18.984375 L 34.828125 -19.609375 C 34.890625 -19.617188 34.984375 -19.625 35.109375 -19.625 C 35.722656 -19.625 36.21875 -19.410156 36.59375 -18.984375 C 36.957031 -18.546875 37.140625 -17.972656 37.140625 -17.265625 C 37.140625 -15.953125 36.519531 -15.25 35.28125 -15.15625 L 28.21875 -14.625 L 28.21875 -10.671875 L 35.828125 -11.375 C 36.554688 -11.445312 37.128906 -11.257812 37.546875 -10.8125 C 37.929688 -10.394531 38.125 -9.828125 38.125 -9.109375 C 38.125 -7.597656 37.492188 -6.804688 36.234375 -6.734375 L 28.21875 -6.125 L 28.21875 1.09375 C 28.21875 1.6875 28.023438 2.171875 27.640625 2.546875 C 27.160156 3.035156 26.5 3.28125 25.65625 3.28125 C 24.507812 3.28125 23.738281 2.867188 23.34375 2.046875 C 23.207031 1.765625 23.140625 1.445312 23.140625 1.09375 L 23.140625 -22.3125 L 20.734375 -22.109375 C 18.640625 -18.421875 16.953125 -16.578125 15.671875 -16.578125 C 15.316406 -16.578125 14.953125 -16.691406 14.578125 -16.921875 C 14.054688 -17.242188 13.796875 -17.722656 13.796875 -18.359375 C 13.796875 -18.734375 14.101562 -19.394531 14.71875 -20.34375 C 16.15625 -22.570312 17.46875 -25.269531 18.65625 -28.4375 C 19.257812 -30.070312 19.710938 -31.554688 20.015625 -32.890625 C 20.316406 -34.222656 21.101562 -34.890625 22.375 -34.890625 C 22.945312 -34.890625 23.488281 -34.742188 24 -34.453125 C 24.695312 -34.054688 25.046875 -33.441406 25.046875 -32.609375 C 25.046875 -31.742188 24.445312 -29.929688 23.25 -27.171875 L 23.171875 -26.953125 L 36.875 -28.21875 C 36.96875 -28.226562 37.082031 -28.234375 37.21875 -28.234375 C 38.613281 -28.234375 39.3125 -27.441406 39.3125 -25.859375 C 39.3125 -24.441406 38.695312 -23.675781 37.46875 -23.5625 Z M 12.484375 -24.328125 L 12.484375 -0.078125 C 12.484375 0.453125 12.304688 0.898438 11.953125 1.265625 C 11.492188 1.765625 10.847656 2.015625 10.015625 2.015625 C 8.929688 2.015625 8.179688 1.632812 7.765625 0.875 C 7.609375 0.59375 7.53125 0.273438 7.53125 -0.078125 L 7.53125 -17 C 6.539062 -15.820312 5.804688 -14.992188 5.328125 -14.515625 C 4.710938 -13.890625 4.085938 -13.578125 3.453125 -13.578125 C 2.929688 -13.578125 2.476562 -13.796875 2.09375 -14.234375 C 1.789062 -14.597656 1.640625 -15 1.640625 -15.4375 C 1.640625 -15.789062 1.734375 -16.132812 1.921875 -16.46875 C 2.023438 -16.65625 2.347656 -17.113281 2.890625 -17.84375 C 4.109375 -19.457031 5.5 -21.734375 7.0625 -24.671875 C 8.351562 -27.117188 9.476562 -29.523438 10.4375 -31.890625 C 11.007812 -33.304688 11.863281 -34.015625 13 -34.015625 C 13.4375 -34.015625 13.867188 -33.90625 14.296875 -33.6875 C 15.117188 -33.269531 15.53125 -32.585938 15.53125 -31.640625 C 15.53125 -30.410156 14.515625 -27.972656 12.484375 -24.328125 Z M 12.484375 -24.328125 "/></g></g></g><g fill="#ffffff" fill-opacity="1"><g transform="translate(97.320006, 116.251372)"><g><path d="M 21.53125 -12.0625 C 25.019531 -14.65625 27.921875 -17.539062 30.234375 -20.71875 C 30.679688 -21.332031 30.90625 -21.710938 30.90625 -21.859375 C 30.90625 -22.035156 30.707031 -22.125 30.3125 -22.125 C 28.914062 -22.125 21.054688 -21.578125 6.734375 -20.484375 C 6.429688 -20.460938 6.238281 -20.453125 6.15625 -20.453125 C 5.34375 -20.453125 4.71875 -20.722656 4.28125 -21.265625 C 3.914062 -21.710938 3.734375 -22.285156 3.734375 -22.984375 C 3.734375 -24.335938 4.347656 -25.15625 5.578125 -25.4375 C 5.796875 -25.46875 8.773438 -25.695312 14.515625 -26.125 C 26.566406 -26.851562 32.992188 -27.21875 33.796875 -27.21875 C 35.066406 -27.21875 36.078125 -26.894531 36.828125 -26.25 C 37.566406 -25.625 37.9375 -24.820312 37.9375 -23.84375 C 37.9375 -22.863281 37.359375 -21.582031 36.203125 -20 C 33.378906 -16.164062 29.5 -12.566406 24.5625 -9.203125 C 25.644531 -8.054688 26.460938 -7.128906 27.015625 -6.421875 C 27.640625 -5.566406 27.953125 -4.765625 27.953125 -4.015625 C 27.953125 -2.953125 27.515625 -2.140625 26.640625 -1.578125 C 26.117188 -1.253906 25.597656 -1.09375 25.078125 -1.09375 C 24.410156 -1.09375 23.84375 -1.332031 23.375 -1.8125 C 23.21875 -1.96875 22.929688 -2.347656 22.515625 -2.953125 C 20.898438 -5.253906 18.8125 -7.753906 16.25 -10.453125 C 15.65625 -11.085938 15.007812 -11.734375 14.3125 -12.390625 C 13.769531 -12.910156 13.5 -13.46875 13.5 -14.0625 C 13.5 -14.613281 13.703125 -15.09375 14.109375 -15.5 C 14.492188 -15.882812 14.9375 -16.078125 15.4375 -16.078125 C 16.03125 -16.078125 16.75 -15.785156 17.59375 -15.203125 C 18.78125 -14.367188 20.09375 -13.320312 21.53125 -12.0625 Z M 21.53125 -12.0625 "/></g></g></g><g fill="#ffffff" fill-opacity="1"><g transform="translate(138.480007, 116.251372)"><g><path d="M 36.046875 -12.3125 C 36.828125 -12.3125 37.445312 -12.128906 37.90625 -11.765625 C 38.53125 -11.285156 38.84375 -10.617188 38.84375 -9.765625 C 38.84375 -8.597656 38.367188 -7.820312 37.421875 -7.4375 C 37.109375 -7.320312 36.1875 -7.226562 34.65625 -7.15625 C 25.601562 -6.71875 16.003906 -6.046875 5.859375 -5.140625 C 5.546875 -5.117188 5.304688 -5.109375 5.140625 -5.109375 C 3.535156 -5.109375 2.734375 -5.976562 2.734375 -7.71875 C 2.734375 -8.945312 3.3125 -9.726562 4.46875 -10.0625 C 4.71875 -10.132812 5.695312 -10.234375 7.40625 -10.359375 C 24.695312 -11.660156 34.242188 -12.3125 36.046875 -12.3125 Z M 27.546875 -27.125 C 28.210938 -27.125 28.789062 -26.898438 29.28125 -26.453125 C 29.78125 -26.003906 30.03125 -25.390625 30.03125 -24.609375 C 30.03125 -23.171875 29.15625 -22.316406 27.40625 -22.046875 C 25.3125 -21.734375 22.5625 -21.429688 19.15625 -21.140625 C 15.976562 -20.867188 13.882812 -20.734375 12.875 -20.734375 C 12.039062 -20.734375 11.394531 -20.976562 10.9375 -21.46875 C 10.539062 -21.90625 10.34375 -22.476562 10.34375 -23.1875 C 10.34375 -24.351562 10.785156 -25.117188 11.671875 -25.484375 C 11.984375 -25.628906 12.6875 -25.710938 13.78125 -25.734375 C 18.007812 -25.847656 22.144531 -26.253906 26.1875 -26.953125 C 26.882812 -27.066406 27.335938 -27.125 27.546875 -27.125 Z M 27.546875 -27.125 "/></g></g></g><g fill="#ffffff" fill-opacity="1"><g transform="translate(179.640008, 116.251372)"><g><path d="M 22.265625 -7.53125 C 23.035156 -12.09375 23.421875 -14.816406 23.421875 -15.703125 C 23.421875 -16.097656 23.242188 -16.296875 22.890625 -16.296875 C 22.722656 -16.296875 22.503906 -16.285156 22.234375 -16.265625 C 21.285156 -16.171875 19.65625 -16.035156 17.34375 -15.859375 C 15.957031 -15.742188 14.875 -15.644531 14.09375 -15.5625 C 13.851562 -15.539062 13.664062 -15.53125 13.53125 -15.53125 C 12.820312 -15.53125 12.269531 -15.796875 11.875 -16.328125 C 11.601562 -16.710938 11.46875 -17.179688 11.46875 -17.734375 C 11.46875 -18.816406 11.953125 -19.515625 12.921875 -19.828125 C 13.140625 -19.898438 13.625 -19.957031 14.375 -20 L 19.140625 -20.359375 C 22.679688 -20.617188 24.578125 -20.75 24.828125 -20.75 C 26.253906 -20.75 27.269531 -20.203125 27.875 -19.109375 C 28.144531 -18.609375 28.28125 -18.039062 28.28125 -17.40625 C 28.28125 -17.164062 28.238281 -16.78125 28.15625 -16.25 C 28.09375 -15.769531 27.984375 -14.992188 27.828125 -13.921875 C 27.578125 -12.191406 27.316406 -10.410156 27.046875 -8.578125 L 26.921875 -7.8125 L 27.359375 -7.828125 C 30.523438 -8.023438 32.304688 -8.132812 32.703125 -8.15625 C 32.859375 -8.175781 32.960938 -8.1875 33.015625 -8.1875 C 33.503906 -8.1875 33.929688 -8.035156 34.296875 -7.734375 C 34.804688 -7.304688 35.0625 -6.710938 35.0625 -5.953125 C 35.0625 -4.773438 34.550781 -4.066406 33.53125 -3.828125 C 33.382812 -3.796875 28.726562 -3.503906 19.5625 -2.953125 C 12.03125 -2.515625 8.203125 -2.296875 8.078125 -2.296875 C 7.234375 -2.296875 6.625 -2.640625 6.25 -3.328125 C 6.09375 -3.648438 6.015625 -4.03125 6.015625 -4.46875 C 6.015625 -5.238281 6.28125 -5.828125 6.8125 -6.234375 C 7.226562 -6.535156 7.96875 -6.703125 9.03125 -6.734375 C 9.25 -6.742188 13.296875 -6.976562 21.171875 -7.4375 Z M 22.265625 -7.53125 "/></g></g></g><g fill="#ffffff" fill-opacity="1"><g transform="translate(220.80001, 116.251372)"><g><path d="M 33.796875 -30.53125 C 34.703125 -30.53125 35.515625 -30.304688 36.234375 -29.859375 C 37.222656 -29.234375 37.71875 -28.335938 37.71875 -27.171875 C 37.71875 -26.453125 37.410156 -25.546875 36.796875 -24.453125 C 35.054688 -21.421875 32.878906 -18.765625 30.265625 -16.484375 C 28.804688 -15.210938 27.679688 -14.578125 26.890625 -14.578125 C 26.328125 -14.578125 25.859375 -14.820312 25.484375 -15.3125 C 25.210938 -15.675781 25.078125 -16.023438 25.078125 -16.359375 C 25.078125 -16.910156 25.425781 -17.519531 26.125 -18.1875 C 28.207031 -20.1875 29.785156 -22.195312 30.859375 -24.21875 C 31.160156 -24.78125 31.3125 -25.148438 31.3125 -25.328125 C 31.3125 -25.546875 31.128906 -25.65625 30.765625 -25.65625 C 30.429688 -25.65625 29.992188 -25.632812 29.453125 -25.59375 C 29.160156 -25.5625 28.226562 -25.5 26.65625 -25.40625 C 25.5 -25.320312 20.53125 -24.921875 11.75 -24.203125 C 8.800781 -23.953125 7.207031 -23.828125 6.96875 -23.828125 C 5.238281 -23.828125 4.375 -24.628906 4.375 -26.234375 C 4.375 -27.597656 5.066406 -28.410156 6.453125 -28.671875 C 6.617188 -28.703125 11.484375 -29.046875 21.046875 -29.703125 C 29.367188 -30.253906 33.617188 -30.53125 33.796875 -30.53125 Z M 20.59375 -22.046875 C 21.300781 -22.046875 21.9375 -21.820312 22.5 -21.375 C 22.84375 -21.113281 23.066406 -20.816406 23.171875 -20.484375 C 23.304688 -20.078125 23.375 -19.375 23.375 -18.375 C 23.375 -14.726562 23.101562 -11.847656 22.5625 -9.734375 C 21.375 -5.210938 18.679688 -1.679688 14.484375 0.859375 C 13.804688 1.253906 13.207031 1.453125 12.6875 1.453125 C 12.070312 1.453125 11.609375 1.242188 11.296875 0.828125 C 11.015625 0.441406 10.875 0.0351562 10.875 -0.390625 C 10.875 -0.898438 11.0625 -1.390625 11.4375 -1.859375 C 11.601562 -2.078125 12.050781 -2.484375 12.78125 -3.078125 C 15.363281 -5.171875 16.972656 -8.019531 17.609375 -11.625 C 17.929688 -13.414062 18.09375 -15.660156 18.09375 -18.359375 L 18.0625 -19.484375 C 18.0625 -20.503906 18.445312 -21.234375 19.21875 -21.671875 C 19.644531 -21.921875 20.101562 -22.046875 20.59375 -22.046875 Z M 20.59375 -22.046875 "/></g></g></g><g fill="#ffffff" fill-opacity="1"><g transform="translate(261.960011, 116.251372)"><g><path d="M 12.859375 -27.890625 C 14.597656 -27.890625 15.46875 -26.898438 15.46875 -24.921875 C 15.46875 -17.804688 14.140625 -12.085938 11.484375 -7.765625 C 10.359375 -5.921875 9.019531 -4.390625 7.46875 -3.171875 C 6.90625 -2.734375 6.300781 -2.515625 5.65625 -2.515625 C 5.21875 -2.515625 4.828125 -2.664062 4.484375 -2.96875 C 4.085938 -3.320312 3.890625 -3.757812 3.890625 -4.28125 C 3.890625 -4.875 4.160156 -5.476562 4.703125 -6.09375 C 6.910156 -8.632812 8.421875 -11.671875 9.234375 -15.203125 C 9.859375 -17.941406 10.175781 -21.269531 10.1875 -25.1875 C 10.207031 -25.988281 10.394531 -26.597656 10.75 -27.015625 C 11.269531 -27.597656 11.972656 -27.890625 12.859375 -27.890625 Z M 24.65625 -29.40625 L 24.65625 -8.484375 C 24.65625 -7.953125 24.773438 -7.6875 25.015625 -7.6875 C 25.523438 -7.6875 26.847656 -8.425781 28.984375 -9.90625 C 32.015625 -11.96875 34.515625 -14.085938 36.484375 -16.265625 C 37.171875 -17.023438 37.8125 -17.40625 38.40625 -17.40625 C 38.90625 -17.40625 39.394531 -17.207031 39.875 -16.8125 C 40.332031 -16.4375 40.5625 -15.925781 40.5625 -15.28125 C 40.5625 -14.71875 40.335938 -14.125 39.890625 -13.5 C 38.304688 -11.289062 35.90625 -8.925781 32.6875 -6.40625 C 30.175781 -4.414062 27.773438 -2.863281 25.484375 -1.75 C 24.628906 -1.320312 23.875 -1.109375 23.21875 -1.109375 C 22.488281 -1.109375 21.765625 -1.359375 21.046875 -1.859375 C 20.003906 -2.585938 19.484375 -3.734375 19.484375 -5.296875 L 19.484375 -29.40625 C 19.484375 -30.3125 19.875 -30.972656 20.65625 -31.390625 C 21.0625 -31.628906 21.507812 -31.75 22 -31.75 C 22.757812 -31.75 23.390625 -31.535156 23.890625 -31.109375 C 24.398438 -30.671875 24.65625 -30.101562 24.65625 -29.40625 Z M 24.65625 -29.40625 "/></g></g></g></svg>