<svg xmlns="http://www.w3.org/2000/svg" xmlns:xlink="http://www.w3.org/1999/xlink" width="600" zoomAndPan="magnify" viewBox="0 0 450 149.999998" height="200" preserveAspectRatio="xMidYMid meet" version="1.0"><defs><g/><clipPath id="137c1d8f23"><path d="M 0 5.402344 L 450 5.402344 L 450 144.597656 L 0 144.597656 Z M 0 5.402344 " clip-rule="nonzero"/></clipPath><clipPath id="fa89e36de5"><path d="M 7.714844 5.402344 L 380.402344 5.402344 C 398.859375 5.402344 416.5625 12.734375 429.613281 25.785156 C 442.667969 38.839844 450 56.542969 450 75 C 450 93.457031 442.667969 111.160156 429.613281 124.214844 C 416.5625 137.265625 398.859375 144.597656 380.402344 144.597656 L 7.714844 144.597656 C -10.742188 144.597656 -28.445312 137.265625 -41.496094 124.214844 C -54.550781 111.160156 -61.882812 93.457031 -61.882812 75 C -61.882812 56.542969 -54.550781 38.839844 -41.496094 25.785156 C -28.445312 12.734375 -10.742188 5.402344 7.714844 5.402344 Z M 7.714844 5.402344 " clip-rule="nonzero"/></clipPath><clipPath id="1205d939f1"><path d="M 0 0.402344 L 450 0.402344 L 450 139.597656 L 0 139.597656 Z M 0 0.402344 " clip-rule="nonzero"/></clipPath><clipPath id="f45985b81d"><path d="M 7.714844 0.402344 L 380.402344 0.402344 C 398.859375 0.402344 416.5625 7.734375 429.613281 20.785156 C 442.667969 33.839844 450 51.542969 450 70 C 450 88.457031 442.667969 106.160156 429.613281 119.214844 C 416.5625 132.265625 398.859375 139.597656 380.402344 139.597656 L 7.714844 139.597656 C -10.742188 139.597656 -28.445312 132.265625 -41.496094 119.214844 C -54.550781 106.160156 -61.882812 88.457031 -61.882812 70 C -61.882812 51.542969 -54.550781 33.839844 -41.496094 20.785156 C -28.445312 7.734375 -10.742188 0.402344 7.714844 0.402344 Z M 7.714844 0.402344 " clip-rule="nonzero"/></clipPath><clipPath id="37898dd837"><rect x="0" width="450" y="0" height="140"/></clipPath></defs><g clip-path="url(#137c1d8f23)"><g clip-path="url(#fa89e36de5)"><g transform="matrix(1, 0, 0, 1, 0, 5)"><g clip-path="url(#37898dd837)"><g clip-path="url(#1205d939f1)"><g clip-path="url(#f45985b81d)"><path fill="#004aad" d="M -61.882812 0.402344 L 449.78125 0.402344 L 449.78125 139.597656 L -61.882812 139.597656 Z M -61.882812 0.402344 " fill-opacity="1" fill-rule="nonzero"/></g></g></g></g></g></g><g fill="#ffffff" fill-opacity="1"><g transform="translate(15.000003, 48.554688)"><g><path d="M 9.875 -17.03125 C 10.164062 -17.03125 10.445312 -16.96875 10.71875 -16.84375 C 11.488281 -16.488281 11.875 -15.914062 11.875 -15.125 C 11.875 -14.40625 11.425781 -13.191406 10.53125 -11.484375 C 9.3125 -9.171875 7.796875 -7.125 5.984375 -5.34375 C 4.660156 -4.050781 3.675781 -3.40625 3.03125 -3.40625 C 2.65625 -3.40625 2.316406 -3.566406 2.015625 -3.890625 C 1.773438 -4.160156 1.65625 -4.46875 1.65625 -4.8125 C 1.65625 -5.21875 1.859375 -5.644531 2.265625 -6.09375 C 4.660156 -8.695312 6.546875 -11.863281 7.921875 -15.59375 C 8.273438 -16.550781 8.925781 -17.03125 9.875 -17.03125 Z M 19.375 -17.640625 C 19.851562 -17.640625 20.410156 -17.332031 21.046875 -16.71875 C 22.566406 -15.226562 24.050781 -13.40625 25.5 -11.25 C 27.101562 -8.84375 27.90625 -7.164062 27.90625 -6.21875 C 27.90625 -5.5 27.597656 -4.945312 26.984375 -4.5625 C 26.585938 -4.3125 26.207031 -4.1875 25.84375 -4.1875 C 25.070312 -4.1875 24.5 -4.523438 24.125 -5.203125 C 24.082031 -5.265625 23.945312 -5.539062 23.71875 -6.03125 C 22 -9.695312 20.179688 -12.75 18.265625 -15.1875 C 18.003906 -15.519531 17.875 -15.890625 17.875 -16.296875 C 17.875 -16.679688 18.023438 -17 18.328125 -17.25 C 18.640625 -17.507812 18.988281 -17.640625 19.375 -17.640625 Z M 22.484375 -21.6875 C 23.035156 -21.6875 23.910156 -21.140625 25.109375 -20.046875 C 26.128906 -19.117188 26.640625 -18.390625 26.640625 -17.859375 C 26.640625 -17.472656 26.472656 -17.144531 26.140625 -16.875 C 25.890625 -16.65625 25.597656 -16.546875 25.265625 -16.546875 C 24.816406 -16.546875 24.4375 -16.800781 24.125 -17.3125 C 23.570312 -18.21875 22.878906 -19.109375 22.046875 -19.984375 C 21.773438 -20.273438 21.640625 -20.566406 21.640625 -20.859375 C 21.640625 -21.410156 21.921875 -21.6875 22.484375 -21.6875 Z M 25.078125 -24.046875 C 25.660156 -24.046875 26.503906 -23.582031 27.609375 -22.65625 C 28.640625 -21.800781 29.15625 -21.070312 29.15625 -20.46875 C 29.15625 -20.039062 28.992188 -19.707031 28.671875 -19.46875 C 28.429688 -19.289062 28.164062 -19.203125 27.875 -19.203125 C 27.457031 -19.203125 27.085938 -19.445312 26.765625 -19.9375 C 26.234375 -20.738281 25.535156 -21.554688 24.671875 -22.390625 C 24.359375 -22.691406 24.203125 -22.984375 24.203125 -23.265625 C 24.203125 -23.460938 24.28125 -23.640625 24.4375 -23.796875 C 24.59375 -23.960938 24.804688 -24.046875 25.078125 -24.046875 Z M 25.078125 -24.046875 "/></g></g></g><g fill="#ffffff" fill-opacity="1"><g transform="translate(44.399999, 48.554688)"><g><path d="M 24.078125 -14.40625 C 24.691406 -14.40625 25.175781 -14.210938 25.53125 -13.828125 C 25.832031 -13.515625 25.984375 -13.09375 25.984375 -12.5625 C 25.984375 -11.582031 25.519531 -11 24.59375 -10.8125 C 24.351562 -10.75 21.054688 -10.582031 14.703125 -10.3125 C 11.785156 -10.1875 8.695312 -10.035156 5.4375 -9.859375 C 5.320312 -9.847656 5.207031 -9.84375 5.09375 -9.84375 C 4.550781 -9.84375 4.09375 -10.003906 3.71875 -10.328125 C 3.34375 -10.671875 3.15625 -11.117188 3.15625 -11.671875 C 3.15625 -12.472656 3.507812 -13.023438 4.21875 -13.328125 C 4.507812 -13.441406 5.203125 -13.519531 6.296875 -13.5625 C 7.265625 -13.59375 9.710938 -13.707031 13.640625 -13.90625 C 15.304688 -13.988281 17.59375 -14.09375 20.5 -14.21875 C 21.46875 -14.257812 22.238281 -14.300781 22.8125 -14.34375 C 23.519531 -14.382812 23.941406 -14.40625 24.078125 -14.40625 Z M 24.078125 -14.40625 "/></g></g></g><g fill="#ffffff" fill-opacity="1"><g transform="translate(73.799995, 48.554688)"><g><path d="M 8.09375 -22.515625 C 8.976562 -22.515625 10.457031 -21.878906 12.53125 -20.609375 C 13.15625 -20.234375 13.613281 -19.921875 13.90625 -19.671875 C 14.46875 -19.210938 14.75 -18.671875 14.75 -18.046875 C 14.75 -17.640625 14.601562 -17.253906 14.3125 -16.890625 C 13.875 -16.359375 13.363281 -16.09375 12.78125 -16.09375 C 12.28125 -16.09375 11.765625 -16.363281 11.234375 -16.90625 C 10.378906 -17.789062 9.101562 -18.84375 7.40625 -20.0625 C 6.894531 -20.445312 6.640625 -20.851562 6.640625 -21.28125 C 6.640625 -21.519531 6.710938 -21.75 6.859375 -21.96875 C 7.109375 -22.332031 7.519531 -22.515625 8.09375 -22.515625 Z M 4.546875 -15.875 C 5.148438 -15.875 6.035156 -15.660156 7.203125 -15.234375 C 8.578125 -14.734375 9.726562 -14.148438 10.65625 -13.484375 C 11.289062 -13.015625 11.609375 -12.441406 11.609375 -11.765625 C 11.609375 -11.347656 11.457031 -10.945312 11.15625 -10.5625 C 10.78125 -10.050781 10.289062 -9.796875 9.6875 -9.796875 C 9.25 -9.796875 8.75 -10.019531 8.1875 -10.46875 C 7.082031 -11.382812 5.660156 -12.332031 3.921875 -13.3125 C 3.347656 -13.644531 3.0625 -14.066406 3.0625 -14.578125 C 3.0625 -14.804688 3.125 -15.035156 3.25 -15.265625 C 3.488281 -15.671875 3.921875 -15.875 4.546875 -15.875 Z M 25.359375 -16.84375 C 25.640625 -16.84375 25.914062 -16.765625 26.1875 -16.609375 C 26.675781 -16.328125 26.921875 -15.910156 26.921875 -15.359375 C 26.921875 -14.796875 26.460938 -13.753906 25.546875 -12.234375 C 24.035156 -9.703125 21.972656 -7.382812 19.359375 -5.28125 C 16.242188 -2.757812 12.789062 -0.851562 9 0.4375 C 8.5625 0.582031 8.195312 0.65625 7.90625 0.65625 C 7.132812 0.65625 6.570312 0.304688 6.21875 -0.390625 C 6.039062 -0.734375 5.953125 -1.070312 5.953125 -1.40625 C 5.953125 -2.132812 6.285156 -2.679688 6.953125 -3.046875 C 7.054688 -3.097656 7.691406 -3.328125 8.859375 -3.734375 C 12.023438 -4.835938 14.976562 -6.484375 17.71875 -8.671875 C 20.363281 -10.773438 22.398438 -13.128906 23.828125 -15.734375 C 24.242188 -16.472656 24.753906 -16.84375 25.359375 -16.84375 Z M 21.6875 -23.34375 C 22.226562 -23.34375 23.097656 -22.796875 24.296875 -21.703125 C 25.328125 -20.773438 25.84375 -20.039062 25.84375 -19.5 C 25.84375 -19.113281 25.675781 -18.785156 25.34375 -18.515625 C 25.082031 -18.296875 24.785156 -18.1875 24.453125 -18.1875 C 24.015625 -18.1875 23.640625 -18.441406 23.328125 -18.953125 C 22.753906 -19.878906 22.054688 -20.773438 21.234375 -21.640625 C 20.960938 -21.921875 20.828125 -22.210938 20.828125 -22.515625 C 20.828125 -23.066406 21.113281 -23.34375 21.6875 -23.34375 Z M 24.734375 -25.5625 C 25.316406 -25.5625 26.160156 -25.097656 27.265625 -24.171875 C 28.285156 -23.304688 28.796875 -22.578125 28.796875 -21.984375 C 28.796875 -21.546875 28.632812 -21.210938 28.3125 -20.984375 C 28.070312 -20.804688 27.8125 -20.71875 27.53125 -20.71875 C 27.101562 -20.71875 26.726562 -20.960938 26.40625 -21.453125 C 25.875 -22.242188 25.175781 -23.054688 24.3125 -23.890625 C 24 -24.191406 23.84375 -24.484375 23.84375 -24.765625 C 23.84375 -24.960938 23.921875 -25.144531 24.078125 -25.3125 C 24.234375 -25.476562 24.453125 -25.5625 24.734375 -25.5625 Z M 24.734375 -25.5625 "/></g></g></g><g fill="#ffffff" fill-opacity="1"><g transform="translate(103.199991, 48.554688)"><g><path d="M 18.5 -10.46875 C 18.644531 -11.632812 18.71875 -12.398438 18.71875 -12.765625 C 18.71875 -13.085938 18.554688 -13.25 18.234375 -13.25 C 18.140625 -13.25 17.910156 -13.226562 17.546875 -13.1875 C 17.035156 -13.132812 14.328125 -12.90625 9.421875 -12.5 C 9.242188 -12.476562 9.113281 -12.46875 9.03125 -12.46875 C 8.425781 -12.46875 8.003906 -12.734375 7.765625 -13.265625 C 7.660156 -13.515625 7.609375 -13.789062 7.609375 -14.09375 C 7.609375 -14.851562 7.972656 -15.320312 8.703125 -15.5 C 8.816406 -15.519531 10.269531 -15.632812 13.0625 -15.84375 L 17.5 -16.1875 C 18.96875 -16.300781 19.753906 -16.359375 19.859375 -16.359375 C 20.816406 -16.359375 21.503906 -15.9375 21.921875 -15.09375 C 22.085938 -14.75 22.171875 -14.367188 22.171875 -13.953125 C 22.171875 -13.835938 21.945312 -11.601562 21.5 -7.25 L 21.234375 -4.9375 L 21.171875 -4.296875 C 21.710938 -4.003906 21.984375 -3.550781 21.984375 -2.9375 C 21.984375 -2.144531 21.570312 -1.648438 20.75 -1.453125 C 20.613281 -1.421875 17.929688 -1.25 12.703125 -0.9375 C 10.015625 -0.789062 8.632812 -0.71875 8.5625 -0.71875 C 7.613281 -0.71875 7.140625 -1.222656 7.140625 -2.234375 C 7.140625 -3.015625 7.472656 -3.492188 8.140625 -3.671875 C 8.273438 -3.710938 9.429688 -3.796875 11.609375 -3.921875 L 15.734375 -4.15625 L 17.328125 -4.25 L 17.953125 -4.296875 C 18.015625 -4.722656 18.085938 -5.378906 18.171875 -6.265625 L 18.234375 -7.15625 L 18.265625 -7.46875 C 17.078125 -7.414062 14.859375 -7.273438 11.609375 -7.046875 C 10.148438 -6.953125 9.390625 -6.90625 9.328125 -6.90625 C 8.941406 -6.90625 8.613281 -7.035156 8.34375 -7.296875 C 8.070312 -7.554688 7.9375 -7.921875 7.9375 -8.390625 C 7.9375 -9.097656 8.222656 -9.554688 8.796875 -9.765625 C 8.960938 -9.835938 9.335938 -9.890625 9.921875 -9.921875 C 10.421875 -9.941406 11.460938 -10.007812 13.046875 -10.125 C 14.203125 -10.195312 15.828125 -10.300781 17.921875 -10.4375 Z M 18.5 -10.46875 "/></g></g></g><g fill="#ffffff" fill-opacity="1"><g transform="translate(132.599987, 48.554688)"><g><path d="M 6.734375 -21.03125 C 7.140625 -21.03125 7.828125 -20.859375 8.796875 -20.515625 C 10.628906 -19.867188 12.140625 -19.101562 13.328125 -18.21875 C 13.953125 -17.757812 14.265625 -17.191406 14.265625 -16.515625 C 14.265625 -16.128906 14.144531 -15.742188 13.90625 -15.359375 C 13.53125 -14.796875 13.03125 -14.515625 12.40625 -14.515625 C 11.875 -14.515625 11.285156 -14.765625 10.640625 -15.265625 C 9.003906 -16.554688 7.519531 -17.582031 6.1875 -18.34375 C 5.507812 -18.71875 5.171875 -19.164062 5.171875 -19.6875 C 5.171875 -20.582031 5.691406 -21.03125 6.734375 -21.03125 Z M 25.578125 -16.34375 C 25.910156 -16.34375 26.226562 -16.234375 26.53125 -16.015625 C 26.925781 -15.722656 27.125 -15.328125 27.125 -14.828125 C 27.125 -14.410156 26.960938 -13.960938 26.640625 -13.484375 C 24.398438 -10.128906 21.4375 -7.222656 17.75 -4.765625 C 14.6875 -2.722656 11.523438 -1.257812 8.265625 -0.375 C 7.921875 -0.289062 7.625 -0.25 7.375 -0.25 C 6.539062 -0.25 5.945312 -0.628906 5.59375 -1.390625 C 5.4375 -1.734375 5.359375 -2.0625 5.359375 -2.375 C 5.359375 -3.082031 5.71875 -3.613281 6.4375 -3.96875 C 6.582031 -4.039062 7.226562 -4.242188 8.375 -4.578125 C 12.570312 -5.816406 16.484375 -8.035156 20.109375 -11.234375 C 21.492188 -12.460938 22.800781 -13.863281 24.03125 -15.4375 C 24.5 -16.039062 25.015625 -16.34375 25.578125 -16.34375 Z M 25.578125 -16.34375 "/></g></g></g><g fill="#ffffff" fill-opacity="1"><g transform="translate(161.999983, 48.554688)"><g><path d="M 22.4375 -3.171875 L 15.84375 -2.78125 L 15.84375 0.859375 C 15.84375 1.785156 15.34375 2.25 14.34375 2.25 C 13.269531 2.25 12.734375 1.785156 12.734375 0.859375 L 12.734375 -11.015625 C 12.734375 -11.878906 13.269531 -12.3125 14.34375 -12.3125 C 14.945312 -12.3125 15.378906 -12.128906 15.640625 -11.765625 L 23.1875 -12.359375 C 23.34375 -12.367188 23.445312 -12.375 23.5 -12.375 C 24.914062 -12.375 25.625 -11.640625 25.625 -10.171875 L 25.625 0 C 25.625 1.675781 24.910156 2.515625 23.484375 2.515625 C 22.878906 2.515625 22.019531 2.285156 20.90625 1.828125 C 20.25 1.554688 19.71875 1.296875 19.3125 1.046875 C 18.90625 0.796875 18.703125 0.5 18.703125 0.15625 C 18.703125 -0.445312 19.015625 -0.75 19.640625 -0.75 C 19.785156 -0.75 19.992188 -0.722656 20.265625 -0.671875 C 20.898438 -0.546875 21.410156 -0.484375 21.796875 -0.484375 C 22.222656 -0.484375 22.4375 -0.710938 22.4375 -1.171875 Z M 22.4375 -8.828125 L 22.4375 -9.390625 C 22.4375 -9.804688 22.195312 -10 21.71875 -9.96875 L 15.84375 -9.5 L 15.84375 -8.34375 Z M 22.4375 -6.65625 L 15.84375 -6.203125 L 15.84375 -4.984375 L 22.4375 -5.40625 Z M 20.4375 -22.921875 L 25.265625 -23.328125 L 25.390625 -23.34375 C 26.171875 -23.34375 26.5625 -22.945312 26.5625 -22.15625 C 26.5625 -21.382812 26.179688 -20.96875 25.421875 -20.90625 L 20.4375 -20.5 L 20.4375 -19.375 L 24.53125 -19.71875 C 24.59375 -19.71875 24.632812 -19.71875 24.65625 -19.71875 C 25.394531 -19.71875 25.765625 -19.363281 25.765625 -18.65625 C 25.765625 -17.9375 25.410156 -17.546875 24.703125 -17.484375 L 20.4375 -17.171875 L 20.4375 -15.984375 L 27.59375 -16.5 C 27.675781 -16.507812 27.722656 -16.515625 27.734375 -16.515625 C 28.523438 -16.515625 28.921875 -16.113281 28.921875 -15.3125 C 28.921875 -14.476562 28.535156 -14.03125 27.765625 -13.96875 L 10.765625 -12.78125 C 10.710938 -12.78125 10.675781 -12.78125 10.65625 -12.78125 C 9.875 -12.78125 9.484375 -13.175781 9.484375 -13.96875 C 9.484375 -14.78125 9.875 -15.210938 10.65625 -15.265625 L 17.078125 -15.734375 L 17.078125 -16.90625 L 13.359375 -16.625 C 13.285156 -16.613281 13.234375 -16.609375 13.203125 -16.609375 C 12.484375 -16.609375 12.125 -16.960938 12.125 -17.671875 C 12.125 -18.367188 12.484375 -18.75 13.203125 -18.8125 L 17.078125 -19.109375 L 17.078125 -20.203125 L 12.625 -19.828125 C 12.550781 -19.816406 12.507812 -19.8125 12.5 -19.8125 C 11.707031 -19.8125 11.3125 -20.207031 11.3125 -21 C 11.3125 -21.769531 11.691406 -22.191406 12.453125 -22.265625 L 17.078125 -22.640625 L 17.078125 -24.03125 C 17.078125 -24.5625 17.316406 -24.9375 17.796875 -25.15625 C 18.078125 -25.289062 18.394531 -25.359375 18.75 -25.359375 C 19.25 -25.359375 19.660156 -25.234375 19.984375 -24.984375 C 20.285156 -24.742188 20.4375 -24.425781 20.4375 -24.03125 Z M 2.703125 -18.875 C 3.242188 -18.875 3.585938 -18.617188 3.734375 -18.109375 C 3.828125 -17.828125 3.875 -16.84375 3.875 -15.15625 C 3.875 -13.613281 3.796875 -12.351562 3.640625 -11.375 C 3.492188 -10.476562 3.015625 -10.03125 2.203125 -10.03125 C 1.898438 -10.03125 1.617188 -10.109375 1.359375 -10.265625 C 0.984375 -10.503906 0.796875 -10.863281 0.796875 -11.34375 C 0.796875 -11.519531 0.835938 -11.804688 0.921875 -12.203125 C 1.304688 -13.929688 1.523438 -15.695312 1.578125 -17.5 C 1.617188 -18.414062 1.992188 -18.875 2.703125 -18.875 Z M 8.875 -21 C 9.40625 -21 10.160156 -20.097656 11.140625 -18.296875 C 11.347656 -17.929688 11.453125 -17.59375 11.453125 -17.28125 C 11.453125 -16.757812 11.253906 -16.378906 10.859375 -16.140625 C 10.640625 -16.003906 10.378906 -15.9375 10.078125 -15.9375 C 9.441406 -15.9375 9.019531 -16.367188 8.8125 -17.234375 C 8.71875 -17.617188 8.523438 -18.304688 8.234375 -19.296875 C 8.117188 -19.671875 8.0625 -19.945312 8.0625 -20.125 C 8.0625 -20.445312 8.1875 -20.695312 8.4375 -20.875 C 8.570312 -20.957031 8.71875 -21 8.875 -21 Z M 7.921875 -23.390625 L 7.921875 0.546875 C 7.921875 0.816406 7.859375 1.0625 7.734375 1.28125 C 7.441406 1.75 6.976562 1.984375 6.34375 1.984375 C 5.664062 1.984375 5.191406 1.738281 4.921875 1.25 C 4.804688 1.039062 4.75 0.804688 4.75 0.546875 L 4.75 -23.390625 C 4.75 -23.972656 5 -24.398438 5.5 -24.671875 C 5.757812 -24.804688 6.035156 -24.875 6.328125 -24.875 C 6.710938 -24.875 7.050781 -24.769531 7.34375 -24.5625 C 7.726562 -24.289062 7.921875 -23.898438 7.921875 -23.390625 Z M 7.921875 -23.390625 "/></g></g></g><g fill="#ffffff" fill-opacity="1"><g transform="translate(191.399979, 48.554688)"><g><path d="M 10.046875 -8.3125 L 10.046875 -6.25 L 13.65625 -6.609375 C 13.695312 -6.609375 13.75 -6.609375 13.8125 -6.609375 C 14.625 -6.609375 15.03125 -6.132812 15.03125 -5.1875 C 15.03125 -4.269531 14.597656 -3.769531 13.734375 -3.6875 L 10.046875 -3.375 L 10.046875 0.71875 C 10.046875 1.082031 9.9375 1.394531 9.71875 1.65625 C 9.394531 2.019531 8.941406 2.203125 8.359375 2.203125 C 7.648438 2.203125 7.15625 1.941406 6.875 1.421875 C 6.75 1.210938 6.6875 0.976562 6.6875 0.71875 L 6.6875 -3.0625 L 2.609375 -2.703125 C 2.546875 -2.703125 2.476562 -2.703125 2.40625 -2.703125 C 1.625 -2.734375 1.234375 -3.203125 1.234375 -4.109375 C 1.234375 -4.992188 1.660156 -5.472656 2.515625 -5.546875 L 6.6875 -5.953125 L 6.6875 -7.984375 L 3.421875 -7.671875 C 3.359375 -7.671875 3.289062 -7.671875 3.21875 -7.671875 C 2.40625 -7.710938 2 -8.21875 2 -9.1875 C 2 -9.988281 2.410156 -10.425781 3.234375 -10.5 L 4.171875 -10.59375 C 4.160156 -10.644531 4.140625 -10.753906 4.109375 -10.921875 C 3.984375 -11.648438 3.84375 -12.300781 3.6875 -12.875 C 3.632812 -13.070312 3.609375 -13.238281 3.609375 -13.375 C 3.609375 -13.4375 3.617188 -13.5 3.640625 -13.5625 L 2.140625 -13.453125 C 2.066406 -13.441406 1.992188 -13.4375 1.921875 -13.4375 C 1.117188 -13.4375 0.71875 -13.890625 0.71875 -14.796875 C 0.71875 -15.703125 1.140625 -16.191406 1.984375 -16.265625 L 6.453125 -16.640625 L 6.453125 -18.4375 L 3.515625 -18.171875 C 3.492188 -18.171875 3.4375 -18.171875 3.34375 -18.171875 C 2.945312 -18.171875 2.632812 -18.304688 2.40625 -18.578125 C 2.1875 -18.828125 2.078125 -19.160156 2.078125 -19.578125 C 2.078125 -20.492188 2.507812 -20.988281 3.375 -21.0625 L 6.453125 -21.34375 L 6.453125 -23.671875 C 6.453125 -24.242188 6.710938 -24.660156 7.234375 -24.921875 C 7.503906 -25.046875 7.789062 -25.109375 8.09375 -25.109375 C 8.675781 -25.109375 9.125 -24.925781 9.4375 -24.5625 C 9.644531 -24.320312 9.75 -24.023438 9.75 -23.671875 L 9.75 -21.640625 L 12.078125 -21.84375 C 12.484375 -21.882812 12.8125 -21.804688 13.0625 -21.609375 C 13.394531 -21.347656 13.5625 -20.960938 13.5625 -20.453125 C 13.5625 -19.535156 13.132812 -19.035156 12.28125 -18.953125 L 9.75 -18.734375 L 9.75 -16.9375 L 13.765625 -17.28125 C 13.816406 -17.28125 13.878906 -17.28125 13.953125 -17.28125 C 14.785156 -17.28125 15.203125 -16.828125 15.203125 -15.921875 C 15.203125 -14.992188 14.785156 -14.492188 13.953125 -14.421875 L 12.421875 -14.296875 C 12.859375 -13.984375 13.078125 -13.609375 13.078125 -13.171875 C 13.078125 -12.941406 13 -12.703125 12.84375 -12.453125 C 12.6875 -12.210938 12.421875 -11.835938 12.046875 -11.328125 L 12.9375 -11.390625 C 13.019531 -11.398438 13.078125 -11.40625 13.109375 -11.40625 C 13.929688 -11.40625 14.34375 -10.953125 14.34375 -10.046875 C 14.34375 -9.148438 13.910156 -8.660156 13.046875 -8.578125 Z M 10.4375 -14.140625 L 5.421875 -13.71875 C 5.847656 -13.34375 6.257812 -12.804688 6.65625 -12.109375 C 6.925781 -11.617188 7.0625 -11.253906 7.0625 -11.015625 C 7.0625 -10.960938 7.0625 -10.910156 7.0625 -10.859375 L 9.1875 -11.046875 C 9.582031 -12.097656 9.859375 -12.84375 10.015625 -13.28125 C 10.148438 -13.6875 10.289062 -13.972656 10.4375 -14.140625 Z M 15.390625 -19.84375 C 14.953125 -20.101562 14.734375 -20.582031 14.734375 -21.28125 C 14.734375 -22.1875 15.175781 -22.691406 16.0625 -22.796875 L 24.421875 -23.734375 C 24.609375 -23.753906 24.796875 -23.765625 24.984375 -23.765625 C 26.503906 -23.765625 27.265625 -22.960938 27.265625 -21.359375 C 27.265625 -20.847656 27.164062 -19.976562 26.96875 -18.75 C 26.757812 -17.457031 26.484375 -16.507812 26.140625 -15.90625 C 25.710938 -15.144531 25.03125 -14.765625 24.09375 -14.765625 C 23.25 -14.765625 22.242188 -15.097656 21.078125 -15.765625 C 20.546875 -16.066406 20.28125 -16.421875 20.28125 -16.828125 C 20.28125 -17.066406 20.332031 -17.269531 20.4375 -17.4375 C 20.601562 -17.707031 20.835938 -17.84375 21.140625 -17.84375 C 21.234375 -17.84375 21.375 -17.8125 21.5625 -17.75 C 21.976562 -17.632812 22.34375 -17.578125 22.65625 -17.578125 C 23.070312 -17.578125 23.328125 -17.738281 23.421875 -18.0625 C 23.648438 -18.75 23.765625 -19.441406 23.765625 -20.140625 C 23.765625 -20.390625 23.617188 -20.515625 23.328125 -20.515625 C 23.296875 -20.515625 23.269531 -20.515625 23.25 -20.515625 L 18.640625 -20.03125 L 18.640625 -13.109375 L 24.671875 -13.6875 C 24.867188 -13.707031 25.03125 -13.71875 25.15625 -13.71875 C 26.644531 -13.71875 27.390625 -13.015625 27.390625 -11.609375 C 27.390625 -11.035156 27.195312 -10.160156 26.8125 -8.984375 C 26.238281 -7.191406 25.503906 -5.441406 24.609375 -3.734375 C 25.929688 -2.316406 27.191406 -1.222656 28.390625 -0.453125 C 28.992188 -0.0664062 29.296875 0.265625 29.296875 0.546875 C 29.296875 0.765625 29.082031 0.96875 28.65625 1.15625 C 27.65625 1.570312 26.851562 1.78125 26.25 1.78125 C 25.757812 1.78125 25.289062 1.546875 24.84375 1.078125 C 24.257812 0.453125 23.648438 -0.273438 23.015625 -1.109375 C 22.234375 0.00390625 21.554688 0.847656 20.984375 1.421875 C 20.609375 1.804688 20.238281 2 19.875 2 C 19.539062 2 19.257812 1.859375 19.03125 1.578125 C 18.84375 1.367188 18.75 1.144531 18.75 0.90625 C 18.75 0.59375 18.941406 0.171875 19.328125 -0.359375 C 19.816406 -1.054688 20.390625 -2 21.046875 -3.1875 L 21.25 -3.578125 C 20.375 -4.878906 19.640625 -6.226562 19.046875 -7.625 C 18.847656 -8.082031 18.75 -8.441406 18.75 -8.703125 C 18.75 -9.035156 18.878906 -9.289062 19.140625 -9.46875 C 19.378906 -9.613281 19.613281 -9.6875 19.84375 -9.6875 C 20.28125 -9.6875 20.679688 -9.34375 21.046875 -8.65625 C 21.359375 -8.070312 21.875 -7.257812 22.59375 -6.21875 C 23.039062 -7.34375 23.382812 -8.441406 23.625 -9.515625 C 23.707031 -9.847656 23.75 -10.078125 23.75 -10.203125 C 23.75 -10.460938 23.625 -10.585938 23.375 -10.578125 C 23.332031 -10.578125 23.269531 -10.570312 23.1875 -10.5625 L 18.640625 -10.046875 L 18.640625 1.265625 C 18.640625 2.179688 18.097656 2.640625 17.015625 2.640625 C 15.929688 2.640625 15.390625 2.179688 15.390625 1.265625 Z M 15.390625 -19.84375 "/></g></g></g><g fill="#ffffff" fill-opacity="1"><g transform="translate(15.000003, 119.054684)"><g><path d="M 1.015625 -38.53125 C 1.015625 -39.3125 1.273438 -40.007812 1.796875 -40.625 C 2.316406 -41.25 2.96875 -41.707031 3.75 -42 C 4.3125 -42.1875 4.859375 -42.28125 5.390625 -42.28125 C 6.140625 -42.28125 6.828125 -42.082031 7.453125 -41.6875 C 8.078125 -41.289062 8.546875 -40.664062 8.859375 -39.8125 L 19.390625 -10.578125 L 29.921875 -39.8125 C 30.210938 -40.664062 30.675781 -41.289062 31.3125 -41.6875 C 31.945312 -42.082031 32.65625 -42.28125 33.4375 -42.28125 C 33.914062 -42.28125 34.4375 -42.1875 35 -42 C 35.78125 -41.75 36.429688 -41.300781 36.953125 -40.65625 C 37.472656 -40.019531 37.734375 -39.3125 37.734375 -38.53125 C 37.734375 -38.113281 37.660156 -37.738281 37.515625 -37.40625 L 24.6875 -4.21875 C 24.09375 -2.6875 23.320312 -1.632812 22.375 -1.0625 C 21.425781 -0.5 20.429688 -0.21875 19.390625 -0.21875 C 18.328125 -0.21875 17.320312 -0.5 16.375 -1.0625 C 15.425781 -1.632812 14.65625 -2.6875 14.0625 -4.21875 L 1.234375 -37.40625 C 1.085938 -37.738281 1.015625 -38.113281 1.015625 -38.53125 Z M 1.015625 -38.53125 "/></g></g></g><g fill="#ffffff" fill-opacity="1"><g transform="translate(50.952886, 119.054684)"><g><path d="M 2.25 -14.546875 C 2.25 -17.390625 2.867188 -19.921875 4.109375 -22.140625 C 5.359375 -24.367188 7.050781 -26.125 9.1875 -27.40625 C 11.320312 -28.695312 13.710938 -29.34375 16.359375 -29.34375 C 19.304688 -29.34375 21.734375 -28.71875 23.640625 -27.46875 C 25.546875 -26.21875 26.953125 -24.628906 27.859375 -22.703125 C 28.773438 -20.785156 29.234375 -18.816406 29.234375 -16.796875 C 29.234375 -16.210938 29.1875 -15.679688 29.09375 -15.203125 C 29 -14.734375 28.800781 -14.332031 28.5 -14 C 28.238281 -13.707031 27.875 -13.457031 27.40625 -13.25 C 26.945312 -13.039062 26.289062 -12.9375 25.4375 -12.9375 L 9.515625 -12.9375 C 9.585938 -10.800781 10.316406 -9.125 11.703125 -7.90625 C 13.085938 -6.695312 14.863281 -6.09375 17.03125 -6.09375 C 18.53125 -6.09375 19.851562 -6.296875 21 -6.703125 C 22.144531 -7.117188 23.210938 -7.703125 24.203125 -8.453125 C 24.953125 -9.054688 25.695312 -9.359375 26.4375 -9.359375 C 27.332031 -9.359375 28.082031 -9 28.6875 -8.28125 C 29.269531 -7.6875 29.5625 -6.976562 29.5625 -6.15625 C 29.5625 -5.226562 29.148438 -4.367188 28.328125 -3.578125 C 27.066406 -2.304688 25.40625 -1.378906 23.34375 -0.796875 C 21.289062 -0.222656 19.171875 0.0625 16.984375 0.0625 C 13.796875 0.0625 11.101562 -0.578125 8.90625 -1.859375 C 6.707031 -3.148438 5.046875 -4.898438 3.921875 -7.109375 C 2.804688 -9.316406 2.25 -11.796875 2.25 -14.546875 Z M 21.953125 -19.546875 C 21.773438 -20.628906 21.207031 -21.570312 20.25 -22.375 C 19.289062 -23.175781 17.9375 -23.578125 16.1875 -23.578125 C 14.476562 -23.578125 13.035156 -23.070312 11.859375 -22.0625 C 10.679688 -21.0625 9.957031 -19.851562 9.6875 -18.4375 L 21.171875 -18.4375 C 21.734375 -18.4375 22.015625 -18.671875 22.015625 -19.140625 C 22.015625 -19.304688 21.992188 -19.441406 21.953125 -19.546875 Z M 21.953125 -19.546875 "/></g></g></g><g fill="#ffffff" fill-opacity="1"><g transform="translate(81.574561, 119.054684)"><g><path d="M 10.90625 -22.390625 C 11.925781 -24.742188 13.253906 -26.476562 14.890625 -27.59375 C 16.535156 -28.71875 18.144531 -29.28125 19.71875 -29.28125 C 21.78125 -29.28125 23.472656 -28.726562 24.796875 -27.625 C 25.734375 -26.800781 26.203125 -25.84375 26.203125 -24.75 C 26.203125 -23.96875 25.945312 -23.238281 25.4375 -22.5625 C 25.050781 -22.082031 24.613281 -21.738281 24.125 -21.53125 C 23.644531 -21.320312 23.140625 -21.21875 22.609375 -21.21875 C 21.898438 -21.21875 21.273438 -21.410156 20.734375 -21.796875 C 20.054688 -22.234375 19.234375 -22.453125 18.265625 -22.453125 C 16.847656 -22.453125 15.519531 -21.742188 14.28125 -20.328125 C 13.050781 -18.921875 12.082031 -17.203125 11.375 -15.171875 L 11.375 -3.25 C 11.375 -2.195312 10.984375 -1.425781 10.203125 -0.9375 C 9.421875 -0.457031 8.632812 -0.21875 7.84375 -0.21875 C 6.957031 -0.21875 6.148438 -0.457031 5.421875 -0.9375 C 4.691406 -1.425781 4.328125 -2.195312 4.328125 -3.25 L 4.328125 -26.328125 C 4.328125 -27.296875 4.679688 -28.003906 5.390625 -28.453125 C 6.097656 -28.898438 6.84375 -29.140625 7.625 -29.171875 L 7.734375 -29.171875 C 8.554688 -29.171875 9.289062 -28.929688 9.9375 -28.453125 C 10.582031 -27.972656 10.90625 -27.265625 10.90625 -26.328125 Z M 10.90625 -22.390625 "/></g></g></g><g fill="#ffffff" fill-opacity="1"><g transform="translate(105.880712, 119.054684)"><g><path d="M 18.109375 -41.375 C 18.472656 -41.644531 18.921875 -41.867188 19.453125 -42.046875 C 19.992188 -42.234375 20.53125 -42.328125 21.0625 -42.328125 C 21.875 -42.328125 22.679688 -42.101562 23.484375 -41.65625 C 24.285156 -41.207031 24.6875 -40.410156 24.6875 -39.265625 L 24.6875 -3.421875 C 24.6875 -2.640625 24.472656 -2.015625 24.046875 -1.546875 C 23.617188 -1.078125 23.125 -0.738281 22.5625 -0.53125 C 22.007812 -0.320312 21.488281 -0.21875 21 -0.21875 C 20.507812 -0.21875 19.96875 -0.320312 19.375 -0.53125 C 18.78125 -0.738281 18.269531 -1.078125 17.84375 -1.546875 C 17.414062 -2.015625 17.203125 -2.640625 17.203125 -3.421875 L 17.203125 -32.984375 L 12.65625 -30.03125 C 12.351562 -29.820312 12.054688 -29.679688 11.765625 -29.609375 C 11.472656 -29.535156 11.1875 -29.5 10.90625 -29.5 C 10.289062 -29.5 9.734375 -29.660156 9.234375 -29.984375 C 8.742188 -30.304688 8.375 -30.640625 8.125 -30.984375 C 7.707031 -31.523438 7.5 -32.191406 7.5 -32.984375 C 7.5 -33.429688 7.601562 -33.878906 7.8125 -34.328125 C 8.019531 -34.773438 8.390625 -35.179688 8.921875 -35.546875 Z M 18.109375 -41.375 "/></g></g></g><g fill="#ffffff" fill-opacity="1"><g transform="translate(144.403629, 119.054684)"><g><path d="M 4.921875 -5.875 C 4.921875 -7.40625 5.460938 -8.703125 6.546875 -9.765625 C 7.628906 -10.835938 8.921875 -11.375 10.421875 -11.375 C 11.910156 -11.375 13.195312 -10.835938 14.28125 -9.765625 C 15.375 -8.703125 15.921875 -7.40625 15.921875 -5.875 C 15.921875 -4.34375 15.375 -3.046875 14.28125 -1.984375 C 13.195312 -0.921875 11.910156 -0.390625 10.421875 -0.390625 C 8.921875 -0.390625 7.628906 -0.921875 6.546875 -1.984375 C 5.460938 -3.046875 4.921875 -4.34375 4.921875 -5.875 Z M 4.921875 -5.875 "/></g></g></g><g fill="#ffffff" fill-opacity="1"><g transform="translate(164.116671, 119.054684)"><g><path d="M 3.6875 -21.5 C 3.6875 -25.90625 4.378906 -29.691406 5.765625 -32.859375 C 7.148438 -36.035156 9.054688 -38.46875 11.484375 -40.15625 C 13.910156 -41.84375 16.691406 -42.6875 19.828125 -42.6875 C 22.960938 -42.6875 25.738281 -41.84375 28.15625 -40.15625 C 30.582031 -38.46875 32.488281 -36.035156 33.875 -32.859375 C 35.257812 -29.691406 35.953125 -25.90625 35.953125 -21.5 C 35.953125 -16.570312 35.210938 -12.515625 33.734375 -9.328125 C 32.265625 -6.140625 30.304688 -3.769531 27.859375 -2.21875 C 25.421875 -0.664062 22.742188 0.109375 19.828125 0.109375 C 16.910156 0.109375 14.226562 -0.664062 11.78125 -2.21875 C 9.34375 -3.769531 7.382812 -6.140625 5.90625 -9.328125 C 4.425781 -12.515625 3.6875 -16.570312 3.6875 -21.5 Z M 28.28125 -21.328125 C 28.28125 -26.066406 27.492188 -29.753906 25.921875 -32.390625 C 24.359375 -35.023438 22.328125 -36.34375 19.828125 -36.34375 C 17.367188 -36.34375 15.34375 -35.023438 13.75 -32.390625 C 12.164062 -29.753906 11.375 -26.066406 11.375 -21.328125 C 11.375 -17.867188 11.773438 -15.035156 12.578125 -12.828125 C 13.378906 -10.617188 14.410156 -8.988281 15.671875 -7.9375 C 16.941406 -6.894531 18.328125 -6.375 19.828125 -6.375 C 21.316406 -6.375 22.695312 -6.894531 23.96875 -7.9375 C 25.238281 -8.988281 26.273438 -10.617188 27.078125 -12.828125 C 27.878906 -15.035156 28.28125 -17.867188 28.28125 -21.328125 Z M 28.28125 -21.328125 "/></g></g></g><g fill="#ffffff" fill-opacity="1"><g transform="translate(202.639588, 119.054684)"><g><path d="M 4.921875 -5.875 C 4.921875 -7.40625 5.460938 -8.703125 6.546875 -9.765625 C 7.628906 -10.835938 8.921875 -11.375 10.421875 -11.375 C 11.910156 -11.375 13.195312 -10.835938 14.28125 -9.765625 C 15.375 -8.703125 15.921875 -7.40625 15.921875 -5.875 C 15.921875 -4.34375 15.375 -3.046875 14.28125 -1.984375 C 13.195312 -0.921875 11.910156 -0.390625 10.421875 -0.390625 C 8.921875 -0.390625 7.628906 -0.921875 6.546875 -1.984375 C 5.460938 -3.046875 4.921875 -4.34375 4.921875 -5.875 Z M 4.921875 -5.875 "/></g></g></g><g fill="#ffffff" fill-opacity="1"><g transform="translate(222.35263, 119.054684)"><g><path d="M 6.265625 -35.546875 C 6.941406 -36.859375 7.941406 -38.054688 9.265625 -39.140625 C 10.597656 -40.222656 12.164062 -41.082031 13.96875 -41.71875 C 15.78125 -42.363281 17.710938 -42.6875 19.765625 -42.6875 C 22.578125 -42.6875 25.050781 -42.148438 27.1875 -41.078125 C 29.332031 -40.015625 31.007812 -38.582031 32.21875 -36.78125 C 33.4375 -34.988281 34.046875 -32.992188 34.046875 -30.796875 C 34.046875 -28.929688 33.695312 -27.296875 33 -25.890625 C 32.3125 -24.492188 31.269531 -23.132812 29.875 -21.8125 C 28.476562 -20.488281 26.75 -19.039062 24.6875 -17.46875 C 22.300781 -15.644531 20.15625 -13.910156 18.25 -12.265625 C 16.34375 -10.617188 14.71875 -9.070312 13.375 -7.625 L 32.265625 -7.625 C 33.304688 -7.625 34.039062 -7.238281 34.46875 -6.46875 C 34.894531 -5.707031 35.109375 -4.972656 35.109375 -4.265625 C 35.109375 -3.515625 34.894531 -2.753906 34.46875 -1.984375 C 34.039062 -1.222656 33.304688 -0.84375 32.265625 -0.84375 L 8.96875 -0.84375 C 7.363281 -0.84375 6.234375 -1.15625 5.578125 -1.78125 C 4.921875 -2.414062 4.578125 -3.265625 4.546875 -4.328125 L 4.546875 -4.765625 C 4.546875 -5.691406 4.726562 -6.5625 5.09375 -7.375 C 5.46875 -8.195312 6.085938 -9.140625 6.953125 -10.203125 C 7.765625 -11.128906 8.769531 -12.160156 9.96875 -13.296875 C 11.164062 -14.441406 12.4375 -15.601562 13.78125 -16.78125 C 15.132812 -17.957031 16.421875 -19.046875 17.640625 -20.046875 C 20.484375 -22.359375 22.648438 -24.296875 24.140625 -25.859375 C 25.640625 -27.429688 26.390625 -29.078125 26.390625 -30.796875 C 26.390625 -32.484375 25.738281 -33.828125 24.4375 -34.828125 C 23.144531 -35.835938 21.570312 -36.34375 19.71875 -36.34375 C 17.769531 -36.34375 16.222656 -35.921875 15.078125 -35.078125 C 13.941406 -34.242188 13.046875 -33.1875 12.390625 -31.90625 C 11.679688 -30.582031 10.613281 -29.921875 9.1875 -29.921875 C 8.507812 -29.921875 7.875 -30.082031 7.28125 -30.40625 C 6.195312 -31.039062 5.65625 -31.972656 5.65625 -33.203125 C 5.65625 -33.867188 5.859375 -34.648438 6.265625 -35.546875 Z M 6.265625 -35.546875 "/></g></g></g></svg>