<svg xmlns="http://www.w3.org/2000/svg" xmlns:xlink="http://www.w3.org/1999/xlink" width="460" zoomAndPan="magnify" viewBox="0 0 345 60" height="80" preserveAspectRatio="xMidYMid meet" version="1.0"><defs><g/><clipPath id="c408206434"><path d="M 45.003906 3.195312 L 345 3.195312 L 345 55.605469 L 45.003906 55.605469 Z M 45.003906 3.195312 " clip-rule="nonzero"/></clipPath><clipPath id="fc0294a237"><path d="M 54.003906 3.195312 L 336 3.195312 C 340.96875 3.195312 345 7.226562 345 12.195312 L 345 46.605469 C 345 51.578125 340.96875 55.605469 336 55.605469 L 54.003906 55.605469 C 49.035156 55.605469 45.003906 51.578125 45.003906 46.605469 L 45.003906 12.195312 C 45.003906 7.226562 49.035156 3.195312 54.003906 3.195312 Z M 54.003906 3.195312 " clip-rule="nonzero"/></clipPath><clipPath id="ff784304ab"><path d="M 0.00390625 0.195312 L 300 0.195312 L 300 52.605469 L 0.00390625 52.605469 Z M 0.00390625 0.195312 " clip-rule="nonzero"/></clipPath><clipPath id="a954c5e2a9"><path d="M 9.003906 0.195312 L 291 0.195312 C 295.96875 0.195312 300 4.226562 300 9.195312 L 300 43.605469 C 300 48.578125 295.96875 52.605469 291 52.605469 L 9.003906 52.605469 C 4.035156 52.605469 0.00390625 48.578125 0.00390625 43.605469 L 0.00390625 9.195312 C 0.00390625 4.226562 4.035156 0.195312 9.003906 0.195312 Z M 9.003906 0.195312 " clip-rule="nonzero"/></clipPath><clipPath id="ac936f0061"><rect x="0" width="300" y="0" height="53"/></clipPath><clipPath id="d8422f6f86"><path d="M 0 0 L 58.804688 0 L 58.804688 58.804688 L 0 58.804688 Z M 0 0 " clip-rule="nonzero"/></clipPath><clipPath id="a5c3e1fa89"><path d="M 9 0 L 49.804688 0 C 54.773438 0 58.804688 4.03125 58.804688 9 L 58.804688 49.804688 C 58.804688 54.773438 54.773438 58.804688 49.804688 58.804688 L 9 58.804688 C 4.03125 58.804688 0 54.773438 0 49.804688 L 0 9 C 0 4.03125 4.03125 0 9 0 Z M 9 0 " clip-rule="nonzero"/></clipPath><clipPath id="0bc3c0b0c0"><path d="M 0 0 L 58.804688 0 L 58.804688 58.804688 L 0 58.804688 Z M 0 0 " clip-rule="nonzero"/></clipPath><clipPath id="b9a8685c2c"><path d="M 9 0 L 49.804688 0 C 54.773438 0 58.804688 4.03125 58.804688 9 L 58.804688 49.804688 C 58.804688 54.773438 54.773438 58.804688 49.804688 58.804688 L 9 58.804688 C 4.03125 58.804688 0 54.773438 0 49.804688 L 0 9 C 0 4.03125 4.03125 0 9 0 Z M 9 0 " clip-rule="nonzero"/></clipPath><clipPath id="caf11c71e3"><rect x="0" width="59" y="0" height="59"/></clipPath><clipPath id="07aa952495"><rect x="0" width="278" y="0" height="28"/></clipPath><clipPath id="f8288af22c"><rect x="0" width="29" y="0" height="54"/></clipPath><clipPath id="f4bab08360"><rect x="0" width="345" y="0" height="60"/></clipPath></defs><g transform="matrix(1, 0, 0, 1, 0, -0.000000000000001479)"><g clip-path="url(#f4bab08360)"><g clip-path="url(#c408206434)"><g clip-path="url(#fc0294a237)"><g transform="matrix(1, 0, 0, 1, 45, 3)"><g clip-path="url(#ac936f0061)"><g clip-path="url(#ff784304ab)"><g clip-path="url(#a954c5e2a9)"><path fill="#a4e2ff" d="M 0.00390625 0.195312 L 299.921875 0.195312 L 299.921875 52.605469 L 0.00390625 52.605469 Z M 0.00390625 0.195312 " fill-opacity="1" fill-rule="nonzero"/></g></g></g></g></g></g><g clip-path="url(#d8422f6f86)"><g clip-path="url(#a5c3e1fa89)"><g transform="matrix(1, 0, 0, 1, 0, -0.000000000000001479)"><g clip-path="url(#caf11c71e3)"><g clip-path="url(#0bc3c0b0c0)"><g clip-path="url(#b9a8685c2c)"><path fill="#00a0e9" d="M 0 0 L 58.804688 0 L 58.804688 58.804688 L 0 58.804688 Z M 0 0 " fill-opacity="1" fill-rule="nonzero"/></g></g></g></g></g></g><g transform="matrix(1, 0, 0, 1, 66, 15)"><g clip-path="url(#07aa952495)"><g fill="#000000" fill-opacity="1"><g transform="translate(0.154604, 21.84843)"><g><path d="M 7.796875 -6.859375 L 7.609375 -8.859375 C 7.835938 -8.867188 8.070312 -8.878906 8.3125 -8.890625 C 8.5625 -8.898438 8.816406 -8.914062 9.078125 -8.9375 C 9.253906 -9.34375 9.421875 -9.773438 9.578125 -10.234375 C 9.742188 -10.703125 9.882812 -11.148438 10 -11.578125 L 7.5 -11.578125 L 7.5 -13.546875 L 11.28125 -13.546875 L 11.28125 -15.703125 L 13.53125 -15.703125 L 13.53125 -13.546875 L 17.65625 -13.546875 L 17.65625 -11.578125 L 12.46875 -11.578125 C 12.28125 -11.160156 12.085938 -10.738281 11.890625 -10.3125 C 11.691406 -9.882812 11.503906 -9.472656 11.328125 -9.078125 C 11.828125 -9.117188 12.332031 -9.15625 12.84375 -9.1875 C 13.363281 -9.226562 13.882812 -9.265625 14.40625 -9.296875 C 14.125 -9.710938 13.84375 -10.101562 13.5625 -10.46875 L 15.25 -11.375 C 15.59375 -10.957031 15.945312 -10.492188 16.3125 -9.984375 C 16.675781 -9.484375 17.015625 -8.984375 17.328125 -8.484375 C 17.640625 -7.992188 17.875 -7.550781 18.03125 -7.15625 L 16.21875 -6.171875 C 16.039062 -6.578125 15.816406 -7.015625 15.546875 -7.484375 C 14.160156 -7.367188 12.785156 -7.253906 11.421875 -7.140625 C 10.054688 -7.035156 8.847656 -6.941406 7.796875 -6.859375 Z M 1.3125 -4.859375 L 3.125 -4.546875 C 3.039062 -3.679688 2.898438 -2.816406 2.703125 -1.953125 C 2.515625 -1.085938 2.285156 -0.359375 2.015625 0.234375 C 1.816406 0.117188 1.546875 -0.015625 1.203125 -0.171875 C 0.867188 -0.335938 0.578125 -0.46875 0.328125 -0.5625 C 0.597656 -1.101562 0.8125 -1.757812 0.96875 -2.53125 C 1.125 -3.300781 1.238281 -4.078125 1.3125 -4.859375 Z M 6.25 -6.015625 L 5.296875 -5.953125 L 5.296875 1.625 L 3.390625 1.625 L 3.390625 -5.8125 L 0.703125 -5.65625 L 0.515625 -7.5625 L 1.859375 -7.609375 C 1.992188 -7.785156 2.132812 -7.972656 2.28125 -8.171875 C 2.425781 -8.378906 2.570312 -8.585938 2.71875 -8.796875 C 2.445312 -9.191406 2.109375 -9.617188 1.703125 -10.078125 C 1.304688 -10.535156 0.914062 -10.953125 0.53125 -11.328125 L 1.59375 -12.828125 C 1.65625 -12.773438 1.722656 -12.710938 1.796875 -12.640625 C 1.867188 -12.578125 1.941406 -12.515625 2.015625 -12.453125 C 2.273438 -12.960938 2.523438 -13.503906 2.765625 -14.078125 C 3.003906 -14.648438 3.207031 -15.179688 3.375 -15.671875 L 5.28125 -14.96875 C 4.945312 -14.34375 4.597656 -13.691406 4.234375 -13.015625 C 3.878906 -12.347656 3.535156 -11.757812 3.203125 -11.25 C 3.316406 -11.125 3.425781 -11 3.53125 -10.875 C 3.644531 -10.75 3.75 -10.625 3.84375 -10.5 C 4.15625 -11.019531 4.453125 -11.535156 4.734375 -12.046875 C 5.023438 -12.566406 5.273438 -13.054688 5.484375 -13.515625 L 7.28125 -12.671875 C 6.769531 -11.867188 6.207031 -11.023438 5.59375 -10.140625 C 4.988281 -9.265625 4.394531 -8.445312 3.8125 -7.6875 L 5.59375 -7.765625 C 5.5 -7.992188 5.394531 -8.222656 5.28125 -8.453125 C 5.164062 -8.679688 5.054688 -8.894531 4.953125 -9.09375 L 6.40625 -9.703125 C 6.644531 -9.285156 6.875 -8.835938 7.09375 -8.359375 C 7.320312 -7.890625 7.519531 -7.429688 7.6875 -6.984375 C 7.863281 -6.535156 7.984375 -6.132812 8.046875 -5.78125 L 6.484375 -5.078125 C 6.460938 -5.210938 6.429688 -5.359375 6.390625 -5.515625 C 6.359375 -5.679688 6.3125 -5.847656 6.25 -6.015625 Z M 8.046875 -1.671875 L 6.40625 -1.078125 C 6.320312 -1.546875 6.175781 -2.097656 5.96875 -2.734375 C 5.757812 -3.378906 5.550781 -3.972656 5.34375 -4.515625 L 6.890625 -5 C 7.128906 -4.46875 7.351562 -3.894531 7.5625 -3.28125 C 7.78125 -2.675781 7.941406 -2.140625 8.046875 -1.671875 Z M 9.5625 -6.359375 L 11.65625 -6.359375 C 11.613281 -5.378906 11.535156 -4.476562 11.421875 -3.65625 C 11.316406 -2.832031 11.128906 -2.085938 10.859375 -1.421875 C 10.585938 -0.753906 10.191406 -0.171875 9.671875 0.328125 C 9.160156 0.835938 8.488281 1.28125 7.65625 1.65625 C 7.53125 1.40625 7.347656 1.113281 7.109375 0.78125 C 6.867188 0.457031 6.632812 0.203125 6.40625 0.015625 C 7.113281 -0.273438 7.671875 -0.617188 8.078125 -1.015625 C 8.484375 -1.410156 8.785156 -1.867188 8.984375 -2.390625 C 9.191406 -2.921875 9.332031 -3.515625 9.40625 -4.171875 C 9.488281 -4.828125 9.539062 -5.554688 9.5625 -6.359375 Z M 15.328125 -0.4375 L 15.9375 -0.4375 C 16.03125 -0.4375 16.101562 -0.488281 16.15625 -0.59375 C 16.207031 -0.707031 16.242188 -0.925781 16.265625 -1.25 C 16.296875 -1.570312 16.316406 -2.070312 16.328125 -2.75 C 16.535156 -2.570312 16.820312 -2.40625 17.1875 -2.25 C 17.5625 -2.09375 17.882812 -1.976562 18.15625 -1.90625 C 18.113281 -1.019531 18.015625 -0.332031 17.859375 0.15625 C 17.710938 0.65625 17.503906 1 17.234375 1.1875 C 16.960938 1.382812 16.601562 1.484375 16.15625 1.484375 L 14.9375 1.484375 C 14.40625 1.484375 13.992188 1.40625 13.703125 1.25 C 13.410156 1.09375 13.210938 0.832031 13.109375 0.46875 C 13.003906 0.101562 12.953125 -0.390625 12.953125 -1.015625 L 12.953125 -6.375 L 15.03125 -6.375 L 15.03125 -1.03125 C 15.03125 -0.757812 15.046875 -0.59375 15.078125 -0.53125 C 15.117188 -0.46875 15.203125 -0.4375 15.328125 -0.4375 Z M 15.328125 -0.4375 "/></g></g></g><g fill="#000000" fill-opacity="1"><g transform="translate(18.686057, 21.84843)"><g><path d="M 12.953125 -4.015625 L 5.640625 -4.015625 L 5.640625 -1 L 12.953125 -1 Z M 3.46875 1.625 L 3.46875 -5.96875 L 15.21875 -5.96875 L 15.21875 1.625 L 12.953125 1.625 L 12.953125 0.9375 L 5.640625 0.9375 L 5.640625 1.625 Z M 5.515625 -9.75 L 13.015625 -9.75 C 12.242188 -10.351562 11.523438 -10.976562 10.859375 -11.625 C 10.203125 -12.269531 9.648438 -12.898438 9.203125 -13.515625 C 8.773438 -12.890625 8.242188 -12.253906 7.609375 -11.609375 C 6.984375 -10.972656 6.285156 -10.351562 5.515625 -9.75 Z M 7.96875 -15.671875 L 10.25 -15.671875 C 10.914062 -14.734375 11.675781 -13.851562 12.53125 -13.03125 C 13.382812 -12.207031 14.296875 -11.476562 15.265625 -10.84375 C 16.234375 -10.207031 17.203125 -9.691406 18.171875 -9.296875 C 17.898438 -9.015625 17.644531 -8.703125 17.40625 -8.359375 C 17.164062 -8.015625 16.945312 -7.664062 16.75 -7.3125 C 16.28125 -7.5625 15.804688 -7.832031 15.328125 -8.125 C 14.859375 -8.425781 14.390625 -8.742188 13.921875 -9.078125 L 13.921875 -7.796875 L 4.6875 -7.796875 L 4.6875 -9.09375 C 4.226562 -8.757812 3.757812 -8.441406 3.28125 -8.140625 C 2.800781 -7.835938 2.3125 -7.550781 1.8125 -7.28125 C 1.664062 -7.550781 1.457031 -7.859375 1.1875 -8.203125 C 0.925781 -8.554688 0.671875 -8.847656 0.421875 -9.078125 C 1.484375 -9.597656 2.503906 -10.226562 3.484375 -10.96875 C 4.460938 -11.707031 5.335938 -12.488281 6.109375 -13.3125 C 6.890625 -14.132812 7.507812 -14.921875 7.96875 -15.671875 Z M 7.96875 -15.671875 "/></g></g></g><g fill="#000000" fill-opacity="1"><g transform="translate(37.21751, 21.84843)"><g><path d="M 7.5 -15.125 L 7.5 -13.453125 L 1.609375 -13.453125 L 1.609375 -15.125 Z M 5.46875 -3.21875 L 3.359375 -3.21875 L 3.359375 -1.09375 L 5.46875 -1.09375 Z M 7.390625 -4.96875 L 7.390625 0.625 L 3.359375 0.625 L 3.359375 1.359375 L 1.453125 1.359375 L 1.453125 -4.96875 Z M 1.5 -5.875 L 1.5 -7.53125 L 7.453125 -7.53125 L 7.453125 -5.875 Z M 1.5 -8.375 L 1.5 -10.0625 L 7.453125 -10.0625 L 7.453125 -8.375 Z M 0.609375 -10.890625 L 0.609375 -12.640625 L 8.1875 -12.640625 L 8.1875 -10.890625 Z M 12.21875 -0.625 L 14.859375 -0.625 C 15.140625 -0.625 15.347656 -0.691406 15.484375 -0.828125 C 15.628906 -0.960938 15.734375 -1.226562 15.796875 -1.625 C 15.867188 -2.019531 15.921875 -2.601562 15.953125 -3.375 C 16.203125 -3.195312 16.53125 -3.023438 16.9375 -2.859375 C 17.34375 -2.691406 17.695312 -2.578125 18 -2.515625 C 17.90625 -1.492188 17.757812 -0.695312 17.5625 -0.125 C 17.363281 0.445312 17.066406 0.851562 16.671875 1.09375 C 16.273438 1.332031 15.726562 1.453125 15.03125 1.453125 L 11.96875 1.453125 C 11.207031 1.453125 10.601562 1.363281 10.15625 1.1875 C 9.71875 1.019531 9.40625 0.71875 9.21875 0.28125 C 9.039062 -0.144531 8.953125 -0.75 8.953125 -1.53125 L 8.953125 -8.796875 L 14.8125 -8.796875 L 14.8125 -12.671875 L 8.90625 -12.671875 L 8.90625 -14.765625 L 17.015625 -14.765625 L 17.015625 -5.796875 L 14.8125 -5.796875 L 14.8125 -6.703125 L 11.1875 -6.703125 L 11.1875 -1.53125 C 11.1875 -1.15625 11.25 -0.910156 11.375 -0.796875 C 11.5 -0.679688 11.78125 -0.625 12.21875 -0.625 Z M 12.21875 -0.625 "/></g></g></g><g fill="#000000" fill-opacity="1"><g transform="translate(55.748962, 21.84843)"><g><path d="M 6.953125 -11.828125 L 11.46875 -11.828125 C 10.539062 -12.460938 9.769531 -13.109375 9.15625 -13.765625 C 8.570312 -13.109375 7.835938 -12.460938 6.953125 -11.828125 Z M 5.9375 -10.125 L 5.9375 -11.140625 C 5.289062 -10.742188 4.613281 -10.367188 3.90625 -10.015625 C 3.207031 -9.671875 2.5 -9.363281 1.78125 -9.09375 C 1.65625 -9.382812 1.472656 -9.710938 1.234375 -10.078125 C 1.003906 -10.453125 0.78125 -10.757812 0.5625 -11 C 1.5625 -11.34375 2.53125 -11.765625 3.46875 -12.265625 C 4.414062 -12.765625 5.269531 -13.304688 6.03125 -13.890625 C 6.800781 -14.484375 7.425781 -15.078125 7.90625 -15.671875 L 10.1875 -15.671875 C 11.21875 -14.585938 12.410156 -13.664062 13.765625 -12.90625 C 15.128906 -12.15625 16.519531 -11.582031 17.9375 -11.1875 C 17.6875 -10.90625 17.441406 -10.578125 17.203125 -10.203125 C 16.960938 -9.835938 16.753906 -9.492188 16.578125 -9.171875 C 15.929688 -9.421875 15.25 -9.71875 14.53125 -10.0625 C 13.8125 -10.40625 13.113281 -10.78125 12.4375 -11.1875 L 12.4375 -10.125 Z M 13.546875 -9.359375 L 15.015625 -8.453125 C 14.785156 -7.984375 14.503906 -7.476562 14.171875 -6.9375 C 13.847656 -6.40625 13.503906 -5.878906 13.140625 -5.359375 C 12.773438 -4.847656 12.425781 -4.390625 12.09375 -3.984375 C 11.882812 -4.160156 11.613281 -4.347656 11.28125 -4.546875 C 10.945312 -4.742188 10.648438 -4.898438 10.390625 -5.015625 C 10.679688 -5.347656 10.960938 -5.722656 11.234375 -6.140625 C 11.515625 -6.566406 11.773438 -6.988281 12.015625 -7.40625 L 3.15625 -7.40625 L 3.15625 -9.265625 L 13.1875 -9.265625 Z M 6.40625 -5.0625 L 7.796875 -6.5 C 8.234375 -6.3125 8.675781 -6.082031 9.125 -5.8125 C 9.570312 -5.539062 9.992188 -5.257812 10.390625 -4.96875 C 10.796875 -4.6875 11.125 -4.40625 11.375 -4.125 L 9.875 -2.578125 C 9.65625 -2.847656 9.351562 -3.132812 8.96875 -3.4375 C 8.582031 -3.738281 8.164062 -4.03125 7.71875 -4.3125 C 7.28125 -4.601562 6.84375 -4.851562 6.40625 -5.0625 Z M 2.390625 0.96875 L 0.53125 -0.28125 C 1.15625 -0.75 1.664062 -1.351562 2.0625 -2.09375 C 2.457031 -2.832031 2.742188 -3.601562 2.921875 -4.40625 L 4.90625 -3.78125 C 4.695312 -2.875 4.394531 -2 4 -1.15625 C 3.613281 -0.3125 3.078125 0.394531 2.390625 0.96875 Z M 8.453125 -0.625 L 10.640625 -0.625 C 10.859375 -0.625 11.019531 -0.664062 11.125 -0.75 C 11.238281 -0.84375 11.320312 -1.03125 11.375 -1.3125 C 11.425781 -1.59375 11.460938 -2.019531 11.484375 -2.59375 C 11.691406 -2.414062 11.992188 -2.25 12.390625 -2.09375 C 12.785156 -1.945312 13.132812 -1.84375 13.4375 -1.78125 C 13.351562 -0.945312 13.21875 -0.304688 13.03125 0.140625 C 12.851562 0.585938 12.59375 0.894531 12.25 1.0625 C 11.90625 1.238281 11.4375 1.328125 10.84375 1.328125 L 8.1875 1.328125 C 7.445312 1.328125 6.875 1.25 6.46875 1.09375 C 6.070312 0.945312 5.796875 0.6875 5.640625 0.3125 C 5.484375 -0.0507812 5.40625 -0.554688 5.40625 -1.203125 L 5.40625 -4.203125 L 7.59375 -4.203125 L 7.59375 -1.21875 C 7.59375 -0.957031 7.644531 -0.789062 7.75 -0.71875 C 7.851562 -0.65625 8.085938 -0.625 8.453125 -0.625 Z M 12.640625 -3.609375 L 14.453125 -4.6875 C 14.898438 -4.28125 15.34375 -3.828125 15.78125 -3.328125 C 16.226562 -2.828125 16.628906 -2.328125 16.984375 -1.828125 C 17.347656 -1.328125 17.625 -0.851562 17.8125 -0.40625 L 15.84375 0.8125 C 15.6875 0.382812 15.441406 -0.0859375 15.109375 -0.609375 C 14.773438 -1.128906 14.390625 -1.648438 13.953125 -2.171875 C 13.523438 -2.703125 13.085938 -3.179688 12.640625 -3.609375 Z M 12.640625 -3.609375 "/></g></g></g><g fill="#000000" fill-opacity="1"><g transform="translate(74.280415, 21.84843)"><g><path d="M 6.015625 -11.421875 L 8.53125 -11.421875 C 8.4375 -11.703125 8.3125 -12.007812 8.15625 -12.34375 C 8.007812 -12.675781 7.847656 -12.984375 7.671875 -13.265625 C 7.359375 -13.253906 7.046875 -13.238281 6.734375 -13.21875 C 6.421875 -13.195312 6.101562 -13.175781 5.78125 -13.15625 C 5.957031 -12.90625 6.117188 -12.644531 6.265625 -12.375 C 6.421875 -12.101562 6.523438 -11.863281 6.578125 -11.65625 Z M 9.5 -11.421875 L 12.046875 -11.421875 C 12.253906 -11.734375 12.476562 -12.109375 12.71875 -12.546875 C 12.957031 -12.992188 13.160156 -13.398438 13.328125 -13.765625 C 12.753906 -13.691406 12.164062 -13.625 11.5625 -13.5625 C 10.96875 -13.507812 10.363281 -13.453125 9.75 -13.390625 C 9.914062 -13.117188 10.066406 -12.84375 10.203125 -12.5625 C 10.347656 -12.28125 10.441406 -12.019531 10.484375 -11.78125 Z M 3.453125 -9.734375 L 3.453125 -8.046875 L 1.359375 -8.046875 L 1.359375 -11.421875 L 4.546875 -11.421875 C 4.285156 -11.960938 3.96875 -12.492188 3.59375 -13.015625 L 3.796875 -13.109375 C 3.546875 -13.085938 3.296875 -13.070312 3.046875 -13.0625 C 2.796875 -13.0625 2.546875 -13.0625 2.296875 -13.0625 C 2.285156 -13.300781 2.234375 -13.578125 2.140625 -13.890625 C 2.054688 -14.203125 1.96875 -14.457031 1.875 -14.65625 C 3.007812 -14.6875 4.175781 -14.726562 5.375 -14.78125 C 6.582031 -14.832031 7.765625 -14.898438 8.921875 -14.984375 C 10.078125 -15.078125 11.164062 -15.179688 12.1875 -15.296875 C 13.207031 -15.421875 14.09375 -15.5625 14.84375 -15.71875 L 16.3125 -14.25 C 15.9375 -14.175781 15.550781 -14.101562 15.15625 -14.03125 C 14.769531 -13.96875 14.363281 -13.90625 13.9375 -13.84375 L 15.609375 -13.328125 C 15.367188 -12.992188 15.128906 -12.660156 14.890625 -12.328125 C 14.660156 -12.003906 14.4375 -11.703125 14.21875 -11.421875 L 17.203125 -11.421875 L 17.203125 -7.78125 L 15.421875 -7.78125 C 15.910156 -7.320312 16.304688 -6.878906 16.609375 -6.453125 L 15.03125 -5.265625 C 14.851562 -5.554688 14.609375 -5.875 14.296875 -6.21875 C 13.992188 -6.570312 13.65625 -6.921875 13.28125 -7.265625 C 12.914062 -7.617188 12.550781 -7.941406 12.1875 -8.234375 L 13.671875 -9.265625 C 13.878906 -9.109375 14.097656 -8.9375 14.328125 -8.75 C 14.554688 -8.5625 14.785156 -8.367188 15.015625 -8.171875 L 15.015625 -9.734375 L 9.96875 -9.734375 C 10.21875 -9.609375 10.445312 -9.472656 10.65625 -9.328125 C 10.875 -9.191406 11.066406 -9.050781 11.234375 -8.90625 L 10.125 -7.6875 C 9.84375 -7.945312 9.445312 -8.226562 8.9375 -8.53125 C 8.4375 -8.832031 7.953125 -9.082031 7.484375 -9.28125 L 7.890625 -9.734375 Z M 3.390625 -5.078125 L 1.875 -6.3125 C 2.40625 -6.601562 2.867188 -6.988281 3.265625 -7.46875 C 3.671875 -7.945312 3.988281 -8.4375 4.21875 -8.9375 L 5.875 -8.234375 C 5.613281 -7.640625 5.285156 -7.0625 4.890625 -6.5 C 4.492188 -5.945312 3.992188 -5.472656 3.390625 -5.078125 Z M 11.375 -3.28125 L 6.953125 -3.28125 C 7.273438 -3.019531 7.625 -2.773438 8 -2.546875 C 8.382812 -2.328125 8.804688 -2.117188 9.265625 -1.921875 C 10.085938 -2.316406 10.789062 -2.769531 11.375 -3.28125 Z M 13.21875 -4.859375 L 14.578125 -3.984375 C 14.210938 -3.410156 13.785156 -2.890625 13.296875 -2.421875 C 12.804688 -1.953125 12.257812 -1.53125 11.65625 -1.15625 C 12.5625 -0.925781 13.519531 -0.742188 14.53125 -0.609375 C 15.550781 -0.484375 16.617188 -0.390625 17.734375 -0.328125 C 17.515625 -0.0976562 17.28125 0.207031 17.03125 0.59375 C 16.789062 0.988281 16.601562 1.332031 16.46875 1.625 C 15.113281 1.507812 13.828125 1.320312 12.609375 1.0625 C 11.390625 0.8125 10.265625 0.476562 9.234375 0.0625 C 8.179688 0.46875 7.046875 0.800781 5.828125 1.0625 C 4.617188 1.320312 3.375 1.519531 2.09375 1.65625 C 2 1.40625 1.832031 1.09375 1.59375 0.71875 C 1.351562 0.351562 1.144531 0.0546875 0.96875 -0.171875 C 2.050781 -0.242188 3.097656 -0.351562 4.109375 -0.5 C 5.128906 -0.65625 6.085938 -0.859375 6.984375 -1.109375 C 6.359375 -1.503906 5.800781 -1.9375 5.3125 -2.40625 C 4.90625 -2.1875 4.492188 -1.976562 4.078125 -1.78125 C 3.671875 -1.582031 3.265625 -1.398438 2.859375 -1.234375 C 2.679688 -1.429688 2.4375 -1.6875 2.125 -2 C 1.820312 -2.3125 1.554688 -2.546875 1.328125 -2.703125 C 2.410156 -3.023438 3.453125 -3.453125 4.453125 -3.984375 C 5.453125 -4.515625 6.285156 -5.117188 6.953125 -5.796875 C 6.546875 -5.910156 6.269531 -6.113281 6.125 -6.40625 C 5.976562 -6.695312 5.90625 -7.109375 5.90625 -7.640625 L 5.90625 -8.90625 L 7.9375 -8.90625 L 7.9375 -7.640625 C 7.9375 -7.421875 7.976562 -7.285156 8.0625 -7.234375 C 8.15625 -7.191406 8.359375 -7.171875 8.671875 -7.171875 L 10.625 -7.171875 C 10.851562 -7.171875 11.007812 -7.21875 11.09375 -7.3125 C 11.1875 -7.414062 11.242188 -7.660156 11.265625 -8.046875 C 11.472656 -7.921875 11.738281 -7.804688 12.0625 -7.703125 C 12.382812 -7.597656 12.679688 -7.519531 12.953125 -7.46875 C 12.859375 -6.75 12.65625 -6.265625 12.34375 -6.015625 C 12.039062 -5.773438 11.546875 -5.65625 10.859375 -5.65625 L 9.15625 -5.65625 L 9.265625 -5.609375 C 9.148438 -5.472656 9.035156 -5.335938 8.921875 -5.203125 C 8.804688 -5.066406 8.679688 -4.929688 8.546875 -4.796875 L 12.84375 -4.796875 Z M 13.21875 -4.859375 "/></g></g></g><g fill="#000000" fill-opacity="1"><g transform="translate(92.811868, 21.84843)"><g><path d="M 14.34375 -12.265625 L 14.34375 -13.375 L 9.953125 -13.375 L 9.953125 -12.265625 Z M 14.34375 -9.578125 L 14.34375 -10.71875 L 9.953125 -10.71875 L 9.953125 -9.578125 Z M 16.578125 -15.0625 L 16.578125 -7.90625 L 7.84375 -7.90625 L 7.84375 -15.0625 Z M 4.578125 -12.0625 L 3.265625 -12.0625 L 3.265625 -5.25 L 4.578125 -5.25 Z M 6.59375 -14.078125 L 6.59375 -3.21875 L 3.265625 -3.21875 L 3.265625 -1.578125 L 1.28125 -1.578125 L 1.28125 -14.078125 Z M 9.484375 -0.90625 L 14.921875 -0.90625 L 14.921875 -2.125 L 9.484375 -2.125 Z M 14.921875 -5.0625 L 9.484375 -5.0625 L 9.484375 -3.921875 L 14.921875 -3.921875 Z M 7.296875 -6.90625 L 17.203125 -6.90625 L 17.203125 1.515625 L 14.921875 1.515625 L 14.921875 0.9375 L 9.484375 0.9375 L 9.484375 1.609375 L 7.296875 1.609375 Z M 7.296875 -6.90625 "/></g></g></g><g fill="#000000" fill-opacity="1"><g transform="translate(111.343321, 21.84843)"><g><path d="M 4.453125 -2.953125 L 2.921875 -2.953125 L 2.921875 -1.796875 L 4.453125 -1.796875 Z M 6.046875 -0.390625 L 2.921875 -0.390625 L 2.921875 0.46875 L 1.328125 0.46875 L 1.328125 -4.375 L 6.046875 -4.375 Z M 4.421875 -9.890625 L 4.421875 -11 L 3 -11 L 3 -9.890625 Z M 14.46875 -10.390625 L 14.46875 -8.09375 C 14.46875 -7.65625 14.519531 -7.097656 14.625 -6.421875 C 14.726562 -5.753906 14.910156 -5.050781 15.171875 -4.3125 C 15.441406 -3.570312 15.816406 -2.851562 16.296875 -2.15625 C 16.773438 -1.457031 17.382812 -0.84375 18.125 -0.3125 C 17.925781 -0.0820312 17.695312 0.226562 17.4375 0.625 C 17.175781 1.019531 16.96875 1.347656 16.8125 1.609375 C 16.28125 1.242188 15.8125 0.796875 15.40625 0.265625 C 15.007812 -0.265625 14.671875 -0.820312 14.390625 -1.40625 C 14.117188 -2 13.90625 -2.5625 13.75 -3.09375 C 13.601562 -3.632812 13.5 -4.09375 13.4375 -4.46875 C 13.375 -4.070312 13.253906 -3.609375 13.078125 -3.078125 C 12.910156 -2.546875 12.675781 -1.988281 12.375 -1.40625 C 12.082031 -0.820312 11.722656 -0.269531 11.296875 0.25 C 10.878906 0.769531 10.394531 1.226562 9.84375 1.625 C 9.75 1.425781 9.613281 1.1875 9.4375 0.90625 C 9.257812 0.625 9.082031 0.363281 8.90625 0.125 C 8.875 0.394531 8.804688 0.617188 8.703125 0.796875 C 8.597656 0.984375 8.429688 1.140625 8.203125 1.265625 C 7.910156 1.410156 7.566406 1.5 7.171875 1.53125 C 6.773438 1.5625 6.304688 1.578125 5.765625 1.578125 C 5.722656 1.304688 5.644531 1.003906 5.53125 0.671875 C 5.425781 0.335938 5.3125 0.0507812 5.1875 -0.1875 C 5.507812 -0.175781 5.816406 -0.171875 6.109375 -0.171875 C 6.410156 -0.171875 6.601562 -0.175781 6.6875 -0.1875 C 6.800781 -0.195312 6.875 -0.21875 6.90625 -0.25 C 6.945312 -0.28125 6.96875 -0.335938 6.96875 -0.421875 L 6.96875 -5.140625 L 0.609375 -5.140625 L 0.609375 -6.9375 L 10.203125 -6.9375 L 10.203125 -5.140625 L 8.9375 -5.140625 L 8.9375 -0.46875 C 9.632812 -1.007812 10.203125 -1.625 10.640625 -2.3125 C 11.078125 -3.007812 11.421875 -3.71875 11.671875 -4.4375 C 11.921875 -5.15625 12.09375 -5.832031 12.1875 -6.46875 C 12.28125 -7.113281 12.328125 -7.65625 12.328125 -8.09375 L 12.328125 -10.390625 L 12.03125 -10.390625 C 11.601562 -9.109375 11.109375 -8.023438 10.546875 -7.140625 C 10.378906 -7.296875 10.117188 -7.484375 9.765625 -7.703125 C 9.421875 -7.929688 9.113281 -8.113281 8.84375 -8.25 C 8.75 -7.914062 8.535156 -7.660156 8.203125 -7.484375 C 7.921875 -7.359375 7.582031 -7.285156 7.1875 -7.265625 C 6.800781 -7.242188 6.335938 -7.234375 5.796875 -7.234375 C 5.765625 -7.441406 5.707031 -7.660156 5.625 -7.890625 C 5.539062 -8.128906 5.453125 -8.351562 5.359375 -8.5625 L 3 -8.5625 L 3 -7.984375 L 1.40625 -7.984375 L 1.40625 -12.328125 L 6.015625 -12.328125 L 6.015625 -8.828125 L 6.703125 -8.828125 C 6.878906 -8.828125 6.96875 -8.90625 6.96875 -9.0625 L 6.96875 -13.03125 L 0.8125 -13.03125 L 0.8125 -14.8125 L 10.046875 -14.8125 L 10.046875 -13.03125 L 8.90625 -13.03125 L 8.90625 -9 C 8.90625 -8.925781 8.90625 -8.851562 8.90625 -8.78125 C 8.90625 -8.71875 8.898438 -8.65625 8.890625 -8.59375 C 9.460938 -9.445312 9.914062 -10.5 10.25 -11.75 C 10.582031 -13 10.828125 -14.296875 10.984375 -15.640625 L 13.125 -15.34375 C 13.050781 -14.851562 12.96875 -14.359375 12.875 -13.859375 C 12.78125 -13.359375 12.679688 -12.867188 12.578125 -12.390625 L 16.15625 -12.390625 L 16.5 -12.453125 L 17.9375 -12.15625 C 17.820312 -11.300781 17.6875 -10.425781 17.53125 -9.53125 C 17.375 -8.632812 17.207031 -7.878906 17.03125 -7.265625 L 15.265625 -7.640625 C 15.335938 -7.992188 15.410156 -8.414062 15.484375 -8.90625 C 15.566406 -9.394531 15.640625 -9.890625 15.703125 -10.390625 Z M 14.46875 -10.390625 "/></g></g></g><g fill="#000000" fill-opacity="1"><g transform="translate(129.874774, 21.84843)"><g><path d="M 11.875 -3.953125 L 11.875 -15.78125 L 18.015625 -15.78125 L 18.015625 -13.78125 L 14.0625 -13.78125 L 14.0625 -3.953125 Z M 11.875 -3.953125 "/></g></g></g><g fill="#000000" fill-opacity="1"><g transform="translate(148.406226, 21.84843)"><g><path d="M 1.6875 0 L 1.6875 -13.71875 L 4.484375 -13.71875 L 8.46875 -6.40625 L 9.84375 -3.453125 L 9.9375 -3.453125 C 9.863281 -4.160156 9.785156 -4.941406 9.703125 -5.796875 C 9.617188 -6.648438 9.578125 -7.46875 9.578125 -8.25 L 9.578125 -13.71875 L 12.171875 -13.71875 L 12.171875 0 L 9.390625 0 L 5.421875 -7.34375 L 4.046875 -10.28125 L 3.953125 -10.28125 C 4.015625 -9.539062 4.082031 -8.753906 4.15625 -7.921875 C 4.238281 -7.097656 4.28125 -6.289062 4.28125 -5.5 L 4.28125 0 Z M 1.6875 0 "/></g></g></g><g fill="#000000" fill-opacity="1"><g transform="translate(162.286287, 21.84843)"><g><path d="M 1.6875 0 L 1.6875 -13.71875 L 10.09375 -13.71875 L 10.09375 -11.4375 L 4.421875 -11.4375 L 4.421875 -8.265625 L 9.25 -8.265625 L 9.25 -5.96875 L 4.421875 -5.96875 L 4.421875 -2.296875 L 10.296875 -2.296875 L 10.296875 0 Z M 1.6875 0 "/></g></g></g><g fill="#000000" fill-opacity="1"><g transform="translate(173.683118, 21.84843)"><g><path d="M 0.265625 0 L 4.109375 -7.078125 L 0.5 -13.71875 L 3.546875 -13.71875 L 4.90625 -10.890625 C 5.070312 -10.578125 5.234375 -10.242188 5.390625 -9.890625 C 5.554688 -9.546875 5.738281 -9.160156 5.9375 -8.734375 L 6.015625 -8.734375 C 6.191406 -9.160156 6.347656 -9.546875 6.484375 -9.890625 C 6.628906 -10.242188 6.78125 -10.578125 6.9375 -10.890625 L 8.234375 -13.71875 L 11.125 -13.71875 L 7.5 -6.953125 L 11.359375 0 L 8.328125 0 L 6.78125 -3.046875 C 6.601562 -3.398438 6.429688 -3.757812 6.265625 -4.125 C 6.097656 -4.488281 5.910156 -4.878906 5.703125 -5.296875 L 5.640625 -5.296875 C 5.460938 -4.878906 5.289062 -4.488281 5.125 -4.125 C 4.96875 -3.757812 4.804688 -3.398438 4.640625 -3.046875 L 3.171875 0 Z M 0.265625 0 "/></g></g></g><g fill="#000000" fill-opacity="1"><g transform="translate(184.876088, 21.84843)"><g><path d="M 4.40625 0 L 4.40625 -11.4375 L 0.5625 -11.4375 L 0.5625 -13.71875 L 11.046875 -13.71875 L 11.046875 -11.4375 L 7.15625 -11.4375 L 7.15625 0 Z M 4.40625 0 "/></g></g></g><g fill="#000000" fill-opacity="1"><g transform="translate(196.458253, 21.84843)"><g/></g></g><g fill="#000000" fill-opacity="1"><g transform="translate(200.664892, 21.84843)"><g><path d="M 5.78125 0.265625 C 4.863281 0.265625 3.96875 0.09375 3.09375 -0.25 C 2.21875 -0.601562 1.445312 -1.097656 0.78125 -1.734375 L 2.359375 -3.625 C 2.847656 -3.175781 3.394531 -2.8125 4 -2.53125 C 4.613281 -2.25 5.226562 -2.109375 5.84375 -2.109375 C 6.550781 -2.109375 7.09375 -2.25 7.46875 -2.53125 C 7.84375 -2.820312 8.03125 -3.207031 8.03125 -3.6875 C 8.03125 -4.03125 7.941406 -4.300781 7.765625 -4.5 C 7.585938 -4.707031 7.34375 -4.890625 7.03125 -5.046875 C 6.726562 -5.203125 6.375 -5.367188 5.96875 -5.546875 L 4.125 -6.3125 C 3.675781 -6.507812 3.238281 -6.765625 2.8125 -7.078125 C 2.382812 -7.398438 2.035156 -7.800781 1.765625 -8.28125 C 1.492188 -8.757812 1.359375 -9.332031 1.359375 -10 C 1.359375 -10.757812 1.5625 -11.4375 1.96875 -12.03125 C 2.375 -12.625 2.929688 -13.09375 3.640625 -13.4375 C 4.347656 -13.789062 5.164062 -13.96875 6.09375 -13.96875 C 6.894531 -13.96875 7.671875 -13.816406 8.421875 -13.515625 C 9.179688 -13.210938 9.835938 -12.78125 10.390625 -12.21875 L 9 -10.484375 C 8.570312 -10.847656 8.125 -11.128906 7.65625 -11.328125 C 7.1875 -11.523438 6.664062 -11.625 6.09375 -11.625 C 5.488281 -11.625 5.003906 -11.492188 4.640625 -11.234375 C 4.285156 -10.984375 4.109375 -10.628906 4.109375 -10.171875 C 4.109375 -9.847656 4.207031 -9.582031 4.40625 -9.375 C 4.601562 -9.164062 4.863281 -8.984375 5.1875 -8.828125 C 5.519531 -8.679688 5.878906 -8.53125 6.265625 -8.375 L 8.0625 -7.609375 C 8.90625 -7.265625 9.578125 -6.804688 10.078125 -6.234375 C 10.578125 -5.660156 10.828125 -4.878906 10.828125 -3.890625 C 10.828125 -3.148438 10.625 -2.460938 10.21875 -1.828125 C 9.820312 -1.203125 9.25 -0.695312 8.5 -0.3125 C 7.75 0.0703125 6.84375 0.265625 5.78125 0.265625 Z M 5.78125 0.265625 "/></g></g></g><g fill="#000000" fill-opacity="1"><g transform="translate(211.802275, 21.84843)"><g><path d="M 4.40625 0 L 4.40625 -11.4375 L 0.5625 -11.4375 L 0.5625 -13.71875 L 11.046875 -13.71875 L 11.046875 -11.4375 L 7.15625 -11.4375 L 7.15625 0 Z M 4.40625 0 "/></g></g></g><g fill="#000000" fill-opacity="1"><g transform="translate(222.550476, 21.84843)"><g><path d="M 4.265625 -5.65625 L 7.53125 -5.65625 L 7.109375 -7.15625 C 6.898438 -7.875 6.695312 -8.613281 6.5 -9.375 C 6.3125 -10.144531 6.113281 -10.898438 5.90625 -11.640625 L 5.84375 -11.640625 C 5.664062 -10.878906 5.476562 -10.117188 5.28125 -9.359375 C 5.082031 -8.609375 4.878906 -7.875 4.671875 -7.15625 Z M 9.078125 0 L 8.109375 -3.515625 L 3.671875 -3.515625 L 2.703125 0 L -0.078125 0 L 4.3125 -13.71875 L 7.546875 -13.71875 L 11.953125 0 Z M 9.078125 0 "/></g></g></g><g fill="#000000" fill-opacity="1"><g transform="translate(234.206741, 21.84843)"><g><path d="M 7.578125 0.265625 C 6.328125 0.265625 5.203125 -0.00390625 4.203125 -0.546875 C 3.210938 -1.097656 2.429688 -1.894531 1.859375 -2.9375 C 1.285156 -3.988281 1 -5.273438 1 -6.796875 C 1 -8.304688 1.289062 -9.59375 1.875 -10.65625 C 2.46875 -11.726562 3.265625 -12.546875 4.265625 -13.109375 C 5.265625 -13.679688 6.367188 -13.96875 7.578125 -13.96875 C 8.566406 -13.96875 9.410156 -13.785156 10.109375 -13.421875 C 10.804688 -13.066406 11.378906 -12.664062 11.828125 -12.21875 L 10.359375 -10.46875 C 10.023438 -10.789062 9.644531 -11.0625 9.21875 -11.28125 C 8.800781 -11.507812 8.285156 -11.625 7.671875 -11.625 C 6.921875 -11.625 6.25 -11.429688 5.65625 -11.046875 C 5.070312 -10.671875 4.613281 -10.128906 4.28125 -9.421875 C 3.957031 -8.722656 3.796875 -7.878906 3.796875 -6.890625 C 3.796875 -5.398438 4.132812 -4.226562 4.8125 -3.375 C 5.5 -2.53125 6.515625 -2.109375 7.859375 -2.109375 C 8.191406 -2.109375 8.507812 -2.15625 8.8125 -2.25 C 9.125 -2.34375 9.378906 -2.46875 9.578125 -2.625 L 9.578125 -5.34375 L 7.15625 -5.34375 L 7.15625 -7.578125 L 12.03125 -7.578125 L 12.03125 -1.390625 C 11.570312 -0.929688 10.953125 -0.539062 10.171875 -0.21875 C 9.390625 0.101562 8.523438 0.265625 7.578125 0.265625 Z M 7.578125 0.265625 "/></g></g></g><g fill="#000000" fill-opacity="1"><g transform="translate(247.493788, 21.84843)"><g><path d="M 1.6875 0 L 1.6875 -13.71875 L 10.09375 -13.71875 L 10.09375 -11.4375 L 4.421875 -11.4375 L 4.421875 -8.265625 L 9.25 -8.265625 L 9.25 -5.96875 L 4.421875 -5.96875 L 4.421875 -2.296875 L 10.296875 -2.296875 L 10.296875 0 Z M 1.6875 0 "/></g></g></g><g fill="#000000" fill-opacity="1"><g transform="translate(258.890635, 21.84843)"><g><path d="M 6.671875 -10.140625 L 6.671875 1.703125 L 0.515625 1.703125 L 0.515625 -0.296875 L 4.46875 -0.296875 L 4.46875 -10.140625 Z M 6.671875 -10.140625 "/></g></g></g></g></g><g transform="matrix(1, 0, 0, 1, 16, 3)"><g clip-path="url(#f8288af22c)"><g fill="#ffffff" fill-opacity="1"><g transform="translate(0.680312, 44.051312)"><g><path d="M 17.578125 -31.5 L 17.578125 0 L 11.1875 0 L 11.1875 -25.71875 L 4.75 -23.84375 L 4.75 -29.203125 L 12.09375 -31.5 Z M 17.578125 -31.5 "/></g></g></g></g></g></g></g></svg>