<svg xmlns="http://www.w3.org/2000/svg" xmlns:xlink="http://www.w3.org/1999/xlink" width="460" zoomAndPan="magnify" viewBox="0 0 345 60" height="80" preserveAspectRatio="xMidYMid meet" version="1.0"><defs><g/><clipPath id="992469a41e"><path d="M 45.003906 3.195312 L 345 3.195312 L 345 55.605469 L 45.003906 55.605469 Z M 45.003906 3.195312 " clip-rule="nonzero"/></clipPath><clipPath id="80df0ea580"><path d="M 54.003906 3.195312 L 336 3.195312 C 340.96875 3.195312 345 7.226562 345 12.195312 L 345 46.605469 C 345 51.578125 340.96875 55.605469 336 55.605469 L 54.003906 55.605469 C 49.035156 55.605469 45.003906 51.578125 45.003906 46.605469 L 45.003906 12.195312 C 45.003906 7.226562 49.035156 3.195312 54.003906 3.195312 Z M 54.003906 3.195312 " clip-rule="nonzero"/></clipPath><clipPath id="02aa37eae3"><path d="M 0.00390625 0.195312 L 300 0.195312 L 300 52.605469 L 0.00390625 52.605469 Z M 0.00390625 0.195312 " clip-rule="nonzero"/></clipPath><clipPath id="afc76e3560"><path d="M 9.003906 0.195312 L 291 0.195312 C 295.96875 0.195312 300 4.226562 300 9.195312 L 300 43.605469 C 300 48.578125 295.96875 52.605469 291 52.605469 L 9.003906 52.605469 C 4.035156 52.605469 0.00390625 48.578125 0.00390625 43.605469 L 0.00390625 9.195312 C 0.00390625 4.226562 4.035156 0.195312 9.003906 0.195312 Z M 9.003906 0.195312 " clip-rule="nonzero"/></clipPath><clipPath id="153e8b9fa8"><rect x="0" width="300" y="0" height="53"/></clipPath><clipPath id="e518dd4b62"><path d="M 0 0 L 58.804688 0 L 58.804688 58.804688 L 0 58.804688 Z M 0 0 " clip-rule="nonzero"/></clipPath><clipPath id="2e55c084b8"><path d="M 9 0 L 49.804688 0 C 54.773438 0 58.804688 4.03125 58.804688 9 L 58.804688 49.804688 C 58.804688 54.773438 54.773438 58.804688 49.804688 58.804688 L 9 58.804688 C 4.03125 58.804688 0 54.773438 0 49.804688 L 0 9 C 0 4.03125 4.03125 0 9 0 Z M 9 0 " clip-rule="nonzero"/></clipPath><clipPath id="1d9f81c64d"><path d="M 0 0 L 58.804688 0 L 58.804688 58.804688 L 0 58.804688 Z M 0 0 " clip-rule="nonzero"/></clipPath><clipPath id="594ebe81fb"><path d="M 9 0 L 49.804688 0 C 54.773438 0 58.804688 4.03125 58.804688 9 L 58.804688 49.804688 C 58.804688 54.773438 54.773438 58.804688 49.804688 58.804688 L 9 58.804688 C 4.03125 58.804688 0 54.773438 0 49.804688 L 0 9 C 0 4.03125 4.03125 0 9 0 Z M 9 0 " clip-rule="nonzero"/></clipPath><clipPath id="4b6c8359d8"><rect x="0" width="59" y="0" height="59"/></clipPath><clipPath id="034bcd0397"><rect x="0" width="140" y="0" height="31"/></clipPath><clipPath id="faed2c921e"><rect x="0" width="29" y="0" height="54"/></clipPath><clipPath id="8b8fac626e"><rect x="0" width="345" y="0" height="60"/></clipPath></defs><g transform="matrix(1, 0, 0, 1, 0, -0.000000000000001479)"><g clip-path="url(#8b8fac626e)"><g clip-path="url(#992469a41e)"><g clip-path="url(#80df0ea580)"><g transform="matrix(1, 0, 0, 1, 45, 3)"><g clip-path="url(#153e8b9fa8)"><g clip-path="url(#02aa37eae3)"><g clip-path="url(#afc76e3560)"><path fill="#a4e2ff" d="M 0.00390625 0.195312 L 299.921875 0.195312 L 299.921875 52.605469 L 0.00390625 52.605469 Z M 0.00390625 0.195312 " fill-opacity="1" fill-rule="nonzero"/></g></g></g></g></g></g><g clip-path="url(#e518dd4b62)"><g clip-path="url(#2e55c084b8)"><g transform="matrix(1, 0, 0, 1, 0, -0.000000000000001479)"><g clip-path="url(#4b6c8359d8)"><g clip-path="url(#1d9f81c64d)"><g clip-path="url(#594ebe81fb)"><path fill="#00a0e9" d="M 0 0 L 58.804688 0 L 58.804688 58.804688 L 0 58.804688 Z M 0 0 " fill-opacity="1" fill-rule="nonzero"/></g></g></g></g></g></g><g transform="matrix(1, 0, 0, 1, 66, 14)"><g clip-path="url(#034bcd0397)"><g fill="#000000" fill-opacity="1"><g transform="translate(0.154604, 23.867062)"><g><path d="M 5.265625 -11.28125 L 5.265625 -13.046875 L 1.15625 -13.046875 L 1.15625 -15.21875 L 5.265625 -15.21875 L 5.265625 -16.796875 L 7.609375 -16.796875 L 7.609375 -15.21875 L 12.234375 -15.21875 L 12.234375 -16.796875 L 14.59375 -16.796875 L 14.59375 -15.21875 L 18.734375 -15.21875 L 18.734375 -13.046875 L 14.59375 -13.046875 L 14.59375 -11.28125 L 12.234375 -11.28125 L 12.234375 -13.046875 L 7.609375 -13.046875 L 7.609375 -11.28125 Z M 14.859375 -1.265625 L 14.859375 -3.890625 L 7.09375 -3.890625 L 7.09375 -1.265625 Z M 18.84375 -8.015625 L 8.953125 -8.015625 C 8.753906 -7.660156 8.550781 -7.316406 8.34375 -6.984375 C 8.144531 -6.660156 7.929688 -6.335938 7.703125 -6.015625 L 17.25 -6.015625 L 17.25 1.640625 L 14.859375 1.640625 L 14.859375 0.828125 L 7.09375 0.828125 L 7.09375 1.671875 L 4.8125 1.671875 L 4.8125 -2.859375 C 4.394531 -2.515625 3.96875 -2.1875 3.53125 -1.875 C 3.09375 -1.5625 2.640625 -1.273438 2.171875 -1.015625 C 2.054688 -1.179688 1.894531 -1.382812 1.6875 -1.625 C 1.488281 -1.863281 1.273438 -2.101562 1.046875 -2.34375 C 0.828125 -2.582031 0.628906 -2.773438 0.453125 -2.921875 C 2.835938 -4.085938 4.753906 -5.785156 6.203125 -8.015625 L 1.015625 -8.015625 L 1.015625 -10.203125 L 7.390625 -10.203125 C 7.691406 -10.890625 7.945312 -11.59375 8.15625 -12.3125 L 10.546875 -11.71875 C 10.453125 -11.46875 10.359375 -11.210938 10.265625 -10.953125 C 10.179688 -10.703125 10.085938 -10.453125 9.984375 -10.203125 L 18.84375 -10.203125 Z M 18.84375 -8.015625 "/></g></g></g><g fill="#000000" fill-opacity="1"><g transform="translate(20.004726, 23.867062)"><g><path d="M 11.140625 -6.796875 L 15.625 -6.796875 L 15.625 -11.0625 L 11.140625 -11.0625 Z M 4.171875 -6.796875 L 8.640625 -6.796875 L 8.640625 -11.0625 L 4.171875 -11.0625 Z M 11.140625 -13.390625 L 18.109375 -13.390625 L 18.109375 -3.46875 L 15.625 -3.46875 L 15.625 -4.46875 L 11.140625 -4.46875 L 11.140625 1.734375 L 8.640625 1.734375 L 8.640625 -4.46875 L 4.171875 -4.46875 L 4.171875 -3.375 L 1.78125 -3.375 L 1.78125 -13.390625 L 8.640625 -13.390625 L 8.640625 -16.828125 L 11.140625 -16.828125 Z M 11.140625 -13.390625 "/></g></g></g><g fill="#000000" fill-opacity="1"><g transform="translate(39.854848, 23.867062)"><g><path d="M 4.84375 -1.171875 C 6.457031 -1.835938 7.8125 -2.640625 8.90625 -3.578125 C 10 -4.515625 10.910156 -5.503906 11.640625 -6.546875 C 12.378906 -7.609375 12.914062 -8.671875 13.25 -9.734375 C 13.582031 -10.804688 13.828125 -11.742188 13.984375 -12.546875 C 14.085938 -13.015625 14.160156 -13.46875 14.203125 -13.90625 C 14.242188 -14.351562 14.253906 -14.703125 14.234375 -14.953125 L 17.453125 -14.5 C 17.335938 -14.125 17.222656 -13.71875 17.109375 -13.28125 C 17.003906 -12.84375 16.921875 -12.476562 16.859375 -12.1875 C 16.609375 -11.03125 16.265625 -9.859375 15.828125 -8.671875 C 15.398438 -7.484375 14.820312 -6.332031 14.09375 -5.21875 C 13.332031 -4.019531 12.390625 -2.894531 11.265625 -1.84375 C 10.140625 -0.800781 8.785156 0.101562 7.203125 0.875 Z M 1.890625 -13.546875 L 4.421875 -14.859375 C 4.679688 -14.515625 4.96875 -14.082031 5.28125 -13.5625 C 5.601562 -13.050781 5.925781 -12.507812 6.25 -11.9375 C 6.570312 -11.375 6.875 -10.832031 7.15625 -10.3125 C 7.445312 -9.800781 7.679688 -9.375 7.859375 -9.03125 L 5.25 -7.546875 C 4.976562 -8.140625 4.644531 -8.800781 4.25 -9.53125 C 3.863281 -10.269531 3.460938 -11 3.046875 -11.71875 C 2.628906 -12.4375 2.242188 -13.046875 1.890625 -13.546875 Z M 1.890625 -13.546875 "/></g></g></g><g fill="#000000" fill-opacity="1"><g transform="translate(59.704971, 23.867062)"><g><path d="M 1.828125 -6.078125 L 1.828125 -9.1875 C 2.066406 -9.175781 2.367188 -9.160156 2.734375 -9.140625 C 3.109375 -9.117188 3.5 -9.101562 3.90625 -9.09375 C 4.3125 -9.082031 4.6875 -9.078125 5.03125 -9.078125 L 15.6875 -9.078125 C 16.15625 -9.078125 16.597656 -9.09375 17.015625 -9.125 C 17.429688 -9.15625 17.765625 -9.175781 18.015625 -9.1875 L 18.015625 -6.078125 C 17.773438 -6.085938 17.429688 -6.101562 16.984375 -6.125 C 16.546875 -6.15625 16.113281 -6.171875 15.6875 -6.171875 L 5.03125 -6.171875 C 4.457031 -6.171875 3.875 -6.160156 3.28125 -6.140625 C 2.6875 -6.117188 2.203125 -6.097656 1.828125 -6.078125 Z M 1.828125 -6.078125 "/></g></g></g><g fill="#000000" fill-opacity="1"><g transform="translate(79.555093, 23.867062)"><g><path d="M 16.1875 -10.5625 L 17.953125 -9.46875 C 17.890625 -9.34375 17.820312 -9.195312 17.75 -9.03125 C 17.675781 -8.875 17.617188 -8.742188 17.578125 -8.640625 C 17.285156 -7.671875 16.90625 -6.71875 16.4375 -5.78125 C 15.976562 -4.84375 15.378906 -3.960938 14.640625 -3.140625 C 13.628906 -2.023438 12.507812 -1.117188 11.28125 -0.421875 C 10.0625 0.265625 8.816406 0.789062 7.546875 1.15625 L 5.5625 -1.09375 C 7.0625 -1.394531 8.394531 -1.859375 9.5625 -2.484375 C 10.726562 -3.109375 11.691406 -3.800781 12.453125 -4.5625 C 12.992188 -5.101562 13.425781 -5.671875 13.75 -6.265625 C 14.070312 -6.867188 14.320312 -7.445312 14.5 -8 L 4.90625 -8 C 4.664062 -8 4.328125 -7.992188 3.890625 -7.984375 C 3.453125 -7.972656 3.023438 -7.945312 2.609375 -7.90625 L 2.609375 -10.484375 C 3.023438 -10.441406 3.4375 -10.410156 3.84375 -10.390625 C 4.25 -10.367188 4.601562 -10.359375 4.90625 -10.359375 L 14.734375 -10.359375 C 15.398438 -10.359375 15.882812 -10.425781 16.1875 -10.5625 Z M 4.421875 -12.671875 L 4.421875 -15.234375 C 4.703125 -15.191406 5.035156 -15.160156 5.421875 -15.140625 C 5.804688 -15.128906 6.164062 -15.125 6.5 -15.125 L 14.140625 -15.125 C 14.441406 -15.125 14.804688 -15.128906 15.234375 -15.140625 C 15.660156 -15.160156 16.007812 -15.191406 16.28125 -15.234375 L 16.28125 -12.671875 C 16.019531 -12.691406 15.679688 -12.707031 15.265625 -12.71875 C 14.847656 -12.726562 14.457031 -12.734375 14.09375 -12.734375 L 6.5 -12.734375 C 6.175781 -12.734375 5.820312 -12.726562 5.4375 -12.71875 C 5.050781 -12.707031 4.710938 -12.691406 4.421875 -12.671875 Z M 4.421875 -12.671875 "/></g></g></g><g fill="#000000" fill-opacity="1"><g transform="translate(99.405215, 23.867062)"><g><path d="M 4.78125 -15.09375 C 5.125 -14.851562 5.523438 -14.554688 5.984375 -14.203125 C 6.453125 -13.859375 6.9375 -13.484375 7.4375 -13.078125 C 7.9375 -12.679688 8.398438 -12.296875 8.828125 -11.921875 C 9.253906 -11.546875 9.613281 -11.207031 9.90625 -10.90625 L 7.890625 -8.8125 C 7.628906 -9.09375 7.296875 -9.425781 6.890625 -9.8125 C 6.484375 -10.195312 6.039062 -10.59375 5.5625 -11 C 5.082031 -11.414062 4.609375 -11.804688 4.140625 -12.171875 C 3.679688 -12.546875 3.273438 -12.859375 2.921875 -13.109375 Z M 2.296875 -1.859375 C 3.847656 -2.085938 5.257812 -2.4375 6.53125 -2.90625 C 7.8125 -3.375 8.9375 -3.894531 9.90625 -4.46875 C 11.03125 -5.144531 12.0625 -5.910156 13 -6.765625 C 13.945312 -7.617188 14.769531 -8.515625 15.46875 -9.453125 C 16.164062 -10.390625 16.722656 -11.300781 17.140625 -12.1875 L 18.6875 -9.390625 C 17.9375 -8.054688 16.925781 -6.738281 15.65625 -5.4375 C 14.382812 -4.144531 12.945312 -3.015625 11.34375 -2.046875 C 10.332031 -1.429688 9.203125 -0.867188 7.953125 -0.359375 C 6.703125 0.140625 5.375 0.507812 3.96875 0.75 Z M 2.296875 -1.859375 "/></g></g></g><g fill="#000000" fill-opacity="1"><g transform="translate(119.255337, 23.867062)"><g><path d="M 7.421875 -8.578125 L 7.421875 -9.453125 L 4.25 -9.453125 L 4.25 -8.578125 Z M 4.25 -5.9375 L 7.421875 -5.9375 L 7.421875 -6.890625 L 4.25 -6.890625 Z M 18.890625 -15.234375 L 18.890625 -13.484375 L 15.546875 -13.484375 C 15.765625 -13.191406 15.957031 -12.90625 16.125 -12.625 C 16.300781 -12.351562 16.429688 -12.097656 16.515625 -11.859375 L 14.9375 -11.21875 L 18.375 -11.21875 L 18.375 -3.015625 C 18.375 -2.472656 18.3125 -2.039062 18.1875 -1.71875 C 18.0625 -1.394531 17.804688 -1.144531 17.421875 -0.96875 C 17.054688 -0.800781 16.613281 -0.695312 16.09375 -0.65625 C 15.582031 -0.613281 14.960938 -0.59375 14.234375 -0.59375 C 14.191406 -0.894531 14.101562 -1.257812 13.96875 -1.6875 C 13.84375 -2.113281 13.707031 -2.472656 13.5625 -2.765625 C 14.007812 -2.742188 14.445312 -2.726562 14.875 -2.71875 C 15.3125 -2.71875 15.597656 -2.722656 15.734375 -2.734375 C 15.992188 -2.734375 16.125 -2.84375 16.125 -3.0625 L 16.125 -9.078125 L 13.03125 -9.078125 L 13.03125 1.484375 L 10.828125 1.484375 L 10.828125 -11.21875 L 14.421875 -11.21875 C 14.285156 -11.550781 14.09375 -11.914062 13.84375 -12.3125 C 13.59375 -12.71875 13.328125 -13.109375 13.046875 -13.484375 L 12.25 -13.484375 C 11.976562 -13.054688 11.6875 -12.65625 11.375 -12.28125 C 11.0625 -11.914062 10.753906 -11.582031 10.453125 -11.28125 C 10.304688 -11.414062 10.113281 -11.566406 9.875 -11.734375 C 9.644531 -11.910156 9.40625 -12.078125 9.15625 -12.234375 C 8.914062 -12.390625 8.703125 -12.515625 8.515625 -12.609375 C 8.835938 -12.878906 9.148438 -13.171875 9.453125 -13.484375 L 6.734375 -13.484375 C 6.878906 -13.203125 7.015625 -12.925781 7.140625 -12.65625 C 7.265625 -12.394531 7.359375 -12.15625 7.421875 -11.9375 L 5.84375 -11.21875 L 9.625 -11.21875 L 9.625 -4.171875 L 4.25 -4.171875 L 4.25 -1.515625 C 4.675781 -1.578125 5.109375 -1.640625 5.546875 -1.703125 C 5.984375 -1.773438 6.425781 -1.84375 6.875 -1.90625 C 6.71875 -2.132812 6.554688 -2.359375 6.390625 -2.578125 C 6.234375 -2.804688 6.066406 -3.019531 5.890625 -3.21875 L 7.75 -4.078125 C 8.132812 -3.648438 8.503906 -3.179688 8.859375 -2.671875 C 9.210938 -2.160156 9.53125 -1.648438 9.8125 -1.140625 C 10.101562 -0.640625 10.320312 -0.179688 10.46875 0.234375 L 8.515625 1.21875 C 8.460938 1.03125 8.382812 0.828125 8.28125 0.609375 C 8.1875 0.390625 8.082031 0.160156 7.96875 -0.078125 C 6.71875 0.128906 5.488281 0.328125 4.28125 0.515625 C 3.082031 0.710938 2 0.890625 1.03125 1.046875 L 0.671875 -1.03125 C 0.890625 -1.0625 1.113281 -1.085938 1.34375 -1.109375 C 1.570312 -1.140625 1.8125 -1.175781 2.0625 -1.21875 L 2.0625 -11.21875 L 5.4375 -11.21875 C 5.34375 -11.550781 5.203125 -11.914062 5.015625 -12.3125 C 4.835938 -12.71875 4.632812 -13.109375 4.40625 -13.484375 L 4.203125 -13.484375 C 3.929688 -13.054688 3.644531 -12.648438 3.34375 -12.265625 C 3.050781 -11.890625 2.757812 -11.546875 2.46875 -11.234375 C 2.25 -11.421875 1.941406 -11.644531 1.546875 -11.90625 C 1.148438 -12.175781 0.820312 -12.382812 0.5625 -12.53125 C 1.164062 -13.0625 1.734375 -13.722656 2.265625 -14.515625 C 2.796875 -15.304688 3.210938 -16.128906 3.515625 -16.984375 L 5.703125 -16.40625 C 5.628906 -16.207031 5.550781 -16.007812 5.46875 -15.8125 C 5.382812 -15.625 5.289062 -15.429688 5.1875 -15.234375 L 9.625 -15.234375 L 9.625 -13.6875 C 10.46875 -14.664062 11.113281 -15.765625 11.5625 -16.984375 L 13.78125 -16.421875 C 13.695312 -16.222656 13.613281 -16.023438 13.53125 -15.828125 C 13.457031 -15.628906 13.367188 -15.429688 13.265625 -15.234375 Z M 18.890625 -15.234375 "/></g></g></g></g></g><g transform="matrix(1, 0, 0, 1, 16, 3)"><g clip-path="url(#faed2c921e)"><g fill="#ffffff" fill-opacity="1"><g transform="translate(0.680312, 44.051312)"><g><path d="M 9.4375 -5.484375 L 25.59375 -5.484375 L 25.59375 0 L 1.875 0 L 1.875 -3.140625 C 1.875 -4.585938 2.300781 -6.015625 3.15625 -7.421875 C 4.007812 -8.828125 5.351562 -10.226562 7.1875 -11.625 L 14.578125 -17.234375 C 15.910156 -18.242188 16.890625 -19.113281 17.515625 -19.84375 C 18.140625 -20.570312 18.453125 -21.484375 18.453125 -22.578125 C 18.453125 -23.679688 18.050781 -24.625 17.25 -25.40625 C 16.457031 -26.195312 15.289062 -26.59375 13.75 -26.59375 C 12.238281 -26.59375 10.988281 -26.078125 10 -25.046875 C 9.019531 -24.015625 8.53125 -22.613281 8.53125 -20.84375 L 8.53125 -20.5 L 1.875 -20.5 L 1.875 -21.015625 C 1.875 -23.191406 2.351562 -25.078125 3.3125 -26.671875 C 4.269531 -28.265625 5.617188 -29.503906 7.359375 -30.390625 C 9.097656 -31.273438 11.140625 -31.71875 13.484375 -31.71875 C 15.773438 -31.71875 17.796875 -31.375 19.546875 -30.6875 C 21.304688 -30.007812 22.691406 -29.019531 23.703125 -27.71875 C 24.722656 -26.414062 25.234375 -24.847656 25.234375 -23.015625 C 25.234375 -21.566406 24.988281 -20.296875 24.5 -19.203125 C 24.007812 -18.117188 23.304688 -17.125 22.390625 -16.21875 C 21.472656 -15.320312 20.347656 -14.382812 19.015625 -13.40625 L 12.359375 -8.484375 C 11.367188 -7.753906 10.660156 -7.164062 10.234375 -6.71875 C 9.816406 -6.269531 9.550781 -5.859375 9.4375 -5.484375 Z M 9.4375 -5.484375 "/></g></g></g></g></g></g></g></svg>