<svg xmlns="http://www.w3.org/2000/svg" xmlns:xlink="http://www.w3.org/1999/xlink" width="460" zoomAndPan="magnify" viewBox="0 0 345 60" height="80" preserveAspectRatio="xMidYMid meet" version="1.0"><defs><g/><clipPath id="f0563e3725"><path d="M 30 0 L 315 0 C 322.957031 0 330.585938 3.160156 336.214844 8.785156 C 341.839844 14.414062 345 22.042969 345 30 C 345 37.957031 341.839844 45.585938 336.214844 51.214844 C 330.585938 56.839844 322.957031 60 315 60 L 30 60 C 22.042969 60 14.414062 56.839844 8.785156 51.214844 C 3.160156 45.585938 0 37.957031 0 30 C 0 22.042969 3.160156 14.414062 8.785156 8.785156 C 14.414062 3.160156 22.042969 0 30 0 Z M 30 0 " clip-rule="nonzero"/></clipPath><clipPath id="1c17dc1e69"><path d="M 0 0 L 345 0 L 345 60 L 0 60 Z M 0 0 " clip-rule="nonzero"/></clipPath><clipPath id="7608f58420"><path d="M 30 0 L 315 0 C 322.957031 0 330.585938 3.160156 336.214844 8.785156 C 341.839844 14.414062 345 22.042969 345 30 C 345 37.957031 341.839844 45.585938 336.214844 51.214844 C 330.585938 56.839844 322.957031 60 315 60 L 30 60 C 22.042969 60 14.414062 56.839844 8.785156 51.214844 C 3.160156 45.585938 0 37.957031 0 30 C 0 22.042969 3.160156 14.414062 8.785156 8.785156 C 14.414062 3.160156 22.042969 0 30 0 Z M 30 0 " clip-rule="nonzero"/></clipPath><clipPath id="35a409efcd"><rect x="0" width="345" y="0" height="60"/></clipPath><clipPath id="16b7931bac"><rect x="0" width="248" y="0" height="46"/></clipPath></defs><g clip-path="url(#f0563e3725)"><g transform="matrix(1, 0, 0, 1, 0, -0.000000000000001479)"><g clip-path="url(#35a409efcd)"><g clip-path="url(#1c17dc1e69)"><g clip-path="url(#7608f58420)"><rect x="-75.9" width="496.8" fill="#ebebeb" height="86.4" y="-13.2" fill-opacity="1"/></g></g></g></g></g><g transform="matrix(1, 0, 0, 1, 48, 7)"><g clip-path="url(#16b7931bac)"><g fill="#000000" fill-opacity="1"><g transform="translate(1.565326, 35.680862)"><g><path d="M 26.828125 0.671875 L 22.375 0.671875 C 22.394531 0.429688 22.40625 0.179688 22.40625 -0.078125 C 22.40625 -0.347656 22.40625 -0.628906 22.40625 -0.921875 L 8.390625 -0.921875 C 7.796875 -0.921875 7.113281 -0.898438 6.34375 -0.859375 C 5.570312 -0.816406 4.929688 -0.773438 4.421875 -0.734375 L 4.421875 -5.125 C 4.953125 -5.09375 5.550781 -5.054688 6.21875 -5.015625 C 6.882812 -4.972656 7.566406 -4.953125 8.265625 -4.953125 L 22.4375 -4.953125 L 22.4375 -17.671875 L 8.640625 -17.671875 C 8.003906 -17.671875 7.316406 -17.660156 6.578125 -17.640625 C 5.835938 -17.617188 5.253906 -17.585938 4.828125 -17.546875 L 4.828125 -21.828125 C 5.398438 -21.765625 6.046875 -21.71875 6.765625 -21.6875 C 7.484375 -21.65625 8.109375 -21.640625 8.640625 -21.640625 L 24.09375 -21.640625 C 24.539062 -21.640625 25.035156 -21.644531 25.578125 -21.65625 C 26.128906 -21.664062 26.535156 -21.679688 26.796875 -21.703125 C 26.773438 -21.347656 26.753906 -20.898438 26.734375 -20.359375 C 26.710938 -19.816406 26.703125 -19.320312 26.703125 -18.875 L 26.703125 -2.953125 C 26.703125 -2.421875 26.71875 -1.800781 26.75 -1.09375 C 26.78125 -0.382812 26.804688 0.203125 26.828125 0.671875 Z M 26.828125 0.671875 "/></g></g></g><g fill="#000000" fill-opacity="1"><g transform="translate(32.2949, 35.680862)"><g><path d="M 7.40625 -23.359375 C 7.9375 -22.992188 8.5625 -22.535156 9.28125 -21.984375 C 10 -21.441406 10.738281 -20.863281 11.5 -20.25 C 12.269531 -19.632812 12.988281 -19.035156 13.65625 -18.453125 C 14.320312 -17.867188 14.882812 -17.34375 15.34375 -16.875 L 12.203125 -13.640625 C 11.816406 -14.078125 11.304688 -14.59375 10.671875 -15.1875 C 10.035156 -15.78125 9.347656 -16.394531 8.609375 -17.03125 C 7.867188 -17.664062 7.140625 -18.269531 6.421875 -18.84375 C 5.703125 -19.414062 5.066406 -19.894531 4.515625 -20.28125 Z M 3.5625 -2.890625 C 5.957031 -3.234375 8.144531 -3.769531 10.125 -4.5 C 12.101562 -5.226562 13.84375 -6.035156 15.34375 -6.921875 C 17.082031 -7.960938 18.675781 -9.144531 20.125 -10.46875 C 21.582031 -11.789062 22.851562 -13.175781 23.9375 -14.625 C 25.03125 -16.082031 25.894531 -17.5 26.53125 -18.875 L 28.921875 -14.53125 C 27.753906 -12.46875 26.1875 -10.429688 24.21875 -8.421875 C 22.25 -6.410156 20.023438 -4.660156 17.546875 -3.171875 C 15.992188 -2.222656 14.25 -1.351562 12.3125 -0.5625 C 10.375 0.21875 8.316406 0.796875 6.140625 1.171875 Z M 3.5625 -2.890625 "/></g></g></g><g fill="#000000" fill-opacity="1"><g transform="translate(63.024473, 35.680862)"><g><path d="M 21.828125 -19.734375 L 9.5 -19.734375 C 8.96875 -19.734375 8.40625 -19.722656 7.8125 -19.703125 C 7.21875 -19.679688 6.679688 -19.648438 6.203125 -19.609375 L 6.203125 -23.578125 C 6.703125 -23.492188 7.242188 -23.4375 7.828125 -23.40625 C 8.410156 -23.375 8.957031 -23.359375 9.46875 -23.359375 L 21.828125 -23.359375 C 22.359375 -23.359375 22.914062 -23.375 23.5 -23.40625 C 24.082031 -23.4375 24.628906 -23.492188 25.140625 -23.578125 L 25.140625 -19.609375 C 24.609375 -19.648438 24.054688 -19.679688 23.484375 -19.703125 C 22.910156 -19.722656 22.359375 -19.734375 21.828125 -19.734375 Z M 5.5625 -15.515625 L 25.6875 -15.515625 C 26.019531 -15.515625 26.46875 -15.53125 27.03125 -15.5625 C 27.59375 -15.59375 28.078125 -15.640625 28.484375 -15.703125 L 28.484375 -11.703125 C 28.097656 -11.742188 27.644531 -11.769531 27.125 -11.78125 C 26.601562 -11.789062 26.125 -11.796875 25.6875 -11.796875 L 18.28125 -11.796875 C 18.195312 -10.222656 17.988281 -8.785156 17.65625 -7.484375 C 17.320312 -6.179688 16.875 -4.988281 16.3125 -3.90625 C 15.78125 -2.84375 14.960938 -1.765625 13.859375 -0.671875 C 12.753906 0.410156 11.515625 1.300781 10.140625 2 L 6.546875 -0.609375 C 7.628906 -1.023438 8.671875 -1.640625 9.671875 -2.453125 C 10.679688 -3.273438 11.492188 -4.128906 12.109375 -5.015625 C 12.742188 -5.972656 13.203125 -7.019531 13.484375 -8.15625 C 13.773438 -9.289062 13.953125 -10.503906 14.015625 -11.796875 L 5.5625 -11.796875 C 5.113281 -11.796875 4.617188 -11.785156 4.078125 -11.765625 C 3.535156 -11.742188 3.046875 -11.710938 2.609375 -11.671875 L 2.609375 -15.703125 C 3.078125 -15.660156 3.566406 -15.617188 4.078125 -15.578125 C 4.597656 -15.535156 5.09375 -15.515625 5.5625 -15.515625 Z M 5.5625 -15.515625 "/></g></g></g><g fill="#000000" fill-opacity="1"><g transform="translate(93.754047, 35.680862)"><g><path d="M 7.40625 -23.359375 C 7.9375 -22.992188 8.5625 -22.535156 9.28125 -21.984375 C 10 -21.441406 10.738281 -20.863281 11.5 -20.25 C 12.269531 -19.632812 12.988281 -19.035156 13.65625 -18.453125 C 14.320312 -17.867188 14.882812 -17.34375 15.34375 -16.875 L 12.203125 -13.640625 C 11.816406 -14.078125 11.304688 -14.59375 10.671875 -15.1875 C 10.035156 -15.78125 9.347656 -16.394531 8.609375 -17.03125 C 7.867188 -17.664062 7.140625 -18.269531 6.421875 -18.84375 C 5.703125 -19.414062 5.066406 -19.894531 4.515625 -20.28125 Z M 3.5625 -2.890625 C 5.957031 -3.234375 8.144531 -3.769531 10.125 -4.5 C 12.101562 -5.226562 13.84375 -6.035156 15.34375 -6.921875 C 17.082031 -7.960938 18.675781 -9.144531 20.125 -10.46875 C 21.582031 -11.789062 22.851562 -13.175781 23.9375 -14.625 C 25.03125 -16.082031 25.894531 -17.5 26.53125 -18.875 L 28.921875 -14.53125 C 27.753906 -12.46875 26.1875 -10.429688 24.21875 -8.421875 C 22.25 -6.410156 20.023438 -4.660156 17.546875 -3.171875 C 15.992188 -2.222656 14.25 -1.351562 12.3125 -0.5625 C 10.375 0.21875 8.316406 0.796875 6.140625 1.171875 Z M 3.5625 -2.890625 "/></g></g></g><g fill="#000000" fill-opacity="1"><g transform="translate(124.483621, 35.680862)"><g><path d="M 14.53125 -23.9375 C 14.71875 -23.570312 14.960938 -23.035156 15.265625 -22.328125 C 15.578125 -21.617188 15.894531 -20.84375 16.21875 -20 C 16.550781 -19.164062 16.851562 -18.363281 17.125 -17.59375 C 17.40625 -16.820312 17.617188 -16.191406 17.765625 -15.703125 L 13.890625 -14.359375 C 13.742188 -14.847656 13.535156 -15.457031 13.265625 -16.1875 C 13.003906 -16.925781 12.71875 -17.707031 12.40625 -18.53125 C 12.101562 -19.351562 11.796875 -20.128906 11.484375 -20.859375 C 11.179688 -21.597656 10.921875 -22.207031 10.703125 -22.6875 Z M 23.96875 -22.8125 L 28.546875 -21.484375 C 28.410156 -21.097656 28.273438 -20.6875 28.140625 -20.25 C 28.003906 -19.820312 27.882812 -19.4375 27.78125 -19.09375 C 27.5 -17.976562 27.113281 -16.734375 26.625 -15.359375 C 26.144531 -13.992188 25.570312 -12.628906 24.90625 -11.265625 C 24.238281 -9.898438 23.476562 -8.65625 22.625 -7.53125 C 21 -5.414062 19.125 -3.59375 17 -2.0625 C 14.882812 -0.539062 12.734375 0.632812 10.546875 1.46875 L 7.09375 -1.96875 C 8.507812 -2.375 9.945312 -2.941406 11.40625 -3.671875 C 12.875 -4.398438 14.285156 -5.289062 15.640625 -6.34375 C 16.992188 -7.394531 18.191406 -8.578125 19.234375 -9.890625 C 20.078125 -10.960938 20.828125 -12.234375 21.484375 -13.703125 C 22.140625 -15.179688 22.679688 -16.71875 23.109375 -18.3125 C 23.535156 -19.914062 23.820312 -21.414062 23.96875 -22.8125 Z M 6 -22.03125 C 6.238281 -21.539062 6.519531 -20.921875 6.84375 -20.171875 C 7.175781 -19.429688 7.515625 -18.640625 7.859375 -17.796875 C 8.210938 -16.953125 8.535156 -16.144531 8.828125 -15.375 C 9.128906 -14.613281 9.375 -13.96875 9.5625 -13.4375 L 5.59375 -11.984375 C 5.445312 -12.472656 5.21875 -13.125 4.90625 -13.9375 C 4.601562 -14.75 4.269531 -15.59375 3.90625 -16.46875 C 3.550781 -17.351562 3.207031 -18.171875 2.875 -18.921875 C 2.550781 -19.679688 2.28125 -20.269531 2.0625 -20.6875 Z M 6 -22.03125 "/></g></g></g><g fill="#000000" fill-opacity="1"><g transform="translate(155.213194, 35.680862)"><g><path d="M 5.015625 -5.46875 L 1.328125 -9.28125 C 1.796875 -9.644531 2.21875 -10.007812 2.59375 -10.375 C 2.976562 -10.75 3.394531 -11.164062 3.84375 -11.625 C 4.3125 -12.09375 4.867188 -12.707031 5.515625 -13.46875 C 6.160156 -14.238281 6.851562 -15.066406 7.59375 -15.953125 C 8.332031 -16.847656 9.050781 -17.71875 9.75 -18.5625 C 10.664062 -19.644531 11.582031 -20.222656 12.5 -20.296875 C 13.425781 -20.367188 14.515625 -19.875 15.765625 -18.8125 C 16.785156 -17.945312 17.847656 -16.945312 18.953125 -15.8125 C 20.066406 -14.675781 21.09375 -13.597656 22.03125 -12.578125 C 22.726562 -11.835938 23.519531 -10.984375 24.40625 -10.015625 C 25.300781 -9.054688 26.203125 -8.078125 27.109375 -7.078125 C 28.023438 -6.085938 28.851562 -5.160156 29.59375 -4.296875 L 26.3125 -0.703125 C 25.65625 -1.566406 24.929688 -2.472656 24.140625 -3.421875 C 23.347656 -4.378906 22.566406 -5.316406 21.796875 -6.234375 C 21.035156 -7.160156 20.347656 -7.972656 19.734375 -8.671875 C 19.097656 -9.421875 18.414062 -10.203125 17.6875 -11.015625 C 16.957031 -11.828125 16.273438 -12.578125 15.640625 -13.265625 C 15.003906 -13.953125 14.492188 -14.445312 14.109375 -14.75 C 13.578125 -15.21875 13.132812 -15.441406 12.78125 -15.421875 C 12.4375 -15.398438 12.050781 -15.113281 11.625 -14.5625 C 11.207031 -14.050781 10.71875 -13.410156 10.15625 -12.640625 C 9.59375 -11.878906 9.03125 -11.109375 8.46875 -10.328125 C 7.90625 -9.546875 7.410156 -8.878906 6.984375 -8.328125 Z M 5.015625 -5.46875 "/></g></g></g><g fill="#000000" fill-opacity="1"><g transform="translate(185.942768, 35.680862)"><g><path d="M 4.984375 1.359375 L 1.234375 -1.140625 C 2.585938 -2.097656 3.6875 -3.234375 4.53125 -4.546875 C 5.382812 -5.859375 6.023438 -7.171875 6.453125 -8.484375 C 6.679688 -9.140625 6.847656 -9.960938 6.953125 -10.953125 C 7.066406 -11.953125 7.15625 -13.023438 7.21875 -14.171875 C 7.28125 -15.316406 7.316406 -16.453125 7.328125 -17.578125 C 7.335938 -18.703125 7.34375 -19.726562 7.34375 -20.65625 C 7.34375 -21.269531 7.320312 -21.796875 7.28125 -22.234375 C 7.238281 -22.671875 7.164062 -23.078125 7.0625 -23.453125 L 11.59375 -23.453125 C 11.570312 -23.390625 11.53125 -23.070312 11.46875 -22.5 C 11.40625 -21.925781 11.375 -21.320312 11.375 -20.6875 C 11.375 -19.78125 11.363281 -18.734375 11.34375 -17.546875 C 11.320312 -16.359375 11.28125 -15.132812 11.21875 -13.875 C 11.15625 -12.613281 11.0625 -11.425781 10.9375 -10.3125 C 10.8125 -9.195312 10.648438 -8.25 10.453125 -7.46875 C 10.003906 -5.726562 9.3125 -4.113281 8.375 -2.625 C 7.445312 -1.144531 6.316406 0.179688 4.984375 1.359375 Z M 18.015625 1.4375 L 15.453125 -0.671875 C 15.515625 -0.960938 15.570312 -1.3125 15.625 -1.71875 C 15.675781 -2.125 15.703125 -2.535156 15.703125 -2.953125 L 15.703125 -20.875 C 15.703125 -21.5625 15.664062 -22.160156 15.59375 -22.671875 C 15.519531 -23.191406 15.472656 -23.472656 15.453125 -23.515625 L 20.03125 -23.515625 C 20.019531 -23.472656 19.984375 -23.191406 19.921875 -22.671875 C 19.859375 -22.148438 19.828125 -21.539062 19.828125 -20.84375 L 19.828125 -4.765625 C 20.660156 -5.128906 21.523438 -5.628906 22.421875 -6.265625 C 23.328125 -6.898438 24.21875 -7.644531 25.09375 -8.5 C 25.96875 -9.351562 26.742188 -10.269531 27.421875 -11.25 L 29.78125 -7.875 C 28.9375 -6.757812 27.921875 -5.671875 26.734375 -4.609375 C 25.546875 -3.546875 24.304688 -2.570312 23.015625 -1.6875 C 21.722656 -0.8125 20.503906 -0.078125 19.359375 0.515625 C 19.035156 0.679688 18.78125 0.835938 18.59375 0.984375 C 18.40625 1.128906 18.210938 1.28125 18.015625 1.4375 Z M 18.015625 1.4375 "/></g></g></g><g fill="#000000" fill-opacity="1"><g transform="translate(216.672342, 35.680862)"><g><path d="M 26.46875 -20.78125 C 26.9375 -20.78125 27.34375 -20.953125 27.6875 -21.296875 C 28.039062 -21.648438 28.21875 -22.0625 28.21875 -22.53125 C 28.21875 -23.019531 28.039062 -23.4375 27.6875 -23.78125 C 27.34375 -24.132812 26.9375 -24.3125 26.46875 -24.3125 C 25.96875 -24.3125 25.539062 -24.132812 25.1875 -23.78125 C 24.84375 -23.4375 24.671875 -23.019531 24.671875 -22.53125 C 24.671875 -22.0625 24.84375 -21.648438 25.1875 -21.296875 C 25.539062 -20.953125 25.96875 -20.78125 26.46875 -20.78125 Z M 6.859375 -21.828125 L 21.078125 -21.828125 C 21.304688 -21.828125 21.570312 -21.835938 21.875 -21.859375 C 22.1875 -21.878906 22.503906 -21.90625 22.828125 -21.9375 C 22.816406 -22.039062 22.804688 -22.140625 22.796875 -22.234375 C 22.785156 -22.328125 22.78125 -22.425781 22.78125 -22.53125 C 22.78125 -23.207031 22.945312 -23.828125 23.28125 -24.390625 C 23.613281 -24.953125 24.054688 -25.394531 24.609375 -25.71875 C 25.171875 -26.050781 25.789062 -26.21875 26.46875 -26.21875 C 27.132812 -26.21875 27.742188 -26.050781 28.296875 -25.71875 C 28.859375 -25.394531 29.300781 -24.953125 29.625 -24.390625 C 29.957031 -23.828125 30.125 -23.207031 30.125 -22.53125 C 30.125 -21.875 29.957031 -21.265625 29.625 -20.703125 C 29.300781 -20.140625 28.859375 -19.691406 28.296875 -19.359375 C 27.742188 -19.035156 27.132812 -18.875 26.46875 -18.875 C 26.40625 -18.875 26.335938 -18.875 26.265625 -18.875 C 26.191406 -18.875 26.125 -18.882812 26.0625 -18.90625 L 25.8125 -17.984375 C 25.59375 -16.972656 25.28125 -15.8125 24.875 -14.5 C 24.476562 -13.195312 23.984375 -11.875 23.390625 -10.53125 C 22.796875 -9.1875 22.066406 -7.941406 21.203125 -6.796875 C 19.828125 -4.953125 18.109375 -3.296875 16.046875 -1.828125 C 13.992188 -0.359375 11.59375 0.8125 8.84375 1.6875 L 5.5 -1.96875 C 7.550781 -2.457031 9.316406 -3.066406 10.796875 -3.796875 C 12.285156 -4.523438 13.578125 -5.34375 14.671875 -6.25 C 15.765625 -7.164062 16.722656 -8.144531 17.546875 -9.1875 C 18.222656 -10.050781 18.804688 -10.984375 19.296875 -11.984375 C 19.785156 -12.992188 20.179688 -14.003906 20.484375 -15.015625 C 20.796875 -16.023438 21.023438 -16.972656 21.171875 -17.859375 L 6.859375 -17.859375 C 6.160156 -17.859375 5.476562 -17.847656 4.8125 -17.828125 C 4.144531 -17.804688 3.609375 -17.773438 3.203125 -17.734375 L 3.203125 -22.0625 C 3.648438 -22 4.238281 -21.941406 4.96875 -21.890625 C 5.707031 -21.847656 6.335938 -21.828125 6.859375 -21.828125 Z M 6.859375 -21.828125 "/></g></g></g></g></g></svg>