<svg xmlns="http://www.w3.org/2000/svg" xmlns:xlink="http://www.w3.org/1999/xlink" width="460" zoomAndPan="magnify" viewBox="0 0 345 60" height="80" preserveAspectRatio="xMidYMid meet" version="1.0"><defs><g/><clipPath id="e485b13e0c"><path d="M 30 0 L 315 0 C 322.957031 0 330.585938 3.160156 336.214844 8.785156 C 341.839844 14.414062 345 22.042969 345 30 C 345 37.957031 341.839844 45.585938 336.214844 51.214844 C 330.585938 56.839844 322.957031 60 315 60 L 30 60 C 22.042969 60 14.414062 56.839844 8.785156 51.214844 C 3.160156 45.585938 0 37.957031 0 30 C 0 22.042969 3.160156 14.414062 8.785156 8.785156 C 14.414062 3.160156 22.042969 0 30 0 Z M 30 0 " clip-rule="nonzero"/></clipPath><clipPath id="ca4066dace"><path d="M 0 0 L 345 0 L 345 60 L 0 60 Z M 0 0 " clip-rule="nonzero"/></clipPath><clipPath id="1bc788d65a"><path d="M 30 0 L 315 0 C 322.957031 0 330.585938 3.160156 336.214844 8.785156 C 341.839844 14.414062 345 22.042969 345 30 C 345 37.957031 341.839844 45.585938 336.214844 51.214844 C 330.585938 56.839844 322.957031 60 315 60 L 30 60 C 22.042969 60 14.414062 56.839844 8.785156 51.214844 C 3.160156 45.585938 0 37.957031 0 30 C 0 22.042969 3.160156 14.414062 8.785156 8.785156 C 14.414062 3.160156 22.042969 0 30 0 Z M 30 0 " clip-rule="nonzero"/></clipPath><clipPath id="e95eccbf67"><rect x="0" width="345" y="0" height="60"/></clipPath><clipPath id="1e6742cc77"><rect x="0" width="247" y="0" height="46"/></clipPath></defs><g clip-path="url(#e485b13e0c)"><g transform="matrix(1, 0, 0, 1, 0, -0.000000000000001479)"><g clip-path="url(#e95eccbf67)"><g clip-path="url(#ca4066dace)"><g clip-path="url(#1bc788d65a)"><rect x="-75.9" width="496.8" fill="#ebebeb" height="86.4" y="-13.2" fill-opacity="1"/></g></g></g></g></g><g transform="matrix(1, 0, 0, 1, 49, 7)"><g clip-path="url(#1e6742cc77)"><g fill="#000000" fill-opacity="1"><g transform="translate(1.033654, 35.680877)"><g><path d="M 14.171875 -11.53125 L 17.953125 -11.53125 L 17.953125 -14.5625 L 14.171875 -14.5625 Z M 25.390625 -14.5625 L 21.578125 -14.5625 L 21.578125 -11.53125 L 25.390625 -11.53125 Z M 28.890625 -8.578125 L 21.390625 -8.578125 C 21.265625 -7.628906 21.066406 -6.703125 20.796875 -5.796875 C 20.535156 -4.898438 20.171875 -4.046875 19.703125 -3.234375 C 22.523438 -1.878906 26.03125 -1.015625 30.21875 -0.640625 C 29.820312 -0.253906 29.414062 0.265625 29 0.921875 C 28.582031 1.578125 28.257812 2.140625 28.03125 2.609375 C 23.894531 2.078125 20.390625 1.003906 17.515625 -0.609375 C 16.773438 0.0664062 15.882812 0.679688 14.84375 1.234375 C 13.800781 1.785156 12.59375 2.265625 11.21875 2.671875 C 11.070312 2.410156 10.863281 2.085938 10.59375 1.703125 C 10.332031 1.328125 10.050781 0.945312 9.75 0.5625 C 9.457031 0.1875 9.1875 -0.125 8.9375 -0.375 C 10.164062 -0.65625 11.238281 -0.988281 12.15625 -1.375 C 13.082031 -1.769531 13.875 -2.222656 14.53125 -2.734375 C 13.78125 -3.367188 13.097656 -4.070312 12.484375 -4.84375 C 11.867188 -5.613281 11.289062 -6.4375 10.75 -7.3125 L 13.734375 -8.234375 C 14.109375 -7.640625 14.535156 -7.082031 15.015625 -6.5625 C 15.492188 -6.039062 16.019531 -5.546875 16.59375 -5.078125 C 16.90625 -5.628906 17.148438 -6.191406 17.328125 -6.765625 C 17.515625 -7.335938 17.648438 -7.941406 17.734375 -8.578125 L 10.875 -8.578125 L 10.875 -17.546875 L 17.953125 -17.546875 L 17.953125 -19.703125 L 10.234375 -19.703125 L 10.234375 -22.53125 C 9.960938 -21.957031 9.671875 -21.375 9.359375 -20.78125 C 9.054688 -20.1875 8.734375 -19.59375 8.390625 -19 L 8.390625 2.734375 L 4.921875 2.734375 L 4.921875 -13.765625 C 4.503906 -13.253906 4.085938 -12.753906 3.671875 -12.265625 C 3.253906 -11.773438 2.828125 -11.3125 2.390625 -10.875 C 2.296875 -11.1875 2.128906 -11.578125 1.890625 -12.046875 C 1.648438 -12.515625 1.398438 -12.988281 1.140625 -13.46875 C 0.890625 -13.957031 0.664062 -14.34375 0.46875 -14.625 C 1.445312 -15.550781 2.394531 -16.628906 3.3125 -17.859375 C 4.238281 -19.085938 5.09375 -20.398438 5.875 -21.796875 C 6.664062 -23.203125 7.34375 -24.632812 7.90625 -26.09375 L 11.28125 -24.984375 C 11.132812 -24.660156 10.992188 -24.335938 10.859375 -24.015625 C 10.734375 -23.703125 10.597656 -23.367188 10.453125 -23.015625 L 17.953125 -23.015625 L 17.953125 -25.8125 L 21.578125 -25.8125 L 21.578125 -23.015625 L 29.71875 -23.015625 L 29.71875 -19.703125 L 21.578125 -19.703125 L 21.578125 -17.546875 L 28.890625 -17.546875 Z M 28.890625 -8.578125 "/></g></g></g><g fill="#000000" fill-opacity="1"><g transform="translate(31.763227, 35.680877)"><g><path d="M 8.046875 -21.890625 C 7.984375 -21.535156 7.921875 -21.125 7.859375 -20.65625 C 7.804688 -20.1875 7.765625 -19.726562 7.734375 -19.28125 C 7.703125 -18.84375 7.6875 -18.476562 7.6875 -18.1875 C 7.664062 -17.207031 7.671875 -16.160156 7.703125 -15.046875 C 7.734375 -13.929688 7.789062 -12.828125 7.875 -11.734375 C 8.09375 -9.546875 8.453125 -7.769531 8.953125 -6.40625 C 9.460938 -5.039062 10.1875 -4.359375 11.125 -4.359375 C 11.488281 -4.359375 11.828125 -4.550781 12.140625 -4.9375 C 12.460938 -5.332031 12.769531 -5.835938 13.0625 -6.453125 C 13.351562 -7.066406 13.601562 -7.71875 13.8125 -8.40625 C 14.03125 -9.09375 14.210938 -9.734375 14.359375 -10.328125 L 17.421875 -6.640625 C 16.742188 -4.878906 16.070312 -3.472656 15.40625 -2.421875 C 14.75 -1.378906 14.0625 -0.628906 13.34375 -0.171875 C 12.625 0.285156 11.851562 0.515625 11.03125 0.515625 C 9.925781 0.515625 8.882812 0.15625 7.90625 -0.5625 C 6.9375 -1.289062 6.101562 -2.472656 5.40625 -4.109375 C 4.707031 -5.753906 4.21875 -7.941406 3.9375 -10.671875 C 3.851562 -11.609375 3.785156 -12.585938 3.734375 -13.609375 C 3.679688 -14.640625 3.644531 -15.617188 3.625 -16.546875 C 3.601562 -17.484375 3.59375 -18.257812 3.59375 -18.875 C 3.59375 -19.300781 3.582031 -19.804688 3.5625 -20.390625 C 3.539062 -20.972656 3.476562 -21.488281 3.375 -21.9375 Z M 23.265625 -21.234375 C 23.984375 -20.359375 24.660156 -19.28125 25.296875 -18 C 25.929688 -16.71875 26.5 -15.347656 27 -13.890625 C 27.5 -12.429688 27.90625 -10.988281 28.21875 -9.5625 C 28.539062 -8.144531 28.742188 -6.851562 28.828125 -5.6875 L 24.796875 -4.15625 C 24.679688 -5.382812 24.488281 -6.710938 24.21875 -8.140625 C 23.945312 -9.578125 23.59375 -11.019531 23.15625 -12.46875 C 22.71875 -13.925781 22.191406 -15.300781 21.578125 -16.59375 C 20.960938 -17.882812 20.234375 -19.003906 19.390625 -19.953125 Z M 23.265625 -21.234375 "/></g></g></g><g fill="#000000" fill-opacity="1"><g transform="translate(62.492801, 35.680877)"><g><path d="M 29.234375 -17.640625 L 14.359375 -17.640625 C 14.316406 -16.984375 14.269531 -16.316406 14.21875 -15.640625 C 14.164062 -14.960938 14.097656 -14.296875 14.015625 -13.640625 L 25.875 -13.640625 C 25.875 -13.640625 25.867188 -13.539062 25.859375 -13.34375 C 25.847656 -13.15625 25.835938 -12.929688 25.828125 -12.671875 C 25.816406 -12.421875 25.789062 -12.210938 25.75 -12.046875 C 25.570312 -9.265625 25.375 -6.984375 25.15625 -5.203125 C 24.9375 -3.429688 24.675781 -2.046875 24.375 -1.046875 C 24.082031 -0.0546875 23.734375 0.660156 23.328125 1.109375 C 22.878906 1.597656 22.390625 1.9375 21.859375 2.125 C 21.335938 2.320312 20.722656 2.453125 20.015625 2.515625 C 19.429688 2.578125 18.664062 2.601562 17.71875 2.59375 C 16.769531 2.582031 15.78125 2.554688 14.75 2.515625 C 14.726562 1.984375 14.59375 1.378906 14.34375 0.703125 C 14.101562 0.0234375 13.8125 -0.566406 13.46875 -1.078125 C 14.53125 -0.972656 15.539062 -0.910156 16.5 -0.890625 C 17.46875 -0.867188 18.175781 -0.859375 18.625 -0.859375 C 18.96875 -0.859375 19.253906 -0.882812 19.484375 -0.9375 C 19.710938 -0.988281 19.914062 -1.097656 20.09375 -1.265625 C 20.507812 -1.609375 20.859375 -2.488281 21.140625 -3.90625 C 21.429688 -5.320312 21.679688 -7.421875 21.890625 -10.203125 L 13.4375 -10.203125 C 13.039062 -8.484375 12.460938 -6.816406 11.703125 -5.203125 C 10.953125 -3.597656 9.921875 -2.109375 8.609375 -0.734375 C 7.296875 0.640625 5.613281 1.847656 3.5625 2.890625 C 3.300781 2.378906 2.921875 1.832031 2.421875 1.25 C 1.929688 0.664062 1.453125 0.175781 0.984375 -0.21875 C 3.054688 -1.175781 4.703125 -2.3125 5.921875 -3.625 C 7.140625 -4.9375 8.050781 -6.359375 8.65625 -7.890625 C 9.257812 -9.429688 9.664062 -11.03125 9.875 -12.6875 C 10.09375 -14.351562 10.242188 -16.003906 10.328125 -17.640625 L 1.53125 -17.640625 L 1.53125 -21.140625 L 13.3125 -21.140625 L 13.3125 -26.15625 L 17.09375 -26.15625 L 17.09375 -21.140625 L 29.234375 -21.140625 Z M 29.234375 -17.640625 "/></g></g></g><g fill="#000000" fill-opacity="1"><g transform="translate(93.222375, 35.680877)"><g><path d="M 26.21875 -21.890625 L 29.296875 -19.359375 C 29.085938 -19.117188 28.882812 -18.894531 28.6875 -18.6875 C 28.5 -18.476562 28.351562 -18.273438 28.25 -18.078125 C 27.507812 -16.890625 26.59375 -15.582031 25.5 -14.15625 C 24.414062 -12.726562 23.21875 -11.3125 21.90625 -9.90625 C 20.601562 -8.507812 19.222656 -7.222656 17.765625 -6.046875 C 18.648438 -5.171875 19.515625 -4.265625 20.359375 -3.328125 C 21.210938 -2.398438 21.9375 -1.578125 22.53125 -0.859375 L 18.9375 2 C 18.5 1.425781 17.945312 0.753906 17.28125 -0.015625 C 16.625 -0.785156 15.925781 -1.570312 15.1875 -2.375 C 14.445312 -3.1875 13.738281 -3.941406 13.0625 -4.640625 C 12.46875 -5.253906 11.757812 -5.9375 10.9375 -6.6875 C 10.125 -7.4375 9.300781 -8.15625 8.46875 -8.84375 C 7.632812 -9.539062 6.910156 -10.109375 6.296875 -10.546875 L 9.5625 -13.15625 C 10.175781 -12.707031 10.953125 -12.09375 11.890625 -11.3125 C 12.835938 -10.53125 13.789062 -9.71875 14.75 -8.875 C 15.914062 -9.800781 17 -10.785156 18 -11.828125 C 19.007812 -12.878906 19.90625 -13.914062 20.6875 -14.9375 C 21.46875 -15.957031 22.09375 -16.890625 22.5625 -17.734375 L 6.296875 -17.734375 C 5.679688 -17.734375 5.019531 -17.707031 4.3125 -17.65625 C 3.613281 -17.601562 3.097656 -17.554688 2.765625 -17.515625 L 2.765625 -21.828125 C 3.171875 -21.765625 3.734375 -21.703125 4.453125 -21.640625 C 5.171875 -21.578125 5.785156 -21.546875 6.296875 -21.546875 L 23.359375 -21.546875 C 24.585938 -21.546875 25.539062 -21.660156 26.21875 -21.890625 Z M 26.21875 -21.890625 "/></g></g></g><g fill="#000000" fill-opacity="1"><g transform="translate(123.951948, 35.680877)"><g><path d="M 2.640625 -1.140625 L 2.640625 -5.84375 C 3.234375 -5.800781 3.875 -5.753906 4.5625 -5.703125 C 5.25 -5.648438 5.890625 -5.625 6.484375 -5.625 L 24.125 -5.625 C 24.65625 -5.625 25.222656 -5.644531 25.828125 -5.6875 C 26.429688 -5.726562 26.988281 -5.78125 27.5 -5.84375 L 27.5 -1.140625 C 26.96875 -1.203125 26.390625 -1.25 25.765625 -1.28125 C 25.140625 -1.3125 24.59375 -1.328125 24.125 -1.328125 L 6.484375 -1.328125 C 5.890625 -1.328125 5.242188 -1.304688 4.546875 -1.265625 C 3.847656 -1.222656 3.210938 -1.179688 2.640625 -1.140625 Z M 5.21875 -16.40625 L 5.21875 -20.875 C 5.769531 -20.8125 6.378906 -20.765625 7.046875 -20.734375 C 7.710938 -20.703125 8.304688 -20.6875 8.828125 -20.6875 L 21.546875 -20.6875 C 22.160156 -20.6875 22.773438 -20.707031 23.390625 -20.75 C 24.003906 -20.789062 24.523438 -20.832031 24.953125 -20.875 L 24.953125 -16.40625 C 24.503906 -16.425781 23.957031 -16.453125 23.3125 -16.484375 C 22.664062 -16.515625 22.078125 -16.53125 21.546875 -16.53125 L 8.84375 -16.53125 C 8.269531 -16.53125 7.65625 -16.519531 7 -16.5 C 6.351562 -16.476562 5.757812 -16.445312 5.21875 -16.40625 Z M 5.21875 -16.40625 "/></g></g></g><g fill="#000000" fill-opacity="1"><g transform="translate(154.681522, 35.680877)"><g><path d="M 21.515625 -3.34375 L 23.484375 -3.34375 C 23.890625 -3.34375 24.394531 -3.351562 25 -3.375 C 25.601562 -3.394531 26.101562 -3.425781 26.5 -3.46875 L 26.5 0.484375 C 26.1875 0.472656 25.722656 0.457031 25.109375 0.4375 C 24.492188 0.414062 23.984375 0.40625 23.578125 0.40625 L 7.375 0.40625 C 6.820312 0.40625 6.320312 0.410156 5.875 0.421875 C 5.4375 0.429688 4.921875 0.453125 4.328125 0.484375 L 4.328125 -3.5 C 4.742188 -3.457031 5.222656 -3.421875 5.765625 -3.390625 C 6.304688 -3.359375 6.84375 -3.34375 7.375 -3.34375 L 17.328125 -3.34375 C 17.429688 -4 17.550781 -4.738281 17.6875 -5.5625 C 17.820312 -6.382812 17.941406 -7.207031 18.046875 -8.03125 C 18.160156 -8.863281 18.265625 -9.632812 18.359375 -10.34375 C 18.453125 -11.050781 18.507812 -11.617188 18.53125 -12.046875 L 10.234375 -12.046875 C 9.742188 -12.046875 9.222656 -12.03125 8.671875 -12 C 8.117188 -11.96875 7.613281 -11.929688 7.15625 -11.890625 L 7.15625 -15.953125 C 7.570312 -15.910156 8.082031 -15.867188 8.6875 -15.828125 C 9.289062 -15.785156 9.796875 -15.765625 10.203125 -15.765625 L 18.078125 -15.765625 C 18.398438 -15.765625 18.8125 -15.796875 19.3125 -15.859375 C 19.8125 -15.921875 20.164062 -16.003906 20.375 -16.109375 L 23.328125 -14.65625 C 23.242188 -14.457031 23.179688 -14.234375 23.140625 -13.984375 C 23.097656 -13.734375 23.054688 -13.53125 23.015625 -13.375 C 22.953125 -12.914062 22.859375 -12.273438 22.734375 -11.453125 C 22.617188 -10.640625 22.488281 -9.742188 22.34375 -8.765625 C 22.195312 -7.796875 22.050781 -6.832031 21.90625 -5.875 C 21.769531 -4.925781 21.640625 -4.082031 21.515625 -3.34375 Z M 21.515625 -3.34375 "/></g></g></g><g fill="#000000" fill-opacity="1"><g transform="translate(184.796415, 35.680877)"><g><path d="M 12.359375 -16.65625 L 16.8125 -16.65625 C 16.8125 -14.75 16.753906 -12.929688 16.640625 -11.203125 C 16.523438 -9.472656 16.207031 -7.832031 15.6875 -6.28125 C 15.164062 -4.738281 14.320312 -3.300781 13.15625 -1.96875 C 11.988281 -0.632812 10.359375 0.59375 8.265625 1.71875 L 4.703125 -1.203125 C 5.191406 -1.359375 5.707031 -1.578125 6.25 -1.859375 C 6.789062 -2.140625 7.347656 -2.484375 7.921875 -2.890625 C 9.234375 -3.785156 10.21875 -4.757812 10.875 -5.8125 C 11.53125 -6.875 11.976562 -8.066406 12.21875 -9.390625 C 12.457031 -10.710938 12.578125 -12.210938 12.578125 -13.890625 C 12.578125 -14.816406 12.503906 -15.738281 12.359375 -16.65625 Z M 26.890625 -23.078125 L 29.34375 -20.8125 C 29.1875 -20.601562 28.984375 -20.335938 28.734375 -20.015625 C 28.492188 -19.703125 28.300781 -19.429688 28.15625 -19.203125 C 27.6875 -18.410156 27.0625 -17.492188 26.28125 -16.453125 C 25.5 -15.421875 24.632812 -14.394531 23.6875 -13.375 C 22.75 -12.363281 21.769531 -11.5 20.75 -10.78125 L 17.578125 -13.34375 C 18.398438 -13.851562 19.191406 -14.457031 19.953125 -15.15625 C 20.722656 -15.851562 21.394531 -16.550781 21.96875 -17.25 C 22.539062 -17.957031 22.960938 -18.5625 23.234375 -19.0625 L 7.21875 -19.0625 C 6.582031 -19.0625 5.976562 -19.039062 5.40625 -19 C 4.832031 -18.957031 4.1875 -18.90625 3.46875 -18.84375 L 3.46875 -23.109375 C 4.0625 -23.023438 4.675781 -22.953125 5.3125 -22.890625 C 5.945312 -22.835938 6.582031 -22.8125 7.21875 -22.8125 L 23.78125 -22.8125 C 24.070312 -22.8125 24.425781 -22.816406 24.84375 -22.828125 C 25.269531 -22.847656 25.671875 -22.878906 26.046875 -22.921875 C 26.421875 -22.960938 26.703125 -23.015625 26.890625 -23.078125 Z M 26.890625 -23.078125 "/></g></g></g><g fill="#000000" fill-opacity="1"><g transform="translate(215.218648, 35.680877)"><g><path d="M 4.984375 1.359375 L 1.234375 -1.140625 C 2.585938 -2.097656 3.6875 -3.234375 4.53125 -4.546875 C 5.382812 -5.859375 6.023438 -7.171875 6.453125 -8.484375 C 6.679688 -9.140625 6.847656 -9.960938 6.953125 -10.953125 C 7.066406 -11.953125 7.15625 -13.023438 7.21875 -14.171875 C 7.28125 -15.316406 7.316406 -16.453125 7.328125 -17.578125 C 7.335938 -18.703125 7.34375 -19.726562 7.34375 -20.65625 C 7.34375 -21.269531 7.320312 -21.796875 7.28125 -22.234375 C 7.238281 -22.671875 7.164062 -23.078125 7.0625 -23.453125 L 11.59375 -23.453125 C 11.570312 -23.390625 11.53125 -23.070312 11.46875 -22.5 C 11.40625 -21.925781 11.375 -21.320312 11.375 -20.6875 C 11.375 -19.78125 11.363281 -18.734375 11.34375 -17.546875 C 11.320312 -16.359375 11.28125 -15.132812 11.21875 -13.875 C 11.15625 -12.613281 11.0625 -11.425781 10.9375 -10.3125 C 10.8125 -9.195312 10.648438 -8.25 10.453125 -7.46875 C 10.003906 -5.726562 9.3125 -4.113281 8.375 -2.625 C 7.445312 -1.144531 6.316406 0.179688 4.984375 1.359375 Z M 18.015625 1.4375 L 15.453125 -0.671875 C 15.515625 -0.960938 15.570312 -1.3125 15.625 -1.71875 C 15.675781 -2.125 15.703125 -2.535156 15.703125 -2.953125 L 15.703125 -20.875 C 15.703125 -21.5625 15.664062 -22.160156 15.59375 -22.671875 C 15.519531 -23.191406 15.472656 -23.472656 15.453125 -23.515625 L 20.03125 -23.515625 C 20.019531 -23.472656 19.984375 -23.191406 19.921875 -22.671875 C 19.859375 -22.148438 19.828125 -21.539062 19.828125 -20.84375 L 19.828125 -4.765625 C 20.660156 -5.128906 21.523438 -5.628906 22.421875 -6.265625 C 23.328125 -6.898438 24.21875 -7.644531 25.09375 -8.5 C 25.96875 -9.351562 26.742188 -10.269531 27.421875 -11.25 L 29.78125 -7.875 C 28.9375 -6.757812 27.921875 -5.671875 26.734375 -4.609375 C 25.546875 -3.546875 24.304688 -2.570312 23.015625 -1.6875 C 21.722656 -0.8125 20.503906 -0.078125 19.359375 0.515625 C 19.035156 0.679688 18.78125 0.835938 18.59375 0.984375 C 18.40625 1.128906 18.210938 1.28125 18.015625 1.4375 Z M 18.015625 1.4375 "/></g></g></g></g></g></svg>