<svg xmlns="http://www.w3.org/2000/svg" xmlns:xlink="http://www.w3.org/1999/xlink" width="460" zoomAndPan="magnify" viewBox="0 0 345 60" height="80" preserveAspectRatio="xMidYMid meet" version="1.0"><defs><g/><clipPath id="41b2db8aa3"><path d="M 30 0 L 315 0 C 322.957031 0 330.585938 3.160156 336.214844 8.785156 C 341.839844 14.414062 345 22.042969 345 30 C 345 37.957031 341.839844 45.585938 336.214844 51.214844 C 330.585938 56.839844 322.957031 60 315 60 L 30 60 C 22.042969 60 14.414062 56.839844 8.785156 51.214844 C 3.160156 45.585938 0 37.957031 0 30 C 0 22.042969 3.160156 14.414062 8.785156 8.785156 C 14.414062 3.160156 22.042969 0 30 0 Z M 30 0 " clip-rule="nonzero"/></clipPath><clipPath id="a32f896608"><path d="M 0 0 L 345 0 L 345 60 L 0 60 Z M 0 0 " clip-rule="nonzero"/></clipPath><clipPath id="227781f840"><path d="M 30 0 L 315 0 C 322.957031 0 330.585938 3.160156 336.214844 8.785156 C 341.839844 14.414062 345 22.042969 345 30 C 345 37.957031 341.839844 45.585938 336.214844 51.214844 C 330.585938 56.839844 322.957031 60 315 60 L 30 60 C 22.042969 60 14.414062 56.839844 8.785156 51.214844 C 3.160156 45.585938 0 37.957031 0 30 C 0 22.042969 3.160156 14.414062 8.785156 8.785156 C 14.414062 3.160156 22.042969 0 30 0 Z M 30 0 " clip-rule="nonzero"/></clipPath><clipPath id="b970ebb1a7"><rect x="0" width="345" y="0" height="60"/></clipPath><clipPath id="18ce28a3f2"><rect x="0" width="217" y="0" height="46"/></clipPath></defs><g clip-path="url(#41b2db8aa3)"><g transform="matrix(1, 0, 0, 1, 0, -0.000000000000001479)"><g clip-path="url(#b970ebb1a7)"><g clip-path="url(#a32f896608)"><g clip-path="url(#227781f840)"><rect x="-75.9" width="496.8" fill="#ebebeb" height="86.4" y="-13.2" fill-opacity="1"/></g></g></g></g></g><g transform="matrix(1, 0, 0, 1, 64, 7)"><g clip-path="url(#18ce28a3f2)"><g fill="#000000" fill-opacity="1"><g transform="translate(1.248303, 35.680877)"><g><path d="M 23.96875 -24.53125 C 24.238281 -24.15625 24.519531 -23.710938 24.8125 -23.203125 C 25.113281 -22.691406 25.40625 -22.179688 25.6875 -21.671875 C 25.976562 -21.160156 26.21875 -20.707031 26.40625 -20.3125 L 23.9375 -19.234375 C 23.613281 -19.867188 23.234375 -20.597656 22.796875 -21.421875 C 22.367188 -22.242188 21.953125 -22.941406 21.546875 -23.515625 Z M 27.59375 -25.90625 C 27.863281 -25.519531 28.15625 -25.066406 28.46875 -24.546875 C 28.789062 -24.035156 29.09375 -23.53125 29.375 -23.03125 C 29.664062 -22.53125 29.90625 -22.097656 30.09375 -21.734375 L 27.625 -20.65625 C 27.320312 -21.3125 26.9375 -22.035156 26.46875 -22.828125 C 26.007812 -23.628906 25.578125 -24.316406 25.171875 -24.890625 Z M 5.90625 -9.5625 C 6.601562 -11.28125 7.21875 -13.164062 7.75 -15.21875 C 8.28125 -17.28125 8.640625 -19.285156 8.828125 -21.234375 L 13.3125 -20.3125 C 13.164062 -19.863281 13.019531 -19.328125 12.875 -18.703125 C 12.726562 -18.078125 12.628906 -17.585938 12.578125 -17.234375 C 12.429688 -16.523438 12.21875 -15.625 11.9375 -14.53125 C 11.664062 -13.445312 11.351562 -12.328125 11 -11.171875 C 10.65625 -10.015625 10.304688 -8.953125 9.953125 -7.984375 C 9.585938 -7.003906 9.15625 -5.976562 8.65625 -4.90625 C 8.15625 -3.84375 7.625 -2.820312 7.0625 -1.84375 C 6.507812 -0.863281 5.957031 0.015625 5.40625 0.796875 L 1.109375 -1.015625 C 2.066406 -2.285156 2.972656 -3.6875 3.828125 -5.21875 C 4.691406 -6.757812 5.382812 -8.207031 5.90625 -9.5625 Z M 21.078125 -10.203125 C 20.691406 -11.285156 20.234375 -12.460938 19.703125 -13.734375 C 19.171875 -15.003906 18.628906 -16.222656 18.078125 -17.390625 C 17.535156 -18.554688 17.050781 -19.53125 16.625 -20.3125 L 20.71875 -21.640625 C 21.019531 -21.046875 21.367188 -20.328125 21.765625 -19.484375 C 22.171875 -18.640625 22.585938 -17.75 23.015625 -16.8125 C 23.453125 -15.882812 23.859375 -14.957031 24.234375 -14.03125 C 24.609375 -13.113281 24.941406 -12.289062 25.234375 -11.5625 C 25.515625 -10.863281 25.8125 -10.054688 26.125 -9.140625 C 26.445312 -8.234375 26.773438 -7.28125 27.109375 -6.28125 C 27.453125 -5.289062 27.769531 -4.320312 28.0625 -3.375 C 28.363281 -2.4375 28.617188 -1.585938 28.828125 -0.828125 L 24.28125 0.640625 C 23.851562 -1.179688 23.363281 -3.03125 22.8125 -4.90625 C 22.269531 -6.78125 21.691406 -8.546875 21.078125 -10.203125 Z M 21.078125 -10.203125 "/></g></g></g><g fill="#000000" fill-opacity="1"><g transform="translate(31.977876, 35.680877)"><g><path d="M 2.828125 -9.40625 L 2.828125 -14.234375 C 3.191406 -14.210938 3.660156 -14.1875 4.234375 -14.15625 C 4.816406 -14.125 5.421875 -14.097656 6.046875 -14.078125 C 6.671875 -14.054688 7.25 -14.046875 7.78125 -14.046875 L 24.28125 -14.046875 C 25 -14.046875 25.679688 -14.070312 26.328125 -14.125 C 26.972656 -14.175781 27.488281 -14.210938 27.875 -14.234375 L 27.875 -9.40625 C 27.507812 -9.425781 26.984375 -9.457031 26.296875 -9.5 C 25.609375 -9.539062 24.9375 -9.5625 24.28125 -9.5625 L 7.78125 -9.5625 C 6.894531 -9.5625 5.988281 -9.546875 5.0625 -9.515625 C 4.144531 -9.484375 3.398438 -9.445312 2.828125 -9.40625 Z M 2.828125 -9.40625 "/></g></g></g><g fill="#000000" fill-opacity="1"><g transform="translate(62.09277, 35.680877)"><g><path d="M 22.40625 -23.609375 C 22.851562 -22.972656 23.347656 -22.195312 23.890625 -21.28125 C 24.429688 -20.375 24.878906 -19.5625 25.234375 -18.84375 L 22.5625 -17.703125 C 22.113281 -18.660156 21.6875 -19.507812 21.28125 -20.25 C 20.882812 -20.988281 20.410156 -21.75 19.859375 -22.53125 Z M 26.640625 -25.078125 C 27.117188 -24.460938 27.628906 -23.710938 28.171875 -22.828125 C 28.710938 -21.953125 29.164062 -21.175781 29.53125 -20.5 L 26.921875 -19.328125 C 26.429688 -20.296875 25.96875 -21.125 25.53125 -21.8125 C 25.101562 -22.507812 24.601562 -23.238281 24.03125 -24 Z M 9.0625 -24.1875 C 9.738281 -23.820312 10.519531 -23.363281 11.40625 -22.8125 C 12.300781 -22.269531 13.171875 -21.722656 14.015625 -21.171875 C 14.859375 -20.617188 15.546875 -20.160156 16.078125 -19.796875 L 13.796875 -16.40625 C 13.222656 -16.820312 12.519531 -17.296875 11.6875 -17.828125 C 10.863281 -18.359375 10.019531 -18.894531 9.15625 -19.4375 C 8.300781 -19.976562 7.535156 -20.4375 6.859375 -20.8125 Z M 3.375 -2.359375 C 5.101562 -2.648438 6.863281 -3.070312 8.65625 -3.625 C 10.445312 -4.175781 12.171875 -4.914062 13.828125 -5.84375 C 16.453125 -7.289062 18.796875 -9.023438 20.859375 -11.046875 C 22.929688 -13.066406 24.570312 -15.171875 25.78125 -17.359375 L 28.15625 -13.1875 C 26.738281 -11.050781 24.972656 -9.035156 22.859375 -7.140625 C 20.753906 -5.242188 18.453125 -3.570312 15.953125 -2.125 C 14.910156 -1.550781 13.765625 -1 12.515625 -0.46875 C 11.265625 0.0507812 10.035156 0.492188 8.828125 0.859375 C 7.628906 1.222656 6.582031 1.488281 5.6875 1.65625 Z M 4.328125 -17.1875 C 5.023438 -16.8125 5.820312 -16.359375 6.71875 -15.828125 C 7.625 -15.296875 8.5 -14.757812 9.34375 -14.21875 C 10.1875 -13.675781 10.863281 -13.21875 11.375 -12.84375 L 9.125 -9.40625 C 8.550781 -9.8125 7.84375 -10.285156 7 -10.828125 C 6.164062 -11.367188 5.316406 -11.90625 4.453125 -12.4375 C 3.597656 -12.976562 2.820312 -13.429688 2.125 -13.796875 Z M 4.328125 -17.1875 "/></g></g></g><g fill="#000000" fill-opacity="1"><g transform="translate(92.822343, 35.680877)"><g><path d="M 24.3125 -15.21875 L 24.3125 0.21875 C 24.3125 0.457031 24.316406 0.789062 24.328125 1.21875 C 24.335938 1.65625 24.34375 2.019531 24.34375 2.3125 L 20.46875 2.3125 C 20.488281 2.164062 20.5 1.976562 20.5 1.75 C 20.5 1.519531 20.5 1.296875 20.5 1.078125 L 8.84375 1.078125 C 8.414062 1.078125 7.9375 1.085938 7.40625 1.109375 C 6.875 1.128906 6.472656 1.148438 6.203125 1.171875 L 6.203125 -2.609375 C 6.472656 -2.585938 6.847656 -2.5625 7.328125 -2.53125 C 7.804688 -2.5 8.320312 -2.484375 8.875 -2.484375 L 20.5 -2.484375 L 20.5 -6.578125 L 10.703125 -6.578125 C 10.117188 -6.578125 9.5 -6.570312 8.84375 -6.5625 C 8.195312 -6.550781 7.695312 -6.535156 7.34375 -6.515625 L 7.34375 -10.140625 C 7.75 -10.117188 8.265625 -10.097656 8.890625 -10.078125 C 9.515625 -10.054688 10.117188 -10.046875 10.703125 -10.046875 L 20.5 -10.046875 L 20.5 -13.765625 L 10.359375 -13.765625 C 9.984375 -13.765625 9.546875 -13.757812 9.046875 -13.75 C 8.546875 -13.738281 8.066406 -13.722656 7.609375 -13.703125 C 7.148438 -13.679688 6.796875 -13.660156 6.546875 -13.640625 L 6.546875 -17.359375 C 6.816406 -17.335938 7.175781 -17.3125 7.625 -17.28125 C 8.070312 -17.25 8.546875 -17.226562 9.046875 -17.21875 C 9.546875 -17.21875 9.984375 -17.21875 10.359375 -17.21875 L 21.96875 -17.21875 C 22.34375 -17.21875 22.769531 -17.21875 23.25 -17.21875 C 23.726562 -17.226562 24.09375 -17.242188 24.34375 -17.265625 C 24.320312 -17.066406 24.3125 -16.753906 24.3125 -16.328125 C 24.3125 -15.910156 24.3125 -15.539062 24.3125 -15.21875 Z M 24.3125 -15.21875 "/></g></g></g><g fill="#000000" fill-opacity="1"><g transform="translate(123.551917, 35.680877)"><g><path d="M 7.40625 -23.359375 C 7.9375 -22.992188 8.5625 -22.535156 9.28125 -21.984375 C 10 -21.441406 10.738281 -20.863281 11.5 -20.25 C 12.269531 -19.632812 12.988281 -19.035156 13.65625 -18.453125 C 14.320312 -17.867188 14.882812 -17.34375 15.34375 -16.875 L 12.203125 -13.640625 C 11.816406 -14.078125 11.304688 -14.59375 10.671875 -15.1875 C 10.035156 -15.78125 9.347656 -16.394531 8.609375 -17.03125 C 7.867188 -17.664062 7.140625 -18.269531 6.421875 -18.84375 C 5.703125 -19.414062 5.066406 -19.894531 4.515625 -20.28125 Z M 3.5625 -2.890625 C 5.957031 -3.234375 8.144531 -3.769531 10.125 -4.5 C 12.101562 -5.226562 13.84375 -6.035156 15.34375 -6.921875 C 17.082031 -7.960938 18.675781 -9.144531 20.125 -10.46875 C 21.582031 -11.789062 22.851562 -13.175781 23.9375 -14.625 C 25.03125 -16.082031 25.894531 -17.5 26.53125 -18.875 L 28.921875 -14.53125 C 27.753906 -12.46875 26.1875 -10.429688 24.21875 -8.421875 C 22.25 -6.410156 20.023438 -4.660156 17.546875 -3.171875 C 15.992188 -2.222656 14.25 -1.351562 12.3125 -0.5625 C 10.375 0.21875 8.316406 0.796875 6.140625 1.171875 Z M 3.5625 -2.890625 "/></g></g></g><g fill="#000000" fill-opacity="1"><g transform="translate(154.281491, 35.680877)"><g><path d="M 3.265625 -11.0625 L 0.609375 -11.953125 C 0.835938 -12.648438 1.03125 -13.460938 1.1875 -14.390625 C 1.351562 -15.328125 1.5 -16.285156 1.625 -17.265625 C 1.75 -18.253906 1.832031 -19.160156 1.875 -19.984375 L 4.453125 -19.640625 C 4.429688 -18.796875 4.363281 -17.859375 4.25 -16.828125 C 4.144531 -15.796875 4.007812 -14.773438 3.84375 -13.765625 C 3.675781 -12.765625 3.484375 -11.863281 3.265625 -11.0625 Z M 14.9375 -4.421875 L 24.125 -4.421875 L 24.125 -5.84375 L 14.9375 -5.84375 Z M 24.125 -9.859375 L 14.9375 -9.859375 L 14.9375 -8.421875 L 24.125 -8.421875 Z M 27.5625 -12.546875 L 27.5625 -0.828125 C 27.5625 -0.0234375 27.460938 0.601562 27.265625 1.0625 C 27.078125 1.519531 26.707031 1.875 26.15625 2.125 C 25.625 2.382812 24.96875 2.535156 24.1875 2.578125 C 23.40625 2.617188 22.484375 2.640625 21.421875 2.640625 C 21.359375 2.191406 21.234375 1.675781 21.046875 1.09375 C 20.867188 0.507812 20.664062 -0.0078125 20.4375 -0.46875 C 21.070312 -0.425781 21.695312 -0.40625 22.3125 -0.40625 C 22.925781 -0.40625 23.335938 -0.40625 23.546875 -0.40625 C 23.929688 -0.40625 24.125 -0.566406 24.125 -0.890625 L 24.125 -1.90625 L 14.9375 -1.90625 L 14.9375 2.703125 L 11.5625 2.703125 L 11.5625 -12.546875 Z M 21.265625 -16.3125 L 29.625 -16.3125 L 29.625 -13.703125 L 9.5 -13.703125 L 9.5 -16.3125 L 17.640625 -16.3125 L 17.640625 -17.640625 L 11.28125 -17.640625 L 11.34375 -17.484375 L 8.9375 -16.3125 C 8.84375 -16.769531 8.691406 -17.300781 8.484375 -17.90625 C 8.273438 -18.507812 8.050781 -19.109375 7.8125 -19.703125 L 7.8125 2.640625 L 4.515625 2.640625 L 4.515625 -26.03125 L 7.8125 -26.03125 L 7.8125 -21.109375 L 9.5625 -21.859375 C 9.882812 -21.203125 10.203125 -20.484375 10.515625 -19.703125 C 10.835938 -18.921875 11.09375 -18.242188 11.28125 -17.671875 L 11.28125 -20.09375 L 17.640625 -20.09375 L 17.640625 -21.328125 L 10.453125 -21.328125 L 10.453125 -23.9375 L 17.640625 -23.9375 L 17.640625 -26.03125 L 21.265625 -26.03125 L 21.265625 -23.9375 L 28.703125 -23.9375 L 28.703125 -21.328125 L 21.265625 -21.328125 L 21.265625 -20.09375 L 27.875 -20.09375 L 27.875 -17.640625 L 21.265625 -17.640625 Z M 21.265625 -16.3125 "/></g></g></g><g fill="#000000" fill-opacity="1"><g transform="translate(185.011064, 35.680877)"><g><path d="M 10.421875 -11.53125 L 9.4375 -11.796875 C 9.601562 -12.273438 9.785156 -12.816406 9.984375 -13.421875 C 10.191406 -14.023438 10.367188 -14.582031 10.515625 -15.09375 L 5.84375 -15.09375 C 6.101562 -14.539062 6.332031 -13.960938 6.53125 -13.359375 C 6.726562 -12.753906 6.859375 -12.234375 6.921875 -11.796875 L 5.9375 -11.53125 Z M 9.859375 -20.28125 L 9.859375 -18.15625 L 15 -18.15625 L 15 -15.09375 L 12.453125 -15.09375 L 13.640625 -14.78125 C 13.378906 -14.207031 13.132812 -13.640625 12.90625 -13.078125 C 12.6875 -12.515625 12.460938 -12 12.234375 -11.53125 L 14.53125 -11.53125 L 14.53125 -8.453125 L 9.859375 -8.453125 L 9.859375 -6.078125 L 14.203125 -6.078125 L 14.203125 -3.015625 L 9.859375 -3.015625 L 9.859375 2.578125 L 6.484375 2.578125 L 6.484375 -3.015625 L 1.90625 -3.015625 L 1.90625 -6.078125 L 6.484375 -6.078125 L 6.484375 -8.453125 L 1.65625 -8.453125 L 1.65625 -11.53125 L 3.96875 -11.53125 C 3.882812 -12.019531 3.75 -12.5625 3.5625 -13.15625 C 3.375 -13.75 3.171875 -14.300781 2.953125 -14.8125 L 4.0625 -15.09375 L 1.015625 -15.09375 L 1.015625 -18.15625 L 6.484375 -18.15625 L 6.484375 -20.28125 L 2.09375 -20.28125 L 2.09375 -23.296875 L 6.484375 -23.296875 L 6.484375 -25.96875 L 9.859375 -25.96875 L 9.859375 -23.296875 L 13.859375 -23.296875 L 13.859375 -20.28125 Z M 18.875 -10.046875 L 18.875 -0.28125 C 19.976562 -1.175781 20.960938 -2.21875 21.828125 -3.40625 C 21.234375 -4.394531 20.6875 -5.445312 20.1875 -6.5625 C 19.695312 -7.675781 19.257812 -8.835938 18.875 -10.046875 Z M 25.265625 -11.3125 L 21.453125 -11.3125 C 22.003906 -9.632812 22.734375 -8.046875 23.640625 -6.546875 C 24.347656 -8.023438 24.890625 -9.613281 25.265625 -11.3125 Z M 26.890625 -14.359375 L 29.078125 -13.578125 C 28.785156 -11.710938 28.367188 -9.9375 27.828125 -8.25 C 27.285156 -6.5625 26.625 -4.988281 25.84375 -3.53125 C 26.476562 -2.832031 27.148438 -2.203125 27.859375 -1.640625 C 28.566406 -1.078125 29.320312 -0.59375 30.125 -0.1875 C 29.726562 0.144531 29.300781 0.59375 28.84375 1.15625 C 28.382812 1.71875 28.019531 2.234375 27.75 2.703125 C 27.03125 2.273438 26.351562 1.785156 25.71875 1.234375 C 25.082031 0.679688 24.476562 0.0859375 23.90625 -0.546875 C 23.414062 0.0859375 22.894531 0.675781 22.34375 1.21875 C 21.789062 1.757812 21.195312 2.265625 20.5625 2.734375 C 20.351562 2.429688 20.097656 2.109375 19.796875 1.765625 C 19.503906 1.429688 19.195312 1.117188 18.875 0.828125 L 18.875 2.640625 L 15.546875 2.640625 L 15.546875 -24.734375 L 28.375 -24.734375 L 28.375 -18.96875 C 28.375 -18.1875 28.265625 -17.554688 28.046875 -17.078125 C 27.828125 -16.609375 27.421875 -16.253906 26.828125 -16.015625 C 26.253906 -15.765625 25.546875 -15.613281 24.703125 -15.5625 C 23.867188 -15.507812 22.890625 -15.484375 21.765625 -15.484375 C 21.679688 -15.984375 21.539062 -16.519531 21.34375 -17.09375 C 21.144531 -17.664062 20.9375 -18.175781 20.71875 -18.625 C 21.476562 -18.601562 22.21875 -18.585938 22.9375 -18.578125 C 23.664062 -18.566406 24.144531 -18.5625 24.375 -18.5625 C 24.78125 -18.582031 24.984375 -18.738281 24.984375 -19.03125 L 24.984375 -21.546875 L 18.875 -21.546875 L 18.875 -14.203125 L 26.28125 -14.203125 Z M 26.890625 -14.359375 "/></g></g></g></g></g></svg>