<svg xmlns="http://www.w3.org/2000/svg" xmlns:xlink="http://www.w3.org/1999/xlink" width="460" zoomAndPan="magnify" viewBox="0 0 345 60" height="80" preserveAspectRatio="xMidYMid meet" version="1.0"><defs><g/><clipPath id="e15e82affd"><path d="M 30 0 L 315 0 C 322.957031 0 330.585938 3.160156 336.214844 8.785156 C 341.839844 14.414062 345 22.042969 345 30 C 345 37.957031 341.839844 45.585938 336.214844 51.214844 C 330.585938 56.839844 322.957031 60 315 60 L 30 60 C 22.042969 60 14.414062 56.839844 8.785156 51.214844 C 3.160156 45.585938 0 37.957031 0 30 C 0 22.042969 3.160156 14.414062 8.785156 8.785156 C 14.414062 3.160156 22.042969 0 30 0 Z M 30 0 " clip-rule="nonzero"/></clipPath><clipPath id="f898f9a330"><path d="M 0 0 L 345 0 L 345 60 L 0 60 Z M 0 0 " clip-rule="nonzero"/></clipPath><clipPath id="54ccf2b63a"><path d="M 30 0 L 315 0 C 322.957031 0 330.585938 3.160156 336.214844 8.785156 C 341.839844 14.414062 345 22.042969 345 30 C 345 37.957031 341.839844 45.585938 336.214844 51.214844 C 330.585938 56.839844 322.957031 60 315 60 L 30 60 C 22.042969 60 14.414062 56.839844 8.785156 51.214844 C 3.160156 45.585938 0 37.957031 0 30 C 0 22.042969 3.160156 14.414062 8.785156 8.785156 C 14.414062 3.160156 22.042969 0 30 0 Z M 30 0 " clip-rule="nonzero"/></clipPath><clipPath id="450d70ba37"><rect x="0" width="345" y="0" height="60"/></clipPath></defs><g clip-path="url(#e15e82affd)"><g transform="matrix(1, 0, 0, 1, 0, -0.000000000000001479)"><g clip-path="url(#450d70ba37)"><g clip-path="url(#f898f9a330)"><g clip-path="url(#54ccf2b63a)"><rect x="-75.9" width="496.8" fill="#ebebeb" height="86.4" y="-13.2" fill-opacity="1"/></g></g></g></g></g><g fill="#000000" fill-opacity="1"><g transform="translate(23.002739, 42.61521)"><g/></g></g><g fill="#000000" fill-opacity="1"><g transform="translate(29.987114, 42.61521)"><g/></g></g><g fill="#000000" fill-opacity="1"><g transform="translate(60.713606, 42.61521)"><g><path d="M 6.796875 0 L -0.15625 -22.75 L 4.609375 -22.75 L 7.625 -11.671875 C 7.96875 -10.421875 8.273438 -9.203125 8.546875 -8.015625 C 8.828125 -6.828125 9.15625 -5.597656 9.53125 -4.328125 L 9.6875 -4.328125 C 10.03125 -5.597656 10.347656 -6.828125 10.640625 -8.015625 C 10.941406 -9.203125 11.269531 -10.421875 11.625 -11.671875 L 14.5625 -22.75 L 19.171875 -22.75 L 12.203125 0 Z M 6.796875 0 "/></g></g></g><g fill="#000000" fill-opacity="1"><g transform="translate(79.087884, 42.61521)"><g><path d="M 9.890625 0.4375 C 8.296875 0.4375 6.851562 0.078125 5.5625 -0.640625 C 4.269531 -1.359375 3.242188 -2.390625 2.484375 -3.734375 C 1.734375 -5.078125 1.359375 -6.691406 1.359375 -8.578125 C 1.359375 -10.441406 1.738281 -12.046875 2.5 -13.390625 C 3.269531 -14.742188 4.265625 -15.789062 5.484375 -16.53125 C 6.703125 -17.269531 8 -17.640625 9.375 -17.640625 C 10.945312 -17.640625 12.265625 -17.285156 13.328125 -16.578125 C 14.398438 -15.867188 15.207031 -14.894531 15.75 -13.65625 C 16.289062 -12.414062 16.5625 -11 16.5625 -9.40625 C 16.5625 -8.5 16.488281 -7.8125 16.34375 -7.34375 L 5.75 -7.34375 C 5.9375 -5.925781 6.457031 -4.851562 7.3125 -4.125 C 8.175781 -3.40625 9.242188 -3.046875 10.515625 -3.046875 C 11.234375 -3.046875 11.90625 -3.144531 12.53125 -3.34375 C 13.15625 -3.550781 13.773438 -3.847656 14.390625 -4.234375 L 15.921875 -1.46875 C 15.078125 -0.894531 14.132812 -0.429688 13.09375 -0.078125 C 12.050781 0.265625 10.984375 0.4375 9.890625 0.4375 Z M 5.6875 -10.328125 L 12.6875 -10.328125 C 12.6875 -11.492188 12.421875 -12.421875 11.890625 -13.109375 C 11.359375 -13.796875 10.539062 -14.140625 9.4375 -14.140625 C 8.53125 -14.140625 7.71875 -13.820312 7 -13.1875 C 6.289062 -12.550781 5.851562 -11.597656 5.6875 -10.328125 Z M 5.6875 -10.328125 "/></g></g></g><g fill="#000000" fill-opacity="1"><g transform="translate(96.93998, 42.61521)"><g><path d="M 2.421875 0 L 2.421875 -17.21875 L 6.109375 -17.21875 L 6.421875 -14.171875 L 6.546875 -14.171875 C 7.179688 -15.296875 7.929688 -16.15625 8.796875 -16.75 C 9.671875 -17.34375 10.550781 -17.640625 11.4375 -17.640625 C 11.90625 -17.640625 12.289062 -17.601562 12.59375 -17.53125 C 12.90625 -17.457031 13.195312 -17.367188 13.46875 -17.265625 L 12.65625 -13.375 C 12.375 -13.46875 12.09375 -13.535156 11.8125 -13.578125 C 11.539062 -13.617188 11.226562 -13.640625 10.875 -13.640625 C 10.195312 -13.640625 9.488281 -13.390625 8.75 -12.890625 C 8.019531 -12.390625 7.410156 -11.515625 6.921875 -10.265625 L 6.921875 0 Z M 2.421875 0 "/></g></g></g><g fill="#000000" fill-opacity="1"><g transform="translate(107.570579, 42.61521)"><g><path d="M 4.984375 0.4375 C 4.179688 0.4375 3.515625 0.148438 2.984375 -0.421875 C 2.453125 -1.003906 2.1875 -1.703125 2.1875 -2.515625 C 2.1875 -3.359375 2.453125 -4.0625 2.984375 -4.625 C 3.515625 -5.1875 4.179688 -5.46875 4.984375 -5.46875 C 5.796875 -5.46875 6.46875 -5.1875 7 -4.625 C 7.539062 -4.0625 7.8125 -3.359375 7.8125 -2.515625 C 7.8125 -1.703125 7.539062 -1.003906 7 -0.421875 C 6.46875 0.148438 5.796875 0.4375 4.984375 0.4375 Z M 4.984375 0.4375 "/></g></g></g></svg>