<svg xmlns="http://www.w3.org/2000/svg" xmlns:xlink="http://www.w3.org/1999/xlink" width="1920" zoomAndPan="magnify" viewBox="0 0 1440 809.999993" height="1080" preserveAspectRatio="xMidYMid meet" version="1.0"><defs><g/><clipPath id="a3ab00ae64"><path d="M 0 0.28125 L 1440 0.28125 L 1440 89.996094 L 0 89.996094 Z M 0 0.28125 " clip-rule="nonzero"/></clipPath><clipPath id="274684bb8c"><path d="M 0 0.28125 L 1440 0.28125 L 1440 89.996094 L 0 89.996094 Z M 0 0.28125 " clip-rule="nonzero"/></clipPath><clipPath id="02efb5b08b"><rect x="0" width="1440" y="0" height="90"/></clipPath></defs><rect x="-144" width="1728" fill="#ffffff" y="-80.999999" height="971.999992" fill-opacity="1"/><rect x="-144" width="1728" fill="#ffffff" y="-80.999999" height="971.999992" fill-opacity="1"/><g clip-path="url(#a3ab00ae64)"><g transform="matrix(1, 0, 0, 1, 0, 0.000000000000039746)"><g clip-path="url(#02efb5b08b)"><g clip-path="url(#274684bb8c)"><path fill="#00a0e9" d="M 0 0.28125 L 1439.996094 0.28125 L 1439.996094 89.996094 L 0 89.996094 Z M 0 0.28125 " fill-opacity="1" fill-rule="nonzero"/></g></g></g></g><g fill="#ffffff" fill-opacity="1"><g transform="translate(33.193115, 58.262412)"><g><path d="M 12.03125 -23.109375 L 7.5625 -23.109375 C 7.800781 -22.578125 8.007812 -22.007812 8.1875 -21.40625 C 8.363281 -20.8125 8.476562 -20.289062 8.53125 -19.84375 L 6.953125 -19.40625 L 13.109375 -19.40625 L 10.9375 -19.84375 C 11.132812 -20.320312 11.328125 -20.851562 11.515625 -21.4375 C 11.710938 -22.019531 11.882812 -22.578125 12.03125 -23.109375 Z M 17.28125 -5.078125 L 14.296875 -1.375 C 14.054688 -1.65625 13.78125 -1.96875 13.46875 -2.3125 C 13.15625 -2.664062 12.828125 -3.035156 12.484375 -3.421875 L 12.484375 3.390625 L 7.421875 3.390625 L 7.421875 -2.59375 C 6.210938 -0.988281 4.972656 0.34375 3.703125 1.40625 C 3.316406 0.851562 2.796875 0.207031 2.140625 -0.53125 C 1.484375 -1.28125 0.878906 -1.867188 0.328125 -2.296875 C 1.453125 -3.023438 2.550781 -3.953125 3.625 -5.078125 C 4.707031 -6.203125 5.644531 -7.378906 6.4375 -8.609375 L 1.4375 -8.609375 L 1.4375 -12.953125 L 7.421875 -12.953125 L 7.421875 -15.15625 L 1.328125 -15.15625 L 1.328125 -19.40625 L 4.25 -19.40625 C 4.175781 -19.90625 4.054688 -20.445312 3.890625 -21.03125 C 3.722656 -21.625 3.539062 -22.160156 3.34375 -22.640625 L 5.25 -23.109375 L 1.765625 -23.109375 L 1.765625 -27.328125 L 7.421875 -27.328125 L 7.421875 -30.390625 L 12.484375 -30.390625 L 12.484375 -27.328125 L 18.140625 -27.328125 L 18.140625 -23.109375 L 15.234375 -23.109375 L 16.78125 -22.828125 C 16.46875 -22.148438 16.191406 -21.523438 15.953125 -20.953125 C 15.710938 -20.378906 15.484375 -19.863281 15.265625 -19.40625 L 18.359375 -19.40625 L 18.359375 -15.15625 L 12.484375 -15.15625 L 12.484375 -12.953125 L 18 -12.953125 L 18 -8.609375 L 12.484375 -8.609375 L 12.484375 -8.5625 C 12.921875 -8.300781 13.46875 -7.929688 14.125 -7.453125 C 14.789062 -6.972656 15.421875 -6.503906 16.015625 -6.046875 C 16.617188 -5.585938 17.039062 -5.265625 17.28125 -5.078125 Z M 24.265625 -23.296875 L 24.265625 -19.015625 L 35.0625 -19.015625 L 35.0625 -14.1875 L 32 -14.1875 L 32 3.234375 L 26.921875 3.234375 L 26.921875 -14.1875 L 24.265625 -14.1875 C 24.242188 -12.863281 24.144531 -11.425781 23.96875 -9.875 C 23.800781 -8.332031 23.519531 -6.757812 23.125 -5.15625 C 22.726562 -3.5625 22.179688 -2.023438 21.484375 -0.546875 C 20.796875 0.921875 19.882812 2.253906 18.75 3.453125 C 18.539062 3.066406 18.210938 2.632812 17.765625 2.15625 C 17.316406 1.675781 16.847656 1.226562 16.359375 0.8125 C 15.867188 0.394531 15.421875 0.0859375 15.015625 -0.109375 C 16.328125 -1.566406 17.285156 -3.171875 17.890625 -4.921875 C 18.492188 -6.679688 18.878906 -8.472656 19.046875 -10.296875 C 19.210938 -12.117188 19.296875 -13.832031 19.296875 -15.4375 L 19.296875 -28.015625 L 22.140625 -27.21875 C 23.796875 -27.644531 25.394531 -28.132812 26.9375 -28.6875 C 28.488281 -29.238281 29.804688 -29.816406 30.890625 -30.421875 L 35.0625 -26.640625 C 33.457031 -25.898438 31.710938 -25.257812 29.828125 -24.71875 C 27.941406 -24.175781 26.085938 -23.703125 24.265625 -23.296875 Z M 24.265625 -23.296875 "/></g></g></g><g fill="#ffffff" fill-opacity="1"><g transform="translate(69.193182, 58.262412)"><g><path d="M 19.6875 -3.671875 L 34.625 -3.671875 L 34.625 1.625 L 1.40625 1.625 L 1.40625 -3.671875 L 14.046875 -3.671875 L 14.046875 -30.390625 L 19.6875 -30.390625 L 19.6875 -20.453125 L 32.078125 -20.453125 L 32.078125 -15.15625 L 19.6875 -15.15625 Z M 19.6875 -3.671875 "/></g></g></g><g fill="#ffffff" fill-opacity="1"><g transform="translate(105.193249, 58.262412)"><g><path d="M 23.40625 -11.953125 L 17.0625 -11.953125 C 16.75 -10.410156 16.441406 -8.914062 16.140625 -7.46875 C 15.847656 -6.019531 15.554688 -4.644531 15.265625 -3.34375 L 23.40625 -3.34375 Z M 28.84375 -3.34375 L 34.3125 -3.34375 L 34.3125 1.84375 L 1.875 1.84375 L 1.875 -3.34375 L 9.390625 -3.34375 C 9.703125 -4.664062 10.015625 -6.050781 10.328125 -7.5 C 10.640625 -8.957031 10.953125 -10.441406 11.265625 -11.953125 L 4.9375 -11.953125 L 4.9375 -17.09375 L 12.234375 -17.09375 C 12.378906 -18.007812 12.53125 -18.910156 12.6875 -19.796875 C 12.84375 -20.679688 12.984375 -21.554688 13.109375 -22.421875 L 3.859375 -22.421875 L 3.859375 -27.609375 L 32.078125 -27.609375 L 32.078125 -22.421875 L 19.015625 -22.421875 C 18.867188 -21.535156 18.71875 -20.65625 18.5625 -19.78125 C 18.40625 -18.90625 18.242188 -18.007812 18.078125 -17.09375 L 28.84375 -17.09375 Z M 28.84375 -3.34375 "/></g></g></g><g fill="#ffffff" fill-opacity="1"><g transform="translate(141.193316, 58.262412)"><g><path d="M 24.015625 -24.65625 L 11.15625 -24.65625 L 11.15625 -23.578125 L 24.015625 -23.578125 Z M 11.15625 -19.265625 L 24.015625 -19.265625 L 24.015625 -20.484375 L 11.15625 -20.484375 Z M 34.703125 -10.84375 L 11.15625 -10.84375 L 11.15625 -9.578125 L 33.484375 -9.578125 C 33.484375 -9.578125 33.46875 -9.351562 33.4375 -8.90625 C 33.414062 -8.46875 33.382812 -8.09375 33.34375 -7.78125 C 33.125 -4.875 32.867188 -2.675781 32.578125 -1.1875 C 32.285156 0.300781 31.898438 1.320312 31.421875 1.875 C 31.046875 2.332031 30.640625 2.65625 30.203125 2.84375 C 29.773438 3.03125 29.320312 3.175781 28.84375 3.28125 C 28.425781 3.351562 27.890625 3.398438 27.234375 3.421875 C 26.578125 3.441406 25.863281 3.441406 25.09375 3.421875 C 25.070312 2.722656 24.945312 1.953125 24.71875 1.109375 C 24.488281 0.273438 24.207031 -0.441406 23.875 -1.046875 C 24.351562 -0.972656 24.78125 -0.929688 25.15625 -0.921875 C 25.539062 -0.910156 25.851562 -0.90625 26.09375 -0.90625 C 26.3125 -0.90625 26.5 -0.925781 26.65625 -0.96875 C 26.8125 -1.019531 26.972656 -1.128906 27.140625 -1.296875 C 27.335938 -1.515625 27.515625 -1.976562 27.671875 -2.6875 C 27.828125 -3.394531 27.972656 -4.457031 28.109375 -5.875 L 15.4375 -5.875 L 15.4375 -2.234375 L 18.46875 -2.234375 L 18.46875 -5.1875 L 23.25 -5.1875 L 23.25 1.65625 L 7.453125 1.65625 L 7.453125 3.09375 L 2.734375 3.09375 L 2.734375 -5.1875 L 7.453125 -5.1875 L 7.453125 -2.234375 L 10.65625 -2.234375 L 10.65625 -5.875 L 5.96875 -5.875 L 5.96875 -28.1875 L 14 -28.1875 C 14.09375 -28.664062 14.179688 -29.140625 14.265625 -29.609375 C 14.359375 -30.078125 14.414062 -30.503906 14.4375 -30.890625 L 20.765625 -30.53125 C 20.597656 -30.125 20.414062 -29.722656 20.21875 -29.328125 C 20.03125 -28.929688 19.84375 -28.550781 19.65625 -28.1875 L 29.265625 -28.1875 L 29.265625 -15.765625 L 11.15625 -15.765625 L 11.15625 -14.609375 L 34.703125 -14.609375 Z M 34.703125 -10.84375 "/></g></g></g><g fill="#ffffff" fill-opacity="1"><g transform="translate(177.193384, 58.262412)"><g><path d="M 8.25 -24.734375 L 6.625 -24.734375 L 6.625 -18.6875 L 8.25 -18.6875 Z M 14 -18.6875 L 14 -24.734375 L 12.234375 -24.734375 L 12.234375 -18.6875 Z M 12.234375 -7.8125 L 14 -7.8125 L 14 -14.21875 L 12.234375 -14.21875 Z M 6.625 -14.21875 L 6.625 -7.8125 L 8.25 -7.8125 L 8.25 -14.21875 Z M 18.5 -29.265625 L 18.5 -3.28125 L 6.625 -3.28125 L 6.625 -0.578125 L 2.265625 -0.578125 L 2.265625 -29.265625 Z M 35.171875 -27 L 35.171875 -21.890625 L 30.890625 -21.890625 L 30.890625 -2.375 C 30.890625 -1.050781 30.726562 -0.015625 30.40625 0.734375 C 30.082031 1.492188 29.5 2.078125 28.65625 2.484375 C 27.789062 2.910156 26.773438 3.171875 25.609375 3.265625 C 24.453125 3.367188 23.066406 3.421875 21.453125 3.421875 C 21.378906 2.910156 21.253906 2.335938 21.078125 1.703125 C 20.898438 1.066406 20.691406 0.441406 20.453125 -0.171875 C 20.210938 -0.796875 19.972656 -1.335938 19.734375 -1.796875 C 20.328125 -1.753906 20.953125 -1.722656 21.609375 -1.703125 C 22.273438 -1.691406 22.882812 -1.6875 23.4375 -1.6875 C 23.988281 -1.6875 24.375 -1.6875 24.59375 -1.6875 C 25.1875 -1.6875 25.484375 -1.953125 25.484375 -2.484375 L 25.484375 -21.890625 L 19.265625 -21.890625 L 19.265625 -27 Z M 35.171875 -27 "/></g></g></g><g fill="#ffffff" fill-opacity="1"><g transform="translate(213.193451, 58.262412)"><g><path d="M 33.484375 -24.90625 L 33.484375 -19.765625 L 2.65625 -19.765625 L 2.65625 -24.90625 L 15.1875 -24.90625 L 15.1875 -30.78125 L 20.703125 -30.78125 L 20.703125 -24.90625 Z M 15.546875 -5.328125 L 10.15625 -3.859375 C 10.082031 -5.078125 9.898438 -6.46875 9.609375 -8.03125 C 9.328125 -9.59375 8.972656 -11.1875 8.546875 -12.8125 C 8.128906 -14.445312 7.679688 -15.960938 7.203125 -17.359375 L 12.203125 -18.6875 C 12.753906 -17.269531 13.25 -15.757812 13.6875 -14.15625 C 14.132812 -12.5625 14.519531 -11.003906 14.84375 -9.484375 C 15.175781 -7.960938 15.410156 -6.578125 15.546875 -5.328125 Z M 24.953125 -3.125 L 34.59375 -3.125 L 34.59375 2.125 L 1.515625 2.125 L 1.515625 -3.125 L 19.40625 -3.125 C 19.9375 -4.539062 20.441406 -6.132812 20.921875 -7.90625 C 21.398438 -9.6875 21.828125 -11.519531 22.203125 -13.40625 C 22.585938 -15.289062 22.890625 -17.070312 23.109375 -18.75 L 29.125 -17.71875 C 28.550781 -15.09375 27.890625 -12.503906 27.140625 -9.953125 C 26.398438 -7.398438 25.671875 -5.125 24.953125 -3.125 Z M 24.953125 -3.125 "/></g></g></g><g fill="#ffffff" fill-opacity="1"><g transform="translate(249.193518, 58.262412)"><g><path d="M 26.28125 -2.765625 L 26.28125 -6.40625 L 13.359375 -6.40625 L 13.359375 -2.765625 Z M 34.34375 -14 L 16.5625 -14 C 16.269531 -13.476562 15.972656 -12.972656 15.671875 -12.484375 C 15.378906 -12.003906 15.0625 -11.523438 14.71875 -11.046875 L 31.609375 -11.046875 L 31.609375 3.234375 L 26.28125 3.234375 L 26.28125 1.875 L 13.359375 1.875 L 13.359375 3.234375 L 8.3125 3.234375 L 8.3125 -4.171875 C 7.664062 -3.671875 7.003906 -3.191406 6.328125 -2.734375 C 5.660156 -2.273438 4.96875 -1.84375 4.25 -1.4375 C 4.007812 -1.820312 3.660156 -2.285156 3.203125 -2.828125 C 2.742188 -3.367188 2.269531 -3.898438 1.78125 -4.421875 C 1.289062 -4.953125 0.851562 -5.382812 0.46875 -5.71875 C 4.550781 -7.644531 7.863281 -10.40625 10.40625 -14 L 1.578125 -14 L 1.578125 -18.859375 L 13.109375 -18.859375 C 13.222656 -19.128906 13.328125 -19.390625 13.421875 -19.640625 C 13.523438 -19.890625 13.625 -20.132812 13.71875 -20.375 L 9.078125 -20.375 L 9.078125 -23.40625 L 1.875 -23.40625 L 1.875 -28.1875 L 9.078125 -28.1875 L 9.078125 -30.75 L 14.25 -30.75 L 14.25 -28.1875 L 21.75 -28.1875 L 21.75 -30.75 L 26.96875 -30.75 L 26.96875 -28.1875 L 34.125 -28.1875 L 34.125 -23.40625 L 26.96875 -23.40625 L 26.96875 -20.375 L 21.75 -20.375 L 21.75 -23.40625 L 14.25 -23.40625 L 14.25 -21.890625 L 14.4375 -22.46875 L 19.734375 -21.171875 C 19.609375 -20.785156 19.472656 -20.398438 19.328125 -20.015625 C 19.179688 -19.628906 19.039062 -19.242188 18.90625 -18.859375 L 34.34375 -18.859375 Z M 34.34375 -14 "/></g></g></g><g fill="#ffffff" fill-opacity="1"><g transform="translate(285.193585, 58.262412)"><g><path d="M 25.453125 -28.578125 L 30.203125 -30.03125 C 30.566406 -28.613281 31.03125 -27.164062 31.59375 -25.6875 C 32.15625 -24.207031 32.785156 -22.796875 33.484375 -21.453125 C 34.179688 -20.109375 34.890625 -18.910156 35.609375 -17.859375 C 35.171875 -17.546875 34.679688 -17.140625 34.140625 -16.640625 C 33.609375 -16.148438 33.09375 -15.632812 32.59375 -15.09375 C 32.101562 -14.5625 31.691406 -14.054688 31.359375 -13.578125 C 30.535156 -14.867188 29.757812 -16.335938 29.03125 -17.984375 C 28.300781 -19.628906 27.632812 -21.363281 27.03125 -23.1875 C 26.4375 -25.007812 25.910156 -26.804688 25.453125 -28.578125 Z M 15.40625 -10.90625 L 12.5625 -6.90625 C 12.34375 -7.457031 12.078125 -8.066406 11.765625 -8.734375 C 11.453125 -9.410156 11.128906 -10.097656 10.796875 -10.796875 L 10.796875 3.421875 L 5.875 3.421875 L 5.875 -8.5 C 5.4375 -7.34375 4.972656 -6.253906 4.484375 -5.234375 C 3.992188 -4.210938 3.472656 -3.320312 2.921875 -2.5625 C 2.679688 -3.300781 2.316406 -4.140625 1.828125 -5.078125 C 1.347656 -6.015625 0.921875 -6.804688 0.546875 -7.453125 C 1.265625 -8.390625 1.925781 -9.472656 2.53125 -10.703125 C 3.144531 -11.941406 3.703125 -13.25 4.203125 -14.625 C 4.710938 -16.007812 5.125 -17.363281 5.4375 -18.6875 L 1.46875 -18.6875 L 1.46875 -23.515625 L 5.875 -23.515625 L 5.875 -30.78125 L 10.796875 -30.78125 L 10.796875 -23.515625 L 14.46875 -23.515625 L 14.46875 -18.71875 C 15.332031 -20.257812 16.085938 -22 16.734375 -23.9375 C 17.390625 -25.882812 17.90625 -27.863281 18.28125 -29.875 L 23.71875 -28.765625 C 23.289062 -26.816406 22.757812 -24.875 22.125 -22.9375 C 21.488281 -21.007812 20.785156 -19.207031 20.015625 -17.53125 C 19.242188 -15.851562 18.425781 -14.390625 17.5625 -13.140625 C 17.25 -13.453125 16.820312 -13.832031 16.28125 -14.28125 C 15.75 -14.738281 15.195312 -15.179688 14.625 -15.609375 C 14.0625 -16.046875 13.566406 -16.398438 13.140625 -16.671875 C 13.378906 -16.984375 13.601562 -17.304688 13.8125 -17.640625 C 14.03125 -17.972656 14.25 -18.320312 14.46875 -18.6875 L 10.796875 -18.6875 L 10.796875 -17.390625 C 11.066406 -17.078125 11.421875 -16.613281 11.859375 -16 C 12.304688 -15.382812 12.773438 -14.734375 13.265625 -14.046875 C 13.753906 -13.367188 14.195312 -12.738281 14.59375 -12.15625 C 14.988281 -11.582031 15.257812 -11.164062 15.40625 -10.90625 Z M 25.84375 -8.171875 L 30.390625 -10.375 C 31.054688 -9.195312 31.726562 -7.925781 32.40625 -6.5625 C 33.09375 -5.207031 33.71875 -3.875 34.28125 -2.5625 C 34.851562 -1.257812 35.28125 -0.09375 35.5625 0.9375 L 30.59375 3.484375 C 30.5 3.109375 30.394531 2.710938 30.28125 2.296875 C 30.175781 1.890625 30.039062 1.460938 29.875 1.015625 C 27.144531 1.253906 24.441406 1.484375 21.765625 1.703125 C 19.085938 1.929688 16.679688 2.128906 14.546875 2.296875 L 13.6875 -2.984375 C 14.238281 -3.015625 14.820312 -3.046875 15.4375 -3.078125 C 16.0625 -3.109375 16.710938 -3.140625 17.390625 -3.171875 C 17.921875 -4.515625 18.425781 -5.960938 18.90625 -7.515625 C 19.382812 -9.078125 19.820312 -10.65625 20.21875 -12.25 C 20.613281 -13.851562 20.929688 -15.363281 21.171875 -16.78125 L 27.21875 -15.40625 C 26.539062 -13.394531 25.804688 -11.335938 25.015625 -9.234375 C 24.222656 -7.128906 23.445312 -5.191406 22.6875 -3.421875 L 28.015625 -3.75 C 27.316406 -5.28125 26.59375 -6.753906 25.84375 -8.171875 Z M 25.84375 -8.171875 "/></g></g></g><g fill="#ffffff" fill-opacity="1"><g transform="translate(321.193652, 58.262412)"><g><path d="M 20.703125 -12.75 L 27.640625 -12.75 L 27.640625 -19.46875 L 20.703125 -19.46875 Z M 8.25 -12.75 L 15.15625 -12.75 L 15.15625 -19.46875 L 8.25 -19.46875 Z M 20.703125 -24.625 L 33.15625 -24.625 L 33.15625 -5.90625 L 27.640625 -5.90625 L 27.640625 -7.59375 L 20.703125 -7.59375 L 20.703125 3.421875 L 15.15625 3.421875 L 15.15625 -7.59375 L 8.25 -7.59375 L 8.25 -5.71875 L 2.984375 -5.71875 L 2.984375 -24.625 L 15.15625 -24.625 L 15.15625 -30.78125 L 20.703125 -30.78125 Z M 20.703125 -24.625 "/></g></g></g><g fill="#ffffff" fill-opacity="1"><g transform="translate(357.193719, 58.262412)"><g><path d="M 7.015625 -20.625 L 7.015625 -15.953125 L 2.125 -15.953125 L 2.125 -25.203125 L 6.703125 -25.203125 C 6.390625 -25.753906 6.039062 -26.316406 5.65625 -26.890625 C 5.269531 -27.460938 4.882812 -27.988281 4.5 -28.46875 L 8.96875 -30.453125 C 9.59375 -29.785156 10.207031 -29.023438 10.8125 -28.171875 C 11.425781 -27.316406 11.878906 -26.539062 12.171875 -25.84375 L 10.765625 -25.203125 L 15.515625 -25.203125 C 15.273438 -25.847656 14.96875 -26.535156 14.59375 -27.265625 C 14.226562 -28.003906 13.851562 -28.671875 13.46875 -29.265625 L 18.109375 -31 C 18.660156 -30.25 19.195312 -29.398438 19.71875 -28.453125 C 20.25 -27.503906 20.632812 -26.671875 20.875 -25.953125 L 18.90625 -25.203125 L 23.875 -25.203125 C 24.425781 -26.035156 24.941406 -26.925781 25.421875 -27.875 C 25.898438 -28.820312 26.296875 -29.707031 26.609375 -30.53125 L 32.328125 -28.90625 C 31.867188 -28.257812 31.414062 -27.625 30.96875 -27 C 30.53125 -26.375 30.082031 -25.773438 29.625 -25.203125 L 33.984375 -25.203125 L 33.984375 -15.953125 L 28.84375 -15.953125 L 28.84375 -20.625 Z M 34.265625 -10.375 L 34.265625 -5.578125 L 20.703125 -5.578125 L 20.703125 -1.984375 C 20.703125 -0.710938 20.523438 0.28125 20.171875 1 C 19.828125 1.726562 19.164062 2.28125 18.1875 2.65625 C 17.21875 3.019531 16.132812 3.242188 14.9375 3.328125 C 13.738281 3.410156 12.394531 3.453125 10.90625 3.453125 C 10.738281 2.710938 10.453125 1.847656 10.046875 0.859375 C 9.640625 -0.117188 9.226562 -0.945312 8.8125 -1.625 C 9.488281 -1.59375 10.21875 -1.566406 11 -1.546875 C 11.78125 -1.523438 12.484375 -1.515625 13.109375 -1.515625 C 13.734375 -1.515625 14.164062 -1.515625 14.40625 -1.515625 C 14.757812 -1.515625 15.003906 -1.5625 15.140625 -1.65625 C 15.273438 -1.75 15.34375 -1.914062 15.34375 -2.15625 L 15.34375 -5.578125 L 1.84375 -5.578125 L 1.84375 -10.375 L 15.34375 -10.375 L 15.34375 -12.53125 L 17.609375 -12.53125 C 17.921875 -12.75 18.222656 -12.96875 18.515625 -13.1875 C 18.816406 -13.414062 19.101562 -13.648438 19.375 -13.890625 L 8.5 -13.890625 L 8.5 -18.390625 L 23.96875 -18.390625 L 25.09375 -18.640625 L 28.375 -16.125 C 27.476562 -15.144531 26.476562 -14.148438 25.375 -13.140625 C 24.269531 -12.128906 23.109375 -11.207031 21.890625 -10.375 Z M 34.265625 -10.375 "/></g></g></g><g fill="#ffffff" fill-opacity="1"><g transform="translate(393.193787, 58.262412)"><g><path d="M 14.875 -10.6875 L 12.0625 -6.84375 C 11.863281 -7.363281 11.625 -7.941406 11.34375 -8.578125 C 11.070312 -9.222656 10.78125 -9.878906 10.46875 -10.546875 L 10.46875 3.421875 L 5.65625 3.421875 L 5.65625 -8.28125 C 5.25 -7.175781 4.8125 -6.148438 4.34375 -5.203125 C 3.875 -4.253906 3.375 -3.40625 2.84375 -2.65625 C 2.625 -3.382812 2.28125 -4.203125 1.8125 -5.109375 C 1.34375 -6.023438 0.921875 -6.804688 0.546875 -7.453125 C 1.234375 -8.390625 1.878906 -9.472656 2.484375 -10.703125 C 3.085938 -11.941406 3.632812 -13.25 4.125 -14.625 C 4.613281 -16.007812 5.015625 -17.363281 5.328125 -18.6875 L 1.46875 -18.6875 L 1.46875 -23.515625 L 5.65625 -23.515625 L 5.65625 -30.78125 L 10.46875 -30.78125 L 10.46875 -23.515625 L 14.140625 -23.515625 L 14.140625 -18.6875 L 10.46875 -18.6875 L 10.46875 -17.390625 C 10.738281 -17.054688 11.082031 -16.566406 11.5 -15.921875 C 11.914062 -15.285156 12.351562 -14.613281 12.8125 -13.90625 C 13.269531 -13.207031 13.691406 -12.5625 14.078125 -11.96875 C 14.460938 -11.382812 14.726562 -10.957031 14.875 -10.6875 Z M 19.4375 -13.71875 L 22 -14.40625 C 22.625 -12.769531 23.390625 -11.242188 24.296875 -9.828125 C 24.703125 -10.597656 25.050781 -11.382812 25.34375 -12.1875 C 25.632812 -12.988281 25.875 -13.8125 26.0625 -14.65625 L 29.65625 -13.96875 C 29.132812 -14.832031 28.539062 -15.710938 27.875 -16.609375 C 27.21875 -17.515625 26.566406 -18.335938 25.921875 -19.078125 L 29.5625 -21.125 L 18.71875 -21.125 L 23.140625 -19.265625 C 22.617188 -18.273438 22.046875 -17.3125 21.421875 -16.375 C 20.796875 -15.4375 20.132812 -14.550781 19.4375 -13.71875 Z M 35.390625 -13.9375 L 30.953125 -11.375 C 30.929688 -11.46875 30.898438 -11.554688 30.859375 -11.640625 C 30.828125 -11.722656 30.789062 -11.816406 30.75 -11.921875 C 30.332031 -10.816406 29.875 -9.753906 29.375 -8.734375 C 28.875 -7.710938 28.3125 -6.722656 27.6875 -5.765625 C 28.757812 -4.773438 29.941406 -3.890625 31.234375 -3.109375 C 32.535156 -2.328125 33.957031 -1.675781 35.5 -1.15625 C 35.113281 -0.789062 34.6875 -0.332031 34.21875 0.21875 C 33.75 0.769531 33.300781 1.335938 32.875 1.921875 C 32.457031 2.515625 32.117188 3.050781 31.859375 3.53125 C 30.367188 2.90625 28.988281 2.15625 27.71875 1.28125 C 26.445312 0.40625 25.285156 -0.570312 24.234375 -1.65625 C 23.054688 -0.550781 21.738281 0.429688 20.28125 1.296875 C 18.832031 2.160156 17.207031 2.90625 15.40625 3.53125 C 15.238281 3.125 15 2.660156 14.6875 2.140625 C 14.375 1.628906 14.050781 1.117188 13.71875 0.609375 C 13.382812 0.109375 13.070312 -0.304688 12.78125 -0.640625 C 14.550781 -1.191406 16.132812 -1.878906 17.53125 -2.703125 C 18.925781 -3.535156 20.140625 -4.484375 21.171875 -5.546875 C 20.546875 -6.523438 19.960938 -7.554688 19.421875 -8.640625 C 18.878906 -9.722656 18.367188 -10.851562 17.890625 -12.03125 C 17.722656 -11.851562 17.554688 -11.6875 17.390625 -11.53125 C 17.222656 -11.375 17.039062 -11.226562 16.84375 -11.09375 C 16.457031 -11.59375 15.90625 -12.171875 15.1875 -12.828125 C 14.46875 -13.492188 13.832031 -14.039062 13.28125 -14.46875 C 14.289062 -15.238281 15.25 -16.234375 16.15625 -17.453125 C 17.070312 -18.679688 17.832031 -19.90625 18.4375 -21.125 L 14.609375 -21.125 L 14.609375 -25.921875 L 22 -25.921875 L 22 -30.78125 L 27.140625 -30.78125 L 27.140625 -25.921875 L 34.734375 -25.921875 L 34.734375 -21.125 L 30.203125 -21.125 C 30.898438 -20.40625 31.582031 -19.617188 32.25 -18.765625 C 32.925781 -17.921875 33.539062 -17.082031 34.09375 -16.25 C 34.644531 -15.425781 35.078125 -14.65625 35.390625 -13.9375 Z M 35.390625 -13.9375 "/></g></g></g><g fill="#ffffff" fill-opacity="1"><g transform="translate(429.193831, 58.262412)"><g/></g></g><g fill="#ffffff" fill-opacity="1"><g transform="translate(465.19392, 58.262412)"><g><path d="M 24.953125 -23.109375 L 28.765625 -23.109375 C 29.410156 -23.109375 30.140625 -23.144531 30.953125 -23.21875 C 31.773438 -23.289062 32.414062 -23.363281 32.875 -23.4375 L 32.875 -17.71875 C 32.21875 -17.738281 31.546875 -17.753906 30.859375 -17.765625 C 30.179688 -17.773438 29.59375 -17.78125 29.09375 -17.78125 L 25.09375 -17.78125 C 25.132812 -15.21875 25.191406 -12.609375 25.265625 -9.953125 C 25.335938 -7.296875 25.390625 -4.710938 25.421875 -2.203125 C 25.441406 -0.921875 25.082031 0.078125 24.34375 0.796875 C 23.613281 1.515625 22.484375 1.875 20.953125 1.875 C 19.773438 1.875 18.671875 1.851562 17.640625 1.8125 C 16.609375 1.78125 15.539062 1.726562 14.4375 1.65625 L 13.9375 -4 C 14.726562 -3.875 15.554688 -3.773438 16.421875 -3.703125 C 17.285156 -3.628906 18.003906 -3.59375 18.578125 -3.59375 C 19.367188 -3.59375 19.765625 -4.097656 19.765625 -5.109375 C 19.765625 -6.171875 19.765625 -7.375 19.765625 -8.71875 C 19.765625 -10.0625 19.753906 -11.488281 19.734375 -13 C 18.648438 -11.625 17.335938 -10.234375 15.796875 -8.828125 C 14.265625 -7.429688 12.625 -6.101562 10.875 -4.84375 C 9.125 -3.582031 7.367188 -2.484375 5.609375 -1.546875 L 1.625 -6.078125 C 3.90625 -7.160156 6.023438 -8.351562 7.984375 -9.65625 C 9.953125 -10.96875 11.703125 -12.316406 13.234375 -13.703125 C 14.773438 -15.097656 16.023438 -16.457031 16.984375 -17.78125 L 8.390625 -17.78125 C 7.710938 -17.78125 6.957031 -17.769531 6.125 -17.75 C 5.300781 -17.726562 4.554688 -17.691406 3.890625 -17.640625 L 3.890625 -23.40625 C 4.390625 -23.332031 5.078125 -23.265625 5.953125 -23.203125 C 6.828125 -23.140625 7.59375 -23.109375 8.25 -23.109375 L 19.46875 -23.109375 L 19.375 -25.203125 C 19.34375 -25.773438 19.296875 -26.414062 19.234375 -27.125 C 19.179688 -27.832031 19.09375 -28.535156 18.96875 -29.234375 L 25.125 -29.234375 C 25.03125 -28.628906 24.960938 -27.960938 24.921875 -27.234375 C 24.890625 -26.503906 24.882812 -25.828125 24.90625 -25.203125 Z M 24.953125 -23.109375 "/></g></g></g><g fill="#ffffff" fill-opacity="1"><g transform="translate(501.19401, 58.262412)"><g><path d="M 6.484375 -27.96875 L 12.921875 -27.96875 C 12.898438 -27.507812 12.867188 -27.082031 12.828125 -26.6875 C 12.796875 -26.289062 12.78125 -25.769531 12.78125 -25.125 L 12.78125 -12.890625 C 12.78125 -12.429688 12.796875 -11.878906 12.828125 -11.234375 C 12.867188 -10.585938 12.898438 -10.023438 12.921875 -9.546875 L 6.4375 -9.546875 C 6.46875 -9.898438 6.503906 -10.410156 6.546875 -11.078125 C 6.597656 -11.753906 6.625 -12.367188 6.625 -12.921875 L 6.625 -25.125 C 6.625 -25.457031 6.609375 -25.898438 6.578125 -26.453125 C 6.554688 -27.003906 6.523438 -27.507812 6.484375 -27.96875 Z M 23 -28.296875 L 29.453125 -28.296875 C 29.421875 -27.765625 29.382812 -27.179688 29.34375 -26.546875 C 29.3125 -25.910156 29.296875 -25.195312 29.296875 -24.40625 L 29.296875 -16.5625 C 29.296875 -14.15625 29.113281 -12.109375 28.75 -10.421875 C 28.394531 -8.734375 27.890625 -7.285156 27.234375 -6.078125 C 26.578125 -4.878906 25.789062 -3.800781 24.875 -2.84375 C 24.082031 -2 23.164062 -1.234375 22.125 -0.546875 C 21.082031 0.128906 20.03125 0.707031 18.96875 1.1875 C 17.914062 1.664062 16.945312 2.050781 16.0625 2.34375 L 11.484375 -2.484375 C 13.359375 -2.890625 15.03125 -3.445312 16.5 -4.15625 C 17.976562 -4.863281 19.257812 -5.769531 20.34375 -6.875 C 21.15625 -7.738281 21.765625 -8.625 22.171875 -9.53125 C 22.578125 -10.445312 22.859375 -11.5 23.015625 -12.6875 C 23.171875 -13.875 23.25 -15.296875 23.25 -16.953125 L 23.25 -24.40625 C 23.25 -25.195312 23.222656 -25.910156 23.171875 -26.546875 C 23.128906 -27.179688 23.070312 -27.765625 23 -28.296875 Z M 23 -28.296875 "/></g></g></g><g fill="#ffffff" fill-opacity="1"><g transform="translate(537.194054, 58.262412)"><g><path d="M 26.53125 -28.078125 C 27.082031 -27.265625 27.664062 -26.34375 28.28125 -25.3125 C 28.894531 -24.28125 29.390625 -23.351562 29.765625 -22.53125 L 26.0625 -20.953125 C 25.675781 -21.796875 25.332031 -22.507812 25.03125 -23.09375 C 24.738281 -23.675781 24.4375 -24.242188 24.125 -24.796875 C 23.8125 -25.347656 23.414062 -25.953125 22.9375 -26.609375 Z M 31.640625 -29.84375 C 32.242188 -29.070312 32.84375 -28.179688 33.4375 -27.171875 C 34.039062 -26.171875 34.554688 -25.285156 34.984375 -24.515625 L 31.3125 -22.890625 C 30.90625 -23.734375 30.535156 -24.4375 30.203125 -25 C 29.867188 -25.5625 29.53125 -26.097656 29.1875 -26.609375 C 28.851562 -27.128906 28.445312 -27.703125 27.96875 -28.328125 Z M 10.765625 -28.875 C 11.609375 -28.414062 12.550781 -27.867188 13.59375 -27.234375 C 14.632812 -26.597656 15.660156 -25.96875 16.671875 -25.34375 C 17.679688 -24.71875 18.519531 -24.164062 19.1875 -23.6875 L 15.953125 -18.859375 C 15.234375 -19.335938 14.378906 -19.890625 13.390625 -20.515625 C 12.410156 -21.140625 11.410156 -21.769531 10.390625 -22.40625 C 9.367188 -23.039062 8.4375 -23.585938 7.59375 -24.046875 Z M 3.390625 -3.421875 C 5.421875 -3.753906 7.472656 -4.21875 9.546875 -4.8125 C 11.628906 -5.414062 13.691406 -6.269531 15.734375 -7.375 C 17.796875 -8.53125 19.726562 -9.835938 21.53125 -11.296875 C 23.332031 -12.765625 24.953125 -14.328125 26.390625 -15.984375 C 27.828125 -17.640625 29.015625 -19.332031 29.953125 -21.0625 L 33.296875 -15.078125 C 31.566406 -12.535156 29.453125 -10.160156 26.953125 -7.953125 C 24.460938 -5.742188 21.71875 -3.789062 18.71875 -2.09375 C 17.5 -1.414062 16.148438 -0.769531 14.671875 -0.15625 C 13.191406 0.445312 11.742188 0.972656 10.328125 1.421875 C 8.910156 1.867188 7.6875 2.175781 6.65625 2.34375 Z M 5.140625 -20.59375 C 6.003906 -20.132812 6.960938 -19.585938 8.015625 -18.953125 C 9.078125 -18.316406 10.097656 -17.6875 11.078125 -17.0625 C 12.066406 -16.4375 12.898438 -15.882812 13.578125 -15.40625 L 10.375 -10.515625 C 9.644531 -11.015625 8.789062 -11.585938 7.8125 -12.234375 C 6.832031 -12.890625 5.832031 -13.523438 4.8125 -14.140625 C 3.789062 -14.765625 2.847656 -15.304688 1.984375 -15.765625 Z M 5.140625 -20.59375 "/></g></g></g><g fill="#ffffff" fill-opacity="1"><g transform="translate(573.194098, 58.262412)"><g><path d="M 22 -20.8125 L 29.265625 -20.8125 C 30.222656 -20.8125 31.085938 -20.835938 31.859375 -20.890625 C 32.628906 -20.953125 33.226562 -21.007812 33.65625 -21.0625 L 33.65625 -15.078125 C 33.226562 -15.128906 32.585938 -15.171875 31.734375 -15.203125 C 30.878906 -15.242188 30.046875 -15.265625 29.234375 -15.265625 L 21.953125 -15.265625 C 21.859375 -12.984375 21.5 -10.796875 20.875 -8.703125 C 20.25 -6.617188 19.203125 -4.644531 17.734375 -2.78125 C 16.273438 -0.925781 14.21875 0.800781 11.5625 2.40625 L 6.125 -1.625 C 8.5 -2.695312 10.367188 -3.941406 11.734375 -5.359375 C 13.097656 -6.773438 14.09375 -8.320312 14.71875 -10 C 15.34375 -11.6875 15.726562 -13.441406 15.875 -15.265625 L 7.453125 -15.265625 C 6.609375 -15.265625 5.804688 -15.238281 5.046875 -15.1875 C 4.296875 -15.144531 3.585938 -15.097656 2.921875 -15.046875 L 2.921875 -21.09375 C 3.566406 -21.019531 4.265625 -20.953125 5.015625 -20.890625 C 5.773438 -20.835938 6.539062 -20.8125 7.3125 -20.8125 L 15.953125 -20.8125 L 15.953125 -24.265625 C 15.953125 -24.890625 15.910156 -25.640625 15.828125 -26.515625 C 15.742188 -27.390625 15.601562 -28.164062 15.40625 -28.84375 L 22.3125 -28.84375 C 22.195312 -28.164062 22.113281 -27.367188 22.0625 -26.453125 C 22.019531 -25.546875 22 -24.804688 22 -24.234375 Z M 22 -20.8125 "/></g></g></g><g fill="#ffffff" fill-opacity="1"><g transform="translate(609.194188, 58.262412)"><g><path d="M 6.234375 1.984375 L 0.90625 -1.546875 C 2.53125 -2.671875 3.828125 -4.015625 4.796875 -5.578125 C 5.773438 -7.140625 6.492188 -8.628906 6.953125 -10.046875 C 7.210938 -10.785156 7.40625 -11.71875 7.53125 -12.84375 C 7.664062 -13.976562 7.769531 -15.195312 7.84375 -16.5 C 7.914062 -17.8125 7.957031 -19.125 7.96875 -20.4375 C 7.976562 -21.757812 7.984375 -22.988281 7.984375 -24.125 C 7.984375 -24.957031 7.945312 -25.660156 7.875 -26.234375 C 7.8125 -26.816406 7.71875 -27.347656 7.59375 -27.828125 L 14 -27.828125 C 14 -27.828125 13.972656 -27.640625 13.921875 -27.265625 C 13.878906 -26.898438 13.832031 -26.441406 13.78125 -25.890625 C 13.738281 -25.335938 13.71875 -24.769531 13.71875 -24.1875 C 13.71875 -23.082031 13.703125 -21.820312 13.671875 -20.40625 C 13.648438 -18.988281 13.601562 -17.546875 13.53125 -16.078125 C 13.457031 -14.617188 13.351562 -13.234375 13.21875 -11.921875 C 13.09375 -10.617188 12.910156 -9.515625 12.671875 -8.609375 C 11.566406 -4.429688 9.421875 -0.898438 6.234375 1.984375 Z M 21.3125 2.15625 L 17.671875 -0.828125 C 17.765625 -1.210938 17.84375 -1.664062 17.90625 -2.1875 C 17.96875 -2.71875 18 -3.257812 18 -3.8125 L 18 -24.484375 C 18 -25.367188 17.941406 -26.144531 17.828125 -26.8125 C 17.722656 -27.488281 17.671875 -27.828125 17.671875 -27.828125 L 24.15625 -27.828125 C 24.15625 -27.828125 24.109375 -27.484375 24.015625 -26.796875 C 23.921875 -26.117188 23.875 -25.332031 23.875 -24.4375 L 23.875 -6.734375 C 25.21875 -7.285156 26.609375 -8.171875 28.046875 -9.390625 C 29.484375 -10.617188 30.753906 -12.023438 31.859375 -13.609375 L 35.203125 -8.78125 C 34.242188 -7.5625 33.0625 -6.328125 31.65625 -5.078125 C 30.257812 -3.828125 28.8125 -2.679688 27.3125 -1.640625 C 25.8125 -0.597656 24.390625 0.269531 23.046875 0.96875 C 22.628906 1.1875 22.300781 1.390625 22.0625 1.578125 C 21.820312 1.773438 21.570312 1.96875 21.3125 2.15625 Z M 21.3125 2.15625 "/></g></g></g><g fill="#ffffff" fill-opacity="1"><g transform="translate(645.194277, 58.262412)"><g><path d="M 35.78125 -26.71875 L 32.40625 -25.265625 C 32.039062 -26.015625 31.59375 -26.863281 31.0625 -27.8125 C 30.539062 -28.757812 30.039062 -29.566406 29.5625 -30.234375 L 32.9375 -31.609375 C 33.25 -31.148438 33.582031 -30.613281 33.9375 -30 C 34.300781 -29.394531 34.648438 -28.796875 34.984375 -28.203125 C 35.328125 -27.617188 35.59375 -27.125 35.78125 -26.71875 Z M 22.03125 -22.21875 L 10.625 -22.21875 C 10 -22.21875 9.296875 -22.203125 8.515625 -22.171875 C 7.734375 -22.148438 7.039062 -22.113281 6.4375 -22.0625 L 6.4375 -27.640625 C 7.0625 -27.546875 7.765625 -27.472656 8.546875 -27.421875 C 9.328125 -27.378906 10.019531 -27.359375 10.625 -27.359375 L 22.03125 -27.359375 C 23.300781 -27.359375 24.523438 -27.429688 25.703125 -27.578125 C 25.609375 -27.742188 25.507812 -27.90625 25.40625 -28.0625 C 25.3125 -28.21875 25.21875 -28.367188 25.125 -28.515625 L 28.515625 -29.875 C 28.828125 -29.445312 29.15625 -28.925781 29.5 -28.3125 C 29.851562 -27.695312 30.191406 -27.085938 30.515625 -26.484375 C 30.835938 -25.890625 31.101562 -25.378906 31.3125 -24.953125 L 27.90625 -23.515625 C 27.664062 -23.992188 27.398438 -24.515625 27.109375 -25.078125 C 26.816406 -25.640625 26.515625 -26.195312 26.203125 -26.75 L 26.203125 -22.0625 C 25.535156 -22.113281 24.847656 -22.148438 24.140625 -22.171875 C 23.429688 -22.203125 22.726562 -22.21875 22.03125 -22.21875 Z M 5.96875 -18.109375 L 29.5625 -18.109375 C 29.9375 -18.109375 30.492188 -18.125 31.234375 -18.15625 C 31.984375 -18.195312 32.613281 -18.265625 33.125 -18.359375 L 33.125 -12.703125 C 32.644531 -12.753906 32.066406 -12.785156 31.390625 -12.796875 C 30.722656 -12.804688 30.113281 -12.8125 29.5625 -12.8125 L 21.484375 -12.8125 C 21.367188 -11.007812 21.097656 -9.382812 20.671875 -7.9375 C 20.253906 -6.488281 19.734375 -5.148438 19.109375 -3.921875 C 18.703125 -3.078125 18.132812 -2.210938 17.40625 -1.328125 C 16.675781 -0.441406 15.835938 0.394531 14.890625 1.1875 C 13.941406 1.976562 12.914062 2.648438 11.8125 3.203125 L 6.703125 -0.46875 C 7.898438 -0.925781 9.078125 -1.613281 10.234375 -2.53125 C 11.398438 -3.457031 12.34375 -4.425781 13.0625 -5.4375 C 13.757812 -6.488281 14.296875 -7.632812 14.671875 -8.875 C 15.046875 -10.113281 15.28125 -11.425781 15.375 -12.8125 L 5.96875 -12.8125 C 5.445312 -12.8125 4.835938 -12.800781 4.140625 -12.78125 C 3.441406 -12.757812 2.84375 -12.722656 2.34375 -12.671875 L 2.34375 -18.359375 C 2.894531 -18.285156 3.5 -18.222656 4.15625 -18.171875 C 4.8125 -18.128906 5.414062 -18.109375 5.96875 -18.109375 Z M 5.96875 -18.109375 "/></g></g></g><g fill="#ffffff" fill-opacity="1"><g transform="translate(681.194321, 58.262412)"><g><path d="M 26.53125 -28.078125 C 27.082031 -27.265625 27.664062 -26.34375 28.28125 -25.3125 C 28.894531 -24.28125 29.390625 -23.351562 29.765625 -22.53125 L 26.0625 -20.953125 C 25.675781 -21.796875 25.332031 -22.507812 25.03125 -23.09375 C 24.738281 -23.675781 24.4375 -24.242188 24.125 -24.796875 C 23.8125 -25.347656 23.414062 -25.953125 22.9375 -26.609375 Z M 31.640625 -29.84375 C 32.242188 -29.070312 32.84375 -28.179688 33.4375 -27.171875 C 34.039062 -26.171875 34.554688 -25.285156 34.984375 -24.515625 L 31.3125 -22.890625 C 30.90625 -23.734375 30.535156 -24.4375 30.203125 -25 C 29.867188 -25.5625 29.53125 -26.097656 29.1875 -26.609375 C 28.851562 -27.128906 28.445312 -27.703125 27.96875 -28.328125 Z M 10.765625 -28.875 C 11.609375 -28.414062 12.550781 -27.867188 13.59375 -27.234375 C 14.632812 -26.597656 15.660156 -25.96875 16.671875 -25.34375 C 17.679688 -24.71875 18.519531 -24.164062 19.1875 -23.6875 L 15.953125 -18.859375 C 15.234375 -19.335938 14.378906 -19.890625 13.390625 -20.515625 C 12.410156 -21.140625 11.410156 -21.769531 10.390625 -22.40625 C 9.367188 -23.039062 8.4375 -23.585938 7.59375 -24.046875 Z M 3.390625 -3.421875 C 5.421875 -3.753906 7.472656 -4.21875 9.546875 -4.8125 C 11.628906 -5.414062 13.691406 -6.269531 15.734375 -7.375 C 17.796875 -8.53125 19.726562 -9.835938 21.53125 -11.296875 C 23.332031 -12.765625 24.953125 -14.328125 26.390625 -15.984375 C 27.828125 -17.640625 29.015625 -19.332031 29.953125 -21.0625 L 33.296875 -15.078125 C 31.566406 -12.535156 29.453125 -10.160156 26.953125 -7.953125 C 24.460938 -5.742188 21.71875 -3.789062 18.71875 -2.09375 C 17.5 -1.414062 16.148438 -0.769531 14.671875 -0.15625 C 13.191406 0.445312 11.742188 0.972656 10.328125 1.421875 C 8.910156 1.867188 7.6875 2.175781 6.65625 2.34375 Z M 5.140625 -20.59375 C 6.003906 -20.132812 6.960938 -19.585938 8.015625 -18.953125 C 9.078125 -18.316406 10.097656 -17.6875 11.078125 -17.0625 C 12.066406 -16.4375 12.898438 -15.882812 13.578125 -15.40625 L 10.375 -10.515625 C 9.644531 -11.015625 8.789062 -11.585938 7.8125 -12.234375 C 6.832031 -12.890625 5.832031 -13.523438 4.8125 -14.140625 C 3.789062 -14.765625 2.847656 -15.304688 1.984375 -15.765625 Z M 5.140625 -20.59375 "/></g></g></g><g fill="#ffffff" fill-opacity="1"><g transform="translate(716.474394, 58.262412)"><g><path d="M 28.515625 -25.671875 L 32.90625 -22.9375 C 32.664062 -22.550781 32.414062 -22.097656 32.15625 -21.578125 C 31.90625 -21.066406 31.6875 -20.535156 31.5 -19.984375 C 31.039062 -18.734375 30.414062 -17.285156 29.625 -15.640625 C 28.832031 -13.992188 27.863281 -12.332031 26.71875 -10.65625 C 27.382812 -10.226562 28.003906 -9.820312 28.578125 -9.4375 C 29.160156 -9.050781 29.675781 -8.691406 30.125 -8.359375 L 26.171875 -3.203125 C 25.742188 -3.585938 25.238281 -4 24.65625 -4.4375 C 24.082031 -4.882812 23.472656 -5.335938 22.828125 -5.796875 C 21.242188 -4.117188 19.410156 -2.535156 17.328125 -1.046875 C 15.253906 0.441406 12.828125 1.726562 10.046875 2.8125 L 4.96875 -1.578125 C 8.132812 -2.566406 10.738281 -3.726562 12.78125 -5.0625 C 14.820312 -6.394531 16.535156 -7.753906 17.921875 -9.140625 C 16.816406 -9.859375 15.742188 -10.539062 14.703125 -11.1875 C 13.660156 -11.84375 12.71875 -12.410156 11.875 -12.890625 L 15.59375 -17.0625 C 16.476562 -16.601562 17.445312 -16.078125 18.5 -15.484375 C 19.5625 -14.898438 20.628906 -14.300781 21.703125 -13.6875 C 22.472656 -14.8125 23.148438 -15.96875 23.734375 -17.15625 C 24.328125 -18.34375 24.734375 -19.378906 24.953125 -20.265625 L 15.703125 -20.265625 C 14.378906 -18.566406 12.894531 -16.898438 11.25 -15.265625 C 9.601562 -13.628906 7.929688 -12.222656 6.234375 -11.046875 L 1.515625 -14.6875 C 3.648438 -16.007812 5.441406 -17.367188 6.890625 -18.765625 C 8.347656 -20.171875 9.5625 -21.523438 10.53125 -22.828125 C 11.5 -24.140625 12.296875 -25.300781 12.921875 -26.3125 C 13.253906 -26.820312 13.609375 -27.488281 13.984375 -28.3125 C 14.359375 -29.144531 14.640625 -29.90625 14.828125 -30.59375 L 21.125 -28.65625 C 20.75 -28.101562 20.363281 -27.507812 19.96875 -26.875 C 19.570312 -26.238281 19.238281 -25.679688 18.96875 -25.203125 L 24.953125 -25.203125 C 25.546875 -25.203125 26.171875 -25.242188 26.828125 -25.328125 C 27.492188 -25.410156 28.054688 -25.523438 28.515625 -25.671875 Z M 28.515625 -25.671875 "/></g></g></g><g fill="#ffffff" fill-opacity="1"><g transform="translate(752.474438, 58.262412)"><g><path d="M 6.234375 1.984375 L 0.90625 -1.546875 C 2.53125 -2.671875 3.828125 -4.015625 4.796875 -5.578125 C 5.773438 -7.140625 6.492188 -8.628906 6.953125 -10.046875 C 7.210938 -10.785156 7.40625 -11.71875 7.53125 -12.84375 C 7.664062 -13.976562 7.769531 -15.195312 7.84375 -16.5 C 7.914062 -17.8125 7.957031 -19.125 7.96875 -20.4375 C 7.976562 -21.757812 7.984375 -22.988281 7.984375 -24.125 C 7.984375 -24.957031 7.945312 -25.660156 7.875 -26.234375 C 7.8125 -26.816406 7.71875 -27.347656 7.59375 -27.828125 L 14 -27.828125 C 14 -27.828125 13.972656 -27.640625 13.921875 -27.265625 C 13.878906 -26.898438 13.832031 -26.441406 13.78125 -25.890625 C 13.738281 -25.335938 13.71875 -24.769531 13.71875 -24.1875 C 13.71875 -23.082031 13.703125 -21.820312 13.671875 -20.40625 C 13.648438 -18.988281 13.601562 -17.546875 13.53125 -16.078125 C 13.457031 -14.617188 13.351562 -13.234375 13.21875 -11.921875 C 13.09375 -10.617188 12.910156 -9.515625 12.671875 -8.609375 C 11.566406 -4.429688 9.421875 -0.898438 6.234375 1.984375 Z M 21.3125 2.15625 L 17.671875 -0.828125 C 17.765625 -1.210938 17.84375 -1.664062 17.90625 -2.1875 C 17.96875 -2.71875 18 -3.257812 18 -3.8125 L 18 -24.484375 C 18 -25.367188 17.941406 -26.144531 17.828125 -26.8125 C 17.722656 -27.488281 17.671875 -27.828125 17.671875 -27.828125 L 24.15625 -27.828125 C 24.15625 -27.828125 24.109375 -27.484375 24.015625 -26.796875 C 23.921875 -26.117188 23.875 -25.332031 23.875 -24.4375 L 23.875 -6.734375 C 25.21875 -7.285156 26.609375 -8.171875 28.046875 -9.390625 C 29.484375 -10.617188 30.753906 -12.023438 31.859375 -13.609375 L 35.203125 -8.78125 C 34.242188 -7.5625 33.0625 -6.328125 31.65625 -5.078125 C 30.257812 -3.828125 28.8125 -2.679688 27.3125 -1.640625 C 25.8125 -0.597656 24.390625 0.269531 23.046875 0.96875 C 22.628906 1.1875 22.300781 1.390625 22.0625 1.578125 C 21.820312 1.773438 21.570312 1.96875 21.3125 2.15625 Z M 21.3125 2.15625 "/></g></g></g><g fill="#ffffff" fill-opacity="1"><g transform="translate(787.754512, 58.262412)"><g><path d="M 31.9375 1.078125 L 25.59375 1.078125 L 25.625 -0.71875 L 9.828125 -0.71875 C 9.148438 -0.71875 8.320312 -0.691406 7.34375 -0.640625 C 6.363281 -0.597656 5.546875 -0.539062 4.890625 -0.46875 L 4.890625 -6.703125 C 5.585938 -6.648438 6.34375 -6.597656 7.15625 -6.546875 C 7.976562 -6.503906 8.804688 -6.484375 9.640625 -6.484375 L 25.671875 -6.484375 L 25.671875 -20.15625 L 10.078125 -20.15625 C 9.265625 -20.15625 8.40625 -20.144531 7.5 -20.125 C 6.601562 -20.101562 5.878906 -20.066406 5.328125 -20.015625 L 5.328125 -26.0625 C 6.046875 -25.988281 6.851562 -25.925781 7.75 -25.875 C 8.65625 -25.832031 9.429688 -25.8125 10.078125 -25.8125 L 28.4375 -25.8125 C 29.007812 -25.8125 29.65625 -25.820312 30.375 -25.84375 C 31.101562 -25.875 31.597656 -25.898438 31.859375 -25.921875 C 31.835938 -25.484375 31.8125 -24.914062 31.78125 -24.21875 C 31.757812 -23.53125 31.75 -22.882812 31.75 -22.28125 L 31.75 -3.59375 C 31.75 -3 31.765625 -2.242188 31.796875 -1.328125 C 31.835938 -0.421875 31.882812 0.378906 31.9375 1.078125 Z M 31.9375 1.078125 "/></g></g></g><g fill="#ffffff" fill-opacity="1"><g transform="translate(823.754601, 58.262412)"><g><path d="M 8.96875 -27.9375 C 9.59375 -27.5 10.320312 -26.960938 11.15625 -26.328125 C 12 -25.691406 12.867188 -25.007812 13.765625 -24.28125 C 14.671875 -23.550781 15.523438 -22.832031 16.328125 -22.125 C 17.128906 -21.414062 17.796875 -20.773438 18.328125 -20.203125 L 13.859375 -15.625 C 13.378906 -16.15625 12.765625 -16.773438 12.015625 -17.484375 C 11.273438 -18.191406 10.472656 -18.921875 9.609375 -19.671875 C 8.742188 -20.429688 7.890625 -21.144531 7.046875 -21.8125 C 6.210938 -22.488281 5.472656 -23.054688 4.828125 -23.515625 Z M 3.640625 -4.03125 C 6.273438 -4.394531 8.738281 -4.957031 11.03125 -5.71875 C 13.320312 -6.488281 15.34375 -7.390625 17.09375 -8.421875 C 19.257812 -9.671875 21.226562 -11.09375 23 -12.6875 C 24.78125 -14.28125 26.332031 -15.945312 27.65625 -17.6875 C 28.988281 -19.425781 30.054688 -21.140625 30.859375 -22.828125 L 34.234375 -16.671875 C 32.796875 -14.128906 30.851562 -11.660156 28.40625 -9.265625 C 25.957031 -6.878906 23.234375 -4.800781 20.234375 -3.03125 C 18.410156 -1.945312 16.375 -0.972656 14.125 -0.109375 C 11.882812 0.753906 9.625 1.367188 7.34375 1.734375 Z M 3.640625 -4.03125 "/></g></g><g transform="translate(859.754599, 58.262412)"><g><path d="M 25.5625 -22.71875 L 11.15625 -22.71875 C 10.53125 -22.71875 9.828125 -22.703125 9.046875 -22.671875 C 8.273438 -22.648438 7.585938 -22.617188 6.984375 -22.578125 L 6.984375 -28.15625 C 7.609375 -28.0625 8.3125 -27.988281 9.09375 -27.9375 C 9.875 -27.882812 10.5625 -27.859375 11.15625 -27.859375 L 25.5625 -27.859375 C 26.925781 -27.859375 28.316406 -27.957031 29.734375 -28.15625 L 29.734375 -22.578125 C 29.066406 -22.617188 28.378906 -22.648438 27.671875 -22.671875 C 26.960938 -22.703125 26.257812 -22.71875 25.5625 -22.71875 Z M 6.484375 -18.609375 L 30.0625 -18.609375 C 30.445312 -18.609375 31.007812 -18.625 31.75 -18.65625 C 32.5 -18.695312 33.125 -18.765625 33.625 -18.859375 L 33.625 -13.21875 C 33.144531 -13.257812 32.566406 -13.285156 31.890625 -13.296875 C 31.222656 -13.304688 30.613281 -13.3125 30.0625 -13.3125 L 22 -13.3125 C 21.875 -11.519531 21.601562 -9.894531 21.1875 -8.4375 C 20.769531 -6.988281 20.25 -5.648438 19.625 -4.421875 C 19.21875 -3.585938 18.644531 -2.722656 17.90625 -1.828125 C 17.175781 -0.941406 16.335938 -0.101562 15.390625 0.6875 C 14.441406 1.476562 13.414062 2.148438 12.3125 2.703125 L 7.203125 -0.96875 C 8.398438 -1.425781 9.578125 -2.113281 10.734375 -3.03125 C 11.898438 -3.957031 12.847656 -4.925781 13.578125 -5.9375 C 14.265625 -7 14.796875 -8.144531 15.171875 -9.375 C 15.546875 -10.613281 15.78125 -11.925781 15.875 -13.3125 L 6.484375 -13.3125 C 5.953125 -13.3125 5.335938 -13.300781 4.640625 -13.28125 C 3.941406 -13.257812 3.34375 -13.222656 2.84375 -13.171875 L 2.84375 -18.859375 C 3.394531 -18.785156 4 -18.722656 4.65625 -18.671875 C 5.320312 -18.628906 5.929688 -18.609375 6.484375 -18.609375 Z M 6.484375 -18.609375 "/></g></g></g><g fill="#ffffff" fill-opacity="1"><g transform="translate(895.754689, 58.262412)"><g><path d="M 8.96875 -27.9375 C 9.59375 -27.5 10.320312 -26.960938 11.15625 -26.328125 C 12 -25.691406 12.867188 -25.007812 13.765625 -24.28125 C 14.671875 -23.550781 15.523438 -22.832031 16.328125 -22.125 C 17.128906 -21.414062 17.796875 -20.773438 18.328125 -20.203125 L 13.859375 -15.625 C 13.378906 -16.15625 12.765625 -16.773438 12.015625 -17.484375 C 11.273438 -18.191406 10.472656 -18.921875 9.609375 -19.671875 C 8.742188 -20.429688 7.890625 -21.144531 7.046875 -21.8125 C 6.210938 -22.488281 5.472656 -23.054688 4.828125 -23.515625 Z M 3.640625 -4.03125 C 6.273438 -4.394531 8.738281 -4.957031 11.03125 -5.71875 C 13.320312 -6.488281 15.34375 -7.390625 17.09375 -8.421875 C 19.257812 -9.671875 21.226562 -11.09375 23 -12.6875 C 24.78125 -14.28125 26.332031 -15.945312 27.65625 -17.6875 C 28.988281 -19.425781 30.054688 -21.140625 30.859375 -22.828125 L 34.234375 -16.671875 C 32.796875 -14.128906 30.851562 -11.660156 28.40625 -9.265625 C 25.957031 -6.878906 23.234375 -4.800781 20.234375 -3.03125 C 18.410156 -1.945312 16.375 -0.972656 14.125 -0.109375 C 11.882812 0.753906 9.625 1.367188 7.34375 1.734375 Z M 3.640625 -4.03125 "/></g></g></g><g fill="#ffffff" fill-opacity="1"><g transform="translate(931.754779, 58.262412)"><g><path d="M 17.390625 -28.625 C 17.628906 -28.164062 17.925781 -27.519531 18.28125 -26.6875 C 18.644531 -25.863281 19.019531 -24.960938 19.40625 -23.984375 C 19.789062 -23.015625 20.148438 -22.070312 20.484375 -21.15625 C 20.816406 -20.25 21.082031 -19.484375 21.28125 -18.859375 L 15.765625 -16.921875 C 15.597656 -17.515625 15.351562 -18.25 15.03125 -19.125 C 14.707031 -20.007812 14.363281 -20.925781 14 -21.875 C 13.644531 -22.820312 13.28125 -23.734375 12.90625 -24.609375 C 12.53125 -25.484375 12.203125 -26.21875 11.921875 -26.8125 Z M 27.546875 -27.25 L 34.0625 -25.421875 C 33.820312 -24.890625 33.609375 -24.332031 33.421875 -23.75 C 33.242188 -23.175781 33.09375 -22.648438 32.96875 -22.171875 C 32.664062 -20.972656 32.222656 -19.5625 31.640625 -17.9375 C 31.066406 -16.320312 30.382812 -14.691406 29.59375 -13.046875 C 28.800781 -11.398438 27.910156 -9.921875 26.921875 -8.609375 C 25.023438 -6.085938 22.828125 -3.929688 20.328125 -2.140625 C 17.835938 -0.347656 15.3125 1.046875 12.75 2.046875 L 7.84375 -2.875 C 9.457031 -3.332031 11.117188 -3.972656 12.828125 -4.796875 C 14.546875 -5.628906 16.210938 -6.648438 17.828125 -7.859375 C 19.453125 -9.078125 20.878906 -10.453125 22.109375 -11.984375 C 22.847656 -12.921875 23.523438 -14.015625 24.140625 -15.265625 C 24.753906 -16.515625 25.285156 -17.832031 25.734375 -19.21875 C 26.191406 -20.613281 26.578125 -22 26.890625 -23.375 C 27.203125 -24.757812 27.421875 -26.050781 27.546875 -27.25 Z M 7.375 -26.359375 C 7.664062 -25.753906 8.015625 -25 8.421875 -24.09375 C 8.828125 -23.195312 9.234375 -22.25 9.640625 -21.25 C 10.054688 -20.257812 10.4375 -19.3125 10.78125 -18.40625 C 11.125 -17.507812 11.40625 -16.75 11.625 -16.125 L 6.015625 -14.078125 C 5.816406 -14.671875 5.535156 -15.4375 5.171875 -16.375 C 4.816406 -17.3125 4.4375 -18.296875 4.03125 -19.328125 C 3.625 -20.359375 3.222656 -21.328125 2.828125 -22.234375 C 2.429688 -23.148438 2.085938 -23.875 1.796875 -24.40625 Z M 7.375 -26.359375 "/></g></g></g><g fill="#ffffff" fill-opacity="1"><g transform="translate(967.754869, 58.262412)"><g><path d="M 10.546875 -14.46875 L 10.546875 -13.46875 L 16.484375 -13.46875 L 16.484375 -14.46875 Z M 16.484375 -22.109375 L 16.484375 -23.078125 L 10.546875 -23.078125 L 10.546875 -22.109375 Z M 16.484375 -17.78125 L 16.484375 -18.796875 L 10.546875 -18.796875 L 10.546875 -17.78125 Z M 34.375 -4.46875 L 24.953125 -4.46875 C 26.460938 -3.71875 28.125 -3.039062 29.9375 -2.4375 C 31.75 -1.84375 33.53125 -1.367188 35.28125 -1.015625 C 34.914062 -0.671875 34.53125 -0.253906 34.125 0.234375 C 33.71875 0.722656 33.328125 1.234375 32.953125 1.765625 C 32.585938 2.296875 32.285156 2.765625 32.046875 3.171875 C 30.078125 2.617188 28.085938 1.878906 26.078125 0.953125 C 24.078125 0.0234375 22.222656 -1.007812 20.515625 -2.15625 L 20.515625 3.390625 L 15.296875 3.390625 L 15.296875 -1.984375 C 13.566406 -0.828125 11.675781 0.195312 9.625 1.09375 C 7.570312 2 5.550781 2.726562 3.5625 3.28125 C 3.175781 2.65625 2.664062 1.914062 2.03125 1.0625 C 1.394531 0.207031 0.800781 -0.484375 0.25 -1.015625 C 2.125 -1.367188 4.015625 -1.84375 5.921875 -2.4375 C 7.828125 -3.039062 9.570312 -3.71875 11.15625 -4.46875 L 1.625 -4.46875 L 1.625 -8.5625 L 15.296875 -8.5625 L 15.296875 -9.578125 L 5.609375 -9.578125 L 5.609375 -19.015625 C 5.398438 -18.835938 5.179688 -18.65625 4.953125 -18.46875 C 4.722656 -18.28125 4.488281 -18.085938 4.25 -17.890625 C 3.988281 -18.273438 3.640625 -18.695312 3.203125 -19.15625 C 2.773438 -19.613281 2.328125 -20.050781 1.859375 -20.46875 C 1.390625 -20.882812 0.960938 -21.210938 0.578125 -21.453125 C 2.585938 -22.828125 4.316406 -24.351562 5.765625 -26.03125 C 7.222656 -27.707031 8.375 -29.316406 9.21875 -30.859375 L 14.578125 -29.765625 C 14.046875 -28.878906 13.472656 -27.984375 12.859375 -27.078125 L 16.890625 -27.078125 C 17.171875 -27.703125 17.4375 -28.335938 17.6875 -28.984375 C 17.945312 -29.628906 18.160156 -30.226562 18.328125 -30.78125 L 24.234375 -30.09375 C 23.941406 -29.5625 23.644531 -29.046875 23.34375 -28.546875 C 23.039062 -28.046875 22.734375 -27.554688 22.421875 -27.078125 L 32.578125 -27.078125 L 32.578125 -23.078125 L 21.484375 -23.078125 L 21.484375 -22.109375 L 30.59375 -22.109375 L 30.59375 -18.796875 L 21.484375 -18.796875 L 21.484375 -17.78125 L 30.59375 -17.78125 L 30.59375 -14.46875 L 21.484375 -14.46875 L 21.484375 -13.46875 L 33.40625 -13.46875 L 33.40625 -9.578125 L 20.515625 -9.578125 L 20.515625 -8.5625 L 34.375 -8.5625 Z M 34.375 -4.46875 "/></g></g></g></svg>